<svg xmlns="http://www.w3.org/2000/svg" id="Layer_1" data-name="Layer 1" viewBox="0 0 32 32"><defs><style>.cls-1{fill:#ff7e7e}</style></defs><title>Calories</title><path fill="#ff7e7e" d="M10.69,10H7.62L6.22,29A2.8,2.8,0,0,0,9,32H9a2.8,2.8,0,0,0,2.79-3Z" class="cls-1"/><path fill="#ff7e7e" d="M12,0l-.44,8H10.47L10,0H8L7.56,8H6.47L6,0H4V8a4,4,0,0,0,4,4h2a4,4,0,0,0,4-4V0Z" class="cls-1"/><path fill="#ff7e7e" d="M26,0H25a6,6,0,0,0-6,6v6a2,2,0,0,0,2,2h3V30a2,2,0,0,0,2,2h0a2,2,0,0,0,2-2V2A2,2,0,0,0,26,0Z" class="cls-1"/></svg>