<?xml version="1.0" encoding="UTF-8"?>
<svg width="234px" height="180px" viewBox="0 0 234 180" version="1.1" xmlns="http://www.w3.org/2000/svg" xmlns:xlink="http://www.w3.org/1999/xlink">
    <!-- Generator: Sketch 55.1 (78136) - https://sketchapp.com -->
    <title>undraw_add_to_cart_vkjp (3)</title>
    <desc>Created with Sketch.</desc>
    <defs>
        <linearGradient x1="49.9994744%" y1="100%" x2="49.9994744%" y2="0%" id="linearGradient-1">
            <stop stop-color="#808080" stop-opacity="0.25" offset="0%"></stop>
            <stop stop-color="#808080" stop-opacity="0.12" offset="54%"></stop>
            <stop stop-color="#808080" stop-opacity="0.1" offset="100%"></stop>
        </linearGradient>
        <linearGradient x1="50.0143552%" y1="99.9984335%" x2="50.0143552%" y2="-0.00903255555%" id="linearGradient-2">
            <stop stop-color="#808080" stop-opacity="0.25" offset="0%"></stop>
            <stop stop-color="#808080" stop-opacity="0.12" offset="54%"></stop>
            <stop stop-color="#808080" stop-opacity="0.1" offset="100%"></stop>
        </linearGradient>
    </defs>
    <g id="Designs" stroke="none" stroke-width="1" fill="none" fill-rule="evenodd">
        <g id="Onboarding-Page-Gradient" transform="translate(-71.000000, -157.000000)">
            <g id="undraw_add_to_cart_vkjp-(3)" transform="translate(71.000000, 157.000000)">
                <path d="M228.167807,122.320373 C227.958317,122.473341 227.765586,122.622119 227.560286,122.766705 C226.802806,123.302564 226.009807,123.786332 225.186768,124.214668 C220.87547,126.488242 215.560716,127.598836 210.384226,128.353201 C198.774306,130.046333 186.921379,130.37532 175.118729,130.698021 C143.228111,131.573923 111.259982,132.44773 79.4468756,130.429802 C66.8774933,129.633527 54.0315846,128.300815 42.6416294,124.214668 C41.0090063,123.630733 39.4085049,122.986729 37.8401253,122.282654 C34.6663563,120.855646 31.6182811,119.11851 29.0834557,117.044005 C26.7015577,115.099418 24.7700627,112.865658 23.6157744,110.32596 C21.2087377,105.03702 22.4824351,99.0963912 25.23094,93.9122235 C26.37245,91.8149521 27.6597882,89.8004513 29.0834557,87.8835856 C31.2055864,84.96461 33.5455864,82.1294529 35.6802865,79.2125728 C43.2763832,68.8442375 48.2329096,55.7266589 41.2212892,45.0922002 C39.2059982,42.0370198 36.2940913,39.3548312 34.651692,36.1655413 C32.556795,32.085681 32.7181021,27.5552969 33.3842793,23.1548312 C33.4708684,22.5960419 33.5623456,22.0428405 33.6587108,21.495227 C34.7962399,14.9699651 36.9372247,7.93969732 43.5382453,3.8661234 C50.3948433,-0.366705471 60.1319248,-0.152968568 68.6413966,1.35157159 C81.8748612,3.71525029 94.0818263,8.63538999 106.418675,13.0777648 C118.755524,17.5201397 131.662184,21.5790454 145.220358,22.014901 C157.192695,22.4004657 171.157278,19.5150175 179.103223,12.0153667 C186.820824,4.73154831 201.327986,4.17625146 211.783617,8.57671711 C218.960734,11.5962747 224.315291,17.0360885 226.57359,23.1548312 C227.030965,24.38326 227.360216,25.6556748 227.556097,26.9518044 C227.737107,28.1363501 227.796073,29.3363535 227.732068,30.5329453 C227.700645,31.123865 227.639893,31.7084983 227.556097,32.2868452 C225.808953,44.3608847 213.233286,53.8847497 205.589006,64.6700815 C201.853805,69.9380675 199.216329,76.2663562 201.784673,81.9471478 C205.702131,90.6034924 219.325246,93.6817229 227.551907,100.123166 C229.100039,101.295498 230.463013,102.694158 231.595058,104.272177 C235.585837,110.005355 234.113124,117.748079 228.167807,122.320373 Z" id="Path" fill="#FFFFFF" fill-rule="nonzero" opacity="0.1"></path>
                <g id="d00831fc-a64a-413c-b5dd-d7bd6eafa01d">
                    <path d="M54.0462489,68.2826542 C54.0462489,68.2826542 44.4097225,51.2004657 29.8878962,46.280326 C23.7938406,44.2142026 18.474897,40.32922 14.8381558,35.0193248 C13.1164424,32.4982862 11.6298068,29.8244289 10.396974,27.0314319" id="Path" stroke="#535461" stroke-width="2"></path>
                    <path d="M1.26531782,23.869383 C2.92028648,25.4682189 10.6253178,27.1445867 10.6253178,27.1445867 C10.6253178,27.1445867 8.73991047,19.4919674 7.08075201,17.8847497 C5.42104345,16.3126789 2.80609073,16.3678095 1.21407846,18.0084357 C-0.377933814,19.6490618 -0.355094893,22.2651983 1.26531782,23.8777648 L1.26531782,23.869383 Z" id="Path" fill="#A856D9" fill-rule="nonzero"></path>
                    <path d="M5.62479857,37.7182771 C7.88519248,38.1667055 15.261325,35.3734575 15.261325,35.3734575 C15.261325,35.3734575 9.51083259,29.975553 7.24834378,29.5271246 C5.01174467,29.1331823 2.87053526,30.5996726 2.42888046,32.8279209 C1.98722566,35.0561692 3.40712026,37.2288751 5.62479857,37.7182771 L5.62479857,37.7182771 Z" id="Path" fill="#A856D9" fill-rule="nonzero"></path>
                    <path d="M21.4936437,52.7091967 C23.6723366,51.9548312 28.6162936,45.8214203 28.6162936,45.8214203 C28.6162936,45.8214203 20.9322113,44.0633295 18.7556132,44.817695 C17.3014878,45.2695557 16.2086019,46.4774261 15.9036978,47.9696656 C15.5987937,49.4619052 16.1302289,51.0018458 17.2904925,51.9881825 C18.4507561,52.9745193 20.0558311,53.25082 21.4789794,52.7091967 L21.4936437,52.7091967 Z" id="Path" fill="#A856D9" fill-rule="nonzero"></path>
                    <path d="M36.0531782,61.3403958 C38.3282363,60.963213 44.2442256,55.7559953 44.2442256,55.7559953 C44.2442256,55.7559953 36.9686482,52.723865 34.69359,53.0989523 C32.4183895,53.4744931 30.8783292,55.623839 31.2537691,57.8996507 C31.629209,60.1754625 33.7779776,61.7159365 36.0531782,61.3403958 L36.0531782,61.3403958 Z" id="Path" fill="#A856D9" fill-rule="nonzero"></path>
                    <path d="M21.6800895,29.3930151 C21.6800895,31.698021 17.5112444,38.3888242 17.5112444,38.3888242 C17.5112444,38.3888242 13.3340197,31.7022119 13.3319248,29.3972061 C13.2980151,27.8832512 14.086091,26.4695552 15.3915025,25.7026167 C16.696914,24.9356782 18.3151003,24.9356782 19.6205118,25.7026167 C20.9259234,26.4695552 21.7139993,27.8832512 21.6800895,29.3972061 L21.6800895,29.3930151 Z" id="Path" fill="#A856D9" fill-rule="nonzero"></path>
                    <path d="M38.5817189,39.7173458 C37.8924978,41.9175786 31.9115667,47.0514552 31.9115667,47.0514552 C31.9115667,47.0514552 29.9256043,39.4135041 30.6064458,37.2027939 C31.366703,35.0998296 33.6481176,33.9690756 35.7814287,34.6378798 C37.9147397,35.306684 39.1427955,37.5376754 38.5670546,39.6984866 L38.5817189,39.7173458 Z" id="Path" fill="#A856D9" fill-rule="nonzero"></path>
                    <path d="M53.6314593,51.9862631 C53.3256043,54.2724098 48.2978514,60.3429569 48.2978514,60.3429569 C48.2978514,60.3429569 45.050761,53.1597206 45.3649955,50.8735739 C45.7035082,48.6173276 47.7895836,47.0503893 50.050149,47.3543596 C52.3107144,47.6583299 53.9090321,49.7206956 53.6398389,51.9862631 L53.6314593,51.9862631 Z" id="Path" fill="#A856D9" fill-rule="nonzero"></path>
                    <path d="M1.26531782,23.869383 C2.92028648,25.4682189 10.6253178,27.1445867 10.6253178,27.1445867 C10.6253178,27.1445867 8.73991047,19.4919674 7.08075201,17.8847497 C5.42104345,16.3126789 2.80609073,16.3678095 1.21407846,18.0084357 C-0.377933814,19.6490618 -0.355094893,22.2651983 1.26531782,23.8777648 L1.26531782,23.869383 Z" id="Path" fill="#000000" fill-rule="nonzero" opacity="0.25"></path>
                    <path d="M5.62479857,37.7182771 C7.88519248,38.1667055 15.261325,35.3734575 15.261325,35.3734575 C15.261325,35.3734575 9.51083259,29.975553 7.24834378,29.5271246 C5.01174467,29.1331823 2.87053526,30.5996726 2.42888046,32.8279209 C1.98722566,35.0561692 3.40712026,37.2288751 5.62479857,37.7182771 L5.62479857,37.7182771 Z" id="Path" fill="#000000" fill-rule="nonzero" opacity="0.25"></path>
                    <path d="M21.4936437,52.7091967 C23.6723366,51.9548312 28.6162936,45.8214203 28.6162936,45.8214203 C28.6162936,45.8214203 20.9322113,44.0633295 18.7556132,44.817695 C17.3014878,45.2695557 16.2086019,46.4774261 15.9036978,47.9696656 C15.5987937,49.4619052 16.1302289,51.0018458 17.2904925,51.9881825 C18.4507561,52.9745193 20.0558311,53.25082 21.4789794,52.7091967 L21.4936437,52.7091967 Z" id="Path" fill="#000000" fill-rule="nonzero" opacity="0.25"></path>
                    <path d="M36.0531782,61.3403958 C38.3282363,60.963213 44.2442256,55.7559953 44.2442256,55.7559953 C44.2442256,55.7559953 36.9686482,52.723865 34.69359,53.0989523 C32.4183895,53.4744931 30.8783292,55.623839 31.2537691,57.8996507 C31.629209,60.1754625 33.7779776,61.7159365 36.0531782,61.3403958 L36.0531782,61.3403958 Z" id="Path" fill="#000000" fill-rule="nonzero" opacity="0.25"></path>
                    <path d="M21.6800895,29.3930151 C21.6800895,31.698021 17.5112444,38.3888242 17.5112444,38.3888242 C17.5112444,38.3888242 13.3340197,31.7022119 13.3319248,29.3972061 C13.2980151,27.8832512 14.086091,26.4695552 15.3915025,25.7026167 C16.696914,24.9356782 18.3151003,24.9356782 19.6205118,25.7026167 C20.9259234,26.4695552 21.7139993,27.8832512 21.6800895,29.3972061 L21.6800895,29.3930151 Z" id="Path" fill="#000000" fill-rule="nonzero" opacity="0.25"></path>
                    <path d="M38.5817189,39.7173458 C37.8924978,41.9175786 31.9115667,47.0514552 31.9115667,47.0514552 C31.9115667,47.0514552 29.9256043,39.4135041 30.6064458,37.2027939 C31.366703,35.0998296 33.6481176,33.9690756 35.7814287,34.6378798 C37.9147397,35.306684 39.1427955,37.5376754 38.5670546,39.6984866 L38.5817189,39.7173458 Z" id="Path" fill="#000000" fill-rule="nonzero" opacity="0.25"></path>
                    <path d="M53.6314593,51.9862631 C53.3256043,54.2724098 48.2978514,60.3429569 48.2978514,60.3429569 C48.2978514,60.3429569 45.050761,53.1597206 45.3649955,50.8735739 C45.7035082,48.6173276 47.7895836,47.0503893 50.050149,47.3543596 C52.3107144,47.6583299 53.9090321,49.7206956 53.6398389,51.9862631 L53.6314593,51.9862631 Z" id="Path" fill="#000000" fill-rule="nonzero" opacity="0.25"></path>
                    <path d="M53.4911012,67.9431898 C53.4911012,67.9431898 51.6056938,48.417695 40.3183885,38.032596 C35.5860161,33.6740396 32.2970278,27.9743888 31.1217905,21.6377183 C30.5701407,18.6343182 30.2952544,15.5866094 30.3005146,12.5329453" id="Path" stroke="#535461" stroke-width="2"></path>
                    <path d="M23.2303133,5.94691502 C24.0934109,8.08637951 30.4639928,12.7278231 30.4639928,12.7278231 C30.4639928,12.7278231 31.8361504,4.96414435 30.9751477,2.82467986 C30.1131978,0.683692463 27.6793023,-0.352984596 25.5388899,0.509196822 C23.3984775,1.37137824 22.3620788,3.80592758 23.2240286,5.94691502 L23.2303133,5.94691502 Z" id="Path" fill="#A856D9" fill-rule="nonzero"></path>
                    <path d="M21.5983885,20.374156 C23.4837959,21.7005821 31.3543241,22.1343423 31.3543241,22.1343423 C31.3543241,22.1343423 28.3020591,14.8714785 26.4166517,13.5450524 C24.5313533,12.2141683 21.9244121,12.6640205 20.5938854,14.5498254 C19.2633588,16.4356303 19.7130901,19.0432719 21.5983885,20.374156 Z" id="Path" fill="#A856D9" fill-rule="nonzero"></path>
                    <path d="M30.0429185,40.5073341 C32.3473053,40.7022119 39.352641,37.1001164 39.352641,37.1001164 C39.352641,37.1001164 33.0407162,32.3790454 30.7426141,32.1862631 C29.2374354,32.0259648 27.7634124,32.6931109 26.890206,33.9298716 C26.0169995,35.1666322 25.8813974,36.779269 26.5358053,38.1445515 C27.1902132,39.509834 28.5321181,40.4138908 30.0429185,40.5073341 L30.0429185,40.5073341 Z" id="Path" fill="#A856D9" fill-rule="nonzero"></path>
                    <path d="M39.8554163,54.3038417 C42.0885765,54.8821886 49.607162,52.5185099 49.607162,52.5185099 C49.607162,52.5185099 44.1834736,46.7979045 41.9524082,46.2195576 C39.7365812,45.6825875 37.4998302,47.0229425 36.9277737,49.2305295 C36.3557172,51.4381165 37.6599102,53.6965366 39.8575112,54.3038417 L39.8554163,54.3038417 Z" id="Path" fill="#D54381" fill-rule="nonzero"></path>
                    <path d="M39.6564011,19.2719441 C38.7241719,21.3799767 32.2006625,25.8034924 32.2006625,25.8034924 C32.2006625,25.8034924 31.0903671,18 32.0225962,15.8898719 C32.6102214,14.5003618 33.9014022,13.5359048 35.4002241,13.3669279 C36.899046,13.197951 38.3724555,13.8507287 39.2545481,15.0745432 C40.1366407,16.2983577 40.2902588,17.9029168 39.6564011,19.2719441 L39.6564011,19.2719441 Z" id="Path" fill="#A856D9" fill-rule="nonzero"></path>
                    <path d="M50.9269472,35.5494761 C49.4060519,37.2824214 41.8581379,39.5518044 41.8581379,39.5518044 C41.8581379,39.5518044 43.1318353,31.7734575 44.6548254,30.0405122 C45.6386427,28.9198045 47.1454573,28.4092292 48.6076666,28.7011151 C50.0698759,28.9930009 51.2653356,30.0430036 51.7437275,31.4555971 C52.2221195,32.8681906 51.9107646,34.4287685 50.9269472,35.5494761 L50.9269472,35.5494761 Z" id="Path" fill="#D54381" fill-rule="nonzero"></path>
                    <path d="M59.7255148,52.8768335 C58.5188541,54.8423749 51.4632408,58.3543655 51.4632408,58.3543655 C51.4632408,58.3543655 51.4045837,50.4712456 52.6112444,48.5057043 C53.8179742,46.5383104 56.3906815,45.9219332 58.357547,47.1289872 C60.3244125,48.3360412 60.9406242,50.9094397 59.7338944,52.8768335 L59.7255148,52.8768335 Z" id="Path" fill="#D54381" fill-rule="nonzero"></path>
                </g>
                <ellipse id="Oval" fill="#FFFFFF" fill-rule="nonzero" opacity="0.1" cx="85.5053178" cy="175.637253" rx="23.3643868" ry="3.04260768"></ellipse>
                <g id="5cfdbbb0-8197-4f02-a5fd-2740d54b5dec" transform="translate(30.585497, 161.769499)" fill-rule="nonzero">
                    <ellipse id="Oval" fill="#FFFFFF" opacity="0.1" cx="7.7259803" cy="13.6330617" rx="7.09751119" ry="1.21536671"></ellipse>
                    <path d="M9.26782453,0.100582072 C9.26782453,0.100582072 10.417923,1.60721769 8.73572068,3.87240978 C7.05351835,6.13760186 5.66669651,8.06332945 6.22184423,9.48195576 C6.22184423,9.48195576 8.75876455,5.25960419 10.8306177,5.20093132 C12.9024709,5.14225844 11.5428827,2.64027939 9.26782453,0.100582072 Z" id="Path" fill="#FFFFFF"></path>
                    <path d="M9.26782453,0.100582072 C9.36828729,0.246395796 9.44730273,0.40588049 9.502453,0.574155995 C11.517744,2.94202561 12.5924261,5.15273574 10.6546464,5.20721769 C8.85094002,5.25960419 6.68481647,8.48661234 6.1673769,9.30174622 C6.18446457,9.36489828 6.20474126,9.42714344 6.22812892,9.48824214 C6.22812892,9.48824214 8.76504924,5.26589057 10.8369024,5.20721769 C12.9087556,5.14854482 11.5428827,2.64027939 9.26782453,0.100582072 Z" id="Path" fill="#000000" opacity="0.1"></path>
                    <path d="M11.4067144,2.02002328 C11.4067144,2.55017462 11.3480573,2.97974389 11.2747359,2.97974389 C11.2014145,2.97974389 11.1406625,2.56065192 11.1406625,2.02002328 C11.1406625,1.47939464 11.2160788,1.73923166 11.2894002,1.73923166 C11.3627216,1.73923166 11.4067144,1.48987194 11.4067144,2.02002328 Z" id="Path" fill="#FFD037"></path>
                    <path d="M12.1420233,2.65285215 C11.6769561,2.90640279 11.2705461,3.05937136 11.2349329,2.99441211 C11.1993196,2.92945285 11.5491674,2.67171129 12.0142346,2.41816065 C12.4793017,2.16461001 12.2949508,2.34901048 12.330564,2.41816065 C12.3661773,2.48731083 12.6070904,2.39930151 12.1420233,2.65285215 Z" id="Path" fill="#FFD037"></path>
                    <path d="M3.1884333,0.100582072 C3.1884333,0.100582072 2.03833483,1.60721769 3.72053715,3.87240978 C5.40273948,6.13760186 6.78956132,8.06332945 6.23441361,9.48195576 C6.23441361,9.48195576 3.69749329,5.25960419 1.62564011,5.20093132 C-0.446213071,5.14225844 0.917564906,2.64027939 3.1884333,0.100582072 Z" id="Path" fill="#FFFFFF"></path>
                    <path d="M3.1884333,0.100582072 C3.08797054,0.246395796 3.00895511,0.40588049 2.95380483,0.574155995 C0.938513876,2.94202561 -0.136168308,5.15273574 1.80161146,5.20721769 C3.60741271,5.25960419 5.77144136,8.48661234 6.28888093,9.30174622 C6.27274772,9.36517888 6.25245308,9.42747916 6.22812892,9.48824214 C6.22812892,9.48824214 3.69120859,5.26589057 1.61935542,5.20721769 C-0.452497762,5.14854482 0.917564906,2.64027939 3.1884333,0.100582072 Z" id="Path" fill="#000000" opacity="0.1"></path>
                    <path d="M1.04954342,2.02002328 C1.04954342,2.55017462 1.10820054,2.97974389 1.18152193,2.97974389 C1.25484333,2.97974389 1.31559534,2.56065192 1.31559534,2.02002328 C1.31559534,1.47939464 1.24017905,1.73923166 1.16685765,1.73923166 C1.09353626,1.73923166 1.04954342,1.48987194 1.04954342,2.02002328 Z" id="Path" fill="#FFD037"></path>
                    <path d="M0.316329454,2.65285215 C0.781396598,2.90640279 1.18571173,3.05937136 1.22132498,2.99441211 C1.25693823,2.92945285 0.907090421,2.67171129 0.442023277,2.41816065 C-0.0230438675,2.16461001 0.161307073,2.34901048 0.125693823,2.41816065 C0.090080573,2.48731083 -0.14873769,2.39930151 0.316329454,2.65285215 Z" id="Path" fill="#FFD037"></path>
                    <path d="M1.4161504,9.29126892 C1.4161504,9.29126892 4.63391226,9.19068685 5.60594449,8.50128056 C6.57797672,7.81187427 10.5540913,6.98416764 10.7950045,8.09266589 C11.0359176,9.20116414 15.6300269,13.6016298 11.9974754,13.6309662 C8.3649239,13.6603027 3.55713518,13.0651921 2.58929275,12.4763679 C1.62145031,11.8875437 1.4161504,9.29126892 1.4161504,9.29126892 Z" id="Path" fill="#CECECE"></path>
                    <path d="M12.0603223,13.2454016 C8.42777081,13.2747381 3.61998209,12.6796275 2.65213966,12.0908033 C1.9147359,11.6402794 1.62145031,10.0288708 1.52299015,9.287078 L1.4161504,9.287078 C1.4161504,9.287078 1.62564011,11.8812573 2.58719785,12.4721769 C3.5487556,13.0630966 8.36282901,13.6561118 11.9953805,13.6267753 C13.042829,13.6267753 13.4073411,13.2454016 13.3863921,12.6922002 C13.2418442,13.0316647 12.8417189,13.2391153 12.0603223,13.2454016 Z" id="Path" fill="#000000" opacity="0.2"></path>
                    <path d="M108.871799,9.16763679 C108.871799,9.16763679 100.014575,8.63329453 101.059928,14.842142 C101.059928,14.842142 100.850439,15.9380675 101.845515,16.436787 C101.845515,16.436787 101.862274,15.9778813 102.7547,16.1329453 C103.072253,16.1864417 103.395046,16.2019174 103.716258,16.1790454 C104.151347,16.1503804 104.564984,15.9795804 104.89359,15.6928987 L104.89359,15.6928987 C104.89359,15.6928987 107.382328,14.6661234 108.35017,10.5946449 C108.35017,10.5946449 109.066625,9.70616997 109.039391,9.47776484 L107.543635,10.1064028 C107.543635,10.1064028 108.05479,11.1855646 107.652569,12.0824214 C107.652569,12.0824214 107.604387,10.1462165 107.317386,10.1965076 C107.258729,10.1965076 106.540179,10.5694994 106.540179,10.5694994 C106.540179,10.5694994 107.420036,12.4554133 106.749669,13.8132712 C106.749669,13.8132712 107.001056,11.5082654 106.259463,10.7057043 L105.212014,11.319674 C105.212014,11.319674 106.238514,13.2600698 105.543008,14.8442375 C105.543008,14.8442375 105.721074,12.4155995 104.99205,11.4684517 L104.038872,12.2123399 C104.038872,12.2123399 105.002525,14.1254948 104.413859,15.4393481 C104.413859,15.4393481 104.338442,12.6125728 103.831477,12.3988359 C103.831477,12.3988359 102.993518,13.1343423 102.869919,13.4465658 C102.869919,13.4465658 103.529812,14.8337602 103.121307,15.5671711 C103.121307,15.5671711 102.869919,13.6812573 102.662525,13.6812573 C102.662525,13.6812573 101.824566,14.9385332 101.74496,15.7767171 C101.74496,15.7767171 101.782668,14.504773 102.461415,13.5534342 C101.982273,13.644736 101.540273,13.8741716 101.189812,14.2135041 C101.189812,14.2135041 101.319696,13.3313155 102.65624,13.2537835 C102.65624,13.2537835 103.343366,12.3066356 103.527717,12.2500582 C103.527717,12.2500582 102.186983,12.1369034 101.374163,12.4973225 C101.374163,12.4973225 102.088523,11.6591385 103.77282,12.0426077 L104.713429,11.2756694 C104.713429,11.2756694 102.949526,11.032596 102.199552,11.3008149 C102.199552,11.3008149 103.06265,10.563213 104.966911,11.0912689 L105.993411,10.4793946 C105.993411,10.4793946 104.48718,10.1545984 103.590564,10.2698487 C103.590564,10.2698487 104.537457,9.75855646 106.292981,10.3117579 L107.026195,9.98277066 C107.026195,9.98277066 105.922184,9.77322468 105.59957,9.73341094 C105.276956,9.69359721 105.260197,9.60977881 105.260197,9.60977881 C105.95883,9.49327044 106.676084,9.57306731 107.33205,9.84027939 C107.33205,9.84027939 108.899033,9.2661234 108.871799,9.16763679 Z" id="Path" fill="#FFFFFF"></path>
                    <ellipse id="Oval" fill="#FFFFFF" opacity="0.1" cx="102.771459" cy="16.9774156" rx="6.26793196" ry="1.06030268"></ellipse>
                    <path d="M93.354897,9.49871944 C93.354897,9.49871944 88.3606625,9.19697322 88.9556132,12.6984866 C88.8939962,13.0626357 89.0731152,13.4251956 89.3997314,13.5974389 C89.3997314,13.5974389 89.3997314,13.3376019 89.9129812,13.4256112 C90.0915794,13.4546706 90.2728508,13.4638069 90.4534646,13.4528522 C90.698523,13.4349342 90.9313338,13.3386994 91.117547,13.1783469 L91.117547,13.1783469 C91.117547,13.1783469 92.521128,12.5979045 93.0678962,10.303376 C93.0678962,10.303376 93.4701164,9.80256112 93.4554521,9.67473807 L92.6174933,10.0330617 C92.6174933,10.0330617 92.9044942,10.6428405 92.6782453,11.1478463 C92.6782453,11.1478463 92.6510116,10.0561118 92.4897046,10.0812573 C92.4561862,10.0812573 92.0518711,10.2908033 92.0518711,10.2908033 C92.0518711,10.2908033 92.5462668,11.3385332 92.1733751,12.1201397 C92.1733751,12.1201397 92.3137332,10.8146682 91.8968487,10.3662398 L91.3039928,10.7140861 C91.3039928,10.7140861 91.8821844,11.8079162 91.4904387,12.7005821 C91.4904387,12.7005821 91.5909937,11.3301513 91.178299,10.7979045 L90.6420054,11.2169965 C90.6420054,11.2169965 91.1845837,12.2961583 90.8514951,13.0358556 C90.8514951,13.0358556 90.8075022,11.4412107 90.5225962,11.3217695 C90.3186123,11.4938211 90.1364034,11.6901529 89.9800179,11.9064028 C89.9800179,11.9064028 90.3529096,12.6901048 90.1224709,13.1029104 C90.1224709,13.1029104 89.9800179,12.0405122 89.8647986,12.0363213 C89.8647986,12.0363213 89.3955416,12.7403958 89.347359,13.2223516 C89.3685922,12.7751762 89.5073291,12.3415066 89.7495792,11.9650757 C89.4797023,12.0161494 89.2306567,12.145076 89.0331244,12.3359721 C89.0331244,12.3359721 89.1064458,11.8372526 89.8710833,11.7953434 C89.8710833,11.7953434 90.2565443,11.2610012 90.3612892,11.2295693 C90.3612892,11.2295693 89.6050313,11.16461 89.1462489,11.3678696 C89.1462489,11.3678696 89.550564,10.8984866 90.4995524,11.1122235 L91.0295613,10.6784633 C91.0295613,10.6784633 90.0344852,10.5422584 89.6134109,10.6931315 C89.6134109,10.6931315 90.099427,10.2740396 91.1741092,10.5799767 L91.7502059,10.2363213 C91.3062162,10.1379155 90.8511983,10.0984607 90.3969024,10.1189756 C90.3969024,10.1189756 90.9311012,9.83189756 91.9198926,10.1420256 L92.338872,9.95762515 C92.338872,9.95762515 91.7104029,9.83399302 91.5365264,9.81513388 C91.36265,9.79627474 91.3437959,9.7459837 91.3437959,9.7459837 C91.7379624,9.68040215 92.1425878,9.72537261 92.5127484,9.87590221 C92.5127484,9.87590221 93.3695613,9.55529686 93.354897,9.49871944 Z" id="Path" fill="#FFFFFF"></path>
                    <ellipse id="Oval" fill="#FFFFFF" opacity="0.1" cx="89.9150761" cy="13.903376" rx="3.53409132" ry="1"></ellipse>
                    <path d="M102.859445,2.07869616 C102.859445,2.07869616 96.8324261,1.71408615 97.5425962,5.94062864 C97.4677637,6.38039731 97.684181,6.81842185 98.0788899,7.02607683 C98.0788899,7.02607683 98.0788899,6.71385332 98.6968845,6.81653085 C98.9129336,6.85103522 99.1321306,6.86157637 99.3504924,6.84796275 C99.6465702,6.82675312 99.9279288,6.71065233 100.152838,6.51688009 L100.152838,6.51688009 C100.152838,6.51688009 101.84761,5.81699651 102.505407,3.04470314 C102.505407,3.04470314 102.993518,2.44121071 102.974664,2.28614668 L101.956544,2.71990687 C101.956544,2.71990687 102.304297,3.45541327 102.031961,4.06519208 C102.031961,4.06519208 101.998442,2.74714785 101.801522,2.77857974 C101.763814,2.77857974 101.273608,3.03213038 101.273608,3.03213038 C101.273608,3.03213038 101.872748,4.31245634 101.420251,5.24074505 C101.420251,5.24074505 101.592032,3.66495925 101.087162,3.12433062 L100.370707,3.54342258 C100.370707,3.54342258 101.070403,4.86356228 100.596956,5.9427241 C100.596956,5.9427241 100.71846,4.28940629 100.219875,3.63771828 L99.5704566,4.1427241 C99.5704566,4.1427241 100.228254,5.44400466 99.8281289,6.33876601 C99.8281289,6.33876601 99.7757565,4.41513388 99.4300985,4.26845169 C99.4300985,4.26845169 98.8623814,4.76926659 98.7764906,4.97462165 C98.7764906,4.97462165 99.2268935,5.91967404 98.9461773,6.41839348 C98.9461773,6.41839348 98.7764906,5.13806752 98.6361325,5.13178114 C98.6361325,5.13178114 98.0705103,5.96996508 98.0076634,6.56298021 C98.0346904,6.02485128 98.2022646,5.50320865 98.4936795,5.05005821 C98.1677753,5.11205891 97.8670681,5.26791519 97.628487,5.49848661 C97.628487,5.49848661 97.7164727,4.89708964 98.6340376,4.84470314 C98.6340376,4.84470314 99.1011996,4.20139697 99.2268935,4.16158324 C99.2268935,4.16158324 98.3135184,4.08614668 97.7604655,4.33131548 C97.7604655,4.33131548 98.2464816,3.76344587 99.3944852,4.02118743 L100.035524,3.49941793 C100.035524,3.49941793 98.8330528,3.3338766 98.3239928,3.51618161 C98.3239928,3.51618161 98.910564,3.01536671 100.2094,3.37997672 L100.907001,2.96088475 C100.907001,2.96088475 99.8825962,2.75133877 99.2729812,2.82048894 C99.2729812,2.82048894 99.9161146,2.47264261 101.112301,2.84772992 L101.610886,2.62561118 C101.610886,2.62561118 100.858818,2.47683353 100.638854,2.45378347 C100.41889,2.43073341 100.408415,2.36996508 100.408415,2.36996508 C100.883855,2.29082805 101.371923,2.34523364 101.818281,2.52712456 C101.818281,2.52712456 102.880394,2.14575087 102.859445,2.07869616 Z" id="Path" fill="#FFFFFF"></path>
                    <ellipse id="Oval" fill="#FFFFFF" opacity="0.1" cx="98.7094539" cy="7.39487776" rx="4.26730528" ry="1"></ellipse>
                </g>
                <g id="1cf578eb-5ffb-4cd7-95b8-45aaaddab7e0" transform="translate(28.490600, 20.116414)" fill-rule="nonzero">
                    <path d="M199.455148,102.608382 L199.455148,0.113154831 L0.157117278,0.113154831 L0.157117278,96.7285215 C2.70241719,98.8533178 5.76306177,100.640745 8.95568487,102.109662 C10.5282543,102.834692 12.134342,103.497555 13.7739481,104.098254 L197.07744,104.098254 L199.455148,102.608382 Z" id="Path" fill="url(#linearGradient-1)"></path>
                    <path d="M199.069687,102.650291 L199.069687,3.0467986 L0.592855864,3.0467986 L0.592855864,96.9443539 C3.12768129,99.0104773 6.17575649,100.747614 9.34952551,102.183003 C10.9165085,102.88149 12.5170098,103.525495 14.1510295,104.115017 L196.696168,104.115017 L199.069687,102.650291 Z" id="Path" fill="#FFFFFF"></path>
                    <rect id="Rectangle" fill="#5A5773" x="0.594950761" y="0.404423749" width="198.474736" height="5.26798603"></rect>
                </g>
                <g id="6703b009-63cb-4af0-a0d7-9948e224c180" transform="translate(31.632945, 21.792782)" fill="#FFFFFF" fill-rule="nonzero">
                    <ellipse id="Oval" cx="1.4161504" cy="1.36204889" rx="1.36168308" ry="1.36204889"></ellipse>
                    <ellipse id="Oval" cx="5.08222023" cy="1.36204889" rx="1.36168308" ry="1.36204889"></ellipse>
                    <ellipse id="Oval" cx="8.74829006" cy="1.36204889" rx="1.36168308" ry="1.36204889"></ellipse>
                </g>
                <g id="8c4e1fb4-b9ff-4530-b767-610e84618ea6" transform="translate(34.356312, 37.299185)" fill-rule="nonzero">
                    <rect id="Rectangle" fill="#A856D9" x="45.4487914" y="0.0670547148" width="32.7851388" height="20.606752"></rect>
                    <rect id="Rectangle" fill="#5A5773" opacity="0.2" x="0.0544673232" y="0.0670547148" width="32.7851388" height="20.606752"></rect>
                    <rect id="Rectangle" fill="#5A5773" opacity="0.2" x="90.8431155" y="0.0670547148" width="32.7851388" height="20.606752"></rect>
                    <rect id="Rectangle" fill="#5A5773" opacity="0.2" x="0.0544673232" y="29.5271246" width="32.7851388" height="20.606752"></rect>
                    <rect id="Rectangle" fill="#5A5773" opacity="0.2" x="45.4487914" y="29.5271246" width="32.7851388" height="20.606752"></rect>
                    <rect id="Rectangle" fill="#5A5773" opacity="0.2" x="90.8431155" y="29.5271246" width="32.7851388" height="20.606752"></rect>
                    <rect id="Rectangle" fill="#5A5773" opacity="0.2" x="0.0544673232" y="58.985099" width="32.7851388" height="20.606752"></rect>
                    <rect id="Rectangle" fill="#5A5773" opacity="0.2" x="45.4487914" y="58.985099" width="32.7851388" height="20.606752"></rect>
                    <rect id="Rectangle" fill="#5A5773" opacity="0.2" x="90.8431155" y="58.985099" width="32.7851388" height="20.606752"></rect>
                </g>
                <g id="2796dd85-6618-42ad-b8a0-d6b4cc80ab2d" transform="translate(72.064458, 42.328289)" fill-rule="nonzero">
                    <path d="M34.6642614,46.6742724 C34.6642614,46.6742724 28.7755058,35.9077998 29.768487,34.1559953 C30.7614682,32.4041909 31.4925873,29.8686845 31.4925873,29.8686845 C31.4925873,29.8686845 33.6670904,28.380908 33.6670904,27.7732247 C33.6670904,27.1655413 35.3890958,25.7594878 36.2961862,25.1476135 C37.2032766,24.5357392 36.748684,21.6461001 36.2961862,21.2961583 C35.8436885,20.9462165 35.1251388,19.7203725 35.1251388,19.7203725 C35.1251388,19.7203725 35.7536079,17.9706636 35.1251388,17.4447031 C34.4966697,16.9187427 35.2173142,16.3969732 35.1251388,15.8689173 C35.0329633,15.3408615 35.1251388,13.4193248 35.1251388,13.4193248 C34.3898299,12.3967404 33.574915,11.9189756 32.8081826,11.7429569 L32.7411459,11.4663562 L32.35359,9.83399302 C32.35359,9.83399302 34.2389973,6.2193248 31.1804476,4.32712456 C30.964105,4.19164985 30.7379217,4.07257405 30.5037959,3.97089639 C30.5037959,3.97089639 30.5037959,3.88288708 30.4870367,3.73410943 C30.4451388,3.19348079 30.31735,1.84819558 30.0429185,0.966006985 C29.8837064,0.458905704 29.6763115,0.117345751 29.4144494,0.194877765 C29.3501449,0.213507282 29.2912397,0.247279103 29.2426679,0.293364377 C29.1180284,0.406333306 29.0088483,0.53527086 28.9179588,0.676833527 C28.9179588,0.676833527 28.9179588,0.676833527 28.9179588,0.676833527 C28.9143312,0.685250109 28.9093805,0.693031837 28.9032945,0.699883586 C28.5560296,1.32336709 28.3126269,1.99927404 28.18265,2.70104773 C28.0897542,3.11596648 28.019818,3.53569647 27.9731603,3.95832363 C27.8406699,4.210018 27.723832,4.46964984 27.6233124,4.73573923 C27.2525157,5.6975553 26.818872,7.36344587 27.6086482,8.59557625 C28.2790152,9.64330617 29.1819158,11.0828871 29.8376186,12.130617 L29.8585676,12.1641444 L29.8983706,12.2291036 L29.829239,12.2731083 L29.829239,12.4344587 L29.889991,13.3166473 L30.3969561,20.9399302 C30.2445568,20.8957428 30.0891153,20.8628252 29.931889,20.8414435 C29.7078812,20.8086671 29.4816022,20.7939515 29.2552372,20.7974389 C28.813214,19.0603027 27.6002686,17.4447031 27.3698299,15.6300349 C27.3475381,15.4485587 27.3356476,15.2659552 27.3342167,15.0831199 C27.3530707,13.9410943 27.6379767,12.7948778 27.6149329,11.6549476 C27.6149329,11.4454016 27.6149329,11.2358556 27.5939839,11.0263097 L27.5939839,11.0263097 C27.5939839,10.9697322 27.5835094,10.9110594 27.5772247,10.8523865 C27.3444557,9.1686662 26.2965379,7.7080863 24.7763474,6.94854482 C24.2505282,6.68661234 23.6807162,6.51268917 23.1695613,6.22561118 C21.9880394,5.56344587 21.2317816,4.36903376 20.1591943,3.54970896 C19.3610385,2.93993015 18.1690421,2.61303842 17.2787108,2.92107101 C16.8066996,2.99223653 16.3388606,3.08876736 15.8772247,3.21024447 L15.8772247,3.21024447 C14.7519281,3.50478472 13.6726514,3.95325264 12.6699373,4.54295693 C12.533769,4.62467986 12.3976007,4.70849825 12.2677171,4.80488941 C11.9841235,4.99000494 11.7594866,5.25251525 11.6203939,5.56135041 C11.5303529,5.82306047 11.4960995,6.10073072 11.5198389,6.37648428 C11.5198389,6.57555297 11.5198389,6.77881257 11.5324082,6.97788126 C11.4737511,10.330617 7.86214861,12.9247963 7.56467323,16.1979045 C7.56467323,16.2754366 7.55210385,16.3529686 7.54791406,16.4305006 C7.54791406,16.4535506 7.54791406,16.4766007 7.54791406,16.5017462 C7.54791406,16.5960419 7.54791406,16.6924331 7.54791406,16.7888242 L7.54791406,16.7888242 C7.54791406,16.8328289 7.54791406,16.8747381 7.54791406,16.9187427 C7.54791406,16.9627474 7.54791406,17.006752 7.54791406,17.0507567 C7.60028648,18.4861467 8.34606983,19.8230501 8.48223814,21.2521537 C8.49480752,21.3799767 8.50109221,21.5057043 8.50318711,21.6335274 C8.48002724,22.2900879 8.35493368,22.9390525 8.13239033,23.5571595 C7.67841481,23.6781829 7.24137259,23.855581 6.83145927,24.0852154 C5.73373321,24.7913853 3.75196061,26.010943 3.02922113,28.3431898 C2.84337729,28.9486839 2.75083847,29.5789648 2.75478962,30.2123399 C2.74257044,32.4504485 2.53791281,34.6833583 2.14307968,36.8863795 C2.05171963,37.4413615 1.92293874,37.9895274 1.75761862,38.5271246 C1.74206424,38.5794129 1.73778009,38.6344077 1.74504924,38.688475 L1.30931065,44.3462165 L1.23179946,45.34156 L1.12286482,46.7580908 C1.12286482,46.7580908 1.15428827,46.8440047 1.20037601,46.9885914 C1.26865766,47.2034718 1.32599194,47.4216803 1.37215756,47.6423749 C1.49397044,48.1218898 1.51324446,48.6217209 1.42871979,49.1091967 C1.3856677,49.3163177 1.27868426,49.5046885 1.12286482,49.6477299 C1.10946385,49.6595481 1.0975095,49.6729125 1.08725157,49.6875437 C0.963652641,49.8614668 0.852623098,50.3790454 0.756257833,51.12922 C0.718549687,51.4225844 0.682936437,51.757858 0.647323187,52.1057043 C0.437833483,54.337369 0.307949866,57.677532 0.228343778,60.4393481 C0.152927484,63.1634459 0.125693823,65.3154831 0.125693823,65.3154831 C0.478439742,65.5431677 0.855831511,65.7301568 1.25065354,65.8728754 C1.22132498,65.9462165 1.18990152,66.0216531 1.16057296,66.1012806 C0.804412856,67.0258805 0.574692165,67.9943499 0.477636526,68.9804424 C0.301665175,71.0402794 0.877761862,73.3285215 3.74986571,74.50617 C3.93336877,74.5824838 4.12160199,74.6468783 4.31339302,74.6989523 C4.94186213,74.8665891 5.40483438,74.8204889 5.7463026,74.610943 C5.7463026,74.7345751 5.76096688,74.8540163 5.76725157,74.9734575 C5.79658013,75.4847497 5.82171889,75.9520373 5.83428827,76.3438882 C5.92436885,78.7955763 6.53188899,83.0828871 6.53188899,83.0828871 C6.53188899,83.0828871 6.74137869,84.8346915 6.55912265,85.3585565 C6.37686661,85.8824214 6.55912265,87.9841676 6.55912265,87.9841676 C6.55912265,87.9841676 7.18759176,89.0318976 6.55912265,89.5599534 C5.93065354,90.0880093 5.7442077,92.7031432 5.93065354,93.0614668 C5.93646333,93.0740169 5.94000939,93.0874956 5.94112802,93.1012806 C6.07939123,93.9708964 5.29799463,106.891502 5.29799463,106.891502 C5.29799463,106.891502 4.55849597,108.869616 3.9698299,110.923166 C3.39582811,112.922235 2.96427932,114.992549 3.49638317,115.38021 C3.7603402,115.572992 4.37414503,115.717579 5.15344673,115.828638 C5.15344673,115.914552 5.14087735,116.000466 5.13249776,116.088475 C5.05708147,117.012573 4.93767234,118.007916 4.76589078,118.259371 C4.51659803,118.6156 4.2547359,121.377416 4.12694718,122.869383 L4.1143778,123.034924 C3.846015,123.671485 3.62065652,124.32534 3.43982095,124.992084 C3.43982095,124.992084 1.43500448,130.021187 2.11375112,131.326659 C2.17696309,131.443958 2.26150847,131.548424 2.36304387,131.634692 L2.36304387,131.634692 C2.38314386,131.655897 2.40485609,131.675514 2.42798568,131.693364 C3.39373321,132.466589 5.8133393,132.627939 6.69110116,132.663562 L6.65758281,133.908265 L6.65758281,133.954366 L7.7993017,133.954366 L7.7993017,133.922934 C7.7993017,133.765774 7.82444047,133.044936 7.86214861,132.081024 C7.86214861,131.909197 7.87471799,131.728987 7.88309758,131.544587 C7.88309758,131.4 7.89776186,131.253318 7.90404655,131.102445 C8.24039758,130.208516 8.4087201,129.260115 8.40053715,128.305006 C8.40174276,127.208952 8.54970084,126.117996 8.84046553,125.061234 C8.98405995,124.516902 9.17833823,123.987229 9.42075201,123.479162 C9.42075201,123.479162 9.77688451,121.593248 9.28039391,120.25844 C9.18573748,119.993399 9.04377725,119.747741 8.8614145,119.533411 C8.8614145,119.489406 8.8614145,119.445402 8.8614145,119.399302 C8.8614145,119.353201 8.8614145,119.298719 8.8614145,119.246333 C8.8614145,119.193946 8.8614145,119.160419 8.8614145,119.114319 C8.85023946,118.211653 8.94018248,117.310576 9.12956132,116.427939 C9.12857658,116.413987 9.12857658,116.399983 9.12956132,116.38603 C9.1463205,116.312689 9.16517457,116.243539 9.18402865,116.176484 L9.19659803,116.130384 L9.56739481,116.142957 C10.7049239,116.174389 11.5407878,116.174389 11.5407878,116.174389 C11.5407878,116.174389 12.4478782,111.535041 12.3577977,109.523399 C12.3577977,109.43539 12.3577977,109.34319 12.3577977,109.25099 C12.3263742,107.251921 12.9066607,104.534109 12.9066607,104.534109 L13.6377798,97.4409779 C13.6377798,97.4409779 13.2753626,96.2130384 13.6377798,95.345518 C13.8619338,94.8048894 14.324906,93.8011641 14.6475201,93.1096624 C14.7983527,92.789057 14.9177619,92.5376019 14.9680394,92.428638 L14.9973679,92.3699651 C14.8831238,92.3307984 14.7746253,92.2765345 14.6747538,92.2086147 L14.6747538,92.2086147 C14.3793733,92.0116414 14.1154163,91.6260768 14.9994628,91.0582072 C16.359051,90.182305 15.9065533,87.9946449 15.9065533,87.9946449 C15.9065533,87.9946449 15.5064279,87.206752 15.9777798,86.5068685 C16.4491316,85.8069849 15.9777798,83.1813737 15.9777798,83.1813737 C16.3660975,82.4872575 16.6779677,81.7530414 16.9079141,80.9916182 C17.2451925,79.9438882 18.0978156,74.8204889 18.5000358,72.3499418 C18.6320143,71.5389988 18.7095255,71.0151339 18.7095255,71.0151339 L18.7220949,71.1429569 L18.7346643,71.2812573 L18.7346643,71.2812573 L18.8477887,72.4484284 L18.862453,72.6034924 L19.0719427,74.8100116 C19.0719427,74.8100116 19.4909221,80.6102445 19.22906,82.8838184 C19.22906,82.8984866 19.22906,82.9131548 19.22906,82.9257276 C19.2086339,83.1612596 19.1572139,83.393064 19.0761325,83.6151339 C18.5943062,84.704773 18.6822919,89.033993 18.7074306,89.9916182 C18.7074306,90.0691502 18.7074306,90.132014 18.7074306,90.1844005 C18.7074306,90.236787 18.3659624,91.0393481 18.4518532,91.6637951 L18.4518532,91.6637951 C18.4692558,91.8220381 18.526167,91.9733616 18.61735,92.1038417 C18.7428124,92.3076431 18.7993697,92.5464232 18.7786571,92.7848661 L18.7786571,92.8058207 C18.7764428,92.9068218 18.7680475,93.0075924 18.7535184,93.1075669 C18.6899776,93.5131403 18.5832283,93.9107476 18.435094,94.2935972 C18.435094,94.2935972 17.9490779,95.5718277 18.1334288,96.2402794 C18.1334288,96.2402794 18.1334288,96.2402794 18.1334288,96.2402794 C18.1555742,96.3269436 18.1963213,96.4077446 18.252838,96.4770664 C18.2953624,96.5542675 18.3190497,96.6404263 18.3219696,96.7285215 C18.320983,96.7361732 18.320983,96.7439199 18.3219696,96.7515716 C18.4916562,98.1618161 18.0538227,104.387427 17.7940555,107.794645 C17.6893107,109.13993 17.6138944,110.045169 17.6138944,110.045169 L16.8953447,117.484051 L16.9665712,117.534342 C17.0482722,117.593015 17.2011996,117.693597 17.4064996,117.815134 C17.4064996,117.815134 17.4064996,117.815134 17.4064996,117.831898 L17.3750761,118.056112 C17.2724261,118.772759 17.1341629,119.606752 16.9833303,120.243772 C16.970761,120.291967 16.9602865,120.338068 16.9477171,120.382072 C16.6728008,120.430104 16.4109383,120.53502 16.1788899,120.690105 C14.6538048,123.399534 15.3283617,125.547381 16.1788899,126.171828 C16.419803,126.347846 16.583205,126.840279 16.6921397,127.452154 L16.9016294,130.153201 C16.9016294,130.262165 16.9016294,130.362747 16.9016294,130.463329 C16.9019138,130.547324 16.9153441,130.630755 16.9414324,130.710594 L17.0063742,131.529919 L17.0943599,132.669849 L17.7898657,132.669849 L17.7898657,131.288941 L17.8275739,131.288941 C18.9252999,131.326659 20.6954879,131.372759 21.46641,131.311991 L21.487359,131.311991 C21.56906,131.311991 21.6381916,131.297322 21.6968487,131.288941 C21.7385475,131.282678 21.7793418,131.271422 21.8183527,131.255413 C22.2268577,131.05844 23.2449776,128.170896 22.3274127,127.515017 C21.4098478,126.859139 21.2066428,125.000466 21.2066428,125.000466 C21.1270367,124.757392 21.0474306,124.526892 20.9657296,124.306868 C20.9657296,124.258673 20.9657296,124.212573 20.9657296,124.164377 C20.9405909,123.265425 20.9510654,122.291036 21.0746643,121.76298 C21.2129275,121.182538 21.284154,119.96298 21.3134825,118.894296 C21.3134825,118.812573 21.3134825,118.732945 21.3134825,118.653318 L21.3134825,118.628172 C21.4725266,118.587961 21.628616,118.536851 21.7806446,118.475204 L21.8141629,118.460536 C22.0947737,118.343035 22.3577428,118.187186 22.5955595,117.997439 L25.1597135,106.631665 L25.4299552,105.30943 L26.9697046,97.7888242 C26.9697046,97.7888242 26.4271262,95.163213 26.9697046,94.7273574 C27.1687198,94.5681024 27.2231871,93.8891735 27.2106177,93.103376 C27.1896688,91.7287544 26.9697046,90 26.9697046,90 C26.9697046,90 27.6945389,88.8621653 28.059051,88.1622817 C28.4235631,87.4623981 28.059051,85.6246799 28.059051,85.6246799 L28.7734109,81.4169965 C28.7734109,81.4169965 29.5904208,76.4277066 31.5826679,72.2263097 C33.0490958,69.1355064 32.1147717,60.7892899 31.1636885,56.346915 C31.1385497,56.2316647 31.1134109,56.1185099 31.0882722,56.009546 L31.0882722,55.9927823 C31.5365801,55.7706636 32.0854432,55.5024447 32.6720143,55.2216531 L32.8940734,55.1168801 C33.6377619,54.7669383 34.4254432,54.4065192 35.1314235,54.1068685 L35.1775112,54.0880093 C35.685648,53.8663464 36.205219,53.6718921 36.7340197,53.5054715 C36.8898134,53.4578168 37.0497222,53.4248443 37.2116562,53.4069849 C38.4706893,53.3252619 34.6642614,46.6742724 34.6642614,46.6742724 Z M6.31820949,60.912922 L6.69529096,60.912922 C6.65129812,60.9946449 6.60940018,61.0784633 6.56750224,61.1622817 C6.54236347,61.2125728 6.51722471,61.2607683 6.49418084,61.3110594 C6.35591764,61.5981374 6.22812892,61.8915017 6.12338406,62.1785797 C6.16528201,61.8684517 6.21765443,61.5310827 6.27631155,61.1706636 C6.29097583,61.0910361 6.30564011,60.9967404 6.31820949,60.912922 Z M5.30008953,66.3757858 C5.30101638,66.366029 5.30101638,66.3562062 5.30008953,66.3464494 L5.26866607,66.2479627 C5.2456222,66.180908 5.22467323,66.1138533 5.20372426,66.0384168 C5.33360788,65.9993015 5.46558639,65.9552969 5.5996598,65.9064028 L5.62689346,65.9064028 C5.62689346,65.9294529 5.62689346,65.9525029 5.62689346,65.975553 C5.61641898,66.0740396 5.6038496,66.1725262 5.59128021,66.2689173 L5.59128021,66.2689173 C5.59241376,66.2814645 5.59241376,66.2940884 5.59128021,66.3066356 C5.59128021,66.3862631 5.57242614,66.4616997 5.56404655,66.5371362 C5.54519248,66.6880093 5.52633841,66.8346915 5.50957923,66.9750873 C5.46977619,66.8430733 5.42997314,66.7131548 5.3880752,66.5853318 C5.34617726,66.5161816 5.32313339,66.444936 5.30008953,66.3757858 Z" id="Shape" fill="url(#linearGradient-2)"></path>
                    <path d="M32.4918532,13.0882421 L30.2293644,13.8887078 L29.4081647,12.5266589 C28.7796956,11.478929 27.9082184,10.0456345 27.265085,9.00419092 C26.1296509,7.17275902 27.6149329,4.38160652 27.6149329,4.38160652 C27.6149329,4.38160652 27.8830797,1.57997672 28.8383527,0.716647264 C29.7936258,-0.146682189 30.0596777,4.38160652 30.0596777,4.38160652 C33.8954342,6.1250291 31.8403402,10.225844 31.8403402,10.225844 L32.2132319,11.8519208 L32.4918532,13.0882421 Z" id="Path" fill="#EFB7B9"></path>
                    <path d="M32.4918532,13.0882421 L30.2293644,13.8887078 L29.4081647,12.5266589 L29.4081647,12.4072177 C29.4081647,12.4072177 30.704906,11.5166473 32.2174217,11.8519208 L32.4918532,13.0882421 Z" id="Path" fill="#000000" opacity="0.1"></path>
                    <path d="M28.8383527,22.2663562 L29.971692,21.3066356 L29.4039749,12.6691502 C29.4039749,12.6691502 32.3368308,10.6616997 34.5071441,13.8027939 C34.5071441,13.8027939 34.4191585,15.7222352 34.5071441,16.2461001 C34.5951298,16.7699651 33.8975291,17.29383 34.5071441,17.8155995 C35.1167592,18.337369 34.5071441,20.0849825 34.5071441,20.0849825 C34.5071441,20.0849825 35.1963653,21.3066356 35.6321038,21.654482 C36.0678424,22.0023283 36.5056759,24.8835856 35.6321038,25.4933644 C34.7585318,26.1031432 33.1203223,27.5008149 33.1203223,28.1105937 C33.1203223,28.7203725 31.0254252,30.2060536 31.0254252,30.2060536 L29.1861056,27.7732247 L28.8383527,22.2663562 Z" id="Path" fill="#FF6484"></path>
                    <path d="M4.3280573,74.6989523 C0.100555058,72.9052386 1.03906893,68.5236321 1.83512981,66.3171129 C1.99421532,65.8700486 2.18102385,65.4333451 2.39446732,65.009546 L4.76589078,63.5699651 C4.76589078,63.5699651 5.249812,64.8041909 5.76725157,66.4596042 C6.96762757,70.3110594 8.34816473,76.406752 4.3280573,74.6989523 Z" id="Path" fill="#EFB7B9"></path>
                    <path d="M10.1393017,114.678231 C9.85310074,115.236129 9.64178538,115.82938 9.51083259,116.442608 C9.30156817,117.429231 9.21014949,118.437217 9.23849597,119.445402 C9.25525515,120.14319 9.31391226,120.6 9.31391226,120.6 L4.60458371,123.839581 C4.60458371,123.839581 4.63181737,123.460303 4.6779051,122.90291 C4.79940913,121.419325 5.05289167,118.665891 5.29170994,118.309662 C5.4572068,118.062398 5.57242614,117.06915 5.64574754,116.147148 C5.71906893,115.225146 5.74839749,114.416298 5.74839749,114.416298 C5.74839749,114.416298 11.415094,112.291502 10.1393017,114.678231 Z" id="Path" fill="#EFB7B9"></path>
                    <path d="M21.2611101,117.002095 C21.2611101,117.002095 21.2611101,117.903143 21.2275918,118.950873 C21.1940734,119.998603 21.1312265,121.234924 20.999248,121.811176 C20.877744,122.339232 20.8693644,123.30943 20.8924082,124.204191 C20.9238317,125.251921 20.999248,126.194878 20.999248,126.194878 C20.999248,126.194878 16.1914593,121.64773 16.6816652,121.287311 C16.8136437,121.19092 16.9435273,120.80326 17.0629364,120.287776 C17.2095792,119.659139 17.3415577,118.820955 17.4400179,118.108498 C17.5573321,117.259837 17.6306535,116.576717 17.6306535,116.576717 L21.2611101,117.002095 Z" id="Path" fill="#EFB7B9"></path>
                    <path d="M10.1393017,114.678231 C9.85310074,115.236129 9.64178538,115.82938 9.51083259,116.442608 C8.22182556,116.408771 6.93533288,116.31016 5.65622202,116.147148 C5.72744852,115.2461 5.75887198,114.416298 5.75887198,114.416298 C5.75887198,114.416298 11.415094,112.291502 10.1393017,114.678231 Z" id="Path" fill="#000000" opacity="0.1"></path>
                    <path d="M21.2611101,117.002095 C21.2611101,117.002095 21.2611101,117.903143 21.2275918,118.950873 C19.7276455,119.334342 18.1858013,118.567404 17.4400179,118.112689 C17.5573321,117.264028 17.6306535,116.580908 17.6306535,116.580908 L21.2611101,117.002095 Z" id="Path" fill="#000000" opacity="0.1"></path>
                    <path d="M31.1050313,72.4316647 C29.1861056,76.6225844 28.4005192,81.5930151 28.4005192,81.5930151 L27.7029185,85.7839348 C27.7029185,85.7839348 28.0527663,87.6153667 27.7029185,88.3131548 C27.3530707,89.010943 26.65547,90.1466822 26.65547,90.1466822 C26.65547,90.1466822 27.1791943,94.4214203 26.65547,94.8572759 C26.1317457,95.2931315 26.65547,97.9103609 26.65547,97.9103609 L24.9104208,106.711292 L22.4677708,118.051921 C20.1131065,119.973458 16.9791406,117.530151 16.9791406,117.530151 L17.6704566,110.114319 C17.6704566,110.114319 18.7179051,97.122468 18.2821665,96.5902212 C17.8464279,96.0579744 18.456043,94.4088475 18.456043,94.4088475 C18.456043,94.4088475 19.0677529,92.8372526 18.6320143,92.2274738 C18.1962757,91.617695 18.7179051,90.3080326 18.7179051,90.3080326 C18.7179051,90.3080326 18.5440286,84.9855646 19.0677529,83.7639115 C19.5914772,82.5422584 19.0677529,74.9860303 19.0677529,74.9860303 L18.8582632,72.6328289 L18.7367592,71.3294529 L18.7262847,71.2016298 C18.7262847,71.2016298 18.6466786,71.7233993 18.516795,72.5322468 C18.1313339,74.9944121 17.3101343,80.0968568 16.9854252,81.1466822 C16.7646899,81.9032204 16.4648603,82.634383 16.0909042,83.3280559 C16.0909042,83.3280559 16.543402,85.9452852 16.0909042,86.6430733 C15.6384064,87.3408615 16.0217726,88.1266589 16.0217726,88.1266589 C16.0217726,88.1266589 16.4575112,90.3080326 15.1482005,91.1797439 C13.8388899,92.0514552 15.1482005,92.4894063 15.1482005,92.4894063 C15.1482005,92.4894063 14.1887377,94.5848661 13.8409848,95.454482 C13.4932319,96.3240978 13.8409848,97.5499418 13.8409848,97.5499418 L13.1433841,104.615832 C13.1433841,104.615832 12.5316741,107.580908 12.6196598,109.588359 C12.7076455,111.595809 11.8340734,116.218393 11.8340734,116.218393 C11.8340734,116.218393 5.11783348,116.218393 4.08295434,115.432596 C3.0480752,114.646799 5.8112444,106.981607 5.8112444,106.981607 C5.8112444,106.981607 6.5968308,93.545518 6.42085944,93.1976717 C6.24488809,92.8498254 6.42085944,90.2305006 7.03256938,89.7087311 C7.64427932,89.1869616 7.03256938,88.1371362 7.03256938,88.1371362 C7.03256938,88.1371362 6.85869293,86.0416764 7.03256938,85.5199069 C7.20644584,84.9981374 7.00533572,83.2505239 7.00533572,83.2505239 C7.00533572,83.2505239 6.42085944,78.9757858 6.33496867,76.5324796 C6.24907789,74.0891735 5.8112444,68.5948778 5.8112444,68.5948778 C5.8112444,68.5948778 6.26793196,65.1960419 6.33706356,63.5783469 C6.36220233,62.9832363 6.62825425,62.2393481 6.96553268,61.5394645 C7.34304422,60.7492262 7.77711869,59.9872909 8.26436885,59.2596042 C8.26436885,59.2596042 28.9305282,53.1492433 29.7978156,53.7569267 C30.0282543,53.9182771 30.3634378,55.0142026 30.6944315,56.6004657 C31.6161862,61.0323632 32.5169919,69.3513388 31.1050313,72.4316647 Z" id="Path" fill="#444053"></path>
                    <ellipse id="Oval" fill="#A1616A" cx="18.3722471" cy="13.0882421" rx="6.01863921" ry="6.02025611"></ellipse>
                    <path d="M30.6944315,56.6046566 C30.0010206,56.9608847 29.5359534,57.2060536 29.5359534,57.2060536 C29.5359534,57.2060536 19.7674485,61.8307334 16.989615,61.5688009 C14.8402507,61.3592549 9.35371531,61.4786962 6.96343778,61.537369 C7.34094933,60.7471307 7.77502379,59.9851954 8.26227395,59.2575087 C8.26227395,59.2575087 28.9305282,53.1492433 29.7978156,53.7569267 C30.0282543,53.922468 30.3634378,55.0142026 30.6944315,56.6046566 Z" id="Path" fill="#000000" opacity="0.1"></path>
                    <path d="M14.1845479,22.7022119 C14.1845479,22.7022119 8.61002686,23.582305 7.29443151,24.4456345 C5.97883617,25.3089639 3.37278424,26.9769499 3.37278424,30.5538999 C3.37278424,34.1308498 2.7631692,37.7958091 2.4133214,38.8414435 C2.06347359,39.887078 7.90823635,48.3506403 7.90823635,48.3506403 L5.8133393,61.1769499 C5.8133393,61.1769499 14.1929275,60.9150175 16.9833303,61.1769499 C19.7737332,61.4388824 29.5380483,56.8142026 29.5380483,56.8142026 C29.5380483,56.8142026 35.2948254,53.7611176 36.5161504,53.6710128 C37.7374754,53.580908 34.0735004,46.9529686 34.0735004,46.9529686 C34.0735004,46.9529686 28.4026141,36.2242142 29.362077,34.4786962 C30.3215398,32.7331781 31.0254252,30.2039581 31.0254252,30.2039581 L29.9779767,21.3066356 C29.9779767,21.3066356 28.4088988,20.7827707 27.0995882,21.7424913 C25.7902775,22.7022119 21.3428111,22.1783469 21.3428111,22.1783469 L14.1845479,22.7022119 Z" id="Path" fill="#FF6484"></path>
                    <path d="M4.72189794,38.2316647 L2.53482543,38.8414435 L1.92940018,47.0514552 C1.92940018,47.0514552 2.71498657,49.2328289 1.92940018,49.930617 C1.14381379,50.6284051 0.969937332,65.5480792 0.969937332,65.5480792 C0.969937332,65.5480792 3.50057296,67.3795111 6.46485228,65.9839348 C6.46485228,65.9839348 6.0291137,64.3264261 7.33842435,58.30617 C8.647735,52.2859139 8.64564011,49.2328289 8.64564011,49.2328289 C8.64564011,49.2328289 8.64564011,41.7289872 9.25735004,40.5073341 C9.86905998,39.285681 9.25735004,36.232596 9.25735004,36.232596 C9.25735004,36.232596 8.03602507,34.5750873 8.12191585,33.9653085 C8.20780662,33.3555297 4.72189794,38.2316647 4.72189794,38.2316647 Z" id="Path" fill="#000000" opacity="0.1"></path>
                    <path d="M5.76725157,66.4658906 C4.48285642,66.8984373 3.08486678,66.8477773 1.83512981,66.3233993 C1.99421532,65.876335 2.18102385,65.4396315 2.39446732,65.0158324 L4.76589078,63.5762515 C4.76589078,63.5762515 5.25819158,64.8104773 5.76725157,66.4658906 Z" id="Path" fill="#000000" opacity="0.1"></path>
                    <path d="M4.58991943,38.2316647 L2.4091316,38.8414435 L1.79951656,47.0514552 C1.79951656,47.0514552 2.58510295,49.2328289 1.79951656,49.930617 C1.01393017,50.6284051 0.840053715,65.5480792 0.840053715,65.5480792 C0.840053715,65.5480792 3.37278424,67.3774156 6.33496867,65.975553 C6.33496867,65.975553 5.89923008,64.3180442 7.20644584,58.2977881 C8.51366159,52.277532 8.51575649,49.224447 8.51575649,49.224447 C8.51575649,49.224447 8.51575649,41.7206054 9.12537153,40.4989523 C9.73498657,39.2772992 9.12537153,36.2242142 9.12537153,36.2242142 C9.12537153,36.2242142 7.90404655,34.5667055 7.99203223,33.9569267 C8.08001791,33.3471478 4.58991943,38.2316647 4.58991943,38.2316647 Z" id="Path" fill="#FF6484"></path>
                    <path d="M26.919427,39.5392317 C26.919427,39.5392317 25.7860877,49.3103609 22.4698657,51.1438882 C22.4698657,51.1438882 29.8837064,49.0505239 26.919427,39.5392317 Z" id="Path" fill="#000000" opacity="0.1"></path>
                    <path d="M10.2608057,40.4130384 C10.2608057,40.4130384 14.3584244,42.4183935 13.4031513,43.8139697 C12.4478782,45.209546 10.2608057,40.4130384 10.2608057,40.4130384 Z" id="Path" fill="#000000" opacity="0.1"></path>
                    <path d="M10.2608057,44.425844 C10.2608057,44.425844 12.8773321,47.1310827 12.3557028,48.0908033 C11.8340734,49.0505239 10.2608057,44.425844 10.2608057,44.425844 Z" id="Path" fill="#000000" opacity="0.1"></path>
                    <path d="M31.3668935,22.0044237 C31.3668935,22.0044237 32.393393,23.7478463 32.4918532,24.8835856 C32.5903133,26.0193248 31.3668935,22.0044237 31.3668935,22.0044237 Z" id="Path" fill="#000000" opacity="0.1"></path>
                    <path d="M31.3668935,19.6491269 C31.3668935,19.6491269 31.8822381,19.2111758 33.1978335,19.6491269 C34.5134288,20.087078 31.3668935,19.6491269 31.3668935,19.6491269 Z" id="Path" fill="#000000" opacity="0.1"></path>
                    <path d="M26.330761,70.642142 C24.1696607,70.948807 21.9658759,70.666473 19.9517995,69.8249127 L18.8519785,72.6412107 L18.7304745,71.3378347 C18.9106356,70.2440047 19.2604834,69.0726426 19.9517995,68.7771828 C19.9517995,68.7771828 22.3735004,70.7071013 26.330761,70.642142 Z" id="Path" fill="#000000" opacity="0.1"></path>
                    <path d="M8.4382453,74.3071013 C8.4382453,74.3071013 13.8032766,75.4197905 15.3074127,75.2228172 L8.4382453,74.3071013 Z" id="Path" fill="#000000" opacity="0.1"></path>
                    <path d="M8.99548791,75.7131548 C8.99548791,75.7131548 11.2852104,75.6146682 12.4290242,76.0735739 L8.99548791,75.7131548 Z" id="Path" fill="#000000" opacity="0.1"></path>
                    <path d="M9.25735004,76.6623981 C10.302067,76.884405 11.3625106,77.0245277 12.4290242,77.0814901 L9.25735004,76.6623981 Z" id="Path" fill="#000000" opacity="0.1"></path>
                    <path d="M9.12537153,88.669383 C9.22383169,88.6044237 13.7048165,87.5566938 14.2620591,88.3089639 L9.12537153,88.669383 Z" id="Path" fill="#000000" opacity="0.1"></path>
                    <path d="M9.12537153,90.0440047 C9.12537153,90.0440047 13.0176902,89.585099 13.1161504,90.0440047 C13.2146106,90.5029104 9.12537153,90.0440047 9.12537153,90.0440047 Z" id="Path" fill="#000000" opacity="0.1"></path>
                    <path d="M9.12537153,91.2866123 C9.12537153,91.2866123 13.2795524,90.4274738 13.7697583,90.6370198 C14.2599642,90.8465658 9.12537153,91.2866123 9.12537153,91.2866123 Z" id="Path" fill="#000000" opacity="0.1"></path>
                    <path d="M9.32229185,120.602095 L4.61296329,123.841676 C4.61296329,123.841676 4.64019696,123.462398 4.68628469,122.905006 C5.73373321,120.32759 7.09751119,118.967637 7.09751119,118.967637 C8.15962399,118.691036 8.82999105,118.946682 9.24687556,119.447497 C9.26363474,120.14319 9.32229185,120.602095 9.32229185,120.602095 Z" id="Path" fill="#000000" opacity="0.1"></path>
                    <path d="M9.78107431,123.512689 C9.11557882,125.031334 8.78066461,126.674211 8.79856759,128.332247 C8.82509146,129.691806 8.48032464,131.032845 7.8013966,132.210943 C7.70316983,132.376929 7.59252247,132.535239 7.47040286,132.684517 C7.47040286,132.684517 4.19817368,132.657276 3.052265,131.708033 C2.92351102,131.606104 2.81843705,131.477407 2.74431513,131.33085 C2.08861235,130.023283 4.02010743,125.017229 4.02010743,125.017229 C5.0340376,121.157392 7.0933214,119.09546 7.0933214,119.09546 C10.7614861,118.146217 9.78107431,123.512689 9.78107431,123.512689 Z" id="Path" fill="#444053"></path>
                    <path d="M7.8013966,132.200466 C7.70316983,132.366452 7.59252247,132.524762 7.47040286,132.67404 C7.47040286,132.67404 4.19817368,132.646799 3.052265,131.697555 C3.6157923,129.832596 5.41321397,124.189523 6.25536258,125.149243 C7.04723366,126.050291 7.59819158,130.385797 7.8013966,132.200466 Z" id="Path" fill="#000000" opacity="0.1"></path>
                    <path d="M7.35308863,125.499185 L7.12474485,133.95227 L8.2224709,133.95227 C8.2224709,133.95227 8.40053715,126.536438 8.89074306,125.499185 C9.38094897,124.461932 7.35308863,125.499185 7.35308863,125.499185 Z" id="Path" fill="#444053"></path>
                    <path d="M20.999248,126.194878 C20.999248,126.194878 16.1914593,121.64773 16.6816652,121.287311 C16.8136437,121.19092 16.9435273,120.80326 17.0629364,120.287776 C17.986786,120.126426 19.5768129,120.511991 20.8924082,124.204191 C20.9238317,125.251921 20.999248,126.194878 20.999248,126.194878 Z" id="Path" fill="#000000" opacity="0.1"></path>
                    <path d="M21.7177977,131.265891 C21.680916,131.281764 21.6422172,131.293025 21.6025783,131.299418 C21.0369561,131.397905 18.9525336,131.341327 17.7856759,131.299418 C17.3413069,131.284745 16.9884065,130.920632 16.9875201,130.475902 C16.9875201,130.161583 16.9875201,129.778114 16.9623814,129.369499 C16.9079141,128.078696 16.7528917,126.542724 16.2899194,126.196973 C15.4708147,125.568335 14.8234915,123.435157 16.2899194,120.734109 C16.2899194,120.734109 19.1012713,118.586263 21.1291316,125.042375 C21.1291316,125.042375 21.3260519,126.884284 22.2080036,127.538068 C23.0899552,128.191851 22.1116383,131.079395 21.7177977,131.265891 Z" id="Path" fill="#444053"></path>
                    <path d="M21.5983885,131.299418 C21.0327663,131.397905 18.9483438,131.341327 17.7814861,131.299418 C17.3371171,131.284745 16.9842168,130.920632 16.9833303,130.475902 C16.9833303,130.161583 16.9833303,129.778114 16.9581916,129.369499 C17.3122292,127.806286 17.8212892,126.196973 18.4769919,125.830268 C18.4811817,125.828172 20.4650492,125.603958 21.5983885,131.299418 Z" id="Path" fill="#000000" opacity="0.1"></path>
                    <polygon id="Path" fill="#444053" points="16.6460519 125.639581 17.173966 132.67404 17.844333 132.67404 17.844333 125.040279"></polygon>
                    <path d="M18.2842614,3.49522701 C16.3839097,3.636724 14.5443562,4.22780878 12.9171352,5.21979045 C12.4981558,5.47334109 12.0791764,5.78137369 11.9052999,6.23608847 C11.7544673,6.63003492 11.8173142,7.07427241 11.8235989,7.49336438 C11.8801611,11.1017462 7.85795882,13.8321304 7.98365264,17.4384168 C8.03393017,18.8696158 8.75247986,20.2023283 8.88445837,21.6293364 C9.10442256,24.0097788 7.69665175,26.1995343 6.34753805,28.171362 C7.73746002,28.2559722 9.10657989,27.8019776 10.1707252,26.9036088 C11.5942855,31.6498809 11.778201,36.6818624 10.7049239,41.5194412 L12.6343241,41.5194412 C12.8248764,41.5055509 13.016306,41.5290412 13.1978514,41.5885914 C13.3671667,41.6690187 13.5188357,41.7822669 13.6440645,41.9217695 C15.4477708,43.7175786 16.6565264,46.3725262 15.9673053,48.8242142 L20.0733035,47.2840512 C21.0558102,46.9152503 22.0529812,46.540163 22.9076992,45.9324796 C23.7624172,45.3247963 24.478872,44.4426077 24.6590331,43.4074505 C24.7700627,42.7788126 24.7344494,42.028638 25.251889,41.6640279 C25.5068121,41.5283983 25.7787845,41.4276146 26.0605192,41.3643772 C27.1875739,40.9662398 27.6861594,39.6628638 27.916598,38.4894063 C28.1971959,37.0497069 28.2852542,35.5790899 28.1784602,34.1161816 C27.9962041,31.6644936 27.2713697,29.1750873 27.8684154,26.7820722 C28.2056938,25.4388824 28.955667,24.1878929 29.016419,22.8006985 C29.1148791,20.5145518 27.327932,18.5448196 27.06188,16.2712456 C26.8754342,14.687078 27.4473411,13.0840512 27.2608953,11.4998836 C27.050807,9.84044329 26.0444165,8.38794201 24.5647628,7.60861467 C24.0598926,7.34877765 23.5173142,7.17485448 23.0187287,6.88777648 C21.8811996,6.22770664 21.1542704,5.03958091 20.1214861,4.22235157 C19.0887019,3.40512224 17.3687914,3.09708964 16.5915846,4.15948778 L18.2842614,3.49522701 Z" id="Path" fill="#000000" opacity="0.1"></path>
                    <path d="M18.2842614,3.23329453 C16.3839097,3.37479152 14.5443562,3.9658763 12.9171352,4.95785797 C12.4981558,5.21140861 12.0791764,5.51944121 11.9052999,5.974156 C11.7544673,6.36810244 11.8173142,6.81233993 11.8235989,7.2314319 C11.8801611,10.8398137 7.85795882,13.5701979 7.98365264,17.1785797 C8.03393017,18.6076834 8.75247986,19.9403958 8.88445837,21.3694994 C9.10442256,23.7499418 7.69665175,25.9396973 6.34753805,27.9136205 C7.73706331,27.9952001 9.1050882,27.5415686 10.1707252,26.6458673 C11.5940237,31.3907494 11.7779402,36.4213128 10.7049239,41.2575087 L12.6343241,41.2575087 C12.8250134,41.244293 13.0164463,41.2684955 13.1978514,41.3287544 C13.3675122,41.4076786 13.519333,41.5203272 13.6440645,41.659837 C15.4477708,43.4577416 16.6565264,46.1105937 15.9673053,48.5622817 L20.0733035,47.0221187 C21.0558102,46.6533178 22.0529812,46.2782305 22.9076992,45.6705471 C23.7624172,45.0628638 24.478872,44.1806752 24.6590331,43.145518 C24.7700627,42.5168801 24.7344494,41.7667055 25.251889,41.4020955 C25.5068121,41.2664659 25.7787845,41.1656822 26.0605192,41.1024447 C27.1875739,40.7043073 27.6861594,39.4009313 27.916598,38.2274738 C28.1996701,36.7866882 28.2898435,35.3146347 28.1847449,33.8500582 C28.0024888,31.3983702 27.2776544,28.9089639 27.8747001,26.5159488 C28.2119785,25.172759 28.9619517,23.9217695 29.0227037,22.5345751 C29.1211638,20.2484284 27.3342167,18.2786962 27.0681647,16.0051222 C26.8817189,14.4209546 27.4536258,12.8200233 27.2671799,11.2337602 C27.0564079,9.57458211 26.0502157,8.12236695 24.5710474,7.34249127 C24.0661773,7.08265425 23.5235989,6.90873108 23.0250134,6.62374854 C21.8874843,5.96158324 21.1605551,4.77345751 20.1277708,3.95622817 C19.0949866,3.13899884 17.3750761,2.83096624 16.5978693,3.89336438 L18.2842614,3.23329453 Z" id="Path" fill="#925978"></path>
                    <g id="Group" opacity="0.1" transform="translate(6.284691, 6.286380)" fill="#000000">
                        <path d="M5.53471799,0.0733410943 C5.52629756,0.154091179 5.52210205,0.235226285 5.52214861,0.316414435 C5.5284333,0.236786962 5.5326231,0.155064028 5.53471799,0.0733410943 Z" id="Path"></path>
                        <path d="M20.7604297,8.46146682 C20.835846,7.35087311 21.0830439,6.23608847 20.9908684,5.12968568 C20.9217368,6.24027939 20.6745389,7.35506403 20.7604297,8.46146682 Z" id="Path"></path>
                        <path d="M2.59976723,13.9830035 C2.47826321,12.6838184 1.87283796,11.4684517 1.73038496,10.171362 C1.70197135,10.4091193 1.69146727,10.6486768 1.6989615,10.8880093 C1.74923903,12.3024447 2.45102954,13.6246799 2.59348254,15.0328289 C2.62810175,14.6838382 2.6302057,14.3323838 2.59976723,13.9830035 Z" id="Path"></path>
                        <path d="M21.5983885,19.1441211 C21.4022496,19.9968117 21.3316747,20.8735865 21.3888988,21.7466822 C21.4097814,21.2374875 21.4799391,20.7315146 21.5983885,20.2358556 C21.935667,18.8926659 22.6856401,17.6416764 22.7463921,16.254482 C22.7562903,16.0081084 22.7450766,15.7613395 22.7128738,15.5168801 C22.5494718,16.7636787 21.8979588,17.9245634 21.5983885,19.1441211 Z" id="Path"></path>
                        <path d="M3.88603402,19.2572759 C3.01228197,19.989715 1.93079714,20.4294611 0.79396598,20.5145518 C0.555147717,20.8875437 0.307949866,21.2521537 0.0628469114,21.6125728 C1.45237218,21.6941524 2.82039707,21.2405209 3.88603402,20.3448196 C4.65132112,22.8921155 5.06159933,25.5328452 5.1052641,28.1923166 C5.16741495,25.1685811 4.75602615,22.1537476 3.88603402,19.2572759 Z" id="Path"></path>
                        <path d="M21.6381916,30.8430733 C21.4077529,32.0165308 20.9091674,33.3199069 19.7821128,33.7159488 C19.4999775,33.7788499 19.2278682,33.8803895 18.9734825,34.017695 C18.456043,34.382305 18.4916562,35.1366705 18.3806267,35.7611176 C18.2004655,36.7962747 17.4861056,37.6763679 16.6292927,38.2756694 C15.7724799,38.8749709 14.7774038,39.2605355 13.794897,39.6293364 L9.87743957,41.0961583 C9.85711909,41.4895294 9.79389715,41.8795027 9.68889884,42.2591385 L13.794897,40.7189756 C14.7774038,40.3501746 15.7745748,39.9750873 16.6292927,39.367404 C17.4840107,38.7597206 18.2004655,37.877532 18.3806267,36.8423749 C18.4916562,36.2137369 18.456043,35.4635623 18.9734825,35.0989523 C19.2284056,34.9633227 19.5003781,34.862539 19.7821128,34.7993015 C20.9091674,34.4011641 21.4077529,33.0977881 21.6381916,31.9243306 C21.8767135,30.7031821 21.9758087,29.4588868 21.9335721,28.2153667 C21.9059495,29.0977915 21.8071686,29.9765467 21.6381916,30.8430733 Z" id="Path"></path>
                        <path d="M7.36565801,34.2691502 C7.2410085,34.1290147 7.08920211,34.015664 6.91944494,33.9359721 C6.73786478,33.8764887 6.54658365,33.8523054 6.35591764,33.8647264 L4.64438675,33.8647264 C4.57735004,34.2293364 4.50612355,34.5939464 4.43489705,34.956461 L6.36429722,34.956461 C6.55498653,34.9432453 6.74641948,34.9674478 6.92782453,35.0277066 C7.09748533,35.1066309 7.24930616,35.2192794 7.3740376,35.3587893 C8.69382274,36.6747381 9.69308863,38.4474971 9.86487019,40.2663562 C10.0764548,38.0912689 8.94940018,35.8533178 7.36565801,34.2691502 Z" id="Path"></path>
                    </g>
                    <path d="M4.07876455,47.6968568 C4.07876455,47.6968568 5.63736795,47.0430733 5.98512086,47.6968568 C6.33287377,48.3506403 4.07876455,47.6968568 4.07876455,47.6968568 Z" id="Path" fill="#000000" opacity="0.1"></path>
                    <path d="M4.62972247,48.8179278 C4.62972247,48.8179278 6.18832587,48.1641444 6.53817368,48.8179278 C6.88802149,49.4717113 4.62972247,48.8179278 4.62972247,48.8179278 Z" id="Path" fill="#000000" opacity="0.1"></path>
                </g>
                <g id="5f43f84a-a268-4bb5-a31a-6b0c09aee323" transform="translate(150.204118, 1.885914)" fill="#D54381" fill-rule="nonzero" opacity="0.1">
                    <path d="M23.0878603,4.65611176 C23.0878603,4.65611176 15.1167771,4.17625146 16.0573859,9.76274738 C16.0573859,9.76274738 15.87094,10.749709 16.7654611,11.1981374 C16.7654611,11.1981374 16.7801253,10.7790454 17.5824709,10.9236321 C17.8682015,10.9717328 18.1586233,10.9858006 18.4476634,10.9655413 C18.8379067,10.9385124 19.2086463,10.7847318 19.5034915,10.5275902 L19.5034915,10.5275902 C19.5034915,10.5275902 21.7429364,9.60349243 22.6144136,5.94062864 C22.6144136,5.94062864 23.2596419,5.14016298 23.2428827,4.93480792 L21.8979588,5.51105937 C21.8979588,5.51105937 22.3567413,6.48125728 21.9943241,7.28800931 C21.9943241,7.28800931 21.9524261,5.54458673 21.6926589,5.58649593 C21.6402865,5.58649593 20.9950582,5.9217695 20.9950582,5.9217695 C20.9950582,5.9217695 21.7848344,7.61280559 21.1877887,8.84284051 C21.1877887,8.84284051 21.4140376,6.75995343 20.7478603,6.04540163 L19.7967771,6.60908033 C19.7967771,6.60908033 20.7206267,8.35459837 20.0942525,9.77951106 C20.0942525,9.77951106 20.2555595,7.59394645 19.5977619,6.74318976 L18.7388541,7.41164144 C18.7388541,7.41164144 19.6082363,9.12363213 19.0845121,10.3054715 C19.0845121,10.3054715 19.0153805,7.75948778 18.5586929,7.56880093 C18.5586929,7.56880093 17.8087198,8.23096624 17.6955953,8.50337602 C17.6955953,8.50337602 18.2884512,9.76065192 17.9197493,10.4102445 C17.9197493,10.4102445 17.6935004,8.71711292 17.5007699,8.70873108 C17.5007699,8.70873108 16.7528917,9.83189756 16.6753805,10.5946449 C16.7117223,9.88292214 16.9334286,9.19306432 17.3185139,8.59348079 C16.8870825,8.67516976 16.4892595,8.88215163 16.1747001,9.18859139 C16.1747001,9.18859139 16.2899194,8.39441211 17.5028648,8.32316647 C17.5028648,8.32316647 18.1208594,7.47240978 18.2863563,7.42002328 C18.2863563,7.42002328 17.0796956,7.31944121 16.3485765,7.64423749 C16.3485765,7.64423749 16.9917099,6.89406286 18.5084154,7.22514552 L19.3463742,6.53364377 C19.3463742,6.53364377 17.7584423,6.32409779 17.0838854,6.55669383 C17.0838854,6.55669383 17.8589973,5.89452852 19.574718,6.37648428 L20.4964727,5.82537835 C20.4964727,5.82537835 19.1431692,5.53201397 18.3366338,5.63888242 C18.3366338,5.63888242 19.187162,5.17997672 20.7667144,5.6766007 L21.426607,5.38114086 C21.426607,5.38114086 20.4336258,5.1862631 20.14453,5.1548312 C19.8554342,5.1233993 19.838675,5.04377183 19.838675,5.04377183 C20.4668693,4.93918965 21.1117706,5.01175146 21.7010385,5.25331781 C21.7010385,5.25331781 23.1109042,4.74412107 23.0878603,4.65611176 Z" id="Path"></path>
                    <path d="M11.7272337,0.12572759 C11.7272337,0.12572759 5.02356312,4.46542491 9.08975828,8.40698487 C9.08975828,8.40698487 9.52340197,9.31222352 10.5100985,9.14458673 C10.5100985,9.14458673 10.27547,8.80093132 11.0065891,8.43841676 C11.2657793,8.30787911 11.5084181,8.14677994 11.7293286,7.95855646 C12.0278618,7.70534688 12.2359497,7.36187288 12.3221844,6.97997672 L12.3221844,6.97997672 C12.3221844,6.97997672 13.5791226,4.90547148 12.1126947,1.43958091 C12.1126947,1.43958091 12.1587825,0.412805588 12.0163295,0.26193248 L11.2747359,1.51920838 C11.2747359,1.51920838 12.2195345,2.02840512 12.4059803,2.89173458 C12.4059803,2.89173458 11.3396777,1.51501746 11.1490421,1.70151339 C11.1113339,1.73923166 10.78453,2.38672875 10.78453,2.38672875 C10.78453,2.38672875 12.4248344,3.27939464 12.6699373,4.6225844 C12.6699373,4.6225844 11.6224888,2.81001164 10.6567413,2.63189756 L10.2210027,3.63771828 C10.2210027,3.63771828 12.0016652,4.49685681 12.3410385,6.01606519 C12.3410385,6.01606519 11.1741808,4.15948778 10.1413966,3.86402794 L9.84811101,4.91175786 C9.84811101,4.91175786 11.5659266,5.78346915 11.8403581,7.04912689 C11.8403581,7.04912689 10.2775649,5.04167637 9.79573859,5.16321304 C9.79573859,5.16321304 9.58624888,6.13969732 9.65328559,6.42048894 C9.65328559,6.42048894 10.8725157,7.07427241 10.9646911,7.82444703 C10.9646911,7.82444703 9.77897941,6.59441211 9.62605192,6.69708964 C9.62605192,6.69708964 9.68889884,8.04447031 10.0806446,8.71082654 C9.68897949,8.11588155 9.45935128,7.42897874 9.41446732,6.71804424 C9.11539358,7.03947909 8.91726078,7.44168016 8.84465533,7.87473807 C8.84465533,7.87473807 8.46757386,7.16647264 9.40399284,6.3911525 C9.40399284,6.3911525 9.40399284,5.34342258 9.49826321,5.19883586 C9.49826321,5.19883586 8.46757386,5.82747381 8.06954342,6.52735739 C8.06954342,6.52735739 8.14495971,5.54249127 9.56739481,4.91804424 L9.83973142,3.85983702 C9.83973142,3.85983702 8.43196061,4.62677532 8.03183527,5.21979045 C8.03183527,5.21979045 8.26436885,4.22654249 9.929812,3.59790454 L10.3487914,2.60675204 C10.3487914,2.60675204 9.09185318,3.17462165 8.49690242,3.73830035 C8.49690242,3.73830035 8.91588183,2.86239814 10.478675,2.32805588 L10.8348075,1.69941793 C10.8348075,1.69941793 9.91933751,2.13108265 9.66794987,2.27776484 C9.41656222,2.42444703 9.35581021,2.36996508 9.35581021,2.36996508 C9.79967843,1.91317904 10.3618046,1.58887209 10.9793554,1.43329453 C10.9793554,1.43329453 11.7984602,0.184400466 11.7272337,0.12572759 Z" id="Path"></path>
                    <path d="M1.52508505,5.18207218 C1.52508505,5.18207218 -2.482453,12.0970896 2.92866607,13.7587893 C2.92866607,13.7587893 3.72682184,14.3685681 4.52916741,13.7587893 C4.52916741,13.7587893 4.16675022,13.5618161 4.65276634,12.9059371 C4.82160532,12.6718426 4.96223754,12.4186366 5.07174575,12.1515716 C5.22316221,11.7902213 5.25330094,11.389489 5.15763653,11.009546 L5.15763653,11.009546 C5.15763653,11.009546 5.33570278,8.59138533 2.45521934,6.1669383 C2.45521934,6.1669383 2.03623993,5.23236321 1.82675022,5.16321304 L1.73666965,6.63003492 C1.73666965,6.63003492 2.80925694,6.65518044 3.36859445,7.34039581 C3.36859445,7.34039581 1.79323187,6.59650757 1.71362578,6.84586729 C1.69686661,6.89615832 1.6989615,7.62118743 1.6989615,7.62118743 C1.6989615,7.62118743 3.58227395,7.67776484 4.42023277,8.76321304 C4.42023277,8.76321304 2.66051925,7.62537835 1.72410027,7.90197905 L1.79113697,8.99580908 C1.79113697,8.99580908 3.76662489,8.95389988 4.75751119,10.1545984 C4.75751119,10.1545984 2.87210385,9.02933644 1.82465533,9.2346915 L2.03414503,10.3012806 C2.03414503,10.3012806 3.96145031,10.3012806 4.77846016,11.3029104 C4.77846016,11.3029104 2.47407341,10.2216531 2.09908684,10.5422584 C2.09908684,10.5422584 2.35256938,11.5103609 2.54529991,11.7345751 C2.54529991,11.7345751 3.92793196,11.7639115 4.35110116,12.390454 C4.35110116,12.390454 2.73593554,11.8309662 2.64585497,11.9944121 C2.64585497,11.9944121 3.31412713,13.1657742 3.96564011,13.5806752 C3.34748348,13.230139 2.83125634,12.724606 2.46778872,12.1138533 C2.34728967,12.5358222 2.35311637,12.9838702 2.4845479,13.4025611 C2.4845479,13.4025611 1.82675022,12.9436554 2.30857654,11.8267753 C2.30857654,11.8267753 1.82675022,10.8922002 1.85398389,10.722468 C1.85398389,10.722468 1.22551477,11.7555297 1.18361683,12.5538999 C1.18361683,12.5538999 0.802345568,11.6423749 1.78694718,10.4416764 L1.55022381,9.37299185 C1.55022381,9.37299185 0.643133393,10.695227 0.555147717,11.4055879 C0.555147717,11.4055879 0.31213966,10.4144354 1.51251567,9.10058207 L1.43290958,8.0298021 C1.43290958,8.0298021 0.565622202,9.10896391 0.29747538,9.87799767 C0.29747538,9.87799767 0.268146822,8.90989523 1.42243509,7.7217695 L1.45385855,6.99883586 C1.45385855,6.99883586 0.825389436,7.79720605 0.676651746,8.04656577 C0.527914056,8.29592549 0.43992838,8.26030268 0.43992838,8.26030268 C0.628730215,7.6513049 0.982601077,7.10657454 1.46223814,6.68661234 C1.46223814,6.68661234 1.61307073,5.20093132 1.52508505,5.18207218 Z" id="Path"></path>
                </g>
                <path d="M186.137887,85.8949942 C184.482249,85.8949942 183.14009,87.2375145 183.14009,88.8935972 C183.14009,90.5496799 184.482249,91.8922002 186.137887,91.8922002 C187.793525,91.8922002 189.135685,90.5496799 189.135685,88.8935972 C189.131082,87.2394255 187.791615,85.8995987 186.137887,85.8949942 Z M177.372838,62.3650757 L177.372838,65.3636787 L180.370636,65.3636787 L185.76709,76.2977881 L183.510886,79.9711292 C183.264625,80.4055986 183.135411,80.8966017 183.1359,81.3960419 C183.1359,83.4034924 184.508057,84.3946449 186.368326,84.3946449 L203.896329,84.3946449 L203.896329,81.5112922 L186.734933,81.5112922 C186.633709,81.5174837 186.534691,81.4799583 186.462981,81.4082294 C186.391272,81.3365005 186.353756,81.2374557 186.359946,81.1362049 C186.399459,81.0065112 186.452838,80.8814576 186.519158,80.763213 L188.01701,78.3974389 L199.184906,78.3974389 C200.285061,78.4064723 201.297737,77.7988653 201.807717,76.8237485 L207.206267,67.538766 C207.311529,67.3029873 207.36305,67.046743 207.357099,66.7885914 C207.352891,66.398766 207.191031,66.027263 206.908428,65.7587969 C206.625825,65.4903307 206.246573,65.3477901 205.857153,65.3636787 L183.670098,65.3636787 L182.245568,62.3650757 L177.372838,62.3650757 Z M200.896437,85.8949942 C199.241072,85.8961513 197.899963,87.2391835 197.900734,88.8949942 C197.901505,90.5508029 199.243864,91.8925848 200.89923,91.8921995 C202.554595,91.891814 203.896329,90.5494071 203.896329,88.8935972 C203.891721,87.23861 202.550982,85.8984477 200.896437,85.8949942 Z" id="Shape" fill="#A856D9" fill-rule="nonzero"></path>
                <polygon id="Path" fill="#FFFFFF" fill-rule="nonzero" points="197.06068 70.6610012 194.546804 70.6610012 194.546804 68.1464494 192.661397 68.1464494 192.661397 70.6610012 190.14752 70.6610012 190.14752 72.546915 192.661397 72.546915 192.661397 75.0614668 194.546804 75.0614668 194.546804 72.546915 197.06068 72.546915"></polygon>
            </g>
        </g>
    </g>
</svg>