<svg xmlns="http://www.w3.org/2000/svg" xmlns:xlink="http://www.w3.org/1999/xlink" width="174" height="181" version="1.1" viewBox="0 0 174 181"><title>undraw_confirmed_81ex (2)</title><desc>Created with Sketch.</desc><defs><linearGradient id="linearGradient-1" x1="50.004%" x2="50.004%" y1="100.017%" y2=".005%"><stop offset="0%" stop-color="gray" stop-opacity=".25"/><stop offset="54%" stop-color="gray" stop-opacity=".12"/><stop offset="100%" stop-color="gray" stop-opacity=".1"/></linearGradient><linearGradient id="linearGradient-2" x1="49.998%" x2="49.998%" y1="100.008%" y2="-.007%"><stop offset="0%" stop-color="gray" stop-opacity=".25"/><stop offset="54%" stop-color="gray" stop-opacity=".12"/><stop offset="100%" stop-color="gray" stop-opacity=".1"/></linearGradient><linearGradient id="linearGradient-3" x1="50%" x2="50%" y1="99.998%" y2="-.002%"><stop offset="0%" stop-color="gray" stop-opacity=".25"/><stop offset="54%" stop-color="gray" stop-opacity=".12"/><stop offset="100%" stop-color="gray" stop-opacity=".1"/></linearGradient><linearGradient id="linearGradient-4" x1="49.995%" x2="49.995%" y1="99.995%" y2="-.006%"><stop offset="0%" stop-color="gray" stop-opacity=".25"/><stop offset="54%" stop-color="gray" stop-opacity=".12"/><stop offset="100%" stop-color="gray" stop-opacity=".1"/></linearGradient><linearGradient id="linearGradient-5" x1="50.007%" x2="50.007%" y1="99.971%" y2="-.029%"><stop offset="0%" stop-color="gray" stop-opacity=".25"/><stop offset="54%" stop-color="gray" stop-opacity=".12"/><stop offset="100%" stop-color="gray" stop-opacity=".1"/></linearGradient><linearGradient id="linearGradient-6" x1="49.99%" x2="49.99%" y1="100.002%" y2=".006%"><stop offset="0%" stop-color="gray" stop-opacity=".25"/><stop offset="54%" stop-color="gray" stop-opacity=".12"/><stop offset="100%" stop-color="gray" stop-opacity=".1"/></linearGradient><linearGradient id="linearGradient-7" x1="50.006%" x2="50.006%" y1="100%" y2="-.01%"><stop offset="0%" stop-color="gray" stop-opacity=".25"/><stop offset="54%" stop-color="gray" stop-opacity=".12"/><stop offset="100%" stop-color="gray" stop-opacity=".1"/></linearGradient><linearGradient id="linearGradient-8" x1="50%" x2="50%" y1="100%" y2="-.006%"><stop offset="0%" stop-color="gray" stop-opacity=".25"/><stop offset="54%" stop-color="gray" stop-opacity=".12"/><stop offset="100%" stop-color="gray" stop-opacity=".1"/></linearGradient><linearGradient id="linearGradient-9" x1="49.997%" x2="49.997%" y1="100.027%" y2=".024%"><stop offset="0%" stop-color="gray" stop-opacity=".25"/><stop offset="54%" stop-color="gray" stop-opacity=".12"/><stop offset="100%" stop-color="gray" stop-opacity=".1"/></linearGradient></defs><g id="Designs" fill="none" fill-rule="evenodd" stroke="none" stroke-width="1"><g id="Onboarding-Page_2-Gradient" transform="translate(-101.000000, -157.000000)"><g id="undraw_confirmed_81ex-(2)" transform="translate(102.000000, 157.000000)"><path id="Oval" stroke="#FFF" stroke-dasharray="12" stroke-width="2" d="M86,164.897619 C125.184603,164.897619 156.95,133.237755 156.95,94.1833333 C156.95,55.1289117 125.184603,23.4690476 86,23.4690476 C46.815397,23.4690476 15.05,55.1289117 15.05,94.1833333 C15.05,133.237755 46.815397,164.897619 86,164.897619 Z" opacity=".799"/><path id="Oval" stroke="#FFF" stroke-dasharray="12" stroke-width="2" d="M86,179.897619 C133.496488,179.897619 172,141.522026 172,94.1833333 C172,46.8446405 133.496488,8.46904762 86,8.46904762 C38.5035115,8.46904762 0,46.8446405 0,94.1833333 C0,141.522026 38.5035115,179.897619 86,179.897619 Z" opacity=".799"/><path id="Path" fill="url(#linearGradient-1)" fill-rule="nonzero" d="M143.557889,121.490476 C143.560333,111.511166 135.942644,103.169276 125.974048,102.234971 C116.005452,101.300666 106.96098,108.080897 105.096778,117.885714 L45.4725,116.27381 L46.1270556,126.483333 C46.1270556,126.483333 37.625,146.035714 82.3091667,151.245238 L82.3091667,171.007143 L133.9665,171.007143 L133.9665,138.15 C139.902381,134.685789 143.552243,128.346254 143.557889,121.490476 Z"/><path id="Path" fill="#EFB7B9" fill-rule="nonzero" d="M48.1743333,126.911905 C48.1743333,126.911905 40.033,145.635714 82.8251667,150.630952 L82.8251667,169.564286 L132.296667,169.564286 L132.296667,119.42381 L47.5388889,117.133333 L48.1743333,126.911905 Z"/><path id="Path" fill="url(#linearGradient-2)" fill-rule="nonzero" d="M72.8993333,48.7761905 L72.8993333,48.7761905 C70.2139766,52.999572 64.6105756,54.2686479 60.3576667,51.6166667 L33.7956111,34.1714286 C29.5581516,31.4949933 28.2848455,25.9102082 30.9456667,21.6714286 L30.9456667,21.6714286 C33.6306316,17.4538449 39.2268613,16.1854267 43.4777778,18.8309524 L70.0398333,36.2761905 C74.2806626,38.9494945 75.5583889,44.5349392 72.8993333,48.7761905 Z"/><path id="Path" fill="#EFB7B9" fill-rule="nonzero" d="M71.4277778,47.8238095 L71.4277778,47.8238095 C68.9316724,51.7495189 63.7232469,52.9292226 59.77,50.4642857 L35.0712778,34.2357143 C31.1324827,31.7479016 29.9488467,26.5567799 32.422,22.6166667 L32.422,22.6166667 C34.9181054,18.6909573 40.1265309,17.5112536 44.0797778,19.9761905 L68.7737222,36.1952381 C72.7200275,38.681868 73.906536,43.8804781 71.4277778,47.8238095 Z"/><ellipse id="Oval" cx="122.906" cy="122.129" fill="#EFB7B9" fill-rule="nonzero" rx="18.578" ry="18.517"/><rect id="Rectangle" width="77.023" height="138.562" x="45.465" y="0" fill="url(#linearGradient-3)" fill-rule="nonzero" rx="12.25"/><rect id="Rectangle" width="74.939" height="134.819" x="46.505" y="1.874" fill="#FFF" fill-rule="nonzero" rx="13.64"/><rect id="Rectangle" width="16.701" height="1.04" x="75.73" y="6.867" fill="#DBDBDB" fill-rule="nonzero" rx=".52"/><ellipse id="Oval" cx="95.978" cy="7.283" fill="#DBDBDB" fill-rule="nonzero" rx="1" ry="1"/><path id="Path" fill="url(#linearGradient-4)" fill-rule="nonzero" d="M134.914889,125.395238 L134.914889,125.395238 C129.523167,126.638095 125.822778,123.133333 124.575778,117.761905 L112.187,71.9119048 C110.954335,66.5196344 114.321322,61.1471621 119.723944,59.8857143 L119.723944,59.8857143 C125.134189,58.6571442 130.52457,62.0129451 131.790222,67.397619 L141.9,114.430952 C143.147,119.804762 140.304222,124.152381 134.914889,125.395238 Z"/><path id="Rectangle" fill="#EFB7B9" fill-rule="nonzero" d="M127.834318,61.3377026 C132.504696,61.3411065 136.289938,65.1263404 136.293352,69.7967177 L136.330191,120.190471 C136.333598,124.852044 132.55741,128.633757 127.895837,128.637165 C127.89173,128.637168 127.887623,128.637168 127.883516,128.637165 C123.213138,128.633761 119.427896,124.848527 119.424482,120.17815 L119.387643,69.7843962 C119.384236,65.1228238 123.160424,61.3411103 127.821997,61.3377026 C127.826104,61.3376996 127.830211,61.3376996 127.834318,61.3377026 Z" transform="translate(127.858917, 94.987434) rotate(-13.010000) translate(-127.858917, -94.987434)"/><rect id="Rectangle" width="70.711" height="16.429" x="70.694" y="163.369" fill="url(#linearGradient-5)" fill-rule="nonzero"/><rect id="Rectangle" width="66.889" height="12.857" x="72.606" y="165.274" fill="#65617D" fill-rule="nonzero"/><path id="Path" fill="url(#linearGradient-6)" fill-rule="nonzero" d="M62.5888889,97.9619048 L62.5888889,97.9619048 C59.9361545,102.135083 54.3997487,103.389322 50.1977222,100.769048 L32.3837778,89.2809524 C28.1966892,86.6370311 26.9382696,81.1190186 29.5672778,76.9309524 L29.5672778,76.9309524 C32.2200122,72.7577744 37.756418,71.5035356 41.9584444,74.1238095 L59.7723889,85.6119048 C63.9594774,88.2558261 65.217897,93.7738385 62.5888889,97.9619048 L62.5888889,97.9619048 Z"/><path id="Path" fill="url(#linearGradient-7)" fill-rule="nonzero" d="M58.1168889,122.278571 L58.1168889,122.278571 C55.4405122,126.490035 49.8537003,127.75603 45.6134444,125.111905 L34.5791667,117.092857 C30.3536653,114.425372 29.0834502,108.857121 31.7363889,104.630952 L31.7363889,104.630952 C34.4127655,100.419489 39.9995775,99.1534941 44.2398333,101.797619 L55.2741111,109.819048 C59.4981571,112.486436 60.768207,118.052899 58.1168889,122.278571 L58.1168889,122.278571 Z"/><g id="Group" fill="url(#linearGradient-8)" fill-rule="nonzero" opacity=".5" transform="translate(62.350000, 47.857143)"><ellipse id="Oval" cx="21.624" cy="21.426" rx="21.486" ry="21.414"/></g><ellipse id="Oval" cx="83.974" cy="69.283" fill="#69F0AE" fill-rule="nonzero" rx="20.222" ry="20.155"/><polygon id="Path" fill="#FFF" fill-rule="nonzero" points="75.197 66.593 82.78 73.521 93.523 57.776 97.316 60.926 82.78 79.821 72.037 67.855"/><path id="Path" fill="#EFB7B9" fill-rule="nonzero" d="M57.2258333,121.680952 L57.2258333,121.680952 C54.729728,125.606662 49.5213025,126.786365 45.5680556,124.321429 L35.2767222,116.854762 C31.3379271,114.366949 30.1542911,109.175827 32.6274444,105.235714 L32.6274444,105.235714 C35.1235498,101.310005 40.3319753,100.130301 44.2852222,102.595238 L54.5741667,110.07619 C58.5050826,112.562633 59.6888333,117.743203 57.2258333,121.680952 L57.2258333,121.680952 Z"/><path id="Path" fill="#EFB7B9" fill-rule="nonzero" d="M61.6094444,97.3309524 L61.6094444,97.3309524 C59.1133391,101.256662 53.9049136,102.436365 49.9516667,99.9714286 L33.1912222,89.1619048 C29.2524271,86.6740921 28.0687911,81.4829704 30.5419444,77.5428571 L30.5419444,77.5428571 C33.0380498,73.6171478 38.2464753,72.4374441 42.1997222,74.902381 L58.9601667,85.7119048 C62.8989618,88.1997174 64.0825978,93.3908392 61.6094444,97.3309524 Z"/><path id="Path" fill="url(#linearGradient-9)" fill-rule="nonzero" d="M67.1946667,73.7595238 L67.1946667,73.7595238 C64.528855,77.9509993 58.9674827,79.2104099 54.7461667,76.5785714 L32.1711667,61.9285714 C27.9657196,59.2716163 26.702111,53.7287203 29.3427222,49.5214286 L29.3427222,49.5214286 C32.0085339,45.3299531 37.5699062,44.0705425 41.7912222,46.702381 L64.3662222,61.352381 C68.5716692,64.0093361 69.8352779,69.5522321 67.1946667,73.7595238 Z"/><path id="Path" fill="#EFB7B9" fill-rule="nonzero" d="M65.9954444,72.997619 L65.9954444,72.997619 C63.4993391,76.9233284 58.2909136,78.1030321 54.3376667,75.6380952 L33.1936111,61.9166667 C29.254816,59.428854 28.07118,54.2377323 30.5443333,50.297619 L30.5443333,50.297619 C33.0404387,46.3719097 38.2488642,45.192206 42.2021111,47.6571429 L63.3437778,61.3785714 C67.2834151,63.8656016 68.4681561,69.056888 65.9954444,72.997619 Z"/></g></g></g></svg>