<?xml version="1.0" encoding="UTF-8"?>
<svg width="174px" height="181px" viewBox="0 0 174 181" version="1.1" xmlns="http://www.w3.org/2000/svg" xmlns:xlink="http://www.w3.org/1999/xlink">
    <!-- Generator: Sketch 55.1 (78136) - https://sketchapp.com -->
    <title>undraw_confirmed_81ex (2)</title>
    <desc>Created with Sketch.</desc>
    <defs>
        <linearGradient x1="50.003653%" y1="100.017289%" x2="50.003653%" y2="0.00485949042%" id="linearGradient-1">
            <stop stop-color="#808080" stop-opacity="0.25" offset="0%"></stop>
            <stop stop-color="#808080" stop-opacity="0.12" offset="54%"></stop>
            <stop stop-color="#808080" stop-opacity="0.1" offset="100%"></stop>
        </linearGradient>
        <linearGradient x1="49.9976804%" y1="100.008202%" x2="49.9976804%" y2="-0.00680853856%" id="linearGradient-2">
            <stop stop-color="#808080" stop-opacity="0.25" offset="0%"></stop>
            <stop stop-color="#808080" stop-opacity="0.12" offset="54%"></stop>
            <stop stop-color="#808080" stop-opacity="0.1" offset="100%"></stop>
        </linearGradient>
        <linearGradient x1="50%" y1="99.9982817%" x2="50%" y2="-0.00171833116%" id="linearGradient-3">
            <stop stop-color="#808080" stop-opacity="0.25" offset="0%"></stop>
            <stop stop-color="#808080" stop-opacity="0.12" offset="54%"></stop>
            <stop stop-color="#808080" stop-opacity="0.1" offset="100%"></stop>
        </linearGradient>
        <linearGradient x1="49.9948145%" y1="99.9950289%" x2="49.9948145%" y2="-0.00558638589%" id="linearGradient-4">
            <stop stop-color="#808080" stop-opacity="0.25" offset="0%"></stop>
            <stop stop-color="#808080" stop-opacity="0.12" offset="54%"></stop>
            <stop stop-color="#808080" stop-opacity="0.1" offset="100%"></stop>
        </linearGradient>
        <linearGradient x1="50.0067568%" y1="99.9710145%" x2="50.0067568%" y2="-0.0289855072%" id="linearGradient-5">
            <stop stop-color="#808080" stop-opacity="0.25" offset="0%"></stop>
            <stop stop-color="#808080" stop-opacity="0.12" offset="54%"></stop>
            <stop stop-color="#808080" stop-opacity="0.1" offset="100%"></stop>
        </linearGradient>
        <linearGradient x1="49.9899817%" y1="100.001834%" x2="49.9899817%" y2="0.00626914661%" id="linearGradient-6">
            <stop stop-color="#808080" stop-opacity="0.25" offset="0%"></stop>
            <stop stop-color="#808080" stop-opacity="0.12" offset="54%"></stop>
            <stop stop-color="#808080" stop-opacity="0.1" offset="100%"></stop>
        </linearGradient>
        <linearGradient x1="50.0059346%" y1="100.000373%" x2="50.0059346%" y2="-0.00950424519%" id="linearGradient-7">
            <stop stop-color="#808080" stop-opacity="0.25" offset="0%"></stop>
            <stop stop-color="#808080" stop-opacity="0.12" offset="54%"></stop>
            <stop stop-color="#808080" stop-opacity="0.1" offset="100%"></stop>
        </linearGradient>
        <linearGradient x1="50%" y1="100%" x2="50%" y2="-0.00555926173%" id="linearGradient-8">
            <stop stop-color="#808080" stop-opacity="0.25" offset="0%"></stop>
            <stop stop-color="#808080" stop-opacity="0.12" offset="54%"></stop>
            <stop stop-color="#808080" stop-opacity="0.1" offset="100%"></stop>
        </linearGradient>
        <linearGradient x1="49.9970588%" y1="100.02659%" x2="49.9970588%" y2="0.0244947163%" id="linearGradient-9">
            <stop stop-color="#808080" stop-opacity="0.25" offset="0%"></stop>
            <stop stop-color="#808080" stop-opacity="0.12" offset="54%"></stop>
            <stop stop-color="#808080" stop-opacity="0.1" offset="100%"></stop>
        </linearGradient>
    </defs>
    <g id="Designs" stroke="none" stroke-width="1" fill="none" fill-rule="evenodd">
        <g id="Onboarding-Page_2-Gradient" transform="translate(-101.000000, -157.000000)">
            <g id="undraw_confirmed_81ex-(2)" transform="translate(102.000000, 157.000000)">
                <path d="M86,164.897619 C125.184603,164.897619 156.95,133.237755 156.95,94.1833333 C156.95,55.1289117 125.184603,23.4690476 86,23.4690476 C46.815397,23.4690476 15.05,55.1289117 15.05,94.1833333 C15.05,133.237755 46.815397,164.897619 86,164.897619 Z" id="Oval" stroke="#FFFFFF" stroke-width="2" opacity="0.798618862" stroke-dasharray="12"></path>
                <path d="M86,179.897619 C133.496488,179.897619 172,141.522026 172,94.1833333 C172,46.8446405 133.496488,8.46904762 86,8.46904762 C38.5035115,8.46904762 0,46.8446405 0,94.1833333 C0,141.522026 38.5035115,179.897619 86,179.897619 Z" id="Oval" stroke="#FFFFFF" stroke-width="2" opacity="0.798618862" stroke-dasharray="12"></path>
                <path d="M143.557889,121.490476 C143.560333,111.511166 135.942644,103.169276 125.974048,102.234971 C116.005452,101.300666 106.96098,108.080897 105.096778,117.885714 L45.4725,116.27381 L46.1270556,126.483333 C46.1270556,126.483333 37.625,146.035714 82.3091667,151.245238 L82.3091667,171.007143 L133.9665,171.007143 L133.9665,138.15 C139.902381,134.685789 143.552243,128.346254 143.557889,121.490476 Z" id="Path" fill="url(#linearGradient-1)" fill-rule="nonzero"></path>
                <path d="M48.1743333,126.911905 C48.1743333,126.911905 40.033,145.635714 82.8251667,150.630952 L82.8251667,169.564286 L132.296667,169.564286 L132.296667,119.42381 L47.5388889,117.133333 L48.1743333,126.911905 Z" id="Path" fill="#EFB7B9" fill-rule="nonzero"></path>
                <path d="M72.8993333,48.7761905 L72.8993333,48.7761905 C70.2139766,52.999572 64.6105756,54.2686479 60.3576667,51.6166667 L33.7956111,34.1714286 C29.5581516,31.4949933 28.2848455,25.9102082 30.9456667,21.6714286 L30.9456667,21.6714286 C33.6306316,17.4538449 39.2268613,16.1854267 43.4777778,18.8309524 L70.0398333,36.2761905 C74.2806626,38.9494945 75.5583889,44.5349392 72.8993333,48.7761905 Z" id="Path" fill="url(#linearGradient-2)" fill-rule="nonzero"></path>
                <path d="M71.4277778,47.8238095 L71.4277778,47.8238095 C68.9316724,51.7495189 63.7232469,52.9292226 59.77,50.4642857 L35.0712778,34.2357143 C31.1324827,31.7479016 29.9488467,26.5567799 32.422,22.6166667 L32.422,22.6166667 C34.9181054,18.6909573 40.1265309,17.5112536 44.0797778,19.9761905 L68.7737222,36.1952381 C72.7200275,38.681868 73.906536,43.8804781 71.4277778,47.8238095 Z" id="Path" fill="#EFB7B9" fill-rule="nonzero"></path>
                <ellipse id="Oval" fill="#EFB7B9" fill-rule="nonzero" cx="122.905944" cy="122.128571" rx="18.5783889" ry="18.5166667"></ellipse>
                <rect id="Rectangle" fill="url(#linearGradient-3)" fill-rule="nonzero" x="45.4653333" y="0" width="77.0225556" height="138.561905" rx="12.25"></rect>
                <rect id="Rectangle" fill="#FFFFFF" fill-rule="nonzero" x="46.5045" y="1.87380952" width="74.9394444" height="134.819048" rx="13.64"></rect>
                <rect id="Rectangle" fill="#DBDBDB" fill-rule="nonzero" x="75.7301667" y="6.86666667" width="16.7007222" height="1.04047619" rx="0.520238095"></rect>
                <ellipse id="Oval" fill="#DBDBDB" fill-rule="nonzero" cx="95.9783889" cy="7.28333333" rx="1" ry="1"></ellipse>
                <path d="M134.914889,125.395238 L134.914889,125.395238 C129.523167,126.638095 125.822778,123.133333 124.575778,117.761905 L112.187,71.9119048 C110.954335,66.5196344 114.321322,61.1471621 119.723944,59.8857143 L119.723944,59.8857143 C125.134189,58.6571442 130.52457,62.0129451 131.790222,67.397619 L141.9,114.430952 C143.147,119.804762 140.304222,124.152381 134.914889,125.395238 Z" id="Path" fill="url(#linearGradient-4)" fill-rule="nonzero"></path>
                <path d="M127.834318,61.3377026 C132.504696,61.3411065 136.289938,65.1263404 136.293352,69.7967177 L136.330191,120.190471 C136.333598,124.852044 132.55741,128.633757 127.895837,128.637165 C127.89173,128.637168 127.887623,128.637168 127.883516,128.637165 C123.213138,128.633761 119.427896,124.848527 119.424482,120.17815 L119.387643,69.7843962 C119.384236,65.1228238 123.160424,61.3411103 127.821997,61.3377026 C127.826104,61.3376996 127.830211,61.3376996 127.834318,61.3377026 Z" id="Rectangle" fill="#EFB7B9" fill-rule="nonzero" transform="translate(127.858917, 94.987434) rotate(-13.010000) translate(-127.858917, -94.987434) "></path>
                <rect id="Rectangle" fill="url(#linearGradient-5)" fill-rule="nonzero" x="70.6943889" y="163.369048" width="70.7111111" height="16.4285714"></rect>
                <rect id="Rectangle" fill="#65617D" fill-rule="nonzero" x="72.6055" y="165.27381" width="66.8888889" height="12.8571429"></rect>
                <path d="M62.5888889,97.9619048 L62.5888889,97.9619048 C59.9361545,102.135083 54.3997487,103.389322 50.1977222,100.769048 L32.3837778,89.2809524 C28.1966892,86.6370311 26.9382696,81.1190186 29.5672778,76.9309524 L29.5672778,76.9309524 C32.2200122,72.7577744 37.756418,71.5035356 41.9584444,74.1238095 L59.7723889,85.6119048 C63.9594774,88.2558261 65.217897,93.7738385 62.5888889,97.9619048 L62.5888889,97.9619048 Z" id="Path" fill="url(#linearGradient-6)" fill-rule="nonzero"></path>
                <path d="M58.1168889,122.278571 L58.1168889,122.278571 C55.4405122,126.490035 49.8537003,127.75603 45.6134444,125.111905 L34.5791667,117.092857 C30.3536653,114.425372 29.0834502,108.857121 31.7363889,104.630952 L31.7363889,104.630952 C34.4127655,100.419489 39.9995775,99.1534941 44.2398333,101.797619 L55.2741111,109.819048 C59.4981571,112.486436 60.768207,118.052899 58.1168889,122.278571 L58.1168889,122.278571 Z" id="Path" fill="url(#linearGradient-7)" fill-rule="nonzero"></path>
                <g id="Group" opacity="0.5" transform="translate(62.350000, 47.857143)" fill="url(#linearGradient-8)" fill-rule="nonzero">
                    <ellipse id="Oval" cx="21.6242222" cy="21.4261905" rx="21.4856667" ry="21.4142857"></ellipse>
                </g>
                <ellipse id="Oval" fill="#69F0AE" fill-rule="nonzero" cx="83.9742222" cy="69.2833333" rx="20.2219444" ry="20.1547619"></ellipse>
                <polygon id="Path" fill="#FFFFFF" fill-rule="nonzero" points="75.1974444 66.5928571 82.7797778 73.5214286 93.5226111 57.7761905 97.3161667 60.9261905 82.7797778 79.8214286 72.0369444 67.8547619"></polygon>
                <path d="M57.2258333,121.680952 L57.2258333,121.680952 C54.729728,125.606662 49.5213025,126.786365 45.5680556,124.321429 L35.2767222,116.854762 C31.3379271,114.366949 30.1542911,109.175827 32.6274444,105.235714 L32.6274444,105.235714 C35.1235498,101.310005 40.3319753,100.130301 44.2852222,102.595238 L54.5741667,110.07619 C58.5050826,112.562633 59.6888333,117.743203 57.2258333,121.680952 L57.2258333,121.680952 Z" id="Path" fill="#EFB7B9" fill-rule="nonzero"></path>
                <path d="M61.6094444,97.3309524 L61.6094444,97.3309524 C59.1133391,101.256662 53.9049136,102.436365 49.9516667,99.9714286 L33.1912222,89.1619048 C29.2524271,86.6740921 28.0687911,81.4829704 30.5419444,77.5428571 L30.5419444,77.5428571 C33.0380498,73.6171478 38.2464753,72.4374441 42.1997222,74.902381 L58.9601667,85.7119048 C62.8989618,88.1997174 64.0825978,93.3908392 61.6094444,97.3309524 Z" id="Path" fill="#EFB7B9" fill-rule="nonzero"></path>
                <path d="M67.1946667,73.7595238 L67.1946667,73.7595238 C64.528855,77.9509993 58.9674827,79.2104099 54.7461667,76.5785714 L32.1711667,61.9285714 C27.9657196,59.2716163 26.702111,53.7287203 29.3427222,49.5214286 L29.3427222,49.5214286 C32.0085339,45.3299531 37.5699062,44.0705425 41.7912222,46.702381 L64.3662222,61.352381 C68.5716692,64.0093361 69.8352779,69.5522321 67.1946667,73.7595238 Z" id="Path" fill="url(#linearGradient-9)" fill-rule="nonzero"></path>
                <path d="M65.9954444,72.997619 L65.9954444,72.997619 C63.4993391,76.9233284 58.2909136,78.1030321 54.3376667,75.6380952 L33.1936111,61.9166667 C29.254816,59.428854 28.07118,54.2377323 30.5443333,50.297619 L30.5443333,50.297619 C33.0404387,46.3719097 38.2488642,45.192206 42.2021111,47.6571429 L63.3437778,61.3785714 C67.2834151,63.8656016 68.4681561,69.056888 65.9954444,72.997619 Z" id="Path" fill="#EFB7B9" fill-rule="nonzero"></path>
            </g>
        </g>
    </g>
</svg>