<?xml version="1.0" encoding="UTF-8"?>
<svg width="235px" height="180px" viewBox="0 0 235 180" version="1.1" xmlns="http://www.w3.org/2000/svg" xmlns:xlink="http://www.w3.org/1999/xlink">
    <!-- Generator: Sketch 55.1 (78136) - https://sketchapp.com -->
    <title>undraw_on_the_way_ldaq (3)</title>
    <desc>Created with Sketch.</desc>
    <g id="Designs" stroke="none" stroke-width="1" fill="none" fill-rule="evenodd">
        <g id="Onboarding-Page_3-Gradient" transform="translate(-70.000000, -157.000000)">
            <g id="undraw_on_the_way_ldaq-(3)" transform="translate(187.500000, 247.000000) scale(-1, 1) translate(-187.500000, -247.000000) translate(70.000000, 157.000000)">
                <path d="M230.295553,48.6266996 C227.971942,43.2260514 224.830653,38.2159683 220.982261,33.7728059 L91.7433775,32.4978986 L198.149243,17.5416564 C191.275221,14.8029158 183.957184,13.3504094 176.559035,13.2563659 C155.656112,-3.46513309 126.260435,-4.46045501 104.27597,10.8088999 C95.7194203,6.40525577 86.2334607,4.11645215 76.6117786,4.13399258 C47.8959792,4.13399258 23.9691107,24.0385661 18.6021287,50.4311496 L230.295553,48.6266996 Z" id="Path" fill="#FFFFFF" fill-rule="nonzero" opacity="0.1"></path>
                <path d="M234.839947,70.7629172 C234.846401,63.6050508 233.479543,56.5125106 230.813576,49.8704574 L6.82767266,73.3995056 C4.52608981,77.5802931 2.76520834,82.0370687 1.58741722,86.6625464 L70.9535478,97.0086527 L0,104.553523 C2.13434248,134.432633 27.728666,158.026205 58.9945601,158.026205 C74.7331126,158.026205 89.0354305,152.047713 99.6315516,142.297899 C110.261022,152.232386 124.701183,158.342151 140.608704,158.342151 C164.213198,158.342151 184.585052,144.892213 194.07176,125.445983 C213.105203,119.400742 227.889972,104.222002 232.950142,85.2318912 L145.233113,71.6173053 L234.831031,71.6173053 C234.835478,71.3325093 234.839947,71.0477132 234.839947,70.7629172 Z" id="Path" fill="#FFFFFF" fill-rule="nonzero" opacity="0.1"></path>
                <ellipse id="Oval" fill="#FFFFFF" fill-rule="nonzero" opacity="0.1" cx="6.24962157" cy="164.380717" rx="5.74049196" ry="1"></ellipse>
                <ellipse id="Oval" fill="#D54381" fill-rule="nonzero" opacity="0.1" cx="28.2400189" cy="166.612361" rx="5.74049196" ry="1"></ellipse>
                <ellipse id="Oval" fill="#FFFFFF" fill-rule="nonzero" opacity="0.1" cx="54.1433775" cy="163.590853" rx="5.74049196" ry="1"></ellipse>
                <ellipse id="Oval" fill="#FFFFFF" fill-rule="nonzero" opacity="0.1" cx="19.4380795" cy="172.966873" rx="4.08192999" ry="1"></ellipse>
                <ellipse id="Oval" fill="#FFFFFF" fill-rule="nonzero" opacity="0.1" cx="42.2644276" cy="172.40618" rx="4.08192999" ry="1"></ellipse>
                <path d="M28.3645222,166.434363 C28.3645222,166.434363 20.3118259,140.01953 29.622895,129.439802 C36.5906339,121.523362 44.4965941,122.471199 48.0382687,123.450185 C49.8929629,123.944767 51.4372593,125.229137 52.2624882,126.963412 C53.5008515,129.633375 53.2763009,133.974289 44.5366131,139.038319 C29.9030274,147.517676 28.9937086,159.14759 28.9937086,159.14759 L28.3645222,166.434363 Z" id="Path" fill="#DCE0ED" fill-rule="nonzero"></path>
                <path d="M46.7776727,127.197033 C46.7776727,127.197033 23.0420057,134.62398 28.3645222,166.434363" id="Path" stroke="#A44398"></path>
                <path d="M32.9155629,129.860321 C32.9155629,129.860321 36.1837748,132.063041 35.1388363,135.37602" id="Path" stroke="#A44398"></path>
                <path d="M44.3965468,131.818294 C44.3965468,131.818294 42.3956008,129.784672 39.9677862,130.906057" id="Path" stroke="#A44398"></path>
                <path d="M35.014333,142.053152 C35.014333,142.053152 31.5060076,140.273177 30.598912,142.498146" id="Path" stroke="#A44398"></path>
                <path d="M26.3324503,145.7644 C26.3324503,145.7644 28.9670293,145.555253 29.0159413,146.816811" id="Path" stroke="#A44398"></path>
                <path d="M28.0443709,166.645735 C28.0443709,166.645735 37.4754967,147.446477 40.0656102,147.866996 C41.2950804,148.067244 41.8620151,149.277627 42.1199149,150.494685 C42.4395207,152.072069 42.2600071,153.709922 41.6063387,155.18047 C40.2723746,158.239802 36.6662252,164.080346 28.0443709,166.645735 Z" id="Path" fill="#DCE0ED" fill-rule="nonzero"></path>
                <path d="M39.9877956,151.511496 C39.9877956,151.511496 30.0897824,165.875896 28.1777673,166.505562" id="Path" stroke="#A44398"></path>
                <path d="M40.8993377,153.75204 L38.5893567,153.75204" id="Path" stroke="#A44398"></path>
                <path d="M38.1313623,159.007417 L34.5118732,159.163164" id="Path" stroke="#A44398"></path>
                <path d="M35.9280984,154.80445 L36.3216178,156.691224" id="Path" stroke="#A44398"></path>
                <path d="M32.0773888,160.54932 L32.1485336,162.264771" id="Path" stroke="#A44398"></path>
                <path d="M28.3178335,166.645735 C28.3178335,166.645735 18.8867077,147.446477 16.2965941,147.866996 C15.0671239,148.067244 14.5001892,149.277627 14.2422895,150.494685 C13.9251836,152.067976 14.1054611,153.701043 14.7580889,155.16712 C16.0942763,158.239802 19.6893094,164.080346 28.3178335,166.645735 Z" id="Path" fill="#DCE0ED" fill-rule="nonzero"></path>
                <path d="M16.3677389,151.511496 C16.3677389,151.511496 26.2657521,165.875896 28.1777673,166.505562" id="Path" stroke="#A44398"></path>
                <path d="M15.4584201,153.75204 L17.7684011,153.75204" id="Path" stroke="#A44398"></path>
                <path d="M18.2241722,159.007417 L21.8458846,159.163164" id="Path" stroke="#A44398"></path>
                <path d="M20.4296594,154.80445 L20.03614,156.691224" id="Path" stroke="#A44398"></path>
                <path d="M24.280369,160.54932 L24.2092242,162.264771" id="Path" stroke="#A44398"></path>
                <path d="M44.5099338,171.129048 C44.7670913,170.91984 44.9547114,170.637419 45.0479659,170.319159 C45.1330671,169.989746 44.9764354,169.645636 44.6722327,169.493696 C44.3276254,169.360198 43.958562,169.600494 43.6806528,169.840791 C43.4027436,170.081088 43.080369,170.359209 42.7157521,170.308035 C43.0943008,169.95921 43.2629633,169.437645 43.1604068,168.933004 C43.1450884,168.829982 43.1020502,168.733072 43.0359035,168.652658 C42.844702,168.44796 42.4978713,168.536959 42.2688742,168.697157 C41.5396405,169.2089 41.3373226,170.199011 41.3328761,171.091224 C41.2928274,170.764119 41.2883547,170.433632 41.3195364,170.105562 C41.3195364,169.776267 41.2261589,169.409147 40.9482498,169.233375 C40.7762683,169.138785 40.5818713,169.092648 40.3857616,169.099876 C40.0567171,169.099876 39.6943236,169.119901 39.4697729,169.360198 C39.1918638,169.658344 39.2630085,170.156737 39.5053453,170.486032 C39.7756732,170.790963 40.0959659,171.047543 40.4524598,171.244747 C40.7197747,171.407763 40.9475846,171.628147 41.1194418,171.889988 C41.1393441,171.926929 41.1557206,171.965667 41.1683538,172.005686 L43.2204352,172.005686 C43.6884242,171.774069 44.1223292,171.479088 44.5099338,171.129048 L44.5099338,171.129048 Z" id="Path" fill="#DCE0ED" fill-rule="nonzero"></path>
                <path d="M8.57516556,163.397281 C8.8325333,163.188264 9.02020074,162.905772 9.11319773,162.587392 C9.19768466,162.25743 9.04136779,161.913085 8.73746452,161.759703 C8.39285714,161.62843 8.02601703,161.868727 7.74588458,162.109023 C7.46575213,162.34932 7.14782403,162.625216 6.78098392,162.574042 C7.16068571,162.225957 7.32956303,161.703728 7.2256386,161.199011 C7.20897239,161.096642 7.16521423,161.000608 7.09891202,160.92089 C6.9077105,160.716193 6.56087985,160.802967 6.33188269,160.965389 C5.60264901,161.477132 5.40033113,162.467244 5.39588458,163.359456 C5.35583193,163.031607 5.35135933,162.700382 5.38254494,162.37157 C5.38254494,162.042274 5.29139073,161.677379 5.01348155,161.501607 C4.84068563,161.407043 4.64558365,161.360921 4.4487701,161.368109 C4.12194891,161.354759 3.75733207,161.388133 3.53278146,161.62843 C3.25487228,161.926576 3.3282403,162.424969 3.56835383,162.740915 C3.83833633,163.047711 4.15956621,163.305192 4.51769158,163.501854 C4.78565314,163.664031 5.01363236,163.884579 5.1846736,164.147095 C5.20478241,164.184231 5.22188235,164.222921 5.23580889,164.262794 L7.28789026,164.262794 C7.75420933,164.034032 8.18727041,163.742859 8.57516556,163.397281 L8.57516556,163.397281 Z" id="Path" fill="#DCE0ED" fill-rule="nonzero"></path>
                <path d="M20.5519395,171.129048 C20.8090969,170.91984 20.9967171,170.637419 21.0899716,170.319159 C21.1750728,169.989746 21.018441,169.645636 20.7142384,169.493696 C20.369631,169.360198 20.0005676,169.600494 19.7226585,169.840791 C19.4447493,170.081088 19.1223746,170.359209 18.7577578,170.308035 C19.1363064,169.95921 19.3049689,169.437645 19.2024125,168.933004 C19.1870941,168.829982 19.1440559,168.733072 19.0779092,168.652658 C18.8867077,168.44796 18.539877,168.536959 18.3108798,168.697157 C17.5816462,169.2089 17.3793283,170.199011 17.3748817,171.091224 C17.3348331,170.764119 17.3303604,170.433632 17.3615421,170.105562 C17.3615421,169.776267 17.2703879,169.409147 16.9924787,169.233375 C16.8196036,169.139017 16.6245592,169.092909 16.4277673,169.099876 C16.1009461,169.099876 15.7363292,169.119901 15.5117786,169.360198 C15.2338694,169.658344 15.3050142,170.156737 15.547351,170.486032 C15.8176789,170.790963 16.1379716,171.047543 16.4944655,171.244747 C16.7617803,171.407763 16.9895902,171.628147 17.1614475,171.889988 C17.1813498,171.926929 17.1977263,171.965667 17.2103595,172.005686 L19.2624409,172.005686 C19.7304299,171.774069 20.1643348,171.479088 20.5519395,171.129048 L20.5519395,171.129048 Z" id="Path" fill="#DCE0ED" fill-rule="nonzero"></path>
                <path d="M54.5168874,155.49864 C54.5168874,155.49864 55.28614,156.506551 54.1611637,158.026205 C53.0361873,159.545859 52.1113056,160.829666 52.4848155,161.777503 C52.4848155,161.777503 54.1811731,158.954017 55.5618259,158.913968 C56.9424787,158.873918 56.0353832,157.196292 54.5168874,155.49864 Z" id="Path" fill="#DCE0ED" fill-rule="nonzero"></path>
                <path d="M54.5168874,155.49864 C54.5838744,155.59613 54.6369999,155.702462 54.6747398,155.814586 C56.0220435,157.398764 56.7379376,158.876143 55.4439924,158.913968 C54.236755,158.949567 52.7916272,161.107787 52.4447966,161.652905 C52.455913,161.695179 52.4692526,161.735229 52.4848155,161.777503 C52.4848155,161.777503 54.1811731,158.954017 55.5618259,158.913968 C56.9424787,158.873918 56.0353832,157.196292 54.5168874,155.49864 Z" id="Path" fill="#000000" fill-rule="nonzero" opacity="0.1"></path>
                <path d="M55.9464522,156.782447 C55.9464522,157.136218 55.9064333,157.423239 55.8575213,157.423239 C55.8086093,157.423239 55.7685904,157.136218 55.7685904,156.782447 C55.7685904,156.428677 55.8197256,156.59555 55.8686377,156.59555 C55.9175497,156.59555 55.9464522,156.428677 55.9464522,156.782447 Z" id="Path" fill="#FFD037" fill-rule="nonzero"></path>
                <path d="M56.4377956,157.205192 C56.1265374,157.374289 55.855298,157.476638 55.8330653,157.427689 C55.8108325,157.378739 56.042053,157.205192 56.3533113,157.042769 C56.6645695,156.880346 56.5400662,156.996044 56.5645222,157.042769 C56.5889782,157.089493 56.7490539,157.036094 56.4377956,157.205192 Z" id="Path" fill="#FFD037" fill-rule="nonzero"></path>
                <path d="M50.4527436,155.49864 C50.4527436,155.49864 49.683491,156.506551 50.8084674,158.026205 C51.9334437,159.545859 52.8605487,160.829666 52.4848155,161.777503 C52.4848155,161.777503 50.7884579,158.954017 49.4078051,158.913968 C48.0271523,158.873918 48.943141,157.196292 50.4527436,155.49864 Z" id="Path" fill="#DCE0ED" fill-rule="nonzero"></path>
                <path d="M50.4527436,155.49864 C50.3860473,155.595972 50.3336378,155.702369 50.2971145,155.814586 C48.9498108,157.398764 48.2316935,158.876143 49.5256386,158.913968 C50.7328761,158.949567 52.1802271,161.107787 52.5270577,161.652905 C52.5137181,161.695179 52.5003784,161.735229 52.4848155,161.777503 C52.4848155,161.777503 50.7884579,158.954017 49.4078051,158.913968 C48.0271523,158.873918 48.943141,157.196292 50.4527436,155.49864 Z" id="Path" fill="#000000" fill-rule="nonzero" opacity="0.1"></path>
                <path d="M49.0231788,156.782447 C49.0231788,157.136218 49.0631977,157.423239 49.1121097,157.423239 C49.1610218,157.423239 49.2010407,157.136218 49.2010407,156.782447 C49.2010407,156.428677 49.1521287,156.59555 49.1032167,156.59555 C49.0543046,156.59555 49.0231788,156.428677 49.0231788,156.782447 Z" id="Path" fill="#FFD037" fill-rule="nonzero"></path>
                <path d="M48.5318354,157.205192 C48.8430937,157.374289 49.114333,157.476638 49.138789,157.427689 C49.163245,157.378739 48.9275781,157.205192 48.618543,157.042769 C48.309508,156.880346 48.4295648,156.996044 48.3962157,157.042769 C48.3628666,157.089493 48.2228004,157.036094 48.5318354,157.205192 Z" id="Path" fill="#FFD037" fill-rule="nonzero"></path>
                <path d="M49.2677389,161.644005 C49.2677389,161.644005 51.4198675,161.579481 52.0668401,161.116687 C52.7138127,160.653894 55.375071,160.102101 55.5373699,160.843016 C55.6996689,161.583931 58.7677862,164.527565 56.3399716,164.54759 C53.912157,164.567614 50.699527,164.169345 50.0525544,163.775525 C49.4055818,163.381706 49.2677389,161.644005 49.2677389,161.644005 Z" id="Path" fill="#CECECE" fill-rule="nonzero"></path>
                <path d="M56.3844371,164.289493 C53.9566225,164.309518 50.7417692,163.911248 50.0947966,163.517429 C49.6012299,163.217058 49.4055818,162.140173 49.3411069,161.64178 L49.2677389,161.64178 C49.2677389,161.64178 49.4055818,163.379481 50.0525544,163.7733 C50.699527,164.16712 53.912157,164.565389 56.3399716,164.545365 C57.042526,164.545365 57.2826395,164.289493 57.2692999,163.920148 C57.1692526,164.147095 56.9046831,164.285043 56.3844371,164.289493 Z" id="Path" fill="#000000" fill-rule="nonzero" opacity="0.2"></path>
                <ellipse id="Oval" fill="#FFFFFF" fill-rule="nonzero" opacity="0.1" cx="136.151041" cy="176.653646" rx="73.2390728" ry="3.32410383"></ellipse>
                <path d="M128.689735,77.2709518 C128.689735,77.2709518 133.358609,86.110754 133.721003,87.3723115 C133.914582,88.0910616 134.551881,88.6009296 135.29508,88.631644 C135.29508,88.631644 139.946168,89.7441286 141.057805,89.8932015 C142.169442,90.0422744 151.805109,90.8566131 151.805109,90.8566131 C151.805109,90.8566131 154.25071,90.9322621 154.546405,90.0422744 C154.817644,89.2279357 159.5421,84.9493201 162.276727,88.6828183 C162.788089,89.3832791 162.935085,90.2857663 162.672469,91.1124845 C162.170009,92.7144623 161.138411,95.257602 160.03122,93.6756489 C158.474929,91.4506799 156.665184,92.0758962 156.665184,93.2618047 C156.665184,94.4477132 154.175118,94.0071693 153.3614,94.174042 C152.916746,94.2652658 151.387133,94.6724351 150.064286,95.0284302 C148.528811,95.4437499 146.9559,95.7053564 145.368732,95.8093943 C142.743046,95.9807169 138.872327,96.123115 137.500568,95.6046972 C135.844229,94.9750309 132.956197,94.8304079 131.720057,94.7970334 C131.31054,94.7871242 130.915177,94.6450909 130.592857,94.392089 C128.877041,93.0480003 127.425796,91.3964687 126.313056,89.5216316 C124.385478,86.184178 120.421381,79.273424 120.688174,77.2709518 C120.954967,75.2684796 128.689735,77.2709518 128.689735,77.2709518 Z" id="Path" fill="#EFB7B9" fill-rule="nonzero"></path>
                <path d="M128.689735,77.2709518 C128.689735,77.2709518 133.358609,86.110754 133.721003,87.3723115 C133.914582,88.0910616 134.551881,88.6009296 135.29508,88.631644 C135.29508,88.631644 139.946168,89.7441286 141.057805,89.8932015 C142.169442,90.0422744 151.805109,90.8566131 151.805109,90.8566131 C151.805109,90.8566131 154.25071,90.9322621 154.546405,90.0422744 C154.817644,89.2279357 159.5421,84.9493201 162.276727,88.6828183 C162.788089,89.3832791 162.935085,90.2857663 162.672469,91.1124845 C162.170009,92.7144623 161.138411,95.257602 160.03122,93.6756489 C158.474929,91.4506799 156.665184,92.0758962 156.665184,93.2618047 C156.665184,94.4477132 154.175118,94.0071693 153.3614,94.174042 C152.916746,94.2652658 151.387133,94.6724351 150.064286,95.0284302 C148.528811,95.4437499 146.9559,95.7053564 145.368732,95.8093943 C142.743046,95.9807169 138.872327,96.123115 137.500568,95.6046972 C135.844229,94.9750309 132.956197,94.8304079 131.720057,94.7970334 C131.31054,94.7871242 130.915177,94.6450909 130.592857,94.392089 C128.877041,93.0480003 127.425796,91.3964687 126.313056,89.5216316 C124.385478,86.184178 120.421381,79.273424 120.688174,77.2709518 C120.954967,75.2684796 128.689735,77.2709518 128.689735,77.2709518 Z" id="Path" fill="#000000" fill-rule="nonzero" opacity="0.05"></path>
                <path d="M182.250615,144.055624 C180.136282,146.356242 178.579991,147.261805 178.653359,144.834363 C178.875686,137.491965 165.9807,104.295426 165.9807,104.295426 L169.793614,104.00618 C178.115326,118.355006 181.210123,133.111001 182.250615,144.055624 Z" id="Path"></path>
                <path d="M200.439215,160.075402 C200.422112,169.897558 192.681976,177.965746 182.876144,178.382852 C173.070312,178.799958 164.673989,171.418159 163.824125,161.63288 C163.797446,161.334734 163.777436,161.036588 163.768543,160.742892 L163.768543,160.727318 C163.75965,160.506304 163.755203,160.283807 163.755203,160.059827 C163.755203,149.922091 171.967199,141.703832 182.097209,141.703832 C192.227219,141.703832 200.439215,149.922091 200.439215,160.059827 L200.439215,160.075402 Z" id="Path" fill="#65617D" fill-rule="nonzero"></path>
                <ellipse id="Oval" fill="#DCE0ED" fill-rule="nonzero" cx="182.097209" cy="160.064277" rx="10.0047304" ry="10.0123609"></ellipse>
                <ellipse id="Oval" fill="#65617D" fill-rule="nonzero" cx="182.097209" cy="160.064277" rx="6.00283822" ry="6.00741656"></ellipse>
                <path d="M133.927767,125.205686 L89.7602176,126.095674 L89.7602176,119.580964 C90.1559603,114.336712 95.5407285,112.496663 100.43193,111.920396 C104.255945,111.485957 108.127518,111.776565 111.843992,112.777009 C121.21509,115.260074 127.184579,115.740667 130.12597,115.787392 C131.456989,115.807397 132.590437,116.761335 132.838363,118.07021 C132.97843,118.815575 133.116272,119.627689 133.245222,120.428677 C133.343046,121.056119 133.436424,121.67466 133.520908,122.250927 C133.765468,123.910754 133.927767,125.205686 133.927767,125.205686 Z" id="Path" fill="#65617D" fill-rule="nonzero"></path>
                <path d="M169.164428,161.250373 L77.412157,161.250373 C75.9640584,161.264902 74.6471076,160.412828 74.0661306,159.08529 C73.3746925,157.432138 74.3418165,156.377503 75.3734153,155.758962 C77.4845942,154.506772 79.0849382,152.547377 79.8911069,150.227689 C80.8693472,147.335229 81.8253548,142.809642 82.201088,135.73869 C82.5879376,128.425216 85.2336329,124.809642 88.0927625,123.056366 L88.0927625,123.056366 C91.7856197,120.795797 95.8342006,121.643511 95.8342006,121.643511 L133.036235,121.941656 C133.698439,122.242228 134.310955,122.64213 134.852649,123.127565 C138.16755,126.215822 133.334153,130.247466 133.334153,130.247466 C122.958136,141.223239 130.812961,152.348084 130.812961,152.348084 L149.848628,152.348084 C153.40524,152.366462 156.883184,151.300942 159.820009,149.293201 C162.392337,147.513226 163.377247,145.793325 163.77299,144.75204 C164.066462,143.955501 164.36438,143.161187 164.720104,142.391347 C169.713576,131.553523 163.690728,113.922868 161.091722,107.330284 C160.446973,105.690482 160.013434,104.733745 160.013434,104.733745 L165.982923,104.288752 L169.762488,104.001731 L169.800284,104.001731 C178.119773,118.361681 181.212346,133.117676 182.250615,144.051174 C182.348439,145.081335 182.428477,146.080346 182.492952,147.039308 C182.730973,150.724644 181.432889,154.344009 178.90739,157.036697 C176.381891,159.729385 172.854637,161.254798 169.164428,161.250373 L169.164428,161.250373 Z" id="Path" fill="#9F43D5" fill-rule="nonzero"></path>
                <path d="M133.523132,122.250927 L89.7602176,122.250927 L89.7602176,120.428677 L133.247446,120.428677 C133.34527,121.044994 133.438647,121.663535 133.523132,122.250927 Z" id="Path" fill="#000000" fill-rule="nonzero" opacity="0.1"></path>
                <path d="M134.854872,123.140919 L88.446263,123.140919 C88.3255557,123.141286 88.2060365,123.117061 88.0949858,123.069716 C91.787843,120.809147 95.8364238,121.65686 95.8364238,121.65686 L133.038458,121.955006 C133.700662,122.255578 134.313178,122.65548 134.854872,123.140919 L134.854872,123.140919 Z" id="Path" fill="#000000" fill-rule="nonzero" opacity="0.1"></path>
                <rect id="Rectangle" fill="#DCE0ED" fill-rule="nonzero" x="71.2981552" y="120.862546" width="64.8528855" height="1.82224969" rx="0.911124845"></rect>
                <path d="M182.250615,144.055624 C180.136282,146.356242 178.579991,147.261805 178.653359,144.834363 C178.875686,137.491965 165.9807,104.295426 165.9807,104.295426 L169.793614,104.00618 C178.115326,118.355006 181.210123,133.111001 182.250615,144.055624 Z" id="Path" fill="#000000" fill-rule="nonzero" opacity="0.1"></path>
                <path d="M200.328051,158.052905 C198.138127,158.577998 195.43685,159.11199 192.101939,159.610383 C190.861353,159.792831 189.527389,159.967862 188.100047,160.135476 C184.691769,160.54042 180.749905,160.89419 176.196641,161.165637 C174.907143,161.242769 173.567991,161.313226 172.179186,161.377009 C169.577956,161.495674 166.793677,161.586156 163.826348,161.648455 L163.770766,160.758467 L163.770766,160.742892 C167.917171,159.067491 174.442479,154.597528 175.491864,142.954265 C180.802763,140.906037 186.762718,141.439913 191.625715,144.399491 C196.488712,147.359069 199.704236,152.409308 200.330274,158.070705 L200.328051,158.052905 Z" id="Path" fill="#000000" fill-rule="nonzero" opacity="0.1"></path>
                <path d="M160.311353,161.250185 C160.311353,161.250185 181.365752,158.962917 174.113434,126.858838 C174.113434,126.858838 184.516131,136.403956 190.988079,141.708282 C197.460028,147.012608 208.996594,154.326082 208.996594,154.326082 C208.996594,154.326082 202.108893,160.767367 160.311353,161.250185 Z" id="Path" fill="#9F43D5" fill-rule="nonzero"></path>
                <path d="M160.311353,161.250185 C160.311353,161.250185 181.365752,158.962917 174.113434,126.858838 C174.113434,126.858838 184.516131,136.403956 190.988079,141.708282 C197.460028,147.012608 208.996594,154.326082 208.996594,154.326082 C208.996594,154.326082 202.108893,160.767367 160.311353,161.250185 Z" id="Path" fill="#FFFFFF" fill-rule="nonzero" opacity="0.1"></path>
                <ellipse id="Oval" fill="#65617D" fill-rule="nonzero" cx="104.062535" cy="160.064277" rx="18.3420057" ry="18.3559951"></ellipse>
                <ellipse id="Oval" fill="#DCE0ED" fill-rule="nonzero" cx="104.062535" cy="160.064277" rx="10.0047304" ry="10.0123609"></ellipse>
                <ellipse id="Oval" fill="#65617D" fill-rule="nonzero" cx="104.062535" cy="160.064277" rx="6.00283822" ry="6.00741656"></ellipse>
                <path d="M124.627815,154.550803 C124.627815,142.698393 115.221145,133.088752 103.617881,133.088752 C92.0146168,133.088752 82.607947,142.698393 82.607947,154.550803 C82.607947,155.052163 82.6249921,155.548331 82.6590823,156.039308 L124.576679,156.039308 C124.610769,155.548331 124.627815,155.052163 124.627815,154.550803 Z" id="Path" fill="#000000" fill-rule="nonzero" opacity="0.1"></path>
                <path d="M123.849669,154.181459 C123.849669,142.767367 114.792053,133.513721 103.617881,133.513721 C92.4437086,133.513721 83.3860927,142.767367 83.3860927,154.181459 C83.3860927,154.664277 83.4038789,155.14042 83.4350047,155.614339 L123.800757,155.614339 C123.831883,155.14042 123.849669,154.664277 123.849669,154.181459 Z" id="Path" fill="#9F43D5" fill-rule="nonzero"></path>
                <path d="M123.849669,154.181459 C123.849669,154.512979 123.849669,154.848949 123.825213,155.169345 C123.825213,155.318418 123.80965,155.465266 123.800757,155.614339 L83.4350047,155.614339 C83.4350047,155.465266 83.4172185,155.318418 83.4105487,155.169345 C83.3949858,154.842274 83.3860927,154.501854 83.3860927,154.181459 C83.3860927,142.767367 92.4437086,133.513721 103.617881,133.513721 C114.792053,133.513721 123.849669,142.767367 123.849669,154.181459 Z" id="Path" fill="#FFFFFF" fill-rule="nonzero" opacity="0.1"></path>
                <path d="M123.825213,155.18047 C123.825213,155.329543 123.80965,155.476391 123.800757,155.625464 L83.4350047,155.625464 C83.4350047,155.476391 83.4172185,155.329543 83.4105487,155.18047 L123.825213,155.18047 Z" id="Path" fill="#000000" fill-rule="nonzero" opacity="0.1"></path>
                <rect id="Rectangle" fill="#000000" fill-rule="nonzero" opacity="0.1" x="74.5352412" y="156.059333" width="54.3545885" height="4.74585909" rx="2.37292954"></rect>
                <rect id="Rectangle" fill="#DCE0ED" fill-rule="nonzero" x="74.5352412" y="155.614339" width="54.3545885" height="4.74585909" rx="2.37292954"></rect>
                <ellipse id="Oval" fill="#000000" fill-rule="nonzero" opacity="0.1" transform="translate(175.869496, 118.546879) rotate(-24.330000) translate(-175.869496, -118.546879) " cx="175.869496" cy="118.546879" rx="2.66382707" ry="6.70963873"></ellipse>
                <ellipse id="Oval" fill="#DCE0ED" fill-rule="nonzero" transform="translate(176.091645, 118.323675) rotate(-24.330000) translate(-176.091645, -118.323675) " cx="176.091645" cy="118.323675" rx="2.66382707" ry="6.70963873"></ellipse>
                <path d="M169.760265,104.00618 L169.760265,107.492713 L162.979281,107.492713 C162.347783,107.493349 161.717272,107.44275 161.093945,107.341409 C160.449196,105.701607 160.015658,104.74487 160.015658,104.74487 L165.985147,104.299876 L169.760265,104.00618 Z" id="Path" fill="#000000" fill-rule="nonzero" opacity="0.1"></path>
                <path d="M169.760265,107.038813 L162.979281,107.038813 C157.023132,107.038813 152.196405,102.588875 152.196405,97.0776267 L152.196405,96.1542645 C152.196405,90.6541409 157.023132,86.1953028 162.979281,86.1953028 L169.760265,86.8116193 L169.760265,107.038813 Z" id="Path" fill="#9F43D5" fill-rule="nonzero"></path>
                <path d="M158.588316,92.091471 C158.588316,92.091471 162.64579,94.2608158 160.311353,97.9320148 C160.311353,97.9320148 157.447777,102.63115 152.945648,102.186156 L151.307096,92.091471 C151.307096,92.091471 156.698534,91.5908529 158.588316,92.091471 Z" id="Path" fill="#9F43D5" fill-rule="nonzero"></path>
                <path d="M157.029801,91.8956737 C158.336239,91.9452555 159.549695,92.5851787 160.329139,93.6355995 C161.051703,94.6368356 161.483018,96.0964153 160.315799,97.9320148 C160.315799,97.9320148 157.452223,102.63115 152.950095,102.186156 L151.311542,92.091471 C151.311542,92.091471 154.684248,91.7688504 157.029801,91.8956737 Z" id="Path" fill="#000000" fill-rule="nonzero" opacity="0.1"></path>
                <path d="M169.537938,86.8116193 L170.845222,86.8116193 C173.131535,86.8116193 174.984957,88.6664554 174.984957,90.9545117 L174.984957,102.898146 C174.984957,103.996909 174.548808,105.05067 173.772457,105.827613 C172.996106,106.604556 171.943148,107.041038 170.845222,107.041038 L169.537938,107.041038 L169.537938,86.8116193 Z" id="Path" fill="#000000" fill-rule="nonzero" opacity="0.1"></path>
                <path d="M169.760265,86.8116193 L171.06755,86.8116193 C173.353862,86.8116193 175.207285,88.6664554 175.207285,90.9545117 L175.207285,102.898146 C175.207285,103.996909 174.771135,105.05067 173.994784,105.827613 C173.218434,106.604556 172.165476,107.041038 171.06755,107.041038 L169.760265,107.041038 L169.760265,86.8116193 L169.760265,86.8116193 Z" id="Path" fill="#DCE0ED" fill-rule="nonzero"></path>
                <path d="M121.617502,112.790358 C121.617502,112.790358 122.664664,113.173053 124.063103,113.707046 C126.286377,114.563659 129.421192,115.814091 130.510596,116.499382 C131.6,117.184672 135.661921,118.310507 138.703359,119.102596 C140.958149,119.6871 143.279715,119.97359 145.608846,119.954759 C147.974409,119.932509 150.840208,119.91026 151.631693,119.91026 C151.770162,119.909118 151.908485,119.919537 152.045222,119.941409 C152.876727,120.079357 152.843377,120.637824 152.823368,120.771323 L152.823368,120.800247 C147.932167,123.766131 142.002696,137.042522 141.633633,139.267491 C141.355724,140.936218 138.912346,145.561928 137.707332,147.773548 C137.302696,148.514462 137.04035,148.983931 137.04035,148.983931 L138.523273,150.688257 L142.820861,152.617305 L146.896121,154.397281 C146.896121,154.397281 151.195932,154.619778 151.2693,154.397281 C151.342668,154.174784 151.342668,151.876391 151.342668,151.876391 C150.819377,151.538318 150.322862,151.16044 149.857521,150.746106 C148.871471,149.886787 147.955538,148.950067 147.118448,147.94487 C144.748439,145.125834 149.490681,139.712485 149.490681,139.712485 L158.606102,127.846724 C158.606102,127.846724 159.346452,126.511743 162.90369,121.171817 C166.460927,115.831891 162.90369,112.939431 162.90369,112.939431 L156.642952,110.338443 C145.784484,106.271199 132.687181,103.011619 132.687181,103.011619 L132.500426,102.987145 L129.723557,102.640049 L121.617502,112.790358 Z" id="Path" fill="#EFB7B9" fill-rule="nonzero"></path>
                <path d="M149.592952,152.617305 C149.592952,152.617305 150.371097,153.536218 149.7886,153.618541 C149.206102,153.700865 147.67649,153.369345 147.67649,153.369345 L137.976348,148.251916 C137.976348,148.251916 136.920293,147.499876 136.671287,148.975031 C136.42228,150.450185 136.253311,150.310012 136.253311,150.310012 C136.253311,150.310012 134.974929,153.062299 136.253311,153.631891 C137.531693,154.201483 145.21088,156.455377 145.21088,156.455377 C145.21088,156.455377 156.356149,158.987392 157.412204,156.066007 C158.468259,153.144623 155.522422,153.647466 155.522422,153.647466 C155.522422,153.647466 151.854021,152.757478 150.602318,150.977503 C150.593425,150.977503 148.788127,151.478121 149.592952,152.617305 Z" id="Path" fill="#444053" fill-rule="nonzero"></path>
                <path d="M162.894797,112.939431 L156.634059,110.338443 C145.775591,106.271199 132.678288,103.011619 132.678288,103.011619 L132.491533,102.987145 L129.714664,102.640049 L121.617502,112.790358 C121.617502,112.790358 122.664664,113.173053 124.063103,113.707046 C126.286377,114.563659 129.421192,115.814091 130.510596,116.499382 C131.6,117.184672 135.661921,118.310507 138.703359,119.102596 C140.958149,119.6871 143.279715,119.97359 145.608846,119.954759 C147.974409,119.932509 150.840208,119.91026 151.631693,119.91026 C151.770162,119.909118 151.908485,119.919537 152.045222,119.941409 C152.876727,120.079357 152.843377,120.637824 152.823368,120.771323 L152.823368,120.800247 C147.932167,123.766131 142.002696,137.042522 141.633633,139.267491 C141.355724,140.936218 138.912346,145.561928 137.707332,147.773548 L137.545033,148.071693 C137.222658,148.018294 136.820246,148.133993 136.677956,148.975031 C136.426727,150.44796 136.259981,150.310012 136.259981,150.310012 C136.259981,150.310012 134.981599,153.062299 136.259981,153.631891 C137.538363,154.201483 145.21088,156.455377 145.21088,156.455377 C145.21088,156.455377 156.356149,158.987392 157.412204,156.066007 C158.468259,153.144623 155.522422,153.647466 155.522422,153.647466 C155.522422,153.647466 151.854021,152.757478 150.602318,150.977503 C150.491435,151.00988 150.382968,151.050029 150.27772,151.097651 C150.146547,150.990853 150.006481,150.875155 149.857521,150.746106 C148.871471,149.886787 147.955538,148.950067 147.118448,147.94487 C144.748439,145.125834 149.490681,139.712485 149.490681,139.712485 L158.606102,127.846724 C158.606102,127.846724 159.346452,126.511743 162.90369,121.171817 C166.460927,115.831891 162.894797,112.939431 162.894797,112.939431 Z" id="Path" fill="#000000" fill-rule="nonzero" opacity="0.05"></path>
                <path d="M114.15175,63.1690977 L114.489688,63.5962917 L114.678666,63.8343634 L115.857001,65.3184178 C115.857001,65.3184178 118.669442,66.2217553 121.135052,66.8069221 C123.702933,67.4143387 125.892857,67.67911 124.152034,66.2262052 C123.071523,65.3250927 123.000378,63.8165637 123.393898,62.1990111 C123.725305,60.9542661 124.199807,59.752173 124.8079,58.6168109 C124.895348,58.4477132 124.982056,58.2830655 125.068023,58.1228677 C125.620243,57.1006939 126.231955,56.1118479 126.9,55.1614339 C125.319291,54.0659479 123.679761,53.0580079 121.988789,52.1421508 C119.952271,51.0875155 118.280369,50.6269468 119.34087,52.7139679 C120.021192,54.0489493 119.798865,55.5485785 119.163009,56.9836836 C119.114096,57.097157 119.060738,57.2061805 119.005156,57.3241038 C118.434337,58.4361935 117.729494,59.4740893 116.906386,60.4145859 C116.063058,61.404816 115.141906,62.325926 114.15175,63.1690977 Z" id="Path" fill="#EFB7B9" fill-rule="nonzero"></path>
                <polygon id="Path" fill="#444053" fill-rule="nonzero" points="128.233964 97.0620519 129.741343 98.4393078 131.197588 104.04623 128.76755 104.04623 126.084059 100.553028"></polygon>
                <polygon id="Path" fill="#000000" fill-rule="nonzero" opacity="0.1" points="126.084059 100.553028 127.707048 102.664524 128.76755 104.04623 131.197588 104.04623 130.948581 103.087268 129.888079 99.002225 129.741343 98.4393078 128.233964 97.0620519 126.175213 100.403956"></polygon>
                <polygon id="Path" fill="#000000" fill-rule="nonzero" opacity="0.1" points="126.084059 100.553028 127.707048 102.664524 128.76755 104.04623 131.197588 104.04623 130.948581 103.087268 129.888079 99.002225 129.741343 98.4393078 128.233964 97.0620519 126.175213 100.403956"></polygon>
                <path d="M118.006906,115.306799 C118.006906,115.306799 119.054068,115.689493 120.452507,116.223486 C122.675781,117.080099 125.810596,118.330532 126.9,119.015822 C127.989404,119.701112 132.051325,120.826947 135.092763,121.619036 C137.347453,122.204291 139.669021,122.491529 141.99825,122.473424 C144.363813,122.451174 147.229612,122.428925 148.021097,122.428925 C148.159566,122.427783 148.297889,122.438202 148.434626,122.460074 C149.266131,122.598022 149.232781,123.156489 149.212772,123.289988 L149.212772,123.318912 C144.32157,126.284796 138.3921,139.561187 138.023037,141.786156 C137.745128,143.454883 135.30175,148.080593 134.096736,150.292213 C133.6921,151.033127 133.429754,151.502596 133.429754,151.502596 L134.912677,153.206922 L139.208042,155.133745 L143.283302,156.913721 C143.283302,156.913721 147.583113,157.136218 147.656481,156.913721 C147.729849,156.691224 147.729849,154.392831 147.729849,154.392831 C147.206557,154.054758 146.710042,153.676881 146.244702,153.262546 C145.258652,152.403227 144.342719,151.466507 143.505629,150.46131 C141.13562,147.642274 145.877862,142.228925 145.877862,142.228925 L154.993283,130.363164 C154.993283,130.363164 155.733633,129.028183 159.29087,123.688257 C162.848108,118.348331 159.29087,115.455871 159.29087,115.455871 L153.585951,112.191842 C144.692857,106.778492 132.166935,103.663535 132.166935,103.663535 L131.98018,103.639061 L129.203311,103.291965 L118.006906,115.306799 Z" id="Path" fill="#EFB7B9" fill-rule="nonzero"></path>
                <path d="M133.427531,151.500371 L134.910454,153.204697 L139.208042,155.133745 L143.283302,156.913721 C143.283302,156.913721 147.583113,157.136218 147.656481,156.913721 C147.729849,156.691224 147.729849,154.392831 147.729849,154.392831 C147.206557,154.054758 146.710042,153.676881 146.244702,153.262546 C145.784484,153.509518 145.262015,153.972311 145.766698,154.688752 C145.766698,154.688752 146.544844,155.605439 145.962346,155.689988 C145.379849,155.774536 143.850237,155.440791 143.850237,155.440791 L134.150095,150.323362 L134.094513,150.285538 C133.68543,151.030902 133.427531,151.500371 133.427531,151.500371 Z" id="Path" fill="#000000" fill-rule="nonzero" opacity="0.1"></path>
                <path d="M145.982356,155.133745 C145.982356,155.133745 146.760501,156.050433 146.175781,156.134981 C145.59106,156.21953 144.063671,155.88356 144.063671,155.88356 L134.365752,150.766131 C134.365752,150.766131 133.309697,150.016316 133.058467,151.489246 C132.807237,152.962176 132.642715,152.824227 132.642715,152.824227 C132.642715,152.824227 131.364333,155.578739 132.642715,156.148331 C133.921097,156.717923 141.591391,158.962917 141.591391,158.962917 C141.591391,158.962917 152.734437,161.492707 153.790492,158.573548 C154.846547,155.654388 151.90071,156.152781 151.90071,156.152781 C151.90071,156.152781 148.232308,155.262794 146.982829,153.482818 C146.989499,153.491718 145.175307,153.992336 145.982356,155.133745 Z" id="Path" fill="#444053" fill-rule="nonzero"></path>
                <path d="M118.598297,56.4185414 C119.883349,57.308529 121.844276,58.7169345 123.518401,58.7169345 C123.950255,58.7168279 124.381428,58.6826054 124.8079,58.6145859 C125.427085,57.4171656 126.126029,56.2627691 126.9,55.1592089 C126.9,55.1592089 117.117597,48.3352287 119.34087,52.7117429 C120.074551,54.1668727 119.351987,54.8810878 118.598297,56.4185414 Z" id="Path" fill="#000000" fill-rule="nonzero" opacity="0.1"></path>
                <path d="M115.514614,50.2620519 C115.512396,52.9763637 116.88616,55.5064866 119.163009,56.9814586 C119.414544,57.1456504 119.675898,57.2942602 119.945601,57.4264524 C123.146635,59.0245003 127.018609,58.3027817 129.430112,55.6585822 C131.841614,53.0143826 132.207037,49.0898186 130.325225,46.0452512 C128.443413,43.0006838 124.771345,41.5754547 121.33039,42.554112 C117.889434,43.5327694 115.515193,46.6776563 115.514614,50.257602 L115.514614,50.2620519 Z" id="Path" fill="#EFB7B9" fill-rule="nonzero"></path>
                <path d="M118.006906,115.306799 C118.006906,115.306799 119.054068,115.689493 120.452507,116.223486 C121.3307,115.449197 122.231126,114.701607 122.606859,114.565884 C123.4228,114.267738 126.090728,112.71026 126.01736,112.265266 C125.943992,111.820272 127.128997,110.115946 128.165043,109.8178 C129.201088,109.519654 128.609697,107.9644 128.609697,107.9644 C128.609697,107.9644 130.610643,107.223486 131.108657,106.184425 C131.60667,105.145365 133.131835,103.810383 132.611589,103.886032 C132.386023,103.849368 132.170807,103.765188 131.98018,103.639061 L129.203311,103.291965 L118.006906,115.306799 Z" id="Path" fill="#000000" fill-rule="nonzero" opacity="0.1"></path>
                <path d="M111.928477,112.636836 C111.928477,112.636836 115.338978,115.455871 115.496831,116.715204 C115.654683,117.974536 117.931315,117.903337 117.931315,117.903337 C117.931315,117.903337 121.341816,114.639308 122.155535,114.343387 C122.969253,114.047466 125.639404,112.487763 125.566036,112.042769 C125.492668,111.597775 126.677673,109.893449 127.713718,109.595303 C128.749763,109.297157 128.158373,107.741904 128.158373,107.741904 C128.158373,107.741904 130.159319,107.000989 130.657332,105.961928 C131.155345,104.922868 132.680511,103.587886 132.160265,103.663535 C132.013529,103.68356 131.544418,103.441038 130.948581,103.087268 C130.217124,102.642274 129.290019,102.039308 128.534106,101.52979 C127.733728,100.986897 127.122327,100.555253 127.122327,100.555253 C127.122327,100.555253 126.773273,100.492954 126.175213,100.40618 C122.949243,99.938937 112.442053,98.7463535 110.003122,102.63115 C109.678013,103.144535 109.434273,103.70519 109.280558,104.293201 C108.188931,108.431644 111.928477,112.636836 111.928477,112.636836 Z" id="Path" fill="#444053" fill-rule="nonzero"></path>
                <path d="M115.494607,103.643511 C115.494607,103.643511 112.012961,105.610383 110.71457,105.610383 C109.416178,105.610383 115.494607,103.643511 115.494607,103.643511 Z" id="Path" fill="#000000" fill-rule="nonzero" opacity="0.1"></path>
                <path d="M117.820151,105.145365 C117.820151,105.145365 112.635478,106.88974 112.635478,108.260321 C112.635478,109.630902 112.150804,104.589122 117.820151,105.145365 Z" id="Path" fill="#000000" fill-rule="nonzero" opacity="0.1"></path>
                <path d="M130.232687,97.2889988 L130.159319,97.3891224 C130.192773,97.3633911 130.21822,97.3286643 130.232687,97.2889988 L130.232687,97.2889988 Z" id="Path" fill="#000000" fill-rule="nonzero" opacity="0.1"></path>
                <path d="M114.15175,63.1690977 L114.489688,63.5962917 L114.678666,63.8343634 L115.857001,65.3184178 C115.857001,65.3184178 118.669442,66.2217553 121.135052,66.8069221 C123.702933,67.4143387 125.892857,67.67911 124.152034,66.2262052 C123.071523,65.3250927 123.000378,63.8165637 123.393898,62.1990111 L123.316083,62.0988875 C123.316083,62.0988875 123.393898,63.5985167 122.506812,63.6274413 C121.310691,63.6652658 121.295128,63.2625464 120.192384,62.7975278 C118.771712,62.1967862 117.315468,61.1933251 116.906386,60.4123609 C116.063148,61.4033601 115.141994,62.3252165 114.15175,63.1690977 L114.15175,63.1690977 Z" id="Path" fill="#000000" fill-rule="nonzero" opacity="0.1"></path>
                <path d="M109.280558,104.286527 C109.887102,104.546004 110.570161,104.561938 111.188127,104.331026 C113.484768,103.587886 117.117597,101.799011 118.820624,102.5822 C120.185714,103.209642 125.683869,103.191842 127.713718,102.664524 C128.218401,102.533251 128.507427,102.370828 128.462961,102.179481 C128.434267,101.959081 128.461014,101.734999 128.540776,101.527565 C128.776443,100.7733 129.416746,99.7253399 129.894749,99.002225 L129.748013,98.4393078 L128.240634,97.0620519 L126.181883,100.399506 C122.955913,99.9322621 112.448723,98.7396786 110.009792,102.624475 C109.682349,103.137449 109.43635,103.698125 109.280558,104.286527 Z" id="Path" fill="#000000" fill-rule="nonzero" opacity="0.1"></path>
                <path d="M107.779849,102.551051 C107.779849,102.551051 108.669158,104.626947 110.965799,103.886032 C113.262441,103.145117 116.89527,101.354017 118.598297,102.137206 C120.301325,102.920396 128.456291,102.697899 128.233964,101.734487 C128.011637,100.771075 130.23491,97.7295426 130.23491,97.7295426 C130.23491,97.7295426 129.021003,97.5070457 128.269536,93.5399258 C128.158373,92.9614339 128.058325,92.302843 127.973841,91.5552534 C127.790192,90.0242223 127.747029,88.4795771 127.844891,86.9406675 C128.145033,82.6464771 129.647966,80.8932015 129.647966,80.8932015 C129.647966,80.8932015 131.72228,78.5213844 129.943661,75.2573548 C129.01211,73.5463535 125.252554,68.8049444 125.201419,66.6912237 C125.15473,64.7733004 123.322753,62.5438813 123.322753,62.5438813 C123.322753,62.5438813 123.400568,64.0435105 122.513482,64.0724351 C121.31736,64.1102596 121.301798,63.7075402 120.199054,63.2425216 C118.578288,62.5572311 116.913056,61.3490729 116.804115,60.5414091 C116.804115,60.5414091 110.009792,60.2009889 108.526868,67.0983931 C107.043945,73.9957973 107.564191,77.7782447 107.786518,78.5948084 C108.008846,79.4113721 109.934201,89.9421508 108.377909,94.392089 C106.821618,98.8420272 107.779849,102.551051 107.779849,102.551051 Z" id="Path" fill="#A36468" fill-rule="nonzero"></path>
                <path d="M118.85842,90.433869 C120.083786,92.5027464 121.723299,94.2957689 123.67403,95.7003708 C124.974902,95.7111713 126.274029,95.7980935 127.564759,95.9606922 C127.453595,95.3822002 127.342431,94.7236094 127.269063,93.9760198 C127.085414,92.4449887 127.042251,90.9003435 127.140114,89.3614339 C126.708299,89.1447001 126.390722,88.7522914 126.26859,88.2845488 C125.897304,87.0229913 122.591296,81.0155748 122.591296,81.0155748 C122.591296,81.0155748 114.856528,79.0131026 114.587512,81.0155748 C114.318496,83.018047 116.930842,87.0964153 118.85842,90.433869 Z" id="Path" fill="#000000" fill-rule="nonzero" opacity="0.1"></path>
                <path d="M121.421854,77.2709518 C121.421854,77.2709518 126.090728,86.110754 126.453122,87.3723115 C126.646701,88.0910616 127.284,88.6009296 128.0272,88.631644 C128.0272,88.631644 132.678288,89.7441286 133.789924,89.8932015 C134.901561,90.0422744 144.543898,90.8566131 144.543898,90.8566131 C144.543898,90.8566131 146.989499,90.9322621 147.285194,90.0422744 C147.556433,89.2279357 152.280889,84.9493201 155.015516,88.6828183 C155.526878,89.3832791 155.673874,90.2857663 155.411258,91.1124845 C154.908798,92.7144623 153.8772,95.257602 152.770009,93.6756489 C151.213718,91.4506799 149.403974,92.0758962 149.403974,93.2618047 C149.403974,94.4477132 146.913907,94.0071693 146.100189,94.174042 C145.655535,94.2652658 144.125922,94.6724351 142.803075,95.0284302 C141.263982,95.4444766 139.687311,95.706089 138.096405,95.8093943 C135.470719,95.9807169 131.6,96.123115 130.22824,95.6046972 C128.574125,94.9750309 125.686093,94.8304079 124.447729,94.7970334 C124.038212,94.7871242 123.642849,94.6450909 123.32053,94.392089 C121.605512,93.0477949 120.155032,91.3962762 119.042952,89.5216316 C117.115374,86.184178 113.151277,79.273424 113.41807,77.2709518 C113.684863,75.2684796 121.421854,77.2709518 121.421854,77.2709518 Z" id="Path" fill="#EFB7B9" fill-rule="nonzero"></path>
                <path d="M119.865563,65.0224969 C119.865563,65.0224969 122.366746,69.1765142 123.525071,72.142398 C124.683396,75.1082818 126.090728,80.3013597 126.090728,80.3013597 L119.12299,79.484796 L118.531599,78.5213844 C118.531599,78.5213844 113.555913,81.6363412 114.149527,82.9713226 C114.743141,84.3063041 112.815563,80.9688504 112.964522,77.186403 C113.113482,73.4039555 112.428713,66.6533993 112.964522,65.0224969 C113.500331,63.3915946 118.22701,63.7609394 119.865563,65.0224969 Z" id="Path" fill="#000000" fill-rule="nonzero" opacity="0.1"></path>
                <path d="M112.973415,76.7414091 C112.824456,80.5238566 114.752034,83.8613103 114.15842,82.5263288 C113.564806,81.1913473 118.540492,78.0763906 118.540492,78.0763906 L119.125213,79.0398022 L126.090728,79.8563659 C126.090728,79.8563659 124.683396,74.663288 123.525071,71.6974042 C122.82925,70.019485 122.033368,68.3848987 121.141722,66.8024722 C120.428051,65.5053152 119.865563,64.5775031 119.865563,64.5775031 C118.907332,63.8365884 116.873037,63.4027194 115.250047,63.505068 C114.997139,63.5194593 114.745402,63.5499287 114.496358,63.5962917 C113.829376,63.7275649 113.291343,63.9812114 113.053453,64.3817058 C113.017107,64.4437099 112.987303,64.5093286 112.964522,64.5775031 C112.430937,66.2084054 113.115705,72.9589617 112.973415,76.7414091 Z" id="Path" fill="#A36468" fill-rule="nonzero"></path>
                <path d="M109.860833,87.0964153 C109.860833,87.0964153 112.80667,91.1569839 113.695979,91.2682324 C113.689309,91.2771323 109.909745,90.433869 109.860833,87.0964153 Z" id="Path" fill="#000000" fill-rule="nonzero" opacity="0.1"></path>
                <path d="M109.860833,92.881335 C109.860833,92.881335 115.419016,98.499382 117.197635,98.5550062 C118.976254,98.6106304 109.860833,92.881335 109.860833,92.881335 Z" id="Path" fill="#000000" fill-rule="nonzero" opacity="0.1"></path>
                <path d="M109.860833,95.2264524 C109.860833,95.2264524 113.41807,99.3982695 113.640397,99.3982695 C113.862725,99.3982695 109.798581,97.9520396 109.860833,95.2264524 Z" id="Path" fill="#000000" fill-rule="nonzero" opacity="0.1"></path>
                <path d="M113.046783,64.3817058 C113.618599,64.2964025 114.170971,64.1111338 114.678666,63.8343634 C114.869868,63.7342398 115.058846,63.6229913 115.243377,63.505068 C115.972373,63.0168151 116.651528,62.4578732 117.271003,61.8363412 C118.293709,60.84178 119.314191,59.7559951 119.736613,58.392089 C119.831599,58.0777373 119.901481,57.7563307 119.945601,57.4309023 C120.199054,55.7199011 119.98562,53.8309023 121.20842,52.6672435 C121.438192,52.4502131 121.701769,52.2721063 121.988789,52.1399258 C123.722942,51.3144623 126.237465,51.8484549 127.53141,50.3599506 C128.354021,49.4165637 128.334011,48.1060569 128.965421,47.0803461 C129.241107,46.6353523 129.748013,46.2504326 130.197114,45.8410383 C128.407437,43.1145174 125.144309,41.7465673 121.947172,42.3825445 C118.750035,43.0185217 116.257699,45.5313537 115.64597,48.7355644 C115.034242,51.939775 116.425348,55.1951418 119.163009,56.9658838 C119.114096,57.0793572 119.060738,57.1883807 119.005156,57.3063041 C117.477767,60.4212608 114.15175,63.1535229 114.15175,63.1535229 L114.489688,63.5807169 C113.816036,63.7342398 113.284674,63.9812114 113.046783,64.3817058 Z" id="Path" fill="#000000" fill-rule="nonzero" opacity="0.1"></path>
                <path d="M127.086755,50.1419036 C125.581599,51.8684796 122.417881,50.8627936 120.761542,52.4447466 C119.307521,53.8309023 119.885572,56.2494438 119.291958,58.1695921 C118.869536,59.5334981 117.849054,60.6170581 116.826348,61.6138443 C115.336755,63.0645241 113.43141,64.5374536 111.394891,64.1213844 C110.187654,63.8744129 109.004872,62.9710754 107.837654,63.3871446 C107.257379,63.5962917 106.841627,64.0991347 106.408089,64.5419036 C104.935442,66.0437859 103.021267,67.0347396 100.945506,67.3698393 C100.535043,67.4624923 100.107197,67.4425058 99.7071429,67.3119901 C99.0846263,67.0583436 98.748912,66.3775031 98.1819773,66.0148331 C97.0703406,65.302843 95.6429991,66.0326329 94.4891202,66.668974 C87.9610538,70.2062979 80.2281558,70.7631216 73.2613056,68.1975278 L75.0599338,67.3075402 C74.6775307,66.526576 73.6437086,66.3552534 72.9856197,65.7834363 C71.6294229,64.6064277 72.4275781,62.2524104 73.8615894,61.1733004 C75.2956008,60.0941904 77.1520341,59.7181706 78.6371807,58.7102596 C78.9395459,58.5055624 79.2463576,58.2341162 79.2752602,57.8714462 C79.2703844,57.6050833 79.1859864,57.3462721 79.0329234,57.1283066 C78.241438,55.7332509 77.3654683,54.2358467 77.5433302,52.6405439 C77.8145695,50.1930779 80.4847209,48.6889988 82.9369915,48.5176761 C85.3892621,48.3463535 87.8170766,49.0850433 90.2737938,49.1273177 C91.1631031,49.1428925 92.0946547,49.0561187 92.8572375,48.5955501 C93.9221854,47.954759 94.4579943,46.7332509 95.1049669,45.6719407 C96.2597418,43.7875452 97.9145132,42.2609134 99.8850047,41.2620519 C102.108278,40.1384425 104.625024,39.744623 106.937228,38.8145859 C109.298344,37.8667491 111.446026,36.3671199 113.916083,35.7641533 C117.502223,34.8741656 121.34404,36.0378245 124.44106,38.0491965 C125.932876,39.0170581 130.697351,42.123115 130.666377,44.1100124 C130.641769,45.289246 129.109934,45.9278121 128.529659,46.8533993 C127.889357,47.8880099 127.909366,49.1985167 127.086755,50.1419036 Z" id="Path" fill="#965D7B" fill-rule="nonzero"></path>
                <g id="Group" opacity="0.1" transform="translate(72.256386, 43.164400)" fill="#000000" fill-rule="nonzero">
                    <path d="M6.55865658,12.8491965 C6.71063106,13.0677057 6.79491814,13.3261769 6.80099338,13.5923362 C6.79214068,13.6861634 6.76574422,13.7774893 6.72317881,13.8615575 C6.06953642,12.7090235 5.38921476,11.4875155 5.28027436,10.2014833 C5.56929991,11.1203956 6.07842952,12.0037083 6.55865658,12.8491965 Z" id="Path"></path>
                    <path d="M0.511352886,21.5043263 C1.16721854,22.0761434 2.20104068,22.247466 2.58566698,23.0284302 L1.94981079,23.3443758 C1.52137043,23.1427343 1.11399519,22.8990171 0.733680227,22.6168109 C0.244899012,22.1809073 -0.0117953423,21.5411521 0.0400189215,20.8880099 C0.153358391,21.1235463 0.313776594,21.3333092 0.511352886,21.5043263 L0.511352886,21.5043263 Z" id="Path"></path>
                    <path d="M22.0148534,22.392089 C23.1687323,21.7557478 24.5982971,21.025958 25.7077105,21.7379481 C26.2724219,22.100618 26.6103595,22.7814586 27.2328761,23.0351051 C27.6321598,23.1656526 28.0593013,23.1856421 28.4690161,23.0929543 C30.5454206,22.7578554 32.4603056,21.7669379 33.9338221,20.2650185 C34.3651372,19.8200247 34.7808893,19.3194067 35.3633869,19.1102596 C36.5239357,18.6941904 37.7067171,19.5975278 38.9206244,19.8444994 C40.9571429,20.2605686 42.8602649,18.7876391 44.3520814,17.3369592 C45.3747871,16.342398 46.3930464,15.2566131 46.8154683,13.892707 C47.4113056,11.9725587 46.8332545,9.55401731 48.2872753,8.16786156 C49.9480605,6.58590853 53.1051088,7.59159456 54.6124882,5.86501854 C55.4328761,4.92163164 55.4150899,3.61112485 56.0464995,2.58541409 C56.5800851,1.71990111 57.9629612,1.10580964 58.1586093,0.0622991347 C58.3114228,0.334687941 58.3960941,0.640042176 58.4053926,0.952286774 C58.3809366,2.1315204 56.8491012,2.77008653 56.2688269,3.69567367 C55.6374172,4.72138443 55.6552034,6.03189122 54.8348155,6.97527812 C53.3274361,8.70185414 50.1659413,7.69616811 48.5096026,9.27812114 C47.0555818,10.6642769 47.6336329,13.0828183 47.0377956,15.0029666 C46.6153737,16.3668727 45.5971145,17.4504326 44.5744087,18.4472188 C43.0825922,19.8978986 41.1794702,21.3708282 39.1429518,20.954759 C37.933491,20.7077874 36.7507096,19.8044499 35.5857143,20.2205192 C35.0032167,20.4296663 34.5874645,20.9325093 34.1561495,21.3752781 C32.6826329,22.8771975 30.7677479,23.8681149 28.6913434,24.2032138 C28.2816286,24.2959016 27.8544871,24.2759122 27.4552034,24.1453646 C26.8326868,23.8917182 26.4947493,23.2108776 25.9300378,22.8482077 C24.8184011,22.1362176 23.3910596,22.8660074 22.2371807,23.5023486 C15.7091144,27.0396725 7.9762164,27.5964962 1.00936613,25.0309023 L2.25217597,24.4145859 C8.84638701,26.3971539 15.9581085,25.6693459 22.0148534,22.392089 L22.0148534,22.392089 Z" id="Path"></path>
                </g>
                <path d="M149.212772,123.287763 L151.082545,122.3822 L151.082545,122.02843 C151.082545,121.892707 149.590728,122.193078 148.434626,122.448949 C149.266131,122.595797 149.232781,123.154265 149.212772,123.287763 Z" id="Path" fill="#000000" fill-rule="nonzero" opacity="0.1"></path>
                <ellipse id="Oval" fill="#9F43D5" fill-rule="nonzero" cx="150.837985" cy="97.342398" rx="4.50435194" ry="5.48454883"></ellipse>
                <polygon id="Path" fill="#DDA2A6" fill-rule="nonzero" points="107.484153 90.2046972 100.242952 97.3512979 76.4383633 96.9352287 82.9836802 90.2046972"></polygon>
                <polygon id="Path" fill="#B77B7F" fill-rule="nonzero" points="107.484153 114.652658 107.484153 90.2046972 100.242952 97.3512979 100.242952 121.274166"></polygon>
                <polygon id="Path" fill="#DDA2A6" fill-rule="nonzero" points="76.4383633 96.9352287 76.4383633 121.274166 100.242952 121.274166 100.242952 97.3512979"></polygon>
                <polygon id="Path" fill="#FFFFFF" fill-rule="nonzero" opacity="0.3" points="76.4383633 96.9352287 76.4383633 121.274166 100.242952 121.274166 100.242952 97.3512979"></polygon>
                <polygon id="Path" fill="#DCE0ED" fill-rule="nonzero" points="98.3087039 104.05068 80.6047777 101.009147 78.2970199 112.641286 96.5234153 115.992089"></polygon>
                <polygon id="Path" fill="#D54381" fill-rule="nonzero" points="94.8114948 106.767367 82.9103122 104.896168 82.6123936 106.449197 94.5135762 108.469468"></polygon>
                <polygon id="Path" fill="#D54381" fill-rule="nonzero" points="91.5388363 110.089246 84.7689688 109.10581 84.4710501 110.830161 91.5388363 111.822497"></polygon>
                <polygon id="Path" fill="#65617D" fill-rule="nonzero" points="104.556102 103.036094 104.233728 93.4108776 102.372848 95.2487021 102.697446 104.896168"></polygon>
                <polygon id="Path" fill="#65617D" fill-rule="nonzero" points="80.5892148 92.6677379 103.464475 92.9770087 104.233728 93.4108776 102.372848 95.2487021 101.730322 94.8704574 79.0729423 94.2274413"></polygon>
            </g>
        </g>
    </g>
</svg>