<svg xmlns="http://www.w3.org/2000/svg" xmlns:xlink="http://www.w3.org/1999/xlink" width="307" height="259" version="1.1" viewBox="0 0 307 259"><title>Group</title><desc>Created with Sketch.</desc><g id="Page-1" fill="none" fill-rule="evenodd" stroke="none" stroke-width="1"><g id="2.-CART-IS-EMPTY" transform="translate(-37.000000, -23.000000)"><g id="Group" transform="translate(37.000000, 23.000000)"><g id="undraw_empty_cart_co35" fill-rule="nonzero" transform="translate(16.000000, 0.000000)"><path id="Path" fill="#2F2E41" d="M13.5802587,229.343524 C17.7121055,236.799353 26.4813715,240 26.4813715,240 C26.4813715,240 28.5515869,231.112321 24.41974,223.656476 C20.2878932,216.20063 11.5186273,213 11.5186273,213 C11.5186273,213 9.44841521,221.887679 13.5802587,229.343524 Z"/><path id="Path" fill="#F54E5E" d="M16.6726741,227.172342 C24.1285164,231.704145 27,240.705555 27,240.705555 C27,240.705555 17.7831683,242.359463 10.3273259,237.827657 C2.87148357,233.295851 0,224.294444 0,224.294444 C0,224.294444 9.21682842,222.640539 16.6726741,227.172342 Z"/><rect id="Rectangle" width="46" height="1" x="134" y="12" fill="#F2F2F2"/><rect id="Rectangle" width="1" height="6" x="167" y="12" fill="#F2F2F2"/><rect id="Rectangle" width="1" height="6" x="147" y="12" fill="#F2F2F2"/><rect id="Rectangle" width="46" height="1" x="157" y="43" fill="#F2F2F2"/><rect id="Rectangle" width="1" height="6" x="169" y="36" fill="#F2F2F2"/><rect id="Rectangle" width="1" height="6" x="189" y="36" fill="#F2F2F2"/><rect id="Rectangle" width="46" height="1" x="217" y="56" fill="#F2F2F2"/><rect id="Rectangle" width="1" height="6" x="230" y="51" fill="#F2F2F2"/><rect id="Rectangle" width="1" height="6" x="249" y="51" fill="#F2F2F2"/><rect id="Rectangle" width="46" height="1" x="213" y="206" fill="#F2F2F2"/><rect id="Rectangle" width="1" height="6" x="225" y="201" fill="#F2F2F2"/><rect id="Rectangle" width="1" height="6" x="245" y="201" fill="#F2F2F2"/><rect id="Rectangle" width="46" height="1" x="136" y="103" fill="#F2F2F2"/><rect id="Rectangle" width="1" height="6" x="148" y="98" fill="#F2F2F2"/><rect id="Rectangle" width="1" height="6" x="167" y="98" fill="#F2F2F2"/><rect id="Rectangle" width="46" height="1" x="149" y="181" fill="#F2F2F2"/><rect id="Rectangle" width="1" height="6" x="162" y="175" fill="#F2F2F2"/><rect id="Rectangle" width="1" height="6" x="181" y="175" fill="#F2F2F2"/><rect id="Rectangle" width="46" height="1" x="223" y="157" fill="#F2F2F2"/><rect id="Rectangle" width="1" height="6" x="235" y="152" fill="#F2F2F2"/><rect id="Rectangle" width="1" height="6" x="255" y="152" fill="#F2F2F2"/><polygon id="Path" fill="#2F2E41" points="118 226 41 226 41 225.458 117.446 225.458 117.446 199.165 47.473 199.165 44.074 192.235 44.573 192 47.822 198.623 118 198.623"/><circle id="Oval" cx="51.5" cy="234.5" r="5.5" fill="#3F3D56"/><circle id="Oval" cx="108.5" cy="234.5" r="5.5" fill="#3F3D56"/><circle id="Oval" cx="176" cy="112" r="4" fill="#3F3D56"/><path id="Shape" fill="#2F2E41" d="M125.6461,190 L38.7929689,190 L20,130 L145,130 L144.886266,130.353023 L125.6461,190 Z M39.2041977,189.457013 L125.238386,189.457013 L144.242127,130.542974 L20.751343,130.542974 L39.2041977,189.457013 Z"/><polygon id="Path" fill="#F2F2F2" points="119.124 186 43.388 186 27 133 136 133 135.901 133.312"/><polygon id="Path" fill="#2F2E41" points="146.537 123 146 122.867 149.667 110 171 110 171 110.517 150.095 110.517"/><rect id="Rectangle" width="113" height="1" x="27" y="147" fill="#2F2E41"/><rect id="Rectangle" width="99" height="1" x="34" y="167" fill="#2F2E41"/><rect id="Rectangle" width="1" height="60" x="82" y="130" fill="#2F2E41"/><polygon id="Rectangle" fill="#2F2E41" points="76.094 159.397 136.324 159.429 136.324 159.982 76.095 159.951" transform="translate(106.209091, 159.689852) rotate(-86.249190) translate(-106.209091, -159.689852)"/><polygon id="Rectangle" fill="#2F2E41" points="59.242 129.575 59.796 129.575 59.827 189.805 59.274 189.804" transform="translate(59.534567, 159.689861) rotate(-3.729000) translate(-59.534567, -159.689861)"/><rect id="Rectangle" width="291" height="1" x="0" y="239" fill="#2F2E41"/><path id="Path" fill="#A0616A" d="M194,19.935073 C194,19.935073 198.743244,33.6103976 195.824321,35.7142954 C192.905399,37.8181933 205.675675,55 205.675675,55 L221,50.7922076 L212.608107,36.4155827 C212.608107,36.4155827 211.513513,22.038961 211.513513,19.9350632 C211.513513,17.8311653 194,19.935073 194,19.935073 Z"/><path id="Path" fill="#000" d="M194,19.935073 C194,19.935073 198.743244,33.6103976 195.824321,35.7142954 C192.905399,37.8181933 205.675675,55 205.675675,55 L221,50.7922076 L212.608107,36.4155827 C212.608107,36.4155827 211.513513,22.038961 211.513513,19.9350632 C211.513513,17.8311653 194,19.935073 194,19.935073 Z" opacity=".1"/><path id="Path" fill="#2F2E41" d="M185.611635,115.212292 C185.611635,115.212292 184.235457,132.522879 185.611635,141.524382 C186.987813,150.525885 189.052081,175.453132 189.052081,175.453132 C189.052081,175.453132 189.052081,222.537925 196.621059,223.230347 C204.190036,223.922769 209.694751,224.615194 210.382839,221.8455 C211.070926,219.075806 206.942395,217.690959 209.006661,216.306112 C211.070926,214.921266 211.759017,210.074303 209.006661,204.534916 C206.254305,198.995528 209.006661,142.909229 209.006661,142.909229 L222.080353,178.222826 C222.080353,178.222826 223.456531,207.30461 224.832709,211.45915 C226.208887,215.613691 223.456531,223.230347 228.273152,223.922772 C233.089774,224.615197 238.594489,220.460653 241.346845,219.075806 C244.099201,217.690959 237.218311,217.690959 238.594489,216.998525 C239.970667,216.30609 244.099201,214.228831 242.723023,213.536406 C241.346845,212.843981 239.970667,179.607659 239.970667,179.607659 C239.970667,179.607659 236.186175,108.63427 231.369554,105.864583 C226.552932,103.094896 223.456541,107.865523 223.456541,107.865523 L185.611635,115.212292 Z"/><path id="Path" fill="#2F2E41" d="M197.599999,220 L197.599999,225.497607 C197.599999,225.497607 191.750001,240.441785 197.599999,240.441785 C203.449998,240.441785 208,241.990427 208,239.928826 L208,221.374402 L197.599999,220 Z"/><path id="Path" fill="#2F2E41" d="M239.400001,220 L239.400001,225.497607 C239.400001,225.497607 245.249999,240.441784 239.400001,240.441784 C233.550002,240.441784 229,241.990429 229,239.928825 L229,221.374402 L239.400001,220 Z"/><ellipse id="Oval" cx="202.5" cy="18" fill="#A0616A" rx="12.5" ry="12"/><path id="Path" fill="#F54E5E" d="M199.405405,40 C199.405405,40 202.91892,50.3685429 208.540542,48.2948356 L214.162163,46.2211154 L224,112.57981 C224,112.57981 216.270269,123.639591 205.027027,116.727228 C193.783784,109.814865 199.405405,40 199.405405,40 Z"/><path id="Path" fill="#3F3D56" d="M208,38.5797657 L211.115385,32 C211.115385,32 229.461539,40.6575883 232.230769,43.4280163 C235,46.1984443 235,50.3540862 235,50.3540862 L230.153845,67.6692596 C230.153845,67.6692596 231.53846,105.762636 231.53846,107.14786 C231.53846,108.533084 236.384615,116.151749 232.923075,113.381321 C229.461536,110.610893 228.76923,107.840465 226,111.996107 C223.230768,116.151749 217,121 217,121 L208,38.5797657 Z"/><path id="Path" fill="#A0616A" d="M232.690317,88 L230.695373,106.773834 C230.695373,106.773834 218.725777,117.501739 221.385687,118.172235 C224.045597,118.84273 225.375553,116.160742 225.375553,116.160742 C225.375553,116.160742 230.030397,120.854202 232.690308,118.172235 C235.350218,115.490268 242,90.0114838 242,90.0114838 L232.690317,88 Z"/><path id="Path" fill="#2F2E41" d="M202.573426,0.0417256648 C199.78868,-0.0560640287 196.80859,-0.104436786 194.460668,1.36966646 C193.380379,2.10945572 192.432861,3.02057791 191.656894,4.06574408 C189.370148,6.90541388 187.394295,10.4783666 188.243706,14.0016197 L189.230268,13.6236593 C189.230236,14.5641247 189.017395,15.492825 188.607144,16.3425739 C188.746068,15.9457541 189.211321,16.5872361 189.086765,16.988631 L188,20.4908592 C189.7865,19.8475201 192.008816,21.1501019 192.280804,23 C192.405007,18.9321293 192.834605,14.2675702 196.193914,11.8856682 C197.887996,10.6844842 200.03201,10.3177945 202.094855,9.99217156 C203.997874,9.69176954 205.992858,9.40531452 207.815627,10.020721 C209.638396,10.6361275 211.190606,12.4673107 210.777378,14.3166081 C211.617839,14.0322125 212.557823,14.6075836 212.973178,15.3796007 C213.388532,16.1516178 213.410351,17.062334 213.422852,17.9354468 C214.318743,18.5574011 215.3383,17.3223697 215.703416,16.3061691 C216.560457,13.9208356 217.322238,11.3816996 216.860547,8.89314675 C216.398857,6.40459391 214.334475,4.02639945 211.759381,4.01795928 C212.071944,3.68071652 212.238708,3.23726952 212.224401,2.7814146 L210.101928,2.60525371 C210.640758,2.53030834 211.136299,2.27367175 211.503684,1.87929608 C210.651526,2.80039936 203.951463,0.0901144868 202.573426,0.0417256648 Z"/><path id="Path" fill="#3F3D56" d="M203.315372,36.1333702 C203.315372,36.1333702 197.697466,30.6807345 195.675669,31.0147414 C193.653871,31.3487484 190.893449,36.1333702 190.893449,36.1333702 C190.893449,36.1333702 174.330876,41.6015077 175.020982,47.0696451 C175.711087,52.5377826 183.302262,79.1949511 183.302262,79.1949511 C183.302262,79.1949511 189.513228,111.32026 183.99237,114.737845 C178.471513,118.155429 210.216444,127.041154 210.906549,122.940051 C211.596655,118.838948 212.976882,77.8279167 210.906549,71.6762637 C208.836216,65.5246106 203.315372,36.1333702 203.315372,36.1333702 Z"/><path id="Path" fill="#3F3D56" d="M227,48 L235.660197,48 C235.660197,48 241.707975,73.723076 242.408353,76.4307714 C243.108731,79.1384668 244.509504,92 243.809113,92 C243.108721,92 229.101141,89.2923078 229.101141,91.3230785 L227,48 Z"/><path id="Path" fill="#F2F2F2" d="M228,112 L194.551357,112 C191.287273,97.4635115 191.014554,83.4186826 194.551357,70 L228,70 C222.602121,83.1773269 222.2648,97.125934 228,112 Z"/><path id="Path" fill="#A0616A" d="M179,94.6956323 L188.90244,98.5450403 C188.90244,98.5450403 208,101.111298 208,94.0540874 C208,86.9968766 188.90244,90.8462665 188.90244,90.8462665 L182.53616,89 L179,94.6956323 Z"/><path id="Path" fill="#3F3D56" d="M181.912888,43 L173.738664,45.1000109 L167.608005,82.1999885 C167.608005,82.1999885 165.564438,91.9999856 168.970375,92.6999838 C172.376313,93.399982 181.912888,99 181.912888,99 C181.912888,99 183.275259,88.5 186,88.5 L179.188153,82.8999867 L183.275265,58.4000086 L181.912888,43 Z"/><rect id="Rectangle" width="46" height="1" x="20" y="114" fill="#F2F2F2"/><rect id="Rectangle" width="1" height="6" x="32" y="108" fill="#F2F2F2"/><rect id="Rectangle" width="1" height="6" x="52" y="108" fill="#F2F2F2"/><rect id="Rectangle" width="46" height="1" x="36" y="18" fill="#F2F2F2"/><rect id="Rectangle" width="1" height="6" x="68" y="19" fill="#F2F2F2"/><rect id="Rectangle" width="1" height="6" x="47" y="19" fill="#F2F2F2"/><rect id="Rectangle" width="46" height="1" x="81" y="82" fill="#F2F2F2"/><rect id="Rectangle" width="1" height="6" x="113" y="82" fill="#F2F2F2"/><rect id="Rectangle" width="1" height="6" x="93" y="82" fill="#F2F2F2"/><rect id="Rectangle" width="46" height="1" x="3" y="82" fill="#F2F2F2"/><rect id="Rectangle" width="1" height="6" x="36" y="82" fill="#F2F2F2"/><rect id="Rectangle" width="1" height="6" x="16" y="82" fill="#F2F2F2"/><rect id="Rectangle" width="46" height="1" x="58" y="49" fill="#F2F2F2"/><rect id="Rectangle" width="1" height="6" x="71" y="43" fill="#F2F2F2"/><rect id="Rectangle" width="1" height="6" x="91" y="43" fill="#F2F2F2"/></g><path id="Path-Copy" fill="#F54E5E" d="M109.797647,126.474224 C96.4288034,131.985931 82.3094951,134.115871 68.6133915,135.664713 C54.9172879,137.213554 41.1482355,138.302052 27.3702502,142.043391 C18.5076759,144.441223 8.94741402,148.483875 3.8810554,155.084946 C-0.994580067,161.425799 -0.397291323,168.372629 0.970748144,174.457277 C1.99822926,179.035299 3.4702075,183.679104 7.5113787,186.591194 C10.3237802,188.607546 14.1835172,189.643078 17.3089275,191.384402 C28.1826354,197.445048 28.3489549,210.823081 24.9052267,223.012217 C23.2889601,228.729184 21.0324002,234.500361 20.327709,240.135606 C19.6230178,245.770852 20.647929,251.405826 25.0036566,254.890113 C29.3203282,258.338089 36.3544575,259.247784 43.4026034,258.945928 C57.7191204,258.335134 72.6863381,253.313794 87.0170044,247.859139 C118.755601,235.78112 149.554837,221.146015 180.274758,206.557951 C191.64524,201.156992 203.06179,195.730823 213.72253,189.242439 C219.643113,185.638176 225.55622,181.469633 228.740345,176.354744 C232.78608,169.860652 231.272187,162.591346 225.215442,159.409927 C215.050967,154.074877 196.161665,160.045926 187.686776,153.235834 C183.024222,149.48657 183.184719,142.923679 184.814211,136.792041 C188.309284,123.636329 197.607845,109.318136 193.380482,97.949174 C190.478065,90.1333195 180.807136,85.3350502 169.486238,86.0748969 C157.625401,86.8499076 143.71106,93.6209082 138.969675,103.207142 C134.101179,113.074287 121.600217,121.60708 109.797647,126.474224 Z" opacity=".1"/></g></g></g></svg>