<svg id="Layer_1" data-name="Layer 1" xmlns="http://www.w3.org/2000/svg" viewBox="0 0 32 32">
  <defs><style>.cls-1{fill:#ff7e7e;}</style></defs><title>Heart rate</title>
  <path fill="#ff7e7e" class="cls-1" d="M8.78,17l2.77-8.32a1,1,0,0,1,1-.68,1,1,0,0,1,.92.78l2.38,10.29,2.76-5.52a1,1,0,0,1,1.78,0L22.12,17H30l.11,0A17.52,17.52,0,0,0,32,9.76,8.73,8.73,0,0,0,23.39,1h-.08A8.73,8.73,0,0,0,16,5,8.73,8.73,0,0,0,8.69,1H8.62A8.73,8.73,0,0,0,0,9.76,17.53,17.53,0,0,0,1.88,17Z"/>
  <path fill="#ff7e7e" class="cls-1" d="M21.5,19a1,1,0,0,1-.89-.55L19.5,16.24l-3.11,6.21a1,1,0,0,1-.89.55h-.12a1,1,0,0,1-.85-.77l-2.21-9.53-1.87,5.63A1,1,0,0,1,9.5,19H3c.23.35.45.7.7,1C8.31,26.42,16,32,16,32s7.69-5.58,12.32-12c.25-.34.47-.69.7-1Z"/>
</svg>