<?xml version="1.0" encoding="UTF-8"?>
<svg width="291px" height="246px" viewBox="0 0 291 246" version="1.1" xmlns="http://www.w3.org/2000/svg" xmlns:xlink="http://www.w3.org/1999/xlink">
    <!-- Generator: Sketch 55.2 (78181) - https://sketchapp.com -->
    <title>Group 10</title>
    <desc>Created with Sketch.</desc>
    <g id="Page-1" stroke="none" stroke-width="1" fill="none" fill-rule="evenodd">
        <g id="5.-LOCATION-HAS-DENIED" transform="translate(-38.000000, -46.000000)">
            <g id="Group-10" transform="translate(38.000000, 45.000000)">
                <g id="undraw_traveling_t8y2" transform="translate(52.000000, 0.000000)">
                    <g id="Group" transform="translate(196.307692, 0.246183)">
                        <path d="M21.6923077,0.753816794 C16.1227635,0.753816794 10.78133,2.9259489 6.84306529,6.79237093 C2.90480057,10.658793 0.692307692,15.9027868 0.692307692,21.3707333 C0.692307692,32.7571365 22.6923077,74.7538168 22.6923077,74.7538168 C22.6923077,74.7538168 42.6923077,32.7571211 42.6923077,21.3707179 C42.6923077,9.98431704 33.2902845,0.753816794 21.6923077,0.753816794 Z M21.6923108,35.1153443 C17.2432252,35.1153443 13.2322245,32.4841723 11.5296322,28.4487366 C9.82703997,24.413301 10.7681527,19.768313 13.9141308,16.6797236 C17.060109,13.5911341 21.7914061,12.6671881 25.9018254,14.3387202 C30.0122446,16.0102522 32.6923093,19.9480826 32.6923093,24.3160071 C32.6923093,30.2803091 27.7674366,35.1153443 21.6923108,35.1153443 L21.6923108,35.1153443 Z" id="Shape" fill="#F54E5E" fill-rule="nonzero"></path>
                        <path d="M13.7302101,16.1576479 L30.3052101,33.7390432" id="Path-13" stroke="#F54E5E" stroke-width="5"></path>
                        <circle id="Oval" stroke="#F54E5E" cx="21.6923077" cy="23.7538168" r="11"></circle>
                    </g>
                    <ellipse id="Oval" fill="#F54E5E" fill-rule="nonzero" opacity="0.1" cx="220.5" cy="92" rx="18.5" ry="6"></ellipse>
                    <path d="M17.5384615,231.756679 L150.051282,231.756679" id="Path" stroke="#3F3D56"></path>
                    <path d="M12.7793417,168.25 C9.78300308,168.418555 7.13967675,170.259179 5.95206911,173.004025 C4.24490215,177.113764 6.44300554,181.941267 9.74275876,184.938129 C13.042512,187.934992 17.2812429,189.647979 21.1324854,191.89958 C26.3053494,194.923851 30.9535827,199.122044 33.5418615,204.51107 C36.1301403,209.900096 36.4054242,216.575537 33.3630269,221.723882 C30.539158,226.502429 25.404437,229.362368 20.5072454,232" id="Path" stroke="#3F3D56"></path>
                    <ellipse id="Oval" fill="#57B894" fill-rule="nonzero" cx="17.2948718" cy="168.25" rx="6.08974359" ry="2.91984733"></ellipse>
                    <ellipse id="Oval" fill="#57B894" fill-rule="nonzero" cx="21.6794872" cy="187.715649" rx="6.08974359" ry="2.91984733"></ellipse>
                    <ellipse id="Oval" fill="#57B894" fill-rule="nonzero" cx="10.9615385" cy="190.635496" rx="6.08974359" ry="2.91984733"></ellipse>
                    <ellipse id="Oval" fill="#57B894" fill-rule="nonzero" cx="28.0128205" cy="206.694656" rx="6.08974359" ry="2.91984733"></ellipse>
                    <ellipse id="Oval" fill="#57B894" fill-rule="nonzero" cx="40.1923077" cy="206.694656" rx="6.08974359" ry="2.91984733"></ellipse>
                    <path d="M27.5115352,179.929389 C29.976266,180.067066 32.1506147,181.570478 33.1275174,183.812452 C34.5317972,187.169261 32.7236835,191.112335 30.0093676,193.560152 C27.2950517,196.007969 23.8083559,197.407127 20.6403983,199.246221 C16.3853001,201.716429 12.5617486,205.14549 10.432686,209.547211 C8.30362335,213.948933 8.07717159,219.401391 10.5797942,223.606528 C12.9026527,227.509615 17.1263736,229.845596 21.1547107,232" id="Path" stroke="#3F3D56"></path>
                    <ellipse id="Oval" fill="#57B894" fill-rule="nonzero" cx="23.8717949" cy="179.929389" rx="4.87179487" ry="2.43320611"></ellipse>
                    <ellipse id="Oval" fill="#57B894" fill-rule="nonzero" cx="19.974359" cy="195.98855" rx="4.87179487" ry="2.43320611"></ellipse>
                    <ellipse id="Oval" fill="#57B894" fill-rule="nonzero" cx="28.7435897" cy="198.421756" rx="4.87179487" ry="2.43320611"></ellipse>
                    <ellipse id="Oval" fill="#57B894" fill-rule="nonzero" cx="14.6153846" cy="211.561069" rx="4.87179487" ry="2.43320611"></ellipse>
                    <ellipse id="Oval" fill="#57B894" fill-rule="nonzero" cx="4.87179487" cy="211.561069" rx="4.87179487" ry="2.43320611"></ellipse>
                    <path d="M47.8345878,216.679274 C47.8345878,216.679274 51.2857814,218.424476 53.7016192,218.773501 C56.117457,219.122526 57.4762872,216.651245 56.9694333,215.792666 C56.4625793,214.934088 58.5332948,215.632165 59.913773,218.773501 C59.913773,218.773501 65.7808082,225.754251 69.2320019,226.103292 C72.6831955,226.452332 72.7101471,231.17772 70.9576135,231.338855 C69.0594555,231.513371 65.7808193,232.735005 61.639381,231.338855 C57.4979426,229.942705 53.7016303,226.103292 51.9760335,226.103292 C50.2504367,226.103292 44.3834015,223.310988 46.1089983,221.914838 C47.8345952,220.518688 47.8345878,216.679274 47.8345878,216.679274 Z" id="Path" fill="#3F3D56" fill-rule="nonzero"></path>
                    <path d="M82.1145595,224.550596 C83.8794268,224.688283 85.6545916,224.577798 87.3896114,224.22228 C89.7650733,223.636861 90.1204248,220.819442 89.3333007,220.209753 C88.5461766,219.600065 90.7289487,219.470342 93.1679636,221.879777 C93.1679636,221.879777 101.191817,226.178504 104.530337,225.202668 C107.868858,224.226832 109.631251,228.624143 108.060315,229.43529 C105.396369,230.916639 102.435034,231.764002 99.4004606,231.913239 C95.03492,232.172691 90.0844457,231.05894 88.4793602,231.709623 C86.8742748,232.360305 80.3903206,231.968247 81.4821151,230.015333 C82.5739096,228.062419 82.1145595,224.550596 82.1145595,224.550596 Z" id="Path" fill="#3F3D56" fill-rule="nonzero"></path>
                    <ellipse id="Oval" fill="#FFC1C7" fill-rule="nonzero" cx="76.2435897" cy="47.3196565" rx="13.3974359" ry="13.3826336"></ellipse>
                    <path d="M65.6317278,52.5528788 C65.6317278,52.5528788 67.6863388,66.907883 62.892249,68.9585994 C58.0981592,71.0093159 87.2051282,70.3257425 87.2051282,70.3257425 C87.2051282,70.3257425 83.09591,57.3378814 84.1232154,53.9200219 C85.1505209,50.5021623 65.6317278,52.5528788 65.6317278,52.5528788 Z" id="Path" fill="#FFC1C7" fill-rule="nonzero"></path>
                    <path d="M60.818089,134.687733 C60.818089,134.687733 59.7858909,160.863389 58.7536928,163.618721 C57.7214947,166.374052 56.6892966,184.972547 56.6892966,184.972547 L47.7435897,218.725367 L56.0011707,221.480699 C56.0011707,221.480699 67.3553386,201.504553 68.73162,199.093622 C70.1079013,196.682691 81.1179859,158.108057 81.1179859,158.108057 C81.1179859,158.108057 80.0857915,181.872796 80.0857915,189.794376 C80.0857915,197.715956 82.150184,226.646947 82.150184,226.646947 L88.6874336,225.958112 L97.2890794,189.44996 C97.2890794,189.44996 109.675445,140.198397 101.417868,134.687733 C93.1602908,129.17707 60.818089,134.687733 60.818089,134.687733 Z" id="Path" fill="#2F2E41" fill-rule="nonzero"></path>
                    <path d="M111.069627,142.725066 C111.069627,142.725066 111.427112,162.757991 107.137336,159.649432 C102.847561,156.540873 107.137336,140.998092 107.137336,140.998092 L111.069627,142.725066 Z" id="Path" fill="#FFC1C7" fill-rule="nonzero"></path>
                    <path d="M54.0696274,135.912093 C54.0696274,135.912093 54.4271112,155.945011 50.137336,152.836456 C45.8475608,149.727901 50.137336,134.185115 50.137336,134.185115 L54.0696274,135.912093 Z" id="Path" fill="#FFC1C7" fill-rule="nonzero"></path>
                    <path d="M104.362109,77.9014743 C104.362109,77.9014743 97.4680293,69.9816735 91.6080626,71.0146881 C85.7480958,72.0477027 53.6906156,71.7033682 53.6906156,71.7033682 C53.6906156,71.7033682 43.0047802,85.1325951 45.7624231,87.8872896 C48.5200661,90.6419841 57.4823603,139.538168 57.4823603,139.538168 C57.4823603,139.538168 81.2669413,136.439117 89.5398368,136.439117 C97.8127323,136.439117 101.259774,135.06176 101.259774,135.06176 C101.259774,135.06176 90.2292429,113.024052 95.3998035,103.038215 C100.570364,93.0523774 108.153846,82.3778821 108.153846,82.3778821 L104.362109,77.9014743 Z" id="Path" fill="#F54E5E" fill-rule="nonzero"></path>
                    <path d="M102.304756,80.1679389 L108.136547,82.2247752 C108.136547,82.2247752 111.567004,94.2229838 111.567004,103.82158 C111.567004,113.420177 111.91005,118.219449 113.282251,121.647507 C114.654452,125.075565 119.114045,141.187479 116.712718,144.615537 C115.386882,146.566896 113.766824,148.301456 111.910064,149.757634 L104.019992,149.072019 C104.019992,149.072019 103.676946,137.759407 101.618665,136.73099 C99.5603838,135.702574 96.8160148,129.189249 96.8160148,129.189249 C96.8160148,129.189249 90.2981251,108.278055 94.4146878,101.421927 C98.5312505,94.5658003 102.304756,80.1679389 102.304756,80.1679389 Z" id="Path" fill="#F54E5E" fill-rule="nonzero"></path>
                    <path d="M80.6717526,93.1401211 C80.6717526,93.1401211 84.1114783,78.0445577 77.5759949,78.7307178 C71.0405115,79.4168779 62.0972179,79.7599617 59.689415,79.7599617 C57.2816121,79.7599617 43.5226906,78.0445429 41.4588521,86.9646467 C39.3950137,95.8847505 36.6432353,106.863346 42.4907713,113.724958 C42.4907713,113.724958 44.5546098,143.916107 52.4659842,145.974576 C60.3773587,148.033046 81.3596999,150.434632 88.9271025,140.485281 C96.4945052,130.535929 93.3987512,119.557338 93.3987512,119.557338 L89.9590181,119.557338 L80.6717526,93.1401211 Z" id="Path" fill="#3F3D56" fill-rule="nonzero"></path>
                    <polygon id="Path" fill="#3F3D56" fill-rule="nonzero" points="91.5897436 120.350746 94.5128205 101.580153 93.0514783 121.045802"></polygon>
                    <path d="M45.7948718,116.179389 C45.7948718,116.179389 51.6878701,118.991093 63.8205128,117.233779 L63.8205128,122.505725 L45.7948718,121.099873 L45.7948718,116.179389 Z" id="Path" fill="#000000" fill-rule="nonzero" opacity="0.1"></path>
                    <polygon id="Path" fill="#3F3D56" fill-rule="nonzero" points="77.4615385 78.5031325 86.2307692 73.8416031 78.8107345 80.1679389"></polygon>
                    <path d="M96.3692393,73.1934114 C96.3692393,73.1934114 103.282051,75.590738 103.282051,73.1934114 C103.282051,70.7960847 97.0605224,68.7412359 93.2584749,67.3713355 C89.4564274,66.0014351 71.4831127,63.9465826 68.7179879,62.9191564 C65.9528631,61.8917301 52.8185149,60.1793555 51.7815958,64.2890568 C50.7446768,68.3987581 50.3990335,76.9606385 55.5836433,77.9880647 C60.7682532,79.0154909 74.2482374,76.2756754 81.1610494,76.9606385 C88.0738613,77.6456015 96.3692393,73.1934114 96.3692393,73.1934114 Z" id="Path" fill="#6C63FF" fill-rule="nonzero"></path>
                    <path d="M96.3692393,73.1934114 C96.3692393,73.1934114 103.282051,75.590738 103.282051,73.1934114 C103.282051,70.7960847 97.0605224,68.7412359 93.2584749,67.3713355 C89.4564274,66.0014351 71.4831127,63.9465826 68.7179879,62.9191564 C65.9528631,61.8917301 52.8185149,60.1793555 51.7815958,64.2890568 C50.7446768,68.3987581 50.3990335,76.9606385 55.5836433,77.9880647 C60.7682532,79.0154909 74.2482374,76.2756754 81.1610494,76.9606385 C88.0738613,77.6456015 96.3692393,73.1934114 96.3692393,73.1934114 Z" id="Path" fill="#F54E5E" fill-rule="nonzero"></path>
                    <polygon id="Path" fill="#3F3D56" fill-rule="nonzero" points="48.2307692 81.1003251 50.7140114 76.2748092 51.1538462 82.1145038"></polygon>
                    <ellipse id="Oval" fill="#2F2E41" fill-rule="nonzero" cx="74.0512821" cy="46.5896947" rx="12.6666667" ry="14.5992366"></ellipse>
                    <ellipse id="Oval" fill="#2F2E41" fill-rule="nonzero" cx="76" cy="38.5601145" rx="12.6666667" ry="8.02958015"></ellipse>
                    <ellipse id="Oval" fill="#FFC1C7" fill-rule="nonzero" cx="85.9871795" cy="50.726145" rx="1.21794872" ry="2.1898855"></ellipse>
                    <path d="M84.2820513,36.4281207 C85.5735601,35.6906157 86.676904,34.3572394 87.502964,32.5356891 C87.5838147,32.9406511 87.6055587,33.356033 87.5674598,33.7677726 C88.1037415,33.7046834 88.6246479,33.5408342 89.104985,33.2841496 L88.9897621,34.5972689 C89.9175914,34.004295 90.770294,33.2919878 91.5278157,32.4770992 C91.7331901,34.3928616 91.4254512,36.33052 90.638791,38.0747865 C89.9688773,39.4548215 89.0584503,40.3524655 88.1575274,41.2366412" id="Path" fill="#2F2E41" fill-rule="nonzero"></path>
                </g>
                <path d="M124.916959,127.574461 C111.133702,127.100418 98.0063862,122.677427 85.4711195,117.839649 C72.9358529,113.001871 60.519848,107.643493 47.0666914,105.080698 C38.4138221,103.432129 28.5172227,103.197223 21.5467967,107.802212 C14.8361909,112.246365 12.6681819,119.896657 11.5032497,127.000953 C10.6258236,132.346634 10.1104423,137.973778 12.5127156,142.978741 C14.1823807,146.453646 17.1426289,149.374089 19.1913762,152.702971 C26.3193982,164.283164 21.2805873,178.563709 13.558386,189.870904 C9.93793858,195.17426 5.73183059,200.240594 2.9355674,205.880436 C0.139304205,211.520278 -1.15340848,218.004508 1.29358802,223.773442 C3.7171581,229.487353 9.4949662,233.77067 15.7540808,236.786345 C28.4661105,242.912928 43.439855,244.665194 58.0515547,245.659838 C90.3864093,247.856519 122.891638,246.906317 155.311679,245.951882 C167.310268,245.600582 179.359969,245.242934 191.162627,243.399668 C197.717767,242.375397 204.483744,240.750107 209.243567,236.826554 C215.283326,231.846987 216.780487,223.415794 212.731975,217.172817 C205.942571,206.697314 187.175876,204.096426 182.424571,192.856951 C179.813589,186.668997 182.49485,179.778444 186.292061,174.041254 C194.435938,161.730951 208.085024,150.931659 208.802725,136.86274 C209.296809,127.199882 202.735281,117.52221 192.589509,112.948965 C181.956042,108.155628 167.208044,108.758763 159.36658,116.692635 C151.284464,124.852946 137.088051,127.995597 124.916959,127.574461 Z" id="Path-Copy" fill="#F54E5E" fill-rule="nonzero" opacity="0.1"></path>
            </g>
        </g>
    </g>
</svg>