<?xml version="1.0" encoding="UTF-8"?>
<svg width="301px" height="215px" viewBox="0 0 301 215" version="1.1" xmlns="http://www.w3.org/2000/svg" xmlns:xlink="http://www.w3.org/1999/xlink">
    <!-- Generator: Sketch 55.2 (78181) - https://sketchapp.com -->
    <title>Group</title>
    <desc>Created with Sketch.</desc>
    <g id="Page-1" stroke="none" stroke-width="1" fill="none" fill-rule="evenodd">
        <g id="3.-NO-CREDITS" transform="translate(-32.000000, -74.000000)">
            <g id="Group" transform="translate(32.000000, 74.000000)">
                <path d="M128.215242,64.8145489 C115.996252,61.1546026 105.082967,54.5584796 94.7758845,47.7773983 C84.4688019,40.996317 74.3596568,33.8324537 62.8129566,28.6259909 C55.390361,25.2705009 46.5978015,22.7280468 39.532518,24.6792531 C32.7395314,26.5483348 29.4043198,32.0332898 27.067314,37.3264921 C25.3077203,41.3079875 23.8200195,45.5954113 25.0433858,50.0886886 C25.9003192,53.2081218 28.0107397,56.208114 29.2325256,59.3052427 C33.4820068,70.082297 26.3787168,80.0756207 17.4204255,87.1000069 C13.2180449,90.3939673 8.54362673,93.3574493 5.01572942,97.1185462 C1.4878321,100.879643 -0.843832008,105.641584 0.288324804,110.740229 C1.41306586,115.789406 5.78659878,120.53355 10.8235335,124.389503 C21.0535193,132.223629 34.1132622,137.171442 46.9666066,141.43027 C75.4319347,150.864349 104.627371,157.863023 133.742576,164.850591 C144.519867,167.435874 155.342616,170.02917 166.215829,171.399198 C172.254871,172.159429 178.593208,172.497881 183.554964,170.556768 C189.856725,168.093997 192.732066,161.839971 190.260173,155.980887 C186.109648,146.151112 169.825204,139.635903 167.638973,129.692777 C166.437605,124.220521 170.089696,119.458187 174.524964,115.865108 C184.040292,108.155367 198.196188,102.944515 201.407087,92.0870848 C203.617109,84.6250832 199.518262,75.4780683 191.29023,69.4731945 C182.669837,63.1818341 169.394145,60.1377945 160.942906,64.4855078 C152.252196,68.9674711 139.003311,68.0448278 128.215242,64.8145489 Z" id="Path" fill="#F54E5E" opacity="0.100353423"></path>
                <path d="M35.1013586,138.296618 C40.0944719,135.488348 45.1876215,137.477151 47.1857367,141.999433 C49.1490567,146.442222 47.561525,151.990555 42.427926,154.877828 C37.8571396,157.4486 32.6239393,155.340066 30.8011049,151.21476 C29.048296,147.247949 30.0382198,141.144145 35.1013586,138.296618 Z M5,119.225012 C7.03564997,110.523765 11.5762248,103.552181 18.448722,99.8096093 C27.5889561,94.8318961 37.203566,96.1575837 41.8287294,106.292709 C46.2825904,116.052185 36.4520461,124.405177 38.5072491,128.909729 L40.391575,133.038631 L27.6089343,140 L24.8680968,133.993776 C21.7162186,127.087663 30.8619786,117.23207 28.9776528,113.103168 C27.676095,110.250734 24.6870179,111.035003 22.2819839,112.344438 C19.3264871,113.953837 17.1233604,119.090819 16.1571811,123.365987 L5,119.225012 L5,119.225012 Z" id="Fill-82" fill="#F2F2EE"></path>
                <g id="Group-2" transform="translate(48.000000, 0.000000)">
                    <path d="M183.262378,85.7774541 C183.262378,85.7774541 181.827884,101.463596 173.61592,104.357632 C151.648551,112.100133 148.684182,90.3450052 150.932921,83.212765 C153.182198,76.0799551 141.067678,57.3487791 148.369477,58.4433731 C155.671277,59.5379671 157.809545,74.9756744 157.809545,74.9756744 C158.381834,67.7300432 157.38922,42.1099334 164.355298,50.7641208 C171.321376,59.4177384 167.824057,77.3910747 167.824057,77.3910747 C167.824057,77.3910747 174.300834,81.5295632 174.685593,67.8685056 C175.070891,54.2074481 176.258039,50.3601296 181.287928,52.2336461 C184.937211,53.5926293 186.448226,67.6297576 183.262378,85.7774541" id="Fill-36" fill="#F5D0A9"></path>
                    <path d="M154,113.92666 C154,113.92666 161.306555,124.277349 164.238922,122.868139 C167.171289,121.458929 160.684583,106 160.684583,106 L154,113.92666" id="Fill-37" fill="#662C2E"></path>
                    <path d="M39.5483291,112.009917 C51.7993877,144.296331 92.1535069,157.257727 129.682155,140.960047 C167.210803,124.662366 187.70273,85.2770723 175.451671,52.9900831 C163.200612,20.7036693 122.846493,7.74227269 85.3178453,24.0399532 C47.7891974,40.3376336 27.2972704,79.7229277 39.5483291,112.009917" id="Fill-38" fill="#F54E5D"></path>
                    <path d="M111,146 C111,146 125.603316,140.937139 136.675651,130.292719 L141,130 C141,130 137.743815,135.806367 122.19749,143.150091 C122.19749,143.150091 115.035406,145.32382 111,146" id="Fill-39" fill="#37181B"></path>
                    <path d="M90.1047155,34 C90.1047155,34 80.5383099,17.8037198 82.1921387,16.2779034 C83.8465211,14.752087 95.8479917,5.94644378 98.6368553,10.1055989 C101.425165,14.264754 109,30.7789609 109,30.7789609 C109,30.7789609 96.1253831,31.0278489 90.1047155,34" id="Fill-40" fill="#E74A58"></path>
                    <path d="M121.133124,16.2813092 C121.133124,16.2813092 116.859175,4.25001235 118.294832,2.82625193 C119.72993,1.40191227 128.633804,-1.51743375 130.534581,0.968065018 C132.435358,3.45414302 138,20 138,20 C138,20 126.067532,16.2934732 121.133124,16.2813092" id="Fill-41" fill="#E74A58"></path>
                    <path d="M40.6256308,67 C40.6256308,67 31.6002256,54.2248337 31.0233429,50.6251403 C30.4464603,47.0254468 40.7174911,39.5322311 44.6197165,39.0148369 C48.5224667,38.496862 53,51.7133522 53,51.7133522 L40.6256308,67" id="Fill-42" fill="#E74A58"></path>
                    <path d="M66.3401167,39 C66.3401167,39 61.5275218,30.7470388 63.4559535,27.7582935 C64.4543808,26.2113578 73.2404318,22.0549219 74.0762863,23.1954832 C74.9126881,24.3354793 79,30.7843416 79,30.7843416 L66.3401167,39" id="Fill-43" fill="#E74A58"></path>
                    <path d="M124,115 C124,115 124.938111,124.680919 129.193803,128.405188 C133.44896,132.128851 137,117.151787 137,117.151787 L124,115" id="Fill-44" fill="#662C2E"></path>
                    <path d="M146.528251,93.3313926 C147.335156,94.9459353 147.08159,96.5545288 145.961389,96.9238418 C144.841188,97.2931547 143.278654,96.2836078 142.471749,94.6686074 C141.664844,93.0540647 141.91841,91.4454712 143.038611,91.0761582 C144.158812,90.7068453 145.721346,91.7163922 146.528251,93.3313926" id="Fill-45" fill="#37181B"></path>
                    <path d="M164.716951,86.1085234 C165.201094,88.2612471 165.048954,90.4060385 164.376833,90.8984557 C163.704713,91.3908729 162.767193,90.0448104 162.283049,87.8914766 C161.798906,85.7387529 161.951046,83.5939615 162.623167,83.1015443 C163.295287,82.6091271 164.232807,83.9551896 164.716951,86.1085234" id="Fill-46" fill="#37181B"></path>
                    <path d="M167.89828,58.9745547 C171.008794,67.1581429 167.307523,76.4899414 159.631882,79.8175682 C151.956241,83.145195 143.211786,79.2090335 140.101797,71.0254453 C136.991283,62.8418571 140.692029,53.5100586 148.36767,50.1824318 C156.043836,46.854805 164.787766,50.7909665 167.89828,58.9745547" id="Fill-47" fill="#662C2E"></path>
                    <path d="M168.802166,58.4111094 C171.926634,66.6885565 168.727925,75.9008828 161.657591,78.9875132 C154.586732,82.0741436 146.322213,77.8663376 143.197745,69.5888906 C140.073277,61.3114435 143.272514,52.0991172 150.342847,49.0124868 C157.41318,45.9258564 165.677698,50.1336624 168.802166,58.4111094" id="Fill-48" fill="#BB706E"></path>
                    <path d="M151.622587,65.2323951 C152.3517,66.8333244 151.992489,68.4752298 150.820242,68.8992855 C149.647994,69.3233412 148.106915,68.3694541 147.377801,66.7680484 C146.648154,65.1671191 147.007365,63.5252137 148.179612,63.1006815 C149.351859,62.6766259 150.893474,63.6309894 151.622587,65.2323951" id="Fill-49" fill="#662C2E"></path>
                    <path d="M165.622587,58.9759085 C166.3517,61.1111265 165.992489,63.3003444 164.820242,63.8657547 C163.647994,64.431165 162.106915,63.1586741 161.377801,61.0240915 C160.648154,58.8888735 161.007365,56.6996556 162.179612,56.1342453 C163.351859,55.568835 164.893474,56.8413259 165.622587,58.9759085" id="Fill-50" fill="#662C2E"></path>
                    <path d="M160.575083,21.7830208 C166.569745,22.6100198 171.640277,28.1883781 173.60764,34.0314682 C174.774847,37.4988785 180.007251,36.0048707 178.828133,32.5017791 C175.955048,23.9699352 169.15969,17.2123696 160.575083,16.0279828 C157.120018,15.5514657 157.163328,21.3122587 160.575083,21.7830208" id="Fill-51" fill="#3A403F"></path>
                    <path d="M169.991686,13.1229346 C174.552093,14.0409001 177.828389,17.8675392 179.909154,22.4196164 C181.553629,26.0159776 186.301645,22.8348715 184.659921,19.2441729 C181.984416,13.3915921 177.300771,8.2323615 171.454603,7.05580526 C167.985746,6.35805079 166.501922,12.4207759 169.991686,13.1229346" id="Fill-52" fill="#3A403F"></path>
                    <path d="M14.5486328,57.9031341 C10.6928146,62.4560524 9.80086371,68.4265905 9.03106906,74.3647523 C8.55824033,78.0099776 13.6314083,79.5808067 14.1084493,75.9020487 C14.7255487,71.1415752 15.1520423,65.6746043 18.2717641,61.9912212 C20.5806216,59.2652517 16.8653883,55.1673361 14.5486328,57.9031341" id="Fill-53" fill="#3A403F"></path>
                    <path d="M7.33153225,52.5651341 C1.79595527,57.2658093 0.0683629683,64.7896255 0.000161788184,72.2433334 C-0.0331696156,75.9208836 5.09473866,75.9168936 5.12807007,72.2433334 C5.17473403,67.1259984 5.9926354,60.8213824 9.91958756,57.4863939 C12.509694,55.2873876 9.96061083,50.3324986 7.33153225,52.5651341" id="Fill-54" fill="#3A403F"></path>
                    <path d="M64.9872368,131.837292 C65.3040045,132.413909 59.6820473,134.764345 52.8444738,130.482832 C46.0074363,126.201318 45.3085105,121.697725 42.7314898,119.000642 C40.1550051,116.304123 45.0892923,113.515165 46.6736669,115.910129 C48.2580415,118.305094 59.3668875,121.60585 64.9872368,131.837292" id="Fill-65" fill="#F5D0A9"></path>
                    <path d="M54.0024738,125.204265 C54.0024738,125.204265 43.4374921,111.173174 40.6499977,103.624158 C37.8619555,96.0745626 39.0982249,91.884329 40.7655727,91.0256841 C42.4329205,90.1670391 44.7033399,89.6914285 45.9669967,94.7021193 C47.2312013,99.7128101 49.5142189,103.888 49.8976432,103.431483 C50.2805197,102.974967 43.9868843,82.9831204 51.8492727,78.8530614 C59.7122089,74.723581 56.7187609,86.6011168 58.4348583,92.771904 C59.3479558,96.0560473 60.6351658,99.9321001 61.4847245,99.5577448 C62.3342831,99.1833895 62.1710539,82.6909265 66.3465441,79.5294468 C70.5220344,76.3685457 74.0320096,79.8395773 73.8112668,87.0796204 C73.5910717,94.3196636 75.530103,104.27277 77.0347694,108.254707 C78.5394357,112.236644 82.693016,126.219711 77.3667052,130.360185 C72.0403945,134.501238 62.4717681,140.305191 54.0024738,125.204265" id="Fill-66" fill="#F5D0A9"></path>
                </g>
                <path d="M268.338706,74.8787855 C273.188127,77.3214413 275.057674,82.9768006 273.419051,87.634877 C271.809141,92.2114825 267.315746,94.4696017 262.33015,91.9582355 C257.890898,89.7226925 256.011097,83.8695454 257.50575,79.620296 C258.94339,75.5339885 263.421198,72.4022652 268.338706,74.8787855 Z M263,38.550161 C270.296129,34.552656 278.019066,33.7676897 285.028132,37.03287 C294.349281,41.3751079 299.642699,50.2338137 295.660429,60.7053108 C291.825057,70.7892162 279.737659,68.0802672 277.967715,72.7336965 L276.345511,77 L263.309372,70.9271094 L265.669439,64.7214499 C268.383495,57.5854773 281.061435,58.7435938 282.68406,54.4772903 C283.804955,51.5298234 281.336713,49.5583234 278.884045,48.4155802 C275.870298,47.0114921 270.916978,48.5390319 267.353938,50.5314953 L263,38.550161 L263,38.550161 Z" id="Fill-83" fill="#F2F2EE"></path>
                <path d="M280.337692,201.647426 C284.3314,203.447237 285.871116,207.614697 284.521489,211.047045 C283.195971,214.418836 279.495739,216.082643 275.389832,214.2327 C271.733646,212.585272 270.185585,208.272378 271.416523,205.141322 C272.600634,202.130387 276.288347,199.822797 280.337692,201.647426 Z M276,174.535524 C281.364429,171.68056 287.043637,171.119706 292.196938,173.452181 C299.050731,176.553775 302.943213,182.881192 300.015037,190.360916 C297.195186,197.563866 288.307005,195.628739 287.00583,198.952756 L285.812555,202 L276.22727,197.662062 L277.962596,193.229582 C279.958326,188.132573 289.280657,188.959695 290.473507,185.912451 C291.297628,183.806966 289.482864,182.398437 287.67957,181.582276 C285.463365,180.579773 281.821093,181.67088 279.201325,183.094024 L276,174.535524 L276,174.535524 Z" id="Fill-84" fill="#F2F2EE"></path>
            </g>
        </g>
    </g>
</svg>