<?xml version="1.0" encoding="UTF-8"?>
<svg width="249px" height="172px" viewBox="0 0 249 172" version="1.1" xmlns="http://www.w3.org/2000/svg" xmlns:xlink="http://www.w3.org/1999/xlink">
    <!-- Generator: Sketch 55.2 (78181) - https://sketchapp.com -->
    <title>Group</title>
    <desc>Created with Sketch.</desc>
    <defs>
        <linearGradient x1="100%" y1="102.325741%" x2="0%" y2="5.05987519%" id="linearGradient-1">
            <stop stop-color="#E83F94" offset="0%"></stop>
            <stop stop-color="#F54E5E" offset="100%"></stop>
        </linearGradient>
        <linearGradient x1="100%" y1="103.79944%" x2="0%" y2="3.79418414%" id="linearGradient-2">
            <stop stop-color="#E83F94" offset="0%"></stop>
            <stop stop-color="#F54E5E" offset="100%"></stop>
        </linearGradient>
    </defs>
    <g id="Page-1" stroke="none" stroke-width="1" fill="none" fill-rule="evenodd">
        <g id="2.-NO-INTERNET" transform="translate(-54.000000, -93.000000)">
            <g id="Group" transform="translate(54.000000, 93.000000)">
                <path d="M119.250432,74.2829675 C107.969481,73.8953838 97.2236748,70.27523 86.961951,66.3263403 C76.7002271,62.3774506 66.5365452,57.9821294 55.525209,55.8839013 C48.4416783,54.5344605 40.343005,54.3437125 34.6341041,58.1160589 C29.143755,61.7463588 27.3687872,68.0146632 26.4149208,73.8284191 C25.6959465,78.203448 25.2751832,82.8098095 27.2421497,86.9048041 C28.6065668,89.745732 31.0310625,92.1381991 32.7079883,94.8614313 C38.5414842,104.339984 34.4175948,116.026344 28.0959317,125.279652 C25.1301628,129.610037 21.6884819,133.751704 19.402879,138.364154 C17.1172761,142.976603 16.055155,148.281021 18.0568448,152.992903 C20.0421942,157.660141 24.7706756,161.174775 29.9035801,163.644353 C40.3103243,168.656561 52.5757804,170.09123 64.5266853,170.904953 C90.993926,172.702854 117.602102,171.91957 144.140832,171.144402 C153.961367,170.856251 163.824795,170.564041 173.486012,169.054291 C178.851766,168.216218 184.391136,166.887069 188.286261,163.676821 C193.231252,159.602118 194.456776,152.700693 191.145818,147.591081 C185.588065,139.019596 170.21999,136.89093 166.33712,127.692411 C164.19858,122.629472 166.394311,116.988201 169.501015,112.292553 C176.167868,102.219434 187.340565,93.3821196 187.928816,81.8682449 C188.337325,73.9542316 182.961358,66.0402183 174.652303,62.2983105 C165.946995,58.3758008 153.877623,58.8689047 147.453833,65.3624541 C140.833959,72.0548684 129.211903,74.6279373 119.250432,74.2829675 Z" id="Path" fill="#F54E5E" fill-rule="nonzero" opacity="0.1"></path>
                <g id="Group-2" transform="translate(44.000000, 55.000000)">
                    <path d="M162.913655,4.6085105 C165.20125,1.79356718 168.658947,0 172.528169,0 C179.416171,0 185,5.68403709 185,12.6956522 C185,17.8121244 182.02671,22.2216849 177.743033,24.2315897 L108,73 L162.398906,4.01381455 L162.913655,4.6085105 Z" id="Combined-Shape" fill="url(#linearGradient-1)"></path>
                    <g id="wifi">
                        <path d="M172.793866,40.5086513 C171.973301,40.5086513 171.152736,40.2018625 170.527696,39.5914153 C148.519883,18.0942817 119.210323,6.25786662 88,6.25786662 C56.7896774,6.25786662 27.4801169,18.0942817 5.47230392,39.5914153 C4.21901891,40.8154402 2.19324877,40.8154402 0.939963758,39.5914153 C-0.313321253,38.3673903 -0.313321253,36.3889152 0.939963758,35.1648903 C24.1593924,12.4875587 55.0780298,0 88,0 C120.92197,0 151.843813,12.4875587 175.060036,35.1648903 C176.313321,36.3889152 176.313321,38.3673903 175.060036,39.5914153 C174.434996,40.2018625 173.614431,40.5086513 172.793866,40.5086513 Z" id="Path" fill="#000000" fill-rule="nonzero"></path>
                        <path d="M22.501208,58.6313146 C21.6862732,58.6313146 20.8713384,58.3330655 20.2505873,57.7396106 C19.0059018,56.5496575 19.0059018,54.6262549 20.2505873,53.4363018 C57.6102541,17.7194473 118.396113,17.725534 155.749413,53.4363018 C156.994098,54.6262549 156.994098,56.5496575 155.749413,57.7396106 C154.504727,58.9295638 152.492857,58.9295638 151.248171,57.7396106 C116.371509,24.3965757 59.6253077,24.3965757 24.7518287,57.7396106 C24.1310776,58.3330655 23.3161428,58.6313146 22.501208,58.6313146 Z" id="Path" fill="#000000" fill-rule="nonzero"></path>
                        <path d="M135.19079,77.8199959 C134.359449,77.8199959 133.528109,77.5225492 132.894862,76.9306909 C120.781974,65.6095041 104.645529,59.3722282 87.4634146,59.3722282 C70.2812999,59.3722282 54.1481027,65.6095041 42.0319677,76.9306909 C40.7622253,78.1174427 38.709854,78.1174427 37.4401117,76.9306909 C36.1703693,75.7439391 36.1703693,73.8257112 37.4401117,72.6389595 C50.7805251,60.1704781 68.547176,53.3018868 87.4634146,53.3018868 C106.379653,53.3018868 124.143057,60.1704781 137.486718,72.6389595 C138.75646,73.8257112 138.75646,75.7439391 137.486718,76.9306909 C136.85347,77.5255844 136.02213,77.8199959 135.19079,77.8199959 Z" id="Path" fill="#000000" fill-rule="nonzero"></path>
                        <path d="M87.4621451,81.0188679 C78.291339,81.0188679 70.8292683,88.1916814 70.8292683,97.009434 C70.8292683,105.827187 78.291339,113 87.4621451,113 C96.6354903,113 104.097561,105.827187 104.097561,97.009434 C104.097561,88.1916814 96.6354903,81.0188679 87.4621451,81.0188679 Z" id="Path" fill="url(#linearGradient-2)"></path>
                    </g>
                </g>
                <g id="Group-3" transform="translate(1.000000, 80.000000)" fill="#F54E5E" fill-rule="nonzero">
                    <rect id="Rectangle" x="3" y="0" width="2" height="8"></rect>
                    <polygon id="Rectangle" transform="translate(4.500000, 4.500000) rotate(90.000000) translate(-4.500000, -4.500000) " points="4.05555556 -2.60091905e-12 4.94444444 -2.6009182e-12 4.94444444 9 4.05555556 9"></polygon>
                </g>
                <g id="Group-3-Copy-2" transform="translate(46.000000, 13.000000)" fill="#F54E5E" fill-rule="nonzero">
                    <polygon id="Rectangle" transform="translate(3.500000, 3.500000) rotate(17.000000) translate(-3.500000, -3.500000) " points="3.06342861 0.457465619 4.05772986 0.438825855 3.9365714 6.54253438 2.94227014 6.56117414"></polygon>
                    <polygon id="Rectangle" transform="translate(3.500000, 3.500000) rotate(107.000000) translate(-3.500000, -3.500000) " points="2.96990473 0.259201048 3.90893681 0.277840811 4.03009527 6.74079895 3.09106319 6.72215919"></polygon>
                </g>
                <path d="M6.40328867,32.5734792 C5.51699929,32.1741379 5.06772868,31.1736211 5.35687606,30.2431389 C5.37883897,30.1732135 5.39287966,30.1010286 5.39873256,30.0279499 L5.39873256,30.0279499 C5.42615731,29.6013872 5.1707817,29.2074862 4.77096581,29.0596587 C4.37114991,28.9118312 3.92202378,29.0452504 3.66691969,29.3876311 L3.66691969,29.3876311 C3.62502534,29.446439 3.58992024,29.5098268 3.56227843,29.5765777 C3.1624215,30.4638807 2.16665536,30.9138343 1.23924243,30.6262805 C1.16939466,30.6048113 1.09749774,30.5907385 1.02472785,30.5842924 L1.02472785,30.5842924 C0.599502224,30.5567814 0.206835879,30.81296 0.0594717132,31.214033 C-0.0878924529,31.615106 0.0451085957,32.0656443 0.386416152,32.3215505 L0.386416152,32.3215505 C0.444366791,32.364634 0.507689306,32.3999238 0.574770422,32.4265208 C1.47028452,32.8202742 1.93097207,33.8234476 1.64734335,34.7621096 C1.62287127,34.829559 1.60875802,34.9003472 1.60548684,34.9720501 L1.60548684,34.9720501 C1.57806209,35.3986128 1.83343771,35.7925138 2.2332536,35.9403413 C2.63306949,36.0881688 3.08219562,35.9547496 3.33729972,35.6123689 L3.33729972,35.6123689 C3.37832503,35.5530142 3.41337721,35.4897219 3.44194098,35.4234223 C3.84003059,34.5343462 4.83741135,34.083663 5.76497698,34.3737195 C5.83468328,34.3957515 5.90664184,34.4098363 5.97949156,34.4157076 L5.97949156,34.4157076 C6.40401541,34.4388451 6.79389281,34.1813847 6.94053517,33.7810704 C7.08717752,33.3807561 6.95625123,32.9313142 6.61780325,32.673201 L6.61780325,32.673201 C6.55012074,32.6322442 6.47819151,32.5988063 6.40328867,32.5734792 L6.40328867,32.5734792 Z" id="Path-Copy-3" fill="#F54E5E" fill-rule="nonzero"></path>
                <g id="Group-3-Copy" transform="translate(114.000000, 17.000000)" fill="#F54E5E">
                    <polygon id="Rectangle" transform="translate(4.000000, 3.500000) rotate(17.000000) translate(-4.000000, -3.500000) " points="3.62791847 0.437749088 4.75286527 0.379166974 4.37208153 6.56225091 3.24713473 6.62083303"></polygon>
                    <polygon id="Rectangle" transform="translate(4.000000, 3.500000) rotate(107.000000) translate(-4.000000, -3.500000) " points="3.33398629 -0.185368135 4.28522997 -0.126786021 4.66601371 7.18536814 3.71477003 7.12678602"></polygon>
                </g>
                <g id="Group-3-Copy-3" transform="translate(193.000000, 0.000000)" fill="#F54E5E" fill-rule="nonzero">
                    <polygon id="Rectangle" transform="translate(4.000000, 4.500000) rotate(17.000000) translate(-4.000000, -4.500000) " points="3.37420405 0.607886612 4.52194584 0.623863553 4.62579595 8.39211339 3.47805416 8.37613645"></polygon>
                    <polygon id="Rectangle" transform="translate(4.000000, 4.500000) rotate(107.000000) translate(-4.000000, -4.500000) " points="3.45436738 0.777827673 4.64948273 0.761850733 4.54563262 8.22217233 3.35051727 8.23814927"></polygon>
                </g>
                <g id="Group-3-Copy-2" transform="translate(220.000000, 27.000000)" fill="#F54E5E" fill-rule="nonzero">
                    <polygon id="Rectangle" transform="translate(3.500000, 4.000000) rotate(17.000000) translate(-3.500000, -4.000000) " points="2.9365714 0.542534381 3.94227014 0.561174145 4.06342861 7.45746562 3.05772986 7.43882586"></polygon>
                    <polygon id="Rectangle" transform="translate(3.500000, 4.000000) rotate(107.000000) translate(-3.500000, -4.000000) " points="3.03009527 0.740798952 4.09106319 0.722159189 3.96990473 7.25920105 2.90893681 7.27784081"></polygon>
                </g>
                <path d="M177.318044,29.0839762 C176.305142,28.6275862 175.79169,27.4841384 176.122144,26.4207302 C176.147245,26.3408154 176.163291,26.2583185 176.16998,26.1747998 L176.16998,26.1747998 C176.201323,25.6872997 175.909465,25.2371271 175.452532,25.0681814 C174.9956,24.8992356 174.482313,25.0517148 174.190765,25.443007 L174.190765,25.443007 C174.142886,25.510216 174.102766,25.5826593 174.071175,25.6589459 C173.614196,26.6730065 172.476178,27.1872392 171.416277,26.8586063 C171.336451,26.8340701 171.254283,26.8179869 171.171118,26.8106198 L171.171118,26.8106198 C170.685145,26.7791787 170.236384,27.0719542 170.067968,27.5303234 C169.899551,27.9886926 170.051553,28.5035935 170.441618,28.7960577 L170.441618,28.7960577 C170.507848,28.845296 170.580216,28.8856272 170.65688,28.9160238 C171.680325,29.3660276 172.206825,30.5125115 171.882678,31.5852681 C171.85471,31.6623532 171.838581,31.7432539 171.834842,31.8252002 L171.834842,31.8252002 C171.8035,32.3127003 172.095357,32.7628729 172.55229,32.9318186 C173.009222,33.1007644 173.522509,32.9482852 173.814057,32.556993 L173.814057,32.556993 C173.860943,32.4891591 173.901003,32.416825 173.933647,32.3410541 C174.388606,31.3249671 175.52847,30.8099006 176.588545,31.1413937 C176.668209,31.1665731 176.750448,31.1826701 176.833705,31.1893802 L176.833705,31.1893802 C177.318875,31.215823 177.764449,30.9215825 177.93204,30.4640804 C178.099631,30.0065784 177.950001,29.4929305 177.563204,29.197944 L177.563204,29.197944 C177.485852,29.1511362 177.403647,29.1129215 177.318044,29.0839762 L177.318044,29.0839762 Z" id="Path" fill="#F54E5E" fill-rule="nonzero"></path>
                <path d="M228.573778,91.0629822 C227.940714,90.7206896 227.619806,89.8631038 227.82634,89.0655477 C227.842028,89.0056115 227.852057,88.9437388 227.856238,88.8810999 L227.856238,88.8810999 C227.875827,88.5154748 227.693416,88.1778453 227.407833,88.051136 C227.12225,87.9244267 226.801446,88.0387861 226.619228,88.3322553 L226.619228,88.3322553 C226.589304,88.382662 226.564229,88.4369944 226.544485,88.4942094 C226.258873,89.2547548 225.547611,89.6404294 224.885173,89.3939547 C224.835282,89.3755526 224.783927,89.3634902 224.731948,89.3579649 L224.731948,89.3579649 C224.428216,89.334384 224.14774,89.5539657 224.04248,89.8977426 C223.93722,90.2415194 224.03222,90.6276951 224.276012,90.8470433 L224.276012,90.8470433 C224.317405,90.883972 224.362635,90.9142204 224.41055,90.9370178 C225.050203,91.2745207 225.379266,92.1343837 225.176674,92.9389511 C225.159194,92.9967649 225.149113,93.0574404 225.146776,93.1189001 L225.146776,93.1189001 C225.127187,93.4845252 225.309598,93.8221547 225.595181,93.948864 C225.880764,94.0755733 226.201568,93.9612139 226.383786,93.6677447 L226.383786,93.6677447 C226.413089,93.6168693 226.438127,93.5626187 226.458529,93.5057906 C226.742879,92.7437253 227.455294,92.3574254 228.117841,92.6060453 C228.167631,92.6249299 228.21903,92.6370026 228.271065,92.6420351 L228.271065,92.6420351 C228.574297,92.6618672 228.852781,92.4411868 228.957525,92.0980603 C229.06227,91.7549338 228.968751,91.3696979 228.727002,91.148458 L228.727002,91.148458 C228.678658,91.1133521 228.62728,91.0846911 228.573778,91.0629822 L228.573778,91.0629822 Z" id="Path-Copy-2" fill="#F54E5E" fill-rule="nonzero"></path>
                <path d="M248.488533,55.0629822 C247.728857,54.7206896 247.343767,53.8631038 247.591608,53.0655477 C247.610433,53.0056115 247.622468,52.9437388 247.627485,52.8810999 L247.627485,52.8810999 C247.650992,52.5154748 247.432099,52.1778453 247.089399,52.051136 C246.7467,51.9244267 246.361735,52.0387861 246.143074,52.3322553 L246.143074,52.3322553 C246.107165,52.382662 246.077074,52.4369944 246.053382,52.4942094 C245.710647,53.2547548 244.857133,53.6404294 244.062208,53.3939547 C244.002338,53.3755526 243.940712,53.3634902 243.878338,53.3579649 L243.878338,53.3579649 C243.513859,53.334384 243.177288,53.5539657 243.050976,53.8977426 C242.924664,54.2415194 243.038665,54.6276951 243.331214,54.8470433 L243.331214,54.8470433 C243.380886,54.883972 243.435162,54.9142204 243.49266,54.9370178 C244.260244,55.2745207 244.655119,56.1343837 244.412009,56.9389511 C244.391033,56.9967649 244.378935,57.0574404 244.376132,57.1189001 L244.376132,57.1189001 C244.352625,57.4845252 244.571518,57.8221547 244.914217,57.948864 C245.256917,58.0755733 245.641882,57.9612139 245.860543,57.6677447 L245.860543,57.6677447 C245.895707,57.6168693 245.925752,57.5626187 245.950235,57.5057906 C246.291455,56.7437253 247.146353,56.3574254 247.941409,56.6060453 C248.001157,56.6249299 248.062836,56.6370026 248.125278,56.6420351 L248.125278,56.6420351 C248.489156,56.6618672 248.823337,56.4411868 248.94903,56.0980603 C249.074724,55.7549338 248.962501,55.3696979 248.672403,55.148458 L248.672403,55.148458 C248.614389,55.1133521 248.552736,55.0846911 248.488533,55.0629822 L248.488533,55.0629822 Z" id="Path-Copy" fill="#F55F44" fill-rule="nonzero"></path>
            </g>
        </g>
    </g>
</svg>