<?xml version="1.0" encoding="UTF-8"?>
<svg width="308px" height="241px" viewBox="0 0 308 241" version="1.1" xmlns="http://www.w3.org/2000/svg" xmlns:xlink="http://www.w3.org/1999/xlink">
    <!-- Generator: Sketch 55.2 (78181) - https://sketchapp.com -->
    <title>undraw_empty_xct9 (1)</title>
    <desc>Created with Sketch.</desc>
    <defs>
        <linearGradient x1="0.0418254486%" y1="50.0117741%" x2="100%" y2="50.0117741%" id="linearGradient-1">
            <stop stop-color="#808080" stop-opacity="0.25" offset="0%"></stop>
            <stop stop-color="#808080" stop-opacity="0.12" offset="54%"></stop>
            <stop stop-color="#808080" stop-opacity="0.1" offset="100%"></stop>
        </linearGradient>
    </defs>
    <g id="Page-1" stroke="none" stroke-width="1" fill="none" fill-rule="evenodd">
        <g id="1.-NO-ITEM" transform="translate(-33.000000, -48.000000)" fill-rule="nonzero">
            <g id="undraw_empty_xct9-(1)" transform="translate(33.000000, 48.000000)">
                <ellipse id="Oval" fill="#F54E5E" opacity="0.1" cx="106.5" cy="226" rx="53.5" ry="10"></ellipse>
                <path d="M178.950806,33.9604116 C159.20549,33.2775245 140.399846,26.9059441 122.442348,19.9368374 C104.48485,12.9677307 86.6982008,5.24866759 67.4257719,1.55680923 C55.0300336,-0.818052588 40.8525795,-1.15644753 30.8670389,5.47731283 C21.2537061,11.8793793 18.147907,22.9000796 16.4790739,33.1342402 C15.2221101,40.8350116 14.4837963,48.9412473 17.9251926,56.1511937 C20.317085,61.157 24.5578126,65.3640722 27.4927622,70.1595249 C37.7040681,86.8414811 30.4856785,107.413455 19.4231762,123.702141 C14.2366748,131.341941 8.21118056,138.640296 4.20537097,146.764824 C0.199561372,154.889351 -1.65232471,164.230271 1.85314005,172.540763 C5.32504509,180.771991 13.6020911,186.942364 22.5686367,191.286624 C40.7793583,200.11233 62.2301179,202.636573 83.1622272,204.069416 C129.483786,207.233866 176.049416,205.865044 222.49301,204.490124 C239.681686,203.984055 256.943583,203.468842 273.851578,200.813508 C283.242196,199.337984 292.934852,196.996657 299.753576,191.344547 C308.40588,184.171184 310.550651,172.025549 304.750922,163.03217 C295.024707,147.941585 268.140324,144.194851 261.333804,128.00372 C257.593421,119.089605 261.434483,109.163353 266.874208,100.89859 C278.540785,83.1648658 298.093895,67.6078441 299.122043,47.3407307 C299.829848,33.4208089 290.430077,19.4795469 275.895669,12.8915156 C260.66261,5.98642954 239.535244,6.85528143 228.301892,18.2844945 C216.72379,30.039908 196.386603,34.5670837 178.950806,33.9604116 Z" id="Path" fill="#F54E5E" opacity="0.1"></path>
                <path d="M162,110.736972 L152.681341,104.460397 L152.681341,104.460397 L157.381742,97.4695376 L132.769287,95.5090575 L123.925232,102.341862 L112.854191,96.1412743 L103.620718,97.2506933 L103.511194,94.8190901 C103.396902,92.2841372 103.141969,89.7574685 102.747569,87.2507252 C102.787119,86.4908492 102.8145,85.6185116 102.811458,84.6701863 C102.811458,80.6732386 102.269923,75.3753832 99.8908203,71.8434796 L100.43844,66.9255622 L95.9966371,61.6824178 C96.7099558,60.2628466 97.5232901,58.8956829 98.4305016,57.5912455 C98.5826181,57.3724012 98.7347346,57.1596359 98.8990205,56.9529496 C104.664237,56.5365376 109.212521,51.8009904 109.212521,46.0107353 C109.212521,45.743259 109.212521,45.4757826 109.182098,45.2113458 C109.182098,45.1049632 109.160802,44.995541 109.148632,44.8891584 C109.711464,45.1931088 110.280379,45.4970592 110.849295,45.8010096 C110.955777,45.9529848 111.07747,46.10496 111.211333,46.2842907 L111.211333,46.2842907 L111.238714,46.3177252 L111.409084,46.527451 L111.463846,46.5912806 C111.524693,46.6642287 111.588582,46.7341373 111.65247,46.8070854 L111.695063,46.8557174 C111.856307,47.0350482 112.026677,47.2174184 112.209217,47.3967492 C112.230948,47.414416 112.25129,47.4337228 112.270064,47.4544997 L112.498238,47.667265 L112.562127,47.7250156 C112.756836,47.8982673 112.963715,48.06544 113.170593,48.2234942 L113.237525,48.2721263 L113.499165,48.451457 L113.58435,48.5061681 C113.684747,48.5669582 113.788187,48.6307878 113.888583,48.6885383 L113.925091,48.7098149 C114.043742,48.7736445 114.165436,48.8344345 114.287129,48.8921851 L114.347975,48.9165011 C114.451415,48.9610805 114.552826,49.0036336 114.652208,49.0441603 L114.746521,49.0775948 C114.853002,49.1140689 114.956442,49.1475034 115.065965,49.1778985 L115.132897,49.1961355 C115.266759,49.22957 115.400622,49.2569256 115.537527,49.2782021 L115.552738,49.2782021 C115.681651,49.2990363 115.811684,49.3122305 115.942157,49.3177157 L116.030384,49.3177157 C116.146927,49.3238104 116.263709,49.3238104 116.380252,49.3177157 L116.456311,49.3177157 C116.602243,49.3093193 116.747529,49.2920636 116.891364,49.2660441 C117.572068,49.1766265 118.225657,48.9423821 118.808032,48.5791162 C118.956305,48.4800564 119.08777,48.3579481 119.19745,48.2174152 C119.805917,47.4210652 119.136604,46.5487275 119.136604,46.5487275 L119.136604,46.5487275 C118.899302,45.9833798 117.359883,45.5852048 117.359883,45.5852048 C117.359883,45.5852048 112.492154,43.5548161 112.492154,41.9378 C112.492154,40.3207839 111.275221,31.931753 98.7134383,30.013826 C98.7134383,30.013826 90.5417383,29.5548609 88.2447786,33.9256676 L88.1961013,34.4363042 C87.5207039,34.8587953 86.9609151,35.7068169 86.2946447,35.9560562 C86.0067915,36.0178242 85.7291901,36.120165 85.4701731,36.2600066 L85.4701731,36.202256 L85.4701731,36.202256 C85.3932578,36.2694647 85.3302176,36.351031 85.2845909,36.4423768 C85.1414741,36.726878 85.0556793,37.0366918 85.0320775,37.354228 C84.9635369,37.7421188 84.8287229,38.1153404 84.6335322,38.457568 C84.5791127,38.554813 84.5181249,38.6482408 84.4509923,38.7372023 L84.4509923,38.7372023 L84.3992727,38.819269 C84.752481,38.8467691 85.1071492,38.7894496 85.4336651,38.6520962 C85.3822123,39.0682332 85.2800438,39.4765275 85.1294321,39.8678978 C85.5243891,39.8806537 85.8905191,39.66213 86.0664699,39.3086291 L86.0664699,39.2843131 L86.1060202,39.229602 C86.1825249,39.088896 86.2456753,38.9413427 86.2946447,38.7888739 L86.2611791,38.825348 C86.3220257,38.6277802 86.3767876,38.4271729 86.4437189,38.2326447 C86.4743839,38.1230712 86.5249119,38.0200488 86.5927931,37.9286943 C86.7574678,37.7628389 86.9912101,37.6849972 87.2225555,37.7189685 L87.09782,40.3542185 L87.1525819,40.3542185 C87.0793027,40.5459092 86.989734,40.7309813 86.8848568,40.9074082 C86.4528459,41.6064941 85.6679246,42.0836962 85.3789032,42.8496512 C85.2542864,43.2190794 85.2066603,43.6100781 85.238956,43.9985837 C85.238956,44.2265465 85.266337,44.4575488 85.2845909,44.6855116 L85.2845909,44.6672746 C85.3271836,45.2751754 85.3393529,45.8526811 85.0107812,46.3420413 C84.7856487,46.6763867 84.4236114,46.9286655 84.2988758,47.3086035 C84.2643709,47.4144726 84.2489203,47.5256135 84.2532409,47.63687 C84.2776501,47.9699571 84.3472461,48.2981863 84.4601193,48.6125507 C84.4614385,48.6065432 84.4614385,48.6003213 84.4601193,48.5943137 C84.5359974,48.8255621 84.5537594,49.0719106 84.511839,49.3116367 C84.3749341,49.9195374 83.6356477,50.4271346 83.6721557,51.0076799 C83.6700684,51.0840321 83.681395,51.1601588 83.7056213,51.2326032 C83.8478625,51.5161669 84.094169,51.7339347 84.3931881,51.840504 C84.8622469,52.1069877 85.4009576,52.2256482 85.938692,52.1809284 C86.1402367,52.1445485 86.3351191,52.0779401 86.5167348,51.9833606 C86.3037717,52.4727208 86.0847239,52.9560019 85.8626338,53.414967 C85.8291681,53.4879151 85.7926602,53.5608632 85.7561522,53.6338113 C85.7561522,53.6338113 83.8759919,52.3784962 82.8081338,54.9377585 C82.4964019,55.4695998 82.2734229,56.0486013 82.1479481,56.6520387 C82.0944492,56.8934244 82.0190949,57.1294508 81.9228156,57.3572037 C81.4487398,58.1590396 80.7392187,58.7957419 79.8905387,59.180906 C77.71223,60.1778633 68.9138098,71.1413542 68.758651,73.9802509 C68.6825057,75.088437 68.4949652,76.186159 68.1988621,77.2568362 C67.506257,79.7782285 67.3283016,82.4130359 67.6755813,85.0045318 C67.7842928,85.8420588 67.9644458,86.6687722 68.2140738,87.4756485 C69.1480693,90.3115057 69.7717471,95.6032821 69.7717471,95.6032821 L70.7818008,104.788663 C70.7443049,106.056416 70.7992119,107.325214 70.9460867,108.585004 C69.9147366,109.761292 65.7741246,114.664012 67.3561366,115.998354 C68.5730688,117.050022 70.7027002,116.87677 71.8983362,116.660966 C70.8913247,119.150319 69.3062705,123.478573 69.0963497,126.451208 C68.7921166,130.84937 69.6165882,136.676099 70.9217481,138.913174 C72.2269079,141.150249 76.5774407,146.888833 76.5774407,146.888833 C76.5774407,146.888833 76.3736045,154.761148 77.9282355,157.621321 C79.4828664,160.481494 80.1095865,166.414606 80.1095865,166.414606 C80.1095865,166.414606 81.5607783,171.423709 80.8336612,173.265648 C80.1065442,175.107587 82.1814137,176.639497 80.003105,177.864418 C77.8247962,179.089338 75.0380214,206.697152 75.0380214,206.697152 C75.0380214,206.697152 73.9154014,224.791319 75.0380214,225.712289 C75.0980941,225.75592 75.1622876,225.793586 75.2296882,225.824751 L75.2296882,231.903759 C75.2296882,231.903759 74.4508516,233.18035 77.6179178,233.438708 C79.7870995,233.61196 85.9356497,234.004056 89.5834041,234.232019 L92.4097293,234.40831 C92.4097293,234.40831 99.1028566,235.739613 102.060002,234.40831 C105.017147,233.077007 110.259083,233.107402 109.480246,229.590696 C109.376973,229.112118 109.238683,228.641758 109.066489,228.183406 C108.211595,226.001042 106.760403,225.751803 104.086194,225.143902 C103.931035,225.110467 103.781961,225.080072 103.645056,225.055756 C100.827858,224.566396 99.9029896,225.876422 98.32402,224.171261 C96.9519289,222.697101 92.5831421,221.04665 91.0954424,220.523856 C91.1319504,220.414434 91.1775854,220.308051 91.2140933,220.195589 C90.7928218,220.124185 90.4010049,219.933207 90.0853887,219.645439 L94.1164767,219.900757 L96.5168756,220.049693 C96.5168756,220.049693 102.206034,221.183428 104.731168,220.049693 C107.256303,218.915958 111.698105,218.946353 111.034877,215.958521 C110.947515,215.551375 110.830583,215.151128 110.685009,214.760956 C109.957892,212.906859 108.722706,212.703212 106.450085,212.189536 C106.319265,212.16218 106.197572,212.134825 106.075878,212.113548 C103.681564,211.697136 102.896643,212.809595 101.554975,211.362791 C100.404974,210.128752 96.7754737,208.745778 95.4703139,208.274655 C95.4703139,207.599885 94.5576147,206.639402 93.9826142,205.675879 C93.3072168,204.551262 94.5545724,200.615105 94.5545724,200.615105 L95.2664777,184.28385 C95.5375813,184.163208 95.8243535,184.081349 96.1183303,184.04069 C96.1183303,184.04069 99.3371161,180.970791 98.6099991,177.700284 C98.4618474,176.711107 98.3845786,175.712625 98.378782,174.712452 C99.437513,173.730692 100.894789,172.280849 101.308546,171.387235 C101.983944,169.931312 101.308546,162.876623 101.308546,162.876623 L101.308546,135.901026 L106.693472,136.445097 L111.579455,136.946615 L113.067154,137.09859 L117.953137,137.59099 L129.18238,138.724725 L139.301171,136.809837 L143.679085,135.983092 L152.681341,134.28097 L152.681341,112.274961 L162,110.736972 Z M87.8857836,37.8162326 L87.2590635,37.7493636 C87.465942,37.7584821 87.6849898,37.7979956 87.8857836,37.8162326 Z" id="Shape" fill="url(#linearGradient-1)"></path>
                <path d="M141.737815,125.280106 C138.67724,129.735483 127.674476,127.375472 127.674476,127.375472 L119.147715,119.258653 L118,118.159597 L119.925101,114 C119.925101,114 120.537216,114.171241 121.586993,114.476361 C127.099088,116.104706 144.32094,121.5346 141.737815,125.280106 Z" id="Path" fill="#EFB7B9"></path>
                <path d="M121,113.452931 C120.684615,114.719953 119.820513,116.617525 118.961538,118 L118,116.955003 L119.612821,113 C119.612821,113 120.130769,113.162818 121,113.452931 Z" id="Path" fill="#000000" opacity="0.1"></path>
                <path d="M91.4352585,67.1273803 C91.4352585,67.1273803 83.630711,70.5804754 84.0136444,79.0601128 C84.2891788,84.5230968 84.8858788,89.9652417 85.800667,95.358479 C85.800667,95.358479 84.2051111,108.118863 90.8487018,111.408247 C97.4922925,114.69763 103.640501,117.401898 103.640501,117.401898 C103.640501,117.401898 114.034408,118.51756 115.326048,118.978377 C116.617689,119.439194 120.653685,112.393546 119.909093,111.296074 C119.1645,110.198602 109.624595,107.897549 108.408934,106.066409 C107.193272,104.235268 104.382055,103.104447 104.382055,103.104447 C104.382055,103.104447 101.479663,101.35213 101.282118,99.7695882 C101.084573,98.1870459 101.850439,97.0077185 102.044945,96.3134614 C102.239451,95.6192044 102.731794,88.9161374 102.731794,88.9161374 C102.731794,88.9161374 106.008002,65.056736 91.4352585,67.1273803 Z" id="Path" fill="#DCE6F2"></path>
                <path d="M96,97 C96,97 86.1077877,98.6182117 87.0652797,102 C87.0652797,102 90.6565768,98.349424 96,97 Z" id="Path" fill="#000000" opacity="0.1"></path>
                <path d="M96,99 C96,99 89.9738278,103.748495 91.1529291,103.991776 C92.3320305,104.235058 96,99 96,99 Z" id="Path" fill="#000000" opacity="0.1"></path>
                <path d="M100.866461,99 C100.866461,99 97.6765105,102.206639 99.6371932,101.989445 C101.597876,101.77225 100.866461,99 100.866461,99 Z" id="Path" fill="#000000" opacity="0.1"></path>
                <path d="M122.278007,114.826969 L121.61335,114.64195 C121.802809,114.035333 121.855609,113.543973 121.700315,113.316492 C120.939376,112.218514 111.196248,109.919435 109.957004,108.084417 C108.71776,106.2494 105.84172,105.121092 105.84172,105.121092 C105.84172,105.121092 102.87561,103.367968 102.673729,101.784697 C102.471847,100.201426 103.254527,99.0215549 103.453303,98.3269781 C103.652079,97.6324013 104.155231,90.9232139 104.155231,90.9232139 C104.155231,90.9232139 107.494046,67.0558562 92.601378,69.1274543 C92.601378,69.1274543 84.6254926,72.5851729 85.0137269,81.0687159 C85.2954172,86.5343478 85.90626,91.9790523 86.8430869,97.3745889 C86.8430869,97.3745889 85.2125029,110.14085 92.0019442,113.431749 C98.7913856,116.722648 105.074569,119.428161 105.074569,119.428161 C105.074569,119.428161 115.693554,120.541304 117.016656,121.005366 C117.516702,121.181285 118.420511,120.274392 119.305686,119.027794 L119.808837,119.48579 L128.461803,127.390013 C128.461803,127.390013 139.627422,129.692126 142.733296,125.351779 C145.35776,121.699943 127.884111,116.41024 122.278007,114.826969 Z" id="Path" fill="#000000" opacity="0.1"></path>
                <path d="M86.6561067,36.8610308 C86.3867929,36.9229552 86.1288478,37.0401546 85.8940775,37.2072647 C85.6189768,37.4758387 85.6189768,37.9353268 85.5502016,38.3365699 C85.4694106,38.8947281 85.281217,39.4237784 85,39.8832973 C85.3130417,39.9103103 85.6270544,39.849306 85.9160856,39.7053265 C85.868998,40.1482194 85.7766296,40.5828072 85.6409848,40.9996591 C85.9911014,41.0101345 86.3139856,40.778464 86.4662872,40.4075019 C86.6118497,40.0428714 86.7270138,39.6624997 86.8101631,39.2717251 C86.8360032,39.1548469 86.8808451,39.0449622 86.9422115,38.948142 C87.1953042,38.5954364 87.6657265,38.7539921 88.0563697,38.7992937 C88.7184099,38.8649528 89.3586741,38.5032661 89.7289824,37.854431 C90.1443846,37.1134256 90.1691436,35.2172284 89.1787808,35.0166069 C88.1444019,34.8159854 87.5006661,36.492146 86.6561067,36.8610308 Z" id="Path" fill="#965D7B"></path>
                <g id="Group" opacity="0.1" transform="translate(85.000000, 36.000000)" fill="#000000">
                    <path d="M1.03263158,0.4275 C1.06105263,0.305 1.08,0.1775 1.11473684,0.055 L1.11473684,0.055 C0.814736842,0.2625 0.798947368,0.615 0.72,0.9275 C0.680223626,1.1078038 0.617808853,1.28451342 0.533684211,1.455 C0.782332099,1.14125263 0.95177502,0.792312818 1.03263158,0.4275 L1.03263158,0.4275 Z" id="Path"></path>
                    <path d="M1.13368421,2.4925 C1.29093808,2.17082772 1.39701633,1.83491326 1.44947368,1.4925 C1.13328625,1.59786027 0.790960453,1.64488057 0.448421053,1.63 C0.348712604,1.80582886 0.227055328,1.973328 0.0852631579,2.13 C0.44334055,2.15193517 0.802845555,2.10564349 1.13368421,1.995 C1.08122685,2.33741326 0.975148601,2.67332772 0.817894737,2.995 C1.21958012,3.00245745 1.58981973,2.82366257 1.76526316,2.5375 C1.84393763,2.42386801 1.90743854,2.30405414 1.95473684,2.18 C1.76643149,2.3883433 1.45682332,2.50618295 1.13368421,2.4925 L1.13368421,2.4925 Z" id="Path"></path>
                    <path d="M3.90631579,0.7925 C3.45789474,0.7575 2.91473684,0.635 2.62421053,0.9075 C2.55504973,0.982912854 2.50369616,1.06761058 2.47263158,1.1575 C2.44421053,1.2225 2.41894737,1.29 2.39684211,1.3575 C2.69684211,1.17 3.18315789,1.27 3.59052632,1.3025 C4.35010687,1.35160409 5.08408315,1.07254019 5.51052632,0.5725 C5.60624246,0.451105676 5.67761581,0.318701007 5.72210526,0.18 C5.28295203,0.610291833 4.6025233,0.839813263 3.90631579,0.7925 Z" id="Path"></path>
                </g>
                <polygon id="Path" fill="#DCE6F2" points="96.5190989 61 101 66.9723202 100.415279 73 95 63.605156"></polygon>
                <polygon id="Path" fill="#000000" opacity="0.1" points="101 66.9723202 100.450269 72.641791 100.414993 73 95.5262126 64.5202171 95 63.605156 95.1528662 63.341384 96.5169035 61 96.8196962 61.4037992"></polygon>
                <path d="M104.199151,54.1490281 C102.630894,54.5965443 101.132539,56.1326134 99.8286978,57.9982721 C98.9474337,59.2855178 98.1592913,60.6334818 97.4702336,62.0319654 C97.0416982,62.8846652 96.6648302,63.7041037 96.3517866,64.4177106 L96.1329601,64.9257019 C95.6041292,66.1684665 95.3093211,67 95.3093211,67 C95.3093211,67 83.3042521,58.0194384 85.2037884,57.4146868 C85.8420325,57.212095 86.6808677,55.8514039 87.5105852,54.136933 L87.6139199,53.9192225 C88.1397116,52.8185745 88.6563854,51.5909287 89.1153134,50.4358531 C90.0544441,48.062203 90.7504342,46 90.7504342,46 C90.7504342,46 108.985982,52.7883369 104.199151,54.1490281 Z" id="Path" fill="#EFB7B9"></path>
                <path d="M111,44 C111,44 113.464281,49.705062 116.774308,48.927099 C120.084335,48.149136 118.722496,45.8636536 118.722496,45.8636536 L111,44 Z" id="Path" fill="#444053"></path>
                <path d="M104.680321,219.434204 C102.185662,220.707245 96.5448923,219.434204 96.5448923,219.434204 L94.1675565,219.268605 C91.0801074,219.047807 85.9117176,218.675209 84.0839477,218.509611 C81.4163917,218.264662 82.0709309,217.043371 82.0709309,217.043371 L82.0709309,209.663874 L95.0135176,206 C95.0135176,206 100.129421,207.956136 101.531123,209.663874 C102.861813,211.292262 103.63985,210.039921 106.014099,210.509118 C106.131422,210.533268 106.25492,210.560867 106.384593,210.595367 C108.63843,211.171513 109.86106,211.399211 110.583523,213.486447 C110.728702,213.924956 110.8453,214.374626 110.932405,214.831937 C111.599294,218.192213 107.171892,218.168063 104.680321,219.434204 Z" id="Path" fill="#A36468"></path>
                <path d="M112,214.719181 C111.545696,215.014919 111.068144,215.27 110.572474,215.481686 C108.909043,216.272548 107.327271,217.236707 105.645694,217.983458 C103.964117,218.730209 102.152489,219.262702 100.331788,219.120914 C99.3790961,219.048444 98.4052329,218.805829 97.4948825,219.089405 C96.9318876,219.315872 96.4016317,219.622301 95.9191598,220 C92.89474,219.798346 87.8318612,219.458054 86.0414046,219.306814 C83.4283059,219.083104 84.0694829,217.967704 84.0694829,217.967704 L84.0694829,217.179992 C84.1632399,217.179992 84.2690946,217.151635 84.3900714,217.142182 C85.0159653,217.13176 85.639245,217.228628 86.2349675,217.428909 C87.5475657,217.800709 88.8541151,218.166207 90.1667133,218.531705 C90.3848986,217.673963 90.9316106,216.947197 91.6789232,216.521465 C92.4281136,216.107136 93.2689721,215.906067 94.1166056,215.938558 C96.1520401,215.966916 98.0785955,216.972036 100.111006,217.072863 C100.679218,217.127292 101.251273,217.027421 101.771412,216.782985 C102.049659,216.638046 102.294637,216.42694 102.566835,216.266247 C103.002457,216.046708 103.462712,215.884759 103.936897,215.784167 C105.269691,215.438533 106.578275,214.998492 107.85352,214.467113 C108.216451,214.319023 108.63987,214.051201 108.591479,213.647893 C108.527966,213.112249 107.720446,213.049232 107.508737,212.5577 C107.433009,212.378016 107.441955,212.171834 107.532932,212 C107.64786,212.022056 107.768837,212.047263 107.895862,212.078771 C110.094616,212.604963 111.292286,212.812918 112,214.719181 Z" id="Path" fill="#000000" opacity="0.1"></path>
                <path d="M103.368886,234.394179 C100.360327,235.757276 93.5514837,234.394179 93.5514837,234.394179 L90.6854358,234.227718 C86.9738244,233.99216 80.7223562,233.599563 78.5150242,233.414257 C75.294283,233.150432 76.086009,231.843869 76.086009,231.843869 L76.086009,223.925971 L91.7083457,220 C91.7083457,220 97.8838082,222.094898 99.5749349,223.925971 C101.180555,225.669102 102.108458,224.32799 104.987174,224.830514 C105.129684,224.855641 105.278529,224.887048 105.433707,224.921597 C108.154077,225.549752 109.629855,225.78531 110.500753,228.021543 C110.677075,228.491036 110.817864,228.97291 110.921951,229.46316 C111.707344,233.06249 106.377444,233.034223 103.368886,234.394179 Z" id="Path" fill="#A36468"></path>
                <path d="M110,226.707734 C109.480874,227.003311 108.935449,227.258643 108.369469,227.471041 C106.468652,228.261132 104.65891,229.22531 102.737528,229.972548 C100.816146,230.719786 98.7449308,231.250084 96.6619644,231.110814 C95.5749439,231.0385 94.4614824,230.789421 93.4302818,231.078674 C92.7841449,231.308075 92.1760722,231.618144 91.6234774,232 C88.1802665,231.79913 82.3808651,231.464345 80.3331535,231.306327 C77.345316,231.081353 78.0797893,229.967191 78.0797893,229.967191 L78.0797893,229.179779 C78.2014338,229.16167 78.3240011,229.149156 78.447026,229.142283 C79.1627392,229.130366 79.8756309,229.227217 80.5564334,229.428858 L85.0484722,230.532307 C85.3013677,229.672101 85.9314283,228.944679 86.790643,228.520924 C87.6469353,228.104787 88.6090462,227.903306 89.5787037,227.937061 C91.9055152,227.966522 94.1059973,228.970874 96.4298709,229.072648 C97.0770549,229.126467 97.7285524,229.027787 98.3218741,228.786073 C98.6421045,228.638768 98.9094528,228.427184 99.2326211,228.269166 C99.7294927,228.047349 100.25586,227.885298 100.798518,227.787077 C102.3136,227.438542 103.801514,226.998329 105.252364,226.469367 C105.666607,226.319384 106.15136,226.051557 106.09554,225.649816 C106.022092,225.114161 105.099594,225.049883 104.855749,224.557081 C104.772493,224.376914 104.783296,224.172055 104.885128,224 C105.017333,224.021426 105.155414,224.048209 105.299371,224.07767 C107.823021,224.591898 109.192079,224.800803 110,226.707734 Z" id="Path" fill="#000000" opacity="0.1"></path>
                <path d="M95.9227722,180 L95.1957718,198.701625 C95.1957718,198.701625 94.1066327,202.520531 94.6974907,203.612922 C95.2883487,204.705314 96.284911,205.794729 95.9227722,206.440639 C95.5606334,207.086549 91.204077,214.069521 89.7963647,211.390631 C88.3886524,208.711742 87,197.103221 87,197.103221 L88.2987984,182.765209 L95.9227722,180 Z" id="Path" fill="#444053"></path>
                <path d="M98.8487123,133 L100.752542,136.086541 L100.752542,162.931983 C100.752542,162.931983 101.309322,170.088278 100.752542,171.566208 C100.195762,173.044139 97.3733726,176 97.3733726,176 L95,161.220695 L95.5131616,145.585745 L98.8487123,133 Z" id="Path" fill="#444053"></path>
                <path d="M95.9227722,180 L95.1957718,198.701625 C95.1957718,198.701625 94.1066327,202.520531 94.6974907,203.612922 C95.2883487,204.705314 96.284911,205.794729 95.9227722,206.440639 C95.5606334,207.086549 91.204077,214.069521 89.7963647,211.390631 C88.3886524,208.711742 87,197.103221 87,197.103221 L88.2987984,182.765209 L95.9227722,180 Z" id="Path" fill="#000000" opacity="0.1"></path>
                <path d="M98.8487123,133 L100.752542,136.086541 L100.752542,162.931983 C100.752542,162.931983 101.309322,170.088278 100.752542,171.566208 C100.195762,173.044139 97.3733726,176 97.3733726,176 L95,161.220695 L95.5131616,145.585745 L98.8487123,133 Z" id="Path" fill="#000000" opacity="0.1"></path>
                <path d="M101,122.301925 L101,136.501125 L98.5062214,147.554413 C98.5062214,147.554413 97.706895,174.227735 98.4044345,177.471007 C99.101974,180.714278 96.009449,183.759789 96.009449,183.759789 C96.009449,183.759789 94.2132099,183.963634 94.2132099,185.381425 C94.2132099,186.799215 91.2194781,190.857868 91.2194781,190.857868 L91.3182712,198.768286 C91.3182712,198.768286 92.6175509,213.575981 90.6207317,216.414604 C88.6239126,219.253227 91.3182712,219.660918 91.3182712,219.660918 C88.8244926,227.975984 76.8495653,226.050102 75.7688281,225.137361 C74.6880909,224.224621 75.7688281,206.274056 75.7688281,206.274056 C75.7688281,206.274056 78.4452243,178.891839 80.5408366,177.674852 C82.6364489,176.457865 80.6426235,174.93663 81.340163,173.111149 C82.0377025,171.285668 80.6426235,166.317317 80.6426235,166.317317 C80.6426235,166.317317 80.0438771,160.433183 78.5470112,157.59456 C77.0501453,154.755936 77.2477316,146.94592 77.2477316,146.94592 C77.2477316,146.94592 73.056507,141.265631 71.8111146,139.035501 C70.5657222,136.805372 69.763402,131.024682 70.0627752,126.661782 C70.266349,123.71363 71.7901585,119.420707 72.7571339,116.950222 C73.2211623,115.766702 73.5564603,115 73.5564603,115 L73.8408648,115.076062 L90.1926281,119.426792 L101,122.301925 Z" id="Path" fill="#444053"></path>
                <path d="M104.1432,54.1569793 C102.465139,54.6037716 100.861876,56.1373562 99.4667449,58 L99.1025148,58 C94.9400742,58.0027296 91.0942079,55.9378299 89.0211452,52.5871683 C88.595528,51.9050792 88.2530368,51.1811235 88,50.4286782 C89.0048849,48.0588675 89.7496054,46 89.7496054,46 C89.7496054,46 109.265186,52.798489 104.1432,54.1569793 Z" id="Path" fill="#000000" opacity="0.1"></path>
                <path d="M110,47.4952095 C110.007119,51.8938623 107.265246,55.8295589 103.13334,57.3516232 C99.0014336,58.8736876 94.3576096,57.6586498 91.5035177,54.3087271 C88.6494258,50.9588045 88.1916194,46.1859246 90.357004,42.3557023 C90.6753042,41.7877998 91.047052,41.2514781 91.4672084,40.7540065 C92.1598159,39.9298586 92.9738724,39.2156975 93.8814625,38.6360132 C96.9999387,36.6566947 100.930489,36.460156 104.231297,38.1184922 C107.532106,39.7768283 109.7173,43.0459353 109.985301,46.7266302 C109.991175,46.984779 110,47.2399942 110,47.4952095 Z" id="Path" fill="#EFB7B9"></path>
                <path d="M101,71.6828956 L100.961784,72 L95.6656571,64.5048046 C95.1115223,65.689622 94.8026082,66.4823831 94.8026082,66.4823831 C94.8026082,66.4823831 82.2231129,57.9090327 84.2135394,57.3324792 C84.8823227,57.1393338 85.761295,55.8420884 86.6307133,54.2075593 L86.7389925,54 C87.6625503,56.4907111 93.0287401,61.4692505 95.2612024,63.4641256 C95.5191617,63.694747 95.7325354,63.8850096 95.8981389,64.0233824 L96.2388999,64.3116592 L96.4172421,64.4730942 C97.2293361,65.231262 100.656054,68.5752723 101,71.6828956 Z" id="Path" fill="#000000" opacity="0.1"></path>
                <path d="M105,97.8759942 L104.443724,115.806908 L104.345917,119 C104.345917,119 97.7561877,118.38771 91.6065883,117.714191 C86.6551217,117.172314 81.9879059,116.587577 81.2696375,116.244695 C80.3526993,115.81303 78.3873949,115.479332 76.8377692,115.268092 C75.6396366,115.105835 74.6982466,115.020115 74.6982466,115.020115 C74.6982466,115.020115 74.3467536,115.124204 73.80576,115.222171 C72.6259661,115.436472 70.5536856,115.610975 69.3463836,114.560897 C67.8028708,113.216921 71.8587944,108.333908 72.870483,107.161372 L73.0936046,106.907272 L72.711547,103.371297 L71.7181972,94.2022541 C71.7181972,94.2022541 71.106905,88.9212526 70.1899668,86.0894113 C69.9448248,85.28428 69.7679415,84.4598668 69.661199,83.6249439 C69.3205109,81.0385418 69.4950359,78.4101514 70.1746845,75.8917209 C70.4650633,74.8215981 70.6493433,73.7253936 70.7248474,72.6190308 C70.8776705,69.7871894 79.5121725,58.8425053 81.6516952,57.847534 C82.614149,57.3979806 83.38861,56.6244223 83.8401212,55.6616586 C83.9891816,55.3589412 84.1010493,55.0392381 84.1732754,54.7095476 C85.0902137,50.7296624 87.4100675,52.3093707 87.4100675,52.3093707 C87.9693998,55.4228655 96.6283536,63.6642892 96.6283536,63.6642892 L96.7995154,63.8357304 C97.6583809,64.717428 101.48507,68.8565086 101.213045,72.389422 C101.158688,73.7043439 101.354735,75.0176106 101.790716,76.259095 C103.552009,81.8140119 104.564502,87.5797185 104.80133,93.4032156 L105,97.8759942 Z" id="Path" fill="#DCE6F2"></path>
                <path d="M91.9511573,78 C91.9511573,78 90.37808,82.7364337 89.198272,83.5026215 C88.0184641,84.2688093 92.5129706,85.1185812 91.9511573,78 Z" id="Path" fill="#000000" opacity="0.1"></path>
                <path d="M93,87 C93,87 88,87.7050781 88,88.7626953 C88,89.8203125 93,87 93,87 Z" id="Path" fill="#000000" opacity="0.1"></path>
                <path d="M99,93 C99,93 92.1461337,109.489802 90.2299991,109.989493 C88.3138644,110.489184 99,93 99,93 Z" id="Path" fill="#000000" opacity="0.1"></path>
                <path d="M98,66.3330802 L91.6564562,69 L84,57.8155253 C84.1608779,57.5000874 84.2816143,57.16695 84.3595664,56.8234056 C85.3491989,52.6762815 87.8529689,54.3223708 87.8529689,54.3223708 C88.4566447,57.5666979 97.8020735,66.1544348 97.8020735,66.1544348 L98,66.3330802 Z" id="Path" fill="#000000" opacity="0.1"></path>
                <path d="M98,64.3330802 L91.6564562,67 L84,55.8155253 C84.1608779,55.5000874 84.2816143,55.16695 84.3595664,54.8234056 C85.3491989,50.6762815 87.8529689,52.3223708 87.8529689,52.3223708 C88.4566447,55.5666979 97.8020735,64.1544348 97.8020735,64.1544348 L98,64.3330802 Z" id="Path" fill="#DCE6F2"></path>
                <path d="M104.903005,121.412637 C104.903005,121.412637 98.3679713,120.796573 92.2694147,120.118903 L103.211656,123.029805 L103.211656,126.418157 C102.732743,126.858642 102.317484,127.086586 102.047717,126.969534 C100.786782,126.430478 90.496226,124.736302 90.496226,124.736302 C90.496226,124.736302 84.5189131,121.655983 78.0687499,117.959599 C77.9121854,117.871455 77.7604106,117.774799 77.6140862,117.670049 C76.8619964,117.151119 76.2139416,116.491494 75.7044984,115.726367 C74.5132793,113.973665 73.9313097,111.721952 73.6797291,109.513363 C73.5382946,108.247622 73.4856228,106.973262 73.5221123,105.699927 C73.5533561,104.25609 73.682993,102.816186 73.9100921,101.39056 C73.2862882,95.8689018 72.9826546,90.3147327 73.0007646,84.7568337 C73.0765418,76.1319387 81.0331577,73.0516191 81.0331577,73.0516191 C95.6581753,71.7424833 91.123662,95.7689764 91.123662,95.7689764 C91.123662,95.7689764 90.2779874,102.54568 90.0476245,103.238751 C89.8172615,103.931823 88.9897735,105.086943 89.1019238,106.704111 C89.2140742,108.321279 92.0087408,110.25572 92.0087408,110.25572 C92.0087408,110.25572 94.7367234,111.555615 95.8612584,113.480814 C96.6796532,114.900842 101.996188,116.826041 105,118.199864 L104.903005,121.412637 Z" id="Path" fill="#000000" opacity="0.1"></path>
                <path d="M109.999781,39.5327915 C110.00547,40.032689 109.900048,40.5277838 109.690875,40.983518 C109.532514,41.3554025 109.348813,41.7163736 109.141021,42.0639754 C108.815906,42.7033829 108.354439,43.2664955 107.78801,43.7150113 C107.074436,44.2157851 106.172429,44.3553948 105.316757,44.5587393 C104.461086,44.7620838 103.571435,45.086828 103.083362,45.8030863 C102.818847,46.2635308 102.641941,46.7674768 102.56131,47.2902326 C102.479479,47.8125383 102.267218,48.30679 101.943497,48.7288191 C101.596794,49.1526318 101.002236,49.2924283 100.497814,49.0687383 C100.239467,48.8976199 100.043559,48.6498439 99.9386932,48.361585 C99.5865396,47.5815919 99.4969567,46.716619 99.3548597,45.8759261 C99.2127626,45.0352331 99.0119733,44.1702602 98.4868321,43.4934569 C97.9616909,42.8166535 97.031882,42.3705096 96.2071013,42.634554 C95.6492951,42.845537 95.2031025,43.2707677 94.9714749,43.8121311 C94.7432066,44.3485031 94.586426,44.9116024 94.5050259,45.487447 C94.1219817,47.5471953 93.6699484,49.5948037 93.1489259,51.6302721 C93.1330301,51.713711 93.0981859,51.7925534 93.0469867,51.8609315 C92.9648627,51.9413533 92.854023,51.9870911 92.7380801,51.9884012 C92.0461293,52.079451 91.3819801,51.6029571 90.6838511,51.654552 C90.6119138,51.6592596 90.5405669,51.6704346 90.4707056,51.6879369 C88.1585481,47.7398848 88.6040482,42.7930063 91.5858584,39.3051671 L91.6414616,39.2899921 C92.1058627,39.1280204 92.5278857,38.8668 92.8770881,38.525174 C93.3230122,38.0867508 93.7359718,37.6171174 94.1127145,37.1199724 L94.3598398,36.8164731 C95.0698799,35.9760618 95.8786623,35.2211682 96.7693114,34.5675436 C97.0124305,34.3718533 97.2913116,34.2235228 97.5910029,34.1305047 C97.8474763,34.0814145 98.1103215,34.0732163 98.3694476,34.1062247 C99.4362525,34.2320485 100.511769,34.2716363 101.585165,34.2245895 C102.333103,34.1090757 103.086946,34.0340991 103.843273,34 C105.798652,34.0546299 107.466747,35.4112716 108.702374,36.8984179 C109.366523,37.6602011 109.959624,38.5373139 109.999781,39.5327915 Z" id="Path" fill="#000000" opacity="0.1"></path>
                <path d="M89.2015658,41.2684682 C88.7702516,41.935891 87.9914036,42.3896214 87.6997235,43.1214446 C87.2715122,44.184052 87.9945066,45.5071884 87.3304689,46.4556312 C87.1101573,46.7747062 86.7471086,47.0118169 86.6229894,47.3777285 C86.4119868,47.9953873 86.9891411,48.6540282 86.840198,49.2892508 C86.691255,49.9244733 85.8038027,50.4601679 86.0396292,51.080754 C86.1789913,51.3514033 86.4234476,51.5610537 86.7222848,51.6662126 C87.1924646,51.9206595 87.7336329,52.0339967 88.2737748,51.9911421 C89.1208883,51.8594139 89.7507932,51.0748994 90.6103187,51.0163536 C91.3084891,50.9695169 91.9756298,51.4261746 92.6706973,51.3412831 C92.7871883,51.3374593 92.8979186,51.2925412 92.9809953,51.2154095 C93.0337263,51.1501708 93.0688668,51.0738233 93.0833937,50.9929352 C93.6046943,49.031649 94.059798,47.0567021 94.4487048,45.0680944 C94.5279487,44.5125246 94.6844446,43.9692268 94.9141518,43.4522287 C95.1486229,42.9312385 95.5962018,42.5216681 96.1553438,42.3164391 C96.9838394,42.0646919 97.9147334,42.4920767 98.445343,43.144863 C98.9759525,43.7976493 99.1776462,44.6319278 99.3203833,45.4427879 C99.4631204,46.253648 99.5531068,47.0879265 99.9037435,47.8402408 C100.010286,48.11926 100.208047,48.3591282 100.468486,48.5252273 C100.933933,48.7799018 101.560735,48.5779186 101.917578,48.1973705 C102.244484,47.7901558 102.457863,47.3120723 102.538173,46.8069064 C102.619126,46.3036154 102.796844,45.8185062 103.062577,45.3754602 C103.552848,44.6846191 104.449609,44.3713987 105.306032,44.1752701 C106.162454,43.9791415 107.065421,43.8415587 107.788416,43.3585554 C108.356635,42.9264123 108.820078,42.3844001 109.147521,41.7690353 C109.606762,41.0137938 110.034973,40.1941518 109.997737,39.3247458 C109.957399,38.3763029 109.361626,37.5303152 108.725515,36.7926374 C107.484324,35.3582639 105.805611,34.049764 103.841425,34 C103.081468,34.0299784 102.324054,34.1023112 101.573147,34.2166197 C100.494834,34.2623651 99.4143564,34.2231988 98.3429446,34.099528 C98.0824176,34.0701292 97.8186339,34.0790167 97.5609937,34.1258736 C97.2596019,34.2127069 96.9799111,34.3560848 96.738704,34.5474038 C95.8431695,35.1767847 95.0297072,35.9039035 94.3152767,36.7136005 C93.8546271,37.289809 93.3550437,37.8373747 92.8196404,38.3528845 C92.4687219,38.6829113 92.0449091,38.9357955 91.5784484,39.0934896 C91.2681504,39.1754538 90.9578524,39.116908 90.6630693,39.2076541 C89.7476902,39.4798923 89.626674,40.6069001 89.2015658,41.2684682 Z" id="Path" fill="#965D7B"></path>
                <path d="M116.775425,48.9264704 C114.613357,49.4350316 112.821542,47.1966704 111.829694,45.5637392 C111.525067,45.0678179 111.24783,44.5453039 111,44 L118.421299,45.7920728 L118.721286,45.8647244 C118.721286,45.8647244 120.086092,48.15152 116.775425,48.9264704 Z" id="Path" fill="#000000" opacity="0.1"></path>
                <g id="Group" opacity="0.1" transform="translate(84.000000, 39.000000)" fill="#000000">
                    <path d="M1.06025316,10.086087 C1.09425134,9.68805502 1.0338765,9.28760785 0.884050633,8.9173913 C0.884050633,8.94782609 0.856708861,8.97826087 0.847594937,9.00869565 C0.716962025,9.41652174 0.893164557,9.83956522 1.00556962,10.2626087 C1.02971062,10.2057726 1.04803231,10.1466291 1.06025316,10.086087 L1.06025316,10.086087 Z" id="Path"></path>
                    <path d="M1.78329114,5.10391304 C1.75203632,5.52476499 1.76017308,5.94762398 1.80759494,6.36695652 C1.83874326,5.94610165 1.83060669,5.52325262 1.78329114,5.10391304 L1.78329114,5.10391304 Z" id="Path"></path>
                    <path d="M22.8820253,2.25826087 C22.562287,2.89945618 22.108453,3.46414322 21.5513924,3.91391304 C20.8496203,4.41608696 19.9655696,4.55608696 19.1210127,4.76 C18.2764557,4.96391304 17.404557,5.28956522 16.924557,6.00782609 C16.6648493,6.46975294 16.4908966,6.97502665 16.4111392,7.49913043 C16.3320106,8.02420555 16.1231513,8.521145 15.8035443,8.94478261 C15.4541772,9.34043478 14.8405063,9.55347826 14.3848101,9.28565217 C14.1298273,9.11296052 13.9362091,8.86357188 13.8318987,8.57347826 C13.4886076,7.79130435 13.3974684,6.92695652 13.2607595,6.08086957 C13.1240506,5.23478261 12.9205063,4.37043478 12.4040506,3.69173913 C11.8875949,3.01304348 10.9731646,2.56565217 10.1620253,2.83043478 C9.61402332,3.0429132 9.17551783,3.46903409 8.94683544,4.01130435 C8.72194043,4.54882225 8.56872304,5.1136837 8.49113924,5.69130435 C8.11240506,7.75884058 7.66683544,9.81217391 7.15443038,11.8513043 C7.14020785,11.9354029 7.10580348,12.0147807 7.05417722,12.0826087 C6.9728409,12.1628018 6.86443036,12.2095028 6.75037975,12.2134783 C6.06987342,12.3017391 5.41670886,11.8269565 4.73316456,11.8756522 C3.89164557,11.9365217 3.27493671,12.7521739 2.44556962,12.886087 C1.91654734,12.9336183 1.38583277,12.8155862 0.926582278,12.5482609 C0.715422356,12.4572469 0.525935565,12.322395 0.370632911,12.1526087 C0.226610103,12.3592146 0.18517761,12.6206 0.258227848,12.8617391 C0.392042701,13.1450906 0.63230756,13.3639089 0.926582278,13.4704348 C1.38583277,13.7377601 1.91654734,13.8557922 2.44556962,13.8082609 C3.27493671,13.6743478 3.89164557,12.8586957 4.73316456,12.7978261 C5.41670886,12.7491304 6.06987342,13.223913 6.75037975,13.1356522 C6.86443036,13.1316767 6.9728409,13.0849757 7.05417722,13.0047826 C7.10580348,12.9369546 7.14020785,12.8575768 7.15443038,12.7734783 C7.66481013,10.7444928 8.11037975,8.69115942 8.49113924,6.61347826 C8.56872304,6.03585762 8.72194043,5.47099617 8.94683544,4.93347826 C9.17551783,4.391208 9.61402332,3.96508711 10.1620253,3.7526087 C10.9731646,3.48782609 11.884557,3.93521739 12.4040506,4.61391304 C12.9235443,5.2926087 13.1210127,6.16 13.2607595,7.00304348 C13.4005063,7.84608696 13.4886076,8.71347826 13.8318987,9.49565217 C13.9362091,9.78574579 14.1298273,10.0351344 14.3848101,10.2078261 C14.8405063,10.4726087 15.4541772,10.2626087 15.8035443,9.86695652 C16.1231513,9.44331891 16.3320106,8.94637947 16.4111392,8.42130435 C16.4908966,7.89720057 16.6648493,7.39192685 16.924557,6.93 C17.404557,6.21173913 18.2825316,5.88913043 19.1210127,5.68217391 C19.9594937,5.47521739 20.8435443,5.33826087 21.5513924,4.83608696 C22.108453,4.38631713 22.562287,3.82163009 22.8820253,3.18043478 C23.3316456,2.39826087 23.7508861,1.54608696 23.7144304,0.642173913 C23.7084523,0.525954064 23.696283,0.410136972 23.6779747,0.295217391 C23.5314004,0.991809666 23.2618544,1.6565887 22.8820253,2.25826087 L22.8820253,2.25826087 Z" id="Path"></path>
                </g>
                <path d="M108.667864,41.9706194 C109.435545,43.2077905 109.890542,44.5840446 110,46 C107.332735,44.6433062 104.824128,43.1536564 103.557851,42.6353993 C101.351594,41.7318413 93.1013321,41.8675106 90,41.9516257 C90.324425,41.4263368 90.7033259,40.9302589 91.1315671,40.470116 C91.8402297,39.7071759 92.6730183,39.0465717 93.6012573,38.5110501 C96.0856691,37.0819022 99.1094376,36.6424032 101.96228,37.2957913 C104.815122,37.9491795 107.245613,39.6378712 108.682832,41.9651926 L108.667864,41.9706194 Z" id="Path" fill="#000000" opacity="0.1"></path>
                <path d="M117.659687,46.8858652 C116.317706,47.3129733 114.12757,46.4876158 111.856525,45.3044111 C111.542047,44.8907327 111.255844,44.4548715 111,44 L118.661291,45.4948782 C119.169068,45.8527255 119.297407,46.3635236 117.659687,46.8858652 Z" id="Path" fill="#000000" opacity="0.1"></path>
                <path d="M99.2101358,29.0140942 C99.2101358,29.0140942 91.3040083,28.5481032 89.0812571,32.975018 L88.7228459,36.8986624 L88.1204743,36.8303171 L88,39.4988924 C88,39.4988924 100.083575,38.9552362 102.833401,40.2351582 C105.583228,41.5150802 114.127869,47.9643961 117.552352,46.8770837 C120.976834,45.7897713 117.251166,44.780124 117.251166,44.780124 C117.251166,44.780124 112.537608,42.7204437 112.537608,41.1050081 C112.537608,39.4895726 111.369007,30.9557235 99.2101358,29.0140942 Z" id="Path" fill="#444053"></path>
                <path d="M85,174 C85,174 89.1875,179.392012 91,178.977242 C91,178.977242 85.875,178.396563 85,174 Z" id="Path" fill="#000000" opacity="0.1"></path>
                <path d="M84,175 C84,175 84.4627497,177.200983 85.6967488,176.985097 C86.9307479,176.769211 84,175 84,175 Z" id="Path" fill="#000000" opacity="0.1"></path>
                <path d="M91,218 C91,218 83.9455717,223.8392 85.1351536,223.997016 C86.3247355,224.154832 91,218 91,218 Z" id="Path" fill="#000000" opacity="0.1"></path>
                <polygon id="Path" fill="#F54E5E" points="102 105.953224 125 102 125 125 103.147013 123.791632"></polygon>
                <polygon id="Path" fill="#000000" opacity="0.05" points="102 105.953224 125 102 125 125 103.147013 123.791632"></polygon>
                <polygon id="Path" fill="#F54E5E" points="125 102 153 104.18011 151.450509 124.195473 125 125"></polygon>
                <polygon id="Path" fill="#000000" opacity="0.1" points="125 102 153 104.18011 151.450509 124.195473 125 125"></polygon>
                <polygon id="Path" fill="#F54E5E" points="133.456483 96 125 102.104252 152.505166 104 157 97.7530864"></polygon>
                <polygon id="Path" fill="#F54E5E" points="93 100.320098 113.489321 98 124 103.555589 101.240656 107"></polygon>
                <polygon id="Path" fill="#F54E5E" points="129 106.9308 129 137 117.857797 135.883756 113.011078 135.401056 111.534512 135.250212 106.690882 134.764495 100 134.094749 100 105 123.782595 106.580843"></polygon>
                <polygon id="Path" fill="#F54E5E" points="152 104 152 134.459307 143.188312 136.198496 138.902862 137.044588 129 139 129 107.766676"></polygon>
                <polygon id="Path" fill="#000000" opacity="0.05" points="152 104 152 134.459307 143.188312 136.198496 138.902862 137.044588 129 139 129 107.766676"></polygon>
                <polygon id="Path" fill="#F54E5E" points="92 112.654987 100.701051 107 130 108.725067 125.686925 115"></polygon>
                <polygon id="Path" fill="#FFFFFF" opacity="0.1" points="92 112.654987 100.701051 107 130 108.725067 125.686925 115"></polygon>
                <polygon id="Path" fill="#F54E5E" points="152.912231 105 130 108.179894 137.457254 114 162 110.412698"></polygon>
                <polygon id="Path" fill="#FFFFFF" opacity="0.1" points="152.912231 105 130 108.179894 137.457254 114 162 110.412698"></polygon>
                <polygon id="Path" fill="#FFFFFF" opacity="0.1" points="144 135.327522 139 136 139 130.826899 143.683499 130"></polygon>
                <polygon id="Path" fill="#FFFFFF" opacity="0.1" points="118 134 118 137 113 136.650655 113 134"></polygon>
                <polygon id="Path" fill="#FFFFFF" opacity="0.1" points="113 134 113 136 108 135.559508 108 134"></polygon>
                <path d="M125.703778,130.64556 C122.501238,134.992472 111.925406,131.989151 111.925406,131.989151 L104.06652,123.289006 L103,122.109807 L105.085375,118 C105.085375,118 105.681197,118.208652 106.676219,118.575373 C111.943281,120.529112 128.399871,126.987832 125.703778,130.64556 Z" id="Path" fill="#000000" opacity="0.1"></path>
                <path d="M125.703778,130.64556 C122.501238,134.992472 111.925406,131.989151 111.925406,131.989151 L104.06652,123.289006 L103,122.109807 L105.085375,118 C105.085375,118 105.681197,118.208652 106.676219,118.575373 C111.943281,120.529112 128.399871,126.987832 125.703778,130.64556 Z" id="Path" fill="#EFB7B9"></path>
                <path d="M107,119.543933 C106.645057,120.799163 105.743112,122.658099 104.87034,124 L104,122.885236 L105.701783,119 C105.701783,119 106.190438,119.19725 107,119.543933 Z" id="Path" fill="#000000" opacity="0.1"></path>
                <path d="M80.243888,70.0527978 C80.243888,70.0527978 72.0785497,73.1337902 72.0007846,81.7605687 C71.9821996,87.3196815 72.2937983,92.8750635 72.9339661,98.3979273 C72.9339661,98.3979273 70.6010123,111.26107 77.2110481,114.958261 C83.8210838,118.655452 89.9645287,121.736444 89.9645287,121.736444 C89.9645287,121.736444 100.525033,123.43099 101.822155,123.970164 C103.119277,124.509337 107.626544,117.577105 106.926658,116.421732 C106.226772,115.26636 96.6118917,112.416442 95.4702996,110.490822 C94.3287076,108.565202 91.5167206,107.268104 91.5167206,107.268104 C91.5167206,107.268104 88.6487428,105.33016 88.5336504,103.712639 C88.418558,102.095118 89.2646426,100.939746 89.5041592,100.246523 C89.7436758,99.5532994 90.6115346,92.7751163 90.6115346,92.7751163 C90.6115346,92.7751163 95.2525573,68.7279711 80.243888,70.0527978 Z" id="Path" fill="#DCE6F2"></path>
                <path d="M84,100 C84,100 74.2893151,101.212121 75.0415513,105 C75.0415513,105 78.7316115,101.178788 84,100 Z" id="Path" fill="#000000" opacity="0.1"></path>
                <path d="M84,102 C84,102 78.0397392,106.669773 79.1341791,106.986368 C80.2286191,107.302963 84,102 84,102 Z" id="Path" fill="#000000" opacity="0.1"></path>
                <path d="M86.9581002,104 C86.9581002,104 83.7368588,107.158719 85.5575605,106.993757 C87.3782621,106.828794 86.9581002,104 86.9581002,104 Z" id="Path" fill="#000000" opacity="0.1"></path>
                <path d="M199.736512,35.0141667 C199.736512,35.0141667 186.588624,34.3550521 188.124851,42.0284126 C188.124851,42.0284126 187.816914,43.3840588 189.294321,44 C189.294321,44 189.318541,43.4243541 190.64371,43.6229519 C191.115628,43.6890209 191.595294,43.7083438 192.072678,43.6805165 C192.719626,43.6446232 193.334599,43.4333205 193.823423,43.0789665 L193.823423,43.0789665 C193.823423,43.0789665 197.522131,41.8096672 198.961479,36.7785216 C198.961479,36.7785216 200.02715,35.6790378 199.99947,35.3969713 L197.778169,36.1884845 C197.778169,36.1884845 198.535902,37.5211048 197.937328,38.6292233 C197.937328,38.6292233 197.868128,36.2374144 197.439092,36.2921007 C197.352593,36.2921007 196.286922,36.7554957 196.286922,36.7554957 C196.286922,36.7554957 197.59133,39.0753489 196.605239,40.7648698 C196.605239,40.7648698 196.978916,37.9039094 195.878645,36.9224331 L194.314738,37.6822857 C194.314738,37.6822857 195.840585,40.0798511 194.806054,42.0370473 C194.806054,42.0370473 195.072472,39.0350537 193.986041,37.8664924 L192.567453,38.7846477 C192.567453,38.7846477 194.003341,41.1505526 193.127969,42.7738741 C193.127969,42.7738741 193.01379,39.2797032 192.259516,39.0149061 C192.259516,39.0149061 191.020846,39.9244267 190.834008,40.2985965 C190.834008,40.2985965 191.81318,42.0255344 191.204225,42.9206638 C191.204225,42.9206638 190.830548,40.592176 190.512231,40.5806631 C190.512231,40.5806631 189.277021,42.1233942 189.149002,43.1710698 C189.208825,42.1943458 189.57504,41.2476753 190.211213,40.4252387 C189.499316,40.5372815 188.842519,40.8204714 188.322069,41.2397777 C188.322069,41.2397777 188.512368,40.1489286 190.515691,40.053947 C190.515691,40.053947 191.553682,38.8825075 191.80972,38.8105518 C191.80972,38.8105518 189.816777,38.6723967 188.609247,39.1185224 C188.609247,39.1185224 189.671458,38.0909943 192.176477,38.5428764 L193.560465,37.5930606 C193.560465,37.5930606 190.937807,37.3052376 189.823697,37.6247211 C189.823697,37.6247211 191.103886,36.7152005 193.937602,37.3771934 L195.459989,36.6202189 C195.459989,36.6202189 193.224848,36.2172668 191.892759,36.3640565 C191.892759,36.3640565 193.297507,35.7337242 195.906325,36.4158646 L196.996216,36.0100342 C196.996216,36.0100342 195.35619,35.7423589 194.878714,35.6991854 C194.401238,35.656012 194.373558,35.5466392 194.373558,35.5466392 C195.411095,35.4029898 196.476226,35.5026575 197.449472,35.8344622 C197.449472,35.8344622 199.784952,35.1350524 199.736512,35.0141667 Z" id="Path" fill="#F54E5E"></path>
                <path d="M235.766402,76.0141667 C235.766402,76.0141667 222.58503,75.3550521 224.125169,83.0284126 C224.125169,83.0284126 223.816448,84.3840588 225.297618,85 C225.297618,85 225.321899,84.4243541 226.653911,84.6229519 C227.127031,84.6890209 227.607919,84.7083438 228.086518,84.6805165 C228.727495,84.6419559 229.336093,84.4318819 229.82091,84.0818447 L229.82091,84.0818447 C229.82091,84.0818447 233.532507,82.8096672 234.97552,77.7785216 C234.97552,77.7785216 236.040436,76.681916 235.998811,76.3998495 L233.771853,77.1884845 C233.771853,77.1884845 234.531516,78.5211048 233.934885,79.6292233 C233.934885,79.6292233 233.862041,77.2374144 233.435381,77.2921007 C233.348661,77.2921007 232.276807,77.7554957 232.276807,77.7554957 C232.276807,77.7554957 233.588007,80.0782271 232.599404,81.7648698 C232.599404,81.7648698 232.974033,78.9039094 231.867491,77.9224331 L230.316945,78.673651 C230.316945,78.673651 231.846678,81.0712164 230.809513,83.0284126 C230.809513,83.0284126 231.076609,80.026419 229.987411,78.8578577 L228.568679,79.7788912 C228.568679,79.7788912 230.004755,82.1419179 229.130622,83.7652394 C229.130622,83.7652394 229.016152,80.2710685 228.259958,80.0062714 C228.259958,80.0062714 227.018134,80.915792 226.827351,81.2899619 C226.827351,81.2899619 227.812485,83.0168997 227.201979,83.9120292 C227.201979,83.9120292 226.827351,81.5835413 226.508223,81.5720284 C226.508223,81.5720284 225.269867,83.1147595 225.141522,84.1624351 C225.203496,83.1855917 225.57177,82.2391009 226.209907,81.416604 C225.495296,81.5289201 224.835802,81.8120319 224.312483,82.231143 C224.312483,82.231143 224.506735,81.1402939 226.51516,81.0453123 C226.51516,81.0453123 227.538451,79.8738728 227.812485,79.8019171 C227.812485,79.8019171 225.814466,79.6637621 224.603861,80.1098877 C224.603861,80.1098877 225.668777,79.0823596 228.176707,79.5486329 L229.56422,78.598817 C229.56422,78.598817 226.931414,78.3109941 225.817935,78.6304776 C225.817935,78.6304776 227.101384,77.720957 229.942317,78.3829498 L231.468581,77.6259754 C231.468581,77.6259754 229.224279,77.2259015 227.888798,77.3698129 C227.888798,77.3698129 229.300592,76.7394806 231.916054,77.4216211 L233.00872,77.0157907 C233.00872,77.0157907 231.364518,76.7481153 230.882357,76.7049419 C230.400196,76.6617684 230.375915,76.5523957 230.375915,76.5523957 C231.417234,76.4086602 232.486219,76.5083223 233.463131,76.8402187 C233.463131,76.8402187 235.808028,76.1350524 235.766402,76.0141667 Z" id="Path" fill="#F54E5E" opacity="0.1"></path>
                <path d="M162.60398,66.8611471 C162.60398,66.8611471 165.169299,55.156483 157.24173,55.1154582 C157.24173,55.1154582 155.925355,54.5852928 155.095657,55.7970995 C155.095657,55.7970995 155.661493,55.9264851 155.277428,57.0814884 C155.144598,57.4899104 155.056057,57.9134857 155.013567,58.343787 C154.956777,58.9303813 155.079264,59.5209086 155.36245,60.0258 L155.36245,60.0258 C155.36245,60.0258 156.104194,63.5917937 160.932858,65.8260623 C160.932858,65.8260623 161.882759,66.987377 162.170075,67 L161.700988,64.857248 C161.700988,64.857248 160.252682,65.2895853 159.226554,64.5416734 C159.226554,64.5416734 161.63942,64.9235187 161.642352,64.5416734 C161.642352,64.4627797 161.349172,63.4182276 161.349172,63.4182276 C161.349172,63.4182276 158.830762,64.1566723 157.276911,62.9543328 C157.276911,62.9543328 160.094365,63.8253189 161.240696,63.0206035 L160.712973,61.4679762 C160.712973,61.4679762 158.074359,62.3926099 156.268374,61.0955981 C156.268374,61.0955981 159.244145,61.8971577 160.575179,61.1397785 L159.85689,59.6944466 C159.85689,59.6944466 157.276911,60.5401867 155.772901,59.4514541 C155.772901,59.4514541 159.291053,60.000554 159.672187,59.3757162 C159.672187,59.3757162 158.939238,58.0913273 158.590355,57.8514906 C158.590355,57.8514906 156.725734,58.4132135 155.904832,57.696859 C155.904832,57.696859 158.294244,57.7946871 158.349948,57.5232929 C158.349948,57.5232929 156.9808,56.1252972 155.937082,55.8097225 C156.909728,56.0480971 157.80797,56.5549086 158.543446,57.2803004 C158.532695,56.6189201 158.343206,55.9752301 157.998133,55.4278772 C157.998133,55.4278772 159.065305,55.8065668 158.877671,57.6368998 C158.877671,57.6368998 159.903798,58.7729686 159.936048,59.0317398 C159.936048,59.0317398 160.361158,57.2676774 160.088501,56.0968954 C160.088501,56.0968954 160.968039,57.2455872 160.138342,59.4072736 L160.888881,60.8431384 C160.888881,60.8431384 161.569057,58.5394433 161.396081,57.4791125 C161.396081,57.4791125 162.126098,58.7982145 161.05013,61.2218279 L161.592511,62.7334306 C161.592511,62.7334306 162.316664,60.7958022 162.363573,59.577684 C162.363573,59.577684 162.794547,60.959901 161.730306,63.1783908 L161.98244,64.2324102 C161.98244,64.2324102 162.486708,62.8091685 162.598116,62.3862984 C162.709525,61.9634284 162.823865,61.9602727 162.823865,61.9602727 C162.819397,62.9203387 162.566614,63.8600946 162.093848,64.6742147 C162.093848,64.6742147 162.477913,66.8769259 162.60398,66.8611471 Z" id="Path" fill="#F54E5E" opacity="0.1"></path>
                <path d="M140,71.4281697 C140,71.4281697 130.116904,65.657461 126.583988,71.9084301 C126.583988,71.9084301 125.505656,72.780482 126.279594,73.8244166 C126.279594,73.8244166 126.648753,73.4174591 127.574888,74.0923514 C127.902928,74.3305702 128.265984,74.5375995 128.656459,74.7091069 C129.185349,74.9389834 129.795949,75.0277393 130.395392,74.9618756 L130.395392,74.9618756 C130.395392,74.9618756 134.074028,75.515439 138.309641,72.4038567 C138.309641,72.4038567 139.821897,72.0247037 139.964379,71.8022673 L137.733235,71.4964172 C137.733235,71.4964172 137.500082,72.7779543 136.350508,73.3517392 C136.350508,73.3517392 137.772094,71.5671924 137.402935,71.4382804 C137.328455,71.4104759 136.214502,71.3118961 136.214502,71.3118961 C136.214502,71.3118961 135.800008,73.5413157 133.986596,74.3830354 C133.986596,74.3830354 136.049352,72.434189 135.793531,71.2714531 L134.099934,71.2006779 C134.099934,71.2006779 133.811731,73.5741756 131.791072,74.595361 C131.791072,74.595361 133.853828,72.4999088 133.734013,71.2057332 L132.056607,71.3118961 C132.056607,71.3118961 131.716592,73.619674 130.029471,74.458866 C130.029471,74.458866 132.098704,71.8502933 131.674495,71.3548668 C131.674495,71.3548668 130.14281,71.5242218 129.763936,71.7213813 C129.763936,71.7213813 129.469256,73.3744884 128.433021,73.7940844 C128.433021,73.7940844 129.582595,71.9362347 129.349442,71.8073227 C129.349442,71.8073227 127.429168,72.441772 126.674659,73.1646904 C127.327342,72.4725158 128.200225,71.9253436 129.206959,71.5773032 C128.580571,71.3740859 127.891857,71.3178669 127.225159,71.4155312 C127.225159,71.4155312 128.047671,70.6926129 129.673265,71.4281697 C129.673265,71.4281697 131.195236,70.9807691 131.454295,71.0363782 C131.454295,71.0363782 129.980898,70.1339941 128.760083,69.9772775 C128.760083,69.9772775 130.230242,69.6486783 131.897933,70.9883522 L133.578578,70.8543848 C133.578578,70.8543848 131.710116,69.5905415 130.63826,69.3782158 C130.63826,69.3782158 132.202328,69.2240269 134.006025,70.8468017 L135.664002,70.9049385 C135.664002,70.9049385 134.164699,69.7118704 133.034554,69.2821637 C133.034554,69.2821637 134.520905,69.3832712 136.140023,70.9327431 L137.244261,71.0717659 C137.244261,71.0717659 136.12707,70.2174078 135.77734,69.9949713 C135.427611,69.7725349 135.476184,69.6790105 135.476184,69.6790105 C136.377057,69.9904047 137.149464,70.4909434 137.707329,71.1248473 C137.707329,71.1248473 139.957903,71.5318048 140,71.4281697 Z" id="Path" fill="#F54E5E" opacity="0.1"></path>
                <path d="M171,7.42987884 C171,7.42987884 161.116904,1.65524475 157.583988,7.91025558 C157.583988,7.91025558 156.505656,8.78251861 157.279594,9.82670595 C157.279594,9.82670595 157.648753,9.41964987 158.574888,10.0947056 C158.904647,10.3317514 159.268713,10.5379384 159.659697,10.7090822 C160.188505,10.9391908 160.799181,11.0279793 161.39863,10.961912 L161.39863,10.961912 C161.39863,10.961912 165.077266,11.5156094 169.312879,8.40074552 C169.312879,8.40074552 170.825135,8.02402902 170.964379,7.79901044 L168.733235,7.4981429 C168.733235,7.4981429 168.50332,8.77999031 167.350508,9.3539141 C167.350508,9.3539141 168.775332,7.56893526 168.406173,7.43999203 C168.331694,7.41218075 167.21774,7.3135771 167.21774,7.3135771 C167.21774,7.3135771 166.790293,9.5485931 164.976881,10.3854599 C164.976881,10.3854599 167.036399,8.4361417 166.783817,7.27312432 L165.090219,7.20233196 C165.090219,7.20233196 164.798778,9.57640438 162.781357,10.5953087 C162.781357,10.5953087 164.844113,8.49934916 164.724299,7.20486026 L163.050131,7.3110488 C163.050131,7.3110488 162.706878,9.62191376 161.019757,10.4613089 C161.019757,10.4613089 163.092228,7.85210471 162.668019,7.35655818 C162.668019,7.35655818 161.136333,7.52595419 160.757459,7.72316148 C160.757459,7.72316148 160.46278,9.37666879 159.426544,9.79636636 C159.426544,9.79636636 160.576118,7.93806687 160.342965,7.80659534 C160.342965,7.80659534 158.422691,8.44372659 157.668182,9.16682 C158.319879,8.47373981 159.193039,7.92626186 160.200483,7.57904846 C159.573452,7.37427026 158.883129,7.31799837 158.215444,7.41723735 C158.215444,7.41723735 159.041194,6.69414394 160.666789,7.42987884 C160.666789,7.42987884 162.18876,6.97984168 162.447819,7.03799255 C162.447819,7.03799255 160.974421,6.13538994 159.753606,5.97610712 C159.753606,5.97610712 161.220527,5.6499566 162.888219,6.98742658 L164.568863,6.85342675 C164.568863,6.85342675 162.703639,5.58927743 161.628545,5.37437205 C161.628545,5.37437205 163.192613,5.22267413 164.999549,6.84584185 L166.657525,6.90146442 C166.657525,6.90146442 165.158222,5.70810747 164.02484,5.280825 C164.02484,5.280825 165.514428,5.38195694 167.133546,6.93180401 L168.234546,7.07086043 C168.234546,7.07086043 167.114117,6.22640869 166.764387,6.00897501 C166.414658,5.79154132 166.463231,5.69546598 166.463231,5.69546598 C167.364376,6.00659352 168.136892,6.50732415 168.694376,7.1416528 C168.694376,7.1416528 170.94495,7.52595419 171,7.42987884 Z" id="Path" fill="#F54E5E" opacity="0.1"></path>
                <path d="M206,16.6185739 C206,16.6185739 202.365442,5.71204069 195.510427,9.99793673 C195.510427,9.99793673 194.110228,10.2999731 194,11.7225644 C194,11.7225644 194.551142,11.5171796 194.795432,12.6649178 C194.886192,13.0731864 195.023146,13.4694647 195.203575,13.84588 C195.449798,14.35246 195.851127,14.7646401 196.347567,15.0208015 L196.347567,15.0208015 C196.347567,15.0208015 198.766634,17.5126015 204.057597,16.6880422 C204.057597,16.6880422 205.454816,17.1169339 205.711023,16.9689361 L204.22145,15.4859375 C204.22145,15.4859375 203.190665,16.6246146 201.933466,16.5793091 C201.933466,16.5793091 204.206554,15.5765484 204.018868,15.2533695 C203.980139,15.1899419 203.202582,14.5043193 203.202582,14.5043193 C203.202582,14.5043193 201.397219,16.4766168 199.460775,16.3467411 C199.460775,16.3467411 202.323734,15.5191615 202.907646,14.2324866 L201.67428,13.2689906 C201.67428,13.2689906 199.868918,15.4496931 197.655412,15.3832451 C197.655412,15.3832451 200.634558,14.4137084 201.388282,13.0726669 L200.047666,12.2903927 C200.047666,12.2903927 198.260179,14.3835048 196.40715,14.3170568 C196.40715,14.3170568 199.71996,12.8461397 199.728898,12.1333338 C199.728898,12.1333338 198.456802,11.4899964 198.036743,11.4839556 C198.036743,11.4839556 196.708044,12.9548728 195.653426,12.8219768 C195.653426,12.8219768 197.762661,11.5987295 197.673287,11.3480393 C197.673287,11.3480393 195.796425,10.9584124 194.738828,11.2725302 C195.69539,10.9348715 196.722435,10.8567774 197.717974,11.0460029 C197.378018,10.5141118 196.892461,10.0942614 196.320755,9.83785745 C196.320755,9.83785745 197.428997,9.56300436 198.170804,11.1456749 C198.170804,11.1456749 199.624628,11.5111389 199.779543,11.7014218 C199.779543,11.7014218 199.26713,10.0372015 198.447865,9.23378472 C198.447865,9.23378472 199.779543,9.68985963 200.142999,11.8977455 L201.507448,12.6528364 C201.507448,12.6528364 200.944389,10.4147469 200.265144,9.63247272 C200.265144,9.63247272 201.555114,10.3090342 201.835154,12.8612415 L203.056604,13.7945339 C203.056604,13.7945339 202.716981,11.8252567 202.144985,10.8043738 C202.144985,10.8043738 203.205561,11.6923607 203.396226,14.0754277 L204.138034,14.7942742 C204.138034,14.7942742 203.863952,13.3626218 203.750745,12.9578931 C203.637537,12.5531644 203.729891,12.5259811 203.729891,12.5259811 C204.203487,13.3095055 204.45404,14.2105931 204.453823,15.1295346 C204.453823,15.1295346 205.89573,16.6971033 206,16.6185739 Z" id="Path" fill="#F54E5E" opacity="0.1"></path>
                <path d="M182.767334,17.0644127 C182.767334,17.0644127 170.008121,15.9357245 171.061851,23.1277684 C171.061851,23.1277684 170.681431,24.3741397 172.071815,25 C172.071815,25 172.129046,24.4650767 173.418433,24.7057922 C173.874107,24.7836868 174.339391,24.8204727 174.805451,24.8154515 C175.434991,24.8064189 176.043665,24.6345864 176.539222,24.3259966 L176.539222,24.3259966 C176.539222,24.3259966 180.212125,23.29092 181.925697,18.6772065 C181.925697,18.6772065 183.023192,17.7009715 182.999626,17.4361844 L180.794538,18.0834416 C180.794538,18.0834416 181.467847,19.3485352 180.794538,20.3541911 C180.794538,20.3541911 180.865235,18.1315847 180.457883,18.1663547 C180.373719,18.1663547 179.30989,18.5514995 179.30989,18.5514995 C179.30989,18.5514995 180.44105,20.7580582 179.383954,22.2959627 C179.383954,22.2959627 179.915869,19.6534415 178.902538,18.701278 L177.337094,19.343186 C177.337094,19.343186 178.683713,21.6299832 177.55592,23.4059285 C177.55592,23.4059285 177.993571,20.6296766 177.007172,19.503663 L175.57639,20.306048 C175.57639,20.306048 176.828745,22.5554005 175.882746,24.0291142 C175.882746,24.0291142 175.980376,20.7821297 175.263301,20.5066442 C175.263301,20.5066442 174.004213,21.3090292 173.798853,21.6406816 C173.798853,21.6406816 174.65059,23.2721977 174.007579,24.0879558 C174.007579,24.0879558 173.78202,21.9134925 173.485764,21.8920956 C173.485764,21.8920956 172.19301,23.2748723 172.004484,24.2511074 C172.121261,23.3460243 172.534477,22.4810427 173.202974,21.742317 C172.504385,21.8190142 171.849167,22.0560505 171.317708,22.4243443 C171.317708,22.4243443 171.566833,21.4213631 173.51943,21.4106646 C173.51943,21.4106646 174.579892,20.3648895 174.866049,20.3087226 C174.866049,20.3087226 172.937017,20.1027771 171.73516,20.4691996 C171.73516,20.4691996 172.829288,19.5544807 175.233002,20.0867294 L176.650318,19.2602729 C176.650318,19.2602729 174.088376,18.8483819 173.004348,19.1158436 C173.004348,19.1158436 174.303835,18.3134586 177.017272,19.0489782 L178.542318,18.4043956 C178.542318,18.4043956 176.391094,17.9443616 175.088241,18.0272747 C175.088241,18.0272747 176.492091,17.4923514 178.986702,18.2332201 L180.07073,17.8988931 C180.07073,17.8988931 178.49182,17.5859629 178.027236,17.5271214 C177.562653,17.4682798 177.54582,17.3666444 177.54582,17.3666444 C178.563573,17.2738716 179.593771,17.4071953 180.521847,17.7517892 C180.521847,17.7517892 182.7909,17.1767466 182.767334,17.0644127 Z" id="Path" fill="#F54E5E" opacity="0.1"></path>
                <path d="M283.777122,107.064586 C283.777122,107.064586 271.006762,105.93478 272.061968,113.125914 C272.061968,113.125914 271.681015,114.37352 273.073348,115 C273.073348,115 273.13066,114.464547 274.421855,114.702824 C274.87764,114.783437 275.343966,114.82029 275.810817,114.812591 C276.441553,114.804924 277.051616,114.63277 277.54702,114.322652 L277.54702,114.322652 C277.54702,114.322652 281.225072,113.28655 282.924191,108.670945 C282.924191,108.670945 284.023224,107.691066 283.999625,107.428694 L281.791445,108.073915 C281.791445,108.073915 282.465699,109.342939 281.791445,110.34959 C281.791445,110.34959 281.862242,108.122106 281.454319,108.159588 C281.370037,108.159588 280.304716,108.542436 280.304716,108.542436 C280.304716,108.542436 281.437462,110.75118 280.378884,112.290608 C280.378884,112.290608 280.911545,109.648147 279.896793,108.692363 L278.329154,109.337584 C278.329154,109.337584 279.677661,111.626646 278.551658,113.40435 C278.551658,113.40435 278.986551,110.625349 277.99877,109.495543 L276.565981,110.298722 C276.565981,110.298722 277.820093,112.550302 276.872767,114.022798 C276.872767,114.022798 276.970533,110.772598 276.252453,110.499517 C276.252453,110.499517 274.994971,111.302697 274.785952,111.634678 C274.785952,111.634678 275.642254,113.267809 274.994971,114.084375 C274.994971,114.084375 274.769096,111.907759 274.472424,111.886341 C274.472424,111.886341 273.177858,113.270487 272.989067,114.247688 C273.106008,113.341709 273.519804,112.475871 274.189238,111.736414 C273.489169,111.811816 272.832557,112.049258 272.301328,112.419116 C272.301328,112.419116 272.550802,111.412465 274.506137,111.401756 C274.506137,111.401756 275.571457,110.354945 275.854644,110.3014 C275.854644,110.3014 273.922908,110.092573 272.719365,110.459358 C272.719365,110.459358 273.815027,109.546411 276.225483,110.079187 L277.641415,109.251912 C277.641415,109.251912 275.106223,108.87174 274.003818,109.134112 C274.003818,109.134112 275.305127,108.330933 278.022369,109.064503 L279.549553,108.42196 C279.549553,108.42196 277.395313,107.96147 276.090633,108.044465 C276.090633,108.044465 277.496451,107.509012 279.99456,108.250615 L281.080108,107.913279 C281.080108,107.913279 279.498984,107.600039 279.033749,107.543817 C278.568514,107.487594 278.551658,107.383181 278.551658,107.383181 C279.570549,107.288631 280.602468,107.421195 281.531858,107.76603 C281.531858,107.76603 283.810834,107.179709 283.777122,107.064586 Z" id="Path" fill="#F54E5E" opacity="0.1"></path>
                <path d="M299.790261,117.06424 C299.790261,117.06424 287.005654,115.937062 288.062037,123.125833 C288.062037,123.125833 287.684034,124.373493 289.074546,125 C289.074546,125 289.131921,124.464524 290.424557,124.705488 C290.880061,124.78412 291.345625,124.820064 291.811694,124.812583 C292.439932,124.802384 293.04721,124.631471 293.543083,124.3253 L293.543083,124.3253 C293.543083,124.3253 297.221864,123.289153 298.922879,118.670669 C298.922879,118.670669 300.026513,117.693425 299.999513,117.428364 L297.788869,118.073613 C297.788869,118.073613 298.463875,119.342692 297.788869,120.349388 C297.788869,120.349388 297.859745,118.124483 297.451366,118.159289 C297.36699,118.159289 296.300482,118.542155 296.300482,118.542155 C296.300482,118.542155 297.434491,120.750995 296.374732,122.29049 C296.374732,122.29049 296.907987,119.647914 295.892103,118.694766 L294.322715,119.337337 C294.322715,119.337337 295.672726,121.626499 294.545467,123.40428 C294.545467,123.40428 294.980845,120.625158 293.991962,119.49798 L292.557575,120.301195 C292.557575,120.301195 293.813086,122.552873 292.868078,124.02811 C292.868078,124.02811 292.962578,120.775091 292.243697,120.501998 C292.243697,120.501998 290.984812,121.305213 290.77556,121.637208 C290.77556,121.637208 291.632817,123.270411 290.984812,124.087013 C290.984812,124.087013 290.758685,121.910301 290.461683,121.888882 C290.461683,121.888882 289.165672,123.273089 288.980045,124.250333 C289.096886,123.344712 289.509897,122.479009 290.17818,121.738949 C289.47783,121.815725 288.820962,122.053007 288.288164,122.421681 C288.288164,122.421681 288.541291,121.414986 290.498808,121.406953 C290.498808,121.406953 291.561942,120.360097 291.848819,120.303872 C291.848819,120.303872 289.914928,120.097714 288.710043,120.464515 C288.710043,120.464515 289.806927,119.54885 292.220072,120.081649 L293.637584,119.254338 C293.637584,119.254338 291.099563,118.87415 289.995929,119.136534 C289.995929,119.136534 291.29869,118.333319 294.018962,119.069599 L295.54785,118.42435 C295.54785,118.42435 293.391207,117.96384 292.085071,118.046839 C292.085071,118.046839 293.492458,117.511363 295.993354,118.252998 L297.080113,117.918325 C297.080113,117.918325 295.497225,117.605071 295.034846,117.546169 C294.572467,117.487266 294.548842,117.385526 294.548842,117.385526 C295.569159,117.292657 296.601952,117.426119 297.532367,117.771069 C297.532367,117.771069 299.824011,117.179367 299.790261,117.06424 Z" id="Path" fill="#F54E5E" opacity="0.1"></path>
                <path d="M261,25.4281697 C261,25.4281697 251.116904,19.657461 247.583988,25.9084301 C247.583988,25.9084301 246.505656,26.780482 247.279594,27.8244166 C247.279594,27.8244166 247.648753,27.4174591 248.574888,28.0923514 C248.902928,28.3305702 249.265984,28.5375995 249.656459,28.7091069 C250.18543,28.9388074 250.795954,29.0275522 251.395392,28.9618756 L251.395392,28.9618756 C251.395392,28.9618756 255.074028,29.515439 259.312879,26.4038567 C259.312879,26.4038567 260.821897,26.0247037 260.964379,25.8022673 L258.739711,25.4888342 C258.739711,25.4888342 258.506558,26.7703713 257.356984,27.3441562 C257.356984,27.3441562 258.77857,25.5596094 258.409411,25.4306974 C258.334932,25.4028928 257.224217,25.304313 257.224217,25.304313 C257.224217,25.304313 256.806484,27.5337327 254.993072,28.3754523 C254.993072,28.3754523 257.055829,26.4266059 256.800008,25.26387 L255.10641,25.1930948 C255.10641,25.1930948 254.818207,27.5665926 252.797548,28.587778 C252.797548,28.587778 254.863543,26.4923258 254.74049,25.1981502 L253.063084,25.304313 C253.063084,25.304313 252.73926,27.6120909 251.035948,28.4512829 C251.035948,28.4512829 253.108419,25.8427103 252.680972,25.3472837 C252.680972,25.3472837 251.149286,25.5166387 250.770412,25.7137983 C250.770412,25.7137983 250.478971,27.3669053 249.442736,27.7865013 C249.442736,27.7865013 250.589071,25.9286516 250.355918,25.7997396 C250.355918,25.7997396 248.435644,26.434189 247.681135,27.1571073 C248.333818,26.4649327 249.206702,25.9177606 250.213436,25.5697201 C249.587048,25.3665028 248.898333,25.3102839 248.231635,25.4079482 C248.231635,25.4079482 249.057386,24.6850298 250.68298,25.4205866 C250.68298,25.4205866 252.201713,24.9731861 252.460772,25.0287952 C252.460772,25.0287952 250.987374,24.126411 249.766559,23.9696945 C249.766559,23.9696945 251.236718,23.6410952 252.90441,24.9807691 L254.585054,24.8468017 C254.585054,24.8468017 252.71983,23.5829584 251.644736,23.3706327 C251.644736,23.3706327 253.208804,23.2164439 255.012502,24.8392187 L256.673717,24.8973555 C256.673717,24.8973555 255.171175,23.7042874 254.041031,23.2745806 C254.041031,23.2745806 255.530619,23.3756881 257.146499,24.92516 L258.250738,25.0641828 C258.250738,25.0641828 257.133546,24.2098247 256.783817,23.9873883 C256.434087,23.7649519 256.485899,23.6916489 256.485899,23.6916489 C257.385496,24.003551 258.156694,24.504033 258.713805,25.1374857 C258.713805,25.1374857 260.957903,25.5318048 261,25.4281697 Z" id="Path" fill="#F54E5E" opacity="0.1"></path>
                <path d="M267,76.6385841 C267,76.6385841 263.80486,66.011673 256.618831,69.8266848 C256.618831,69.8266848 255.179195,70.0384687 255,71.4136136 C255,71.4136136 255.570995,71.2424458 255.768413,72.3535861 C255.841618,72.7527698 255.963955,73.1422911 256.132878,73.5140459 C256.358158,74.0139661 256.74858,74.4296943 257.244495,74.697715 L257.244495,74.697715 C257.244495,74.697715 259.595292,77.1927037 265.019742,76.6356829 C265.019742,76.6356829 266.422931,77.1056692 266.690205,76.9780186 L265.253607,75.4868277 C265.253607,75.4868277 264.151101,76.5370438 262.875475,76.4384048 C262.875475,76.4384048 265.232346,75.5680599 265.050114,75.2576369 C265.013667,75.1938116 264.254366,74.5004368 264.254366,74.5004368 C264.254366,74.5004368 262.328778,76.3165565 260.360668,76.1047725 C260.360668,76.1047725 263.315869,75.4375081 263.965831,74.2364322 L262.750949,73.2558436 C262.750949,73.2558436 260.813212,75.2692415 258.562642,75.1125794 C258.562642,75.1125794 261.624146,74.3089609 262.468489,73.0585655 L261.138193,72.2491447 C261.138193,72.2491447 259.209567,74.1784092 257.338648,74.0333517 C257.338648,74.0333517 260.779803,72.7655493 260.822323,72.0837792 C260.822323,72.0837792 259.552771,71.4107125 259.124525,71.3875033 C259.124525,71.3875033 257.70615,72.739439 256.627942,72.56537 C256.627942,72.56537 258.832954,71.4832412 258.753986,71.2395446 C258.753986,71.2395446 256.85877,70.7840642 255.768413,71.0364642 C256.755952,70.7567436 257.802769,70.7277458 258.805619,70.9523308 C258.484398,70.4273849 258.009262,70.0037907 257.438876,69.733848 C257.438876,69.733848 258.580866,69.5162618 259.2612,71.0683768 C259.2612,71.0683768 260.722096,71.4803401 260.873956,71.6718159 C260.873956,71.6718159 260.427487,70.0500733 259.628702,69.2464549 C259.628702,69.2464549 260.965072,69.7396503 261.235383,71.8748964 L262.589977,72.661108 C262.589977,72.661108 262.116173,70.4852457 261.460137,69.7193422 C261.460137,69.7193422 262.741838,70.4243216 262.914958,72.8844965 L264.129841,73.8331724 C264.129841,73.8331724 263.871678,71.9300183 263.33713,70.9320228 C263.33713,70.9320228 264.378891,71.8313792 264.463933,74.1232874 L265.186788,74.8485748 C265.186788,74.8485748 264.974184,73.4618252 264.883068,73.0672689 C264.791951,72.6727126 264.883068,72.6175907 264.883068,72.6175907 C265.332509,73.3892735 265.548104,74.2652602 265.505695,75.1473932 C265.505695,75.1473932 266.890661,76.7082117 267,76.6385841 Z" id="Path" fill="#F54E5E" opacity="0.1"></path>
                <path d="M197,99.743448 C197,99.743448 190.359077,91.7362162 184.192739,96.5286116 C184.192739,96.5286116 182.781989,97.0262643 183.029033,98.2081895 C183.029033,98.2081895 183.565378,97.9344805 184.117975,98.8053727 C184.316538,99.1140073 184.563211,99.4030928 184.852605,99.6663119 C185.240185,100.025574 185.771275,100.277367 186.364122,100.382932 L186.364122,100.382932 C186.364122,100.382932 189.565937,101.895796 194.96189,100.183871 C194.96189,100.183871 196.551421,100.248566 196.785462,100.081852 L194.835118,99.186077 C194.835118,99.186077 194.032226,100.305796 192.689739,100.517298 C192.689739,100.517298 194.841619,99.2731662 194.552318,99.044246 C194.497058,98.9994573 193.495881,98.6063116 193.495881,98.6063116 C193.495881,98.6063116 192.088383,100.542181 190.001514,100.823354 C190.001514,100.823354 192.826263,99.591664 193.118815,98.4520393 L191.56179,97.9270157 C191.56179,97.9270157 190.2063,100.029598 187.846384,100.415279 C187.846384,100.415279 190.739395,99.0492225 191.210728,97.8249969 L189.585441,97.466687 C189.585441,97.466687 188.213699,99.4995982 186.247101,99.8106311 C186.247101,99.8106311 189.380655,97.9742927 189.208374,97.4019921 C189.208374,97.4019921 187.693607,97.1407245 187.25803,97.2203489 C187.25803,97.2203489 186.227598,98.6610534 185.063892,98.7655605 C185.063892,98.7655605 186.988232,97.3671564 186.828954,97.1830249 C186.828954,97.1830249 184.738835,97.2452315 183.698651,97.7055603 C184.626514,97.2454164 185.695719,96.97946 186.799699,96.9341986 C186.305427,96.5760966 185.685094,96.3365065 185.015134,96.2449496 C185.015134,96.2449496 186.117078,95.804527 187.290536,96.9242455 C187.290536,96.9242455 188.915823,96.9242455 189.140112,97.0486587 C189.140112,97.0486587 188.16494,95.804527 187.095501,95.3392217 C187.095501,95.3392217 188.623271,95.4387522 189.572438,97.1332597 L191.213978,97.466687 C191.213978,97.466687 190.040521,95.7871091 189.12711,95.3068743 C189.12711,95.3068743 190.664631,95.5905363 191.617049,97.5786588 L193.15132,98.0763115 C193.15132,98.0763115 192.286668,96.5709121 191.418764,95.8667336 C191.418764,95.8667336 192.771003,96.3643862 193.580396,98.2330721 L194.555568,98.6635417 C194.555568,98.6635417 193.905454,97.571194 193.674663,97.2701142 C193.443872,96.9690343 193.534888,96.8993629 193.534888,96.8993629 C194.238294,97.4312232 194.734619,98.102345 194.968391,98.8377201 C194.968391,98.8377201 196.912235,99.828049 197,99.743448 Z" id="Path" fill="#F54E5E" opacity="0.1"></path>
                <path d="M238,50.9172913 C238,50.9172913 231.650307,42.8035748 225.254862,47.4208956 C225.254862,47.4208956 223.81695,47.8910408 224.019565,49.0639294 C224.019565,49.0639294 224.565318,48.8016379 225.088195,49.6800671 C225.275173,49.9923252 225.511072,50.2864221 225.790812,50.5560218 C226.166088,50.9209225 226.689905,51.1818588 227.281013,51.2983564 L227.281013,51.2983564 C227.281013,51.2983564 230.434617,52.8770545 235.928098,51.2983564 C235.928098,51.2983564 237.522874,51.3998088 237.764705,51.2389696 L235.846399,50.3036281 C235.846399,50.3036281 234.996723,51.3948599 233.637241,51.5754946 C233.637241,51.5754946 235.849667,50.380336 235.571888,50.1551612 C235.513064,50.1081467 234.526133,49.6924393 234.526133,49.6924393 C234.526133,49.6924393 233.032664,51.5853924 230.931351,51.8155161 C230.931351,51.8155161 233.820248,50.6574742 234.156851,49.5340746 L232.614362,48.9847471 C232.614362,48.9847471 231.166645,51.0459626 228.777749,51.3750643 C228.777749,51.3750643 231.741811,50.0858766 232.264688,48.8808202 L230.650304,48.4849085 C230.650304,48.4849085 229.186247,50.4644673 227.199313,50.7366566 C227.199313,50.7366566 230.421545,48.9847471 230.271218,48.4131495 C230.271218,48.4131495 228.761409,48.1162157 228.310428,48.1855002 C228.310428,48.1855002 227.215653,49.5934614 226.042447,49.6701693 C226.042447,49.6701693 228.032649,48.3290182 227.882322,48.1409601 C227.882322,48.1409601 225.77774,48.1533324 224.715645,48.5863609 C225.667076,48.151828 226.751903,47.912997 227.862714,47.8935153 C227.379673,47.5256812 226.765135,47.2728111 226.094734,47.1660274 C226.094734,47.1660274 227.222189,46.7527946 228.382323,47.8935153 C228.382323,47.8935153 230.016315,47.9355809 230.23527,48.0617778 C230.23527,48.0617778 229.310431,46.8245536 228.251604,46.3148172 C228.251604,46.3148172 229.78102,46.4484374 230.666644,48.1558068 L232.300636,48.5269741 C232.300636,48.5269741 231.192789,46.8295025 230.290826,46.3296639 C230.290826,46.3296639 231.826778,46.6488677 232.702598,48.6457476 L234.222211,49.1827029 C234.222211,49.1827029 233.415018,47.665866 232.588219,46.9556993 C232.588219,46.9556993 233.924824,47.4827569 234.666656,49.3583888 L235.624176,49.8087384 C235.624176,49.8087384 235.009795,48.7076088 234.794108,48.4032517 C234.578421,48.0988945 234.669924,48.0320844 234.669924,48.0320844 C235.354952,48.5772568 235.82671,49.2556886 236.032674,49.9918476 C236.032674,49.9918476 237.905228,50.9989481 238,50.9172913 Z" id="Path" fill="#F54E5E"></path>
                <path d="M199.998621,71.7920804 C199.998621,71.7920804 200.277995,61.7171366 192.882978,63.1371484 C192.882978,63.1371484 191.558747,62.9441114 191,64.0917559 C191,64.0917559 191.558747,64.0917559 191.402298,65.1098276 C191.351119,65.4728443 191.345492,65.8403173 191.385535,66.2045853 C191.436039,66.698674 191.656932,67.1632982 192.014126,67.5267564 L192.014126,67.5267564 C192.014126,67.5267564 193.346738,70.3138931 198.266505,71.2605676 C198.266505,71.2605676 199.358856,72.0406486 199.632642,71.9983391 L198.794521,70.3271148 C198.794521,70.3271148 197.523372,70.9458909 196.431021,70.5254405 C196.431021,70.5254405 198.749822,70.3958677 198.685566,70.073258 C198.685566,70.0071494 198.205043,69.2032694 198.205043,69.2032694 C198.205043,69.2032694 195.986817,70.274228 194.324545,69.570833 C194.324545,69.570833 197.11828,69.7691586 198.031832,68.89917 L197.25238,67.7277264 C197.25238,67.7277264 194.967104,68.9652786 193.039427,68.2354401 C193.039427,68.2354401 195.95888,68.3465025 197.065199,67.4818026 L196.134885,66.4240657 C196.134885,66.4240657 193.880341,67.592865 192.282324,66.9740889 C192.282324,66.9740889 195.668332,66.7810519 195.91418,66.1966523 C195.91418,66.1966523 194.997835,65.2790655 194.629062,65.1389154 C194.629062,65.1389154 192.991933,65.9322181 192.097938,65.5038346 C192.097938,65.5038346 194.332926,65.1494928 194.346895,64.9141463 C194.346895,64.9141463 192.818722,64.0177143 191.787833,63.9516058 C192.738429,63.9676921 193.667967,64.2193331 194.483788,64.6814442 C194.356505,64.1409412 194.065204,63.6473958 193.645667,63.2614324 C193.645667,63.2614324 194.71008,63.3751392 194.855355,64.9009246 C194.855355,64.9009246 196.020342,65.6466291 196.095773,65.8528878 C196.095773,65.8528878 196.176791,64.3271024 195.710238,63.4174486 C195.710238,63.4174486 196.738332,64.1975296 196.352797,66.1226107 L197.311048,67.1644816 C197.311048,67.1644816 197.528959,65.1494928 197.179742,64.3112363 C197.179742,64.3112363 198.096088,65.2605552 197.531753,67.4447818 L198.305618,68.5844933 C198.305618,68.5844933 198.635278,66.8630265 198.459273,65.8502435 C198.459273,65.8502435 199.10742,66.9079804 198.515148,68.9203248 L198.939796,69.7400709 C198.939796,69.7400709 199.154913,68.4787196 199.182851,68.1111561 C199.210788,67.7435925 199.31695,67.7197934 199.31695,67.7197934 C199.485125,68.5086255 199.418386,69.3261754 199.124182,70.081191 C199.124182,70.081191 199.875697,71.8264569 199.998621,71.7920804 Z" id="Path" fill="#F54E5E"></path>
                <ellipse id="Oval" fill="#F54E5E" opacity="0.1" cx="212.5" cy="218.5" rx="8.5" ry="1.5"></ellipse>
                <ellipse id="Oval" fill="#F54E5E" opacity="0.1" cx="183.5" cy="239.5" rx="8.5" ry="1.5"></ellipse>
                <ellipse id="Oval" fill="#F54E5E" opacity="0.1" cx="28.5" cy="229.5" rx="8.5" ry="1.5"></ellipse>
                <ellipse id="Oval" fill="#F54E5E" opacity="0.1" cx="246.5" cy="237.5" rx="8.5" ry="1.5"></ellipse>
                <ellipse id="Oval" fill="#F54E5E" cx="253" cy="221.5" rx="12" ry="1.5"></ellipse>
                <path d="M259.653511,217.988688 C260.277975,217.506374 260.732566,216.854275 260.956448,216.119656 C261.126544,215.375923 260.793156,214.486677 260.048134,214.215053 C259.21126,213.911093 258.316554,214.460808 257.636169,215.016991 C256.955784,215.573174 256.183547,216.210197 255.295644,216.093787 C256.222766,215.29322 256.640998,214.089555 256.397868,212.921605 C256.359322,212.683649 256.253497,212.460116 256.091695,212.274881 C255.625631,211.802772 254.785355,212.006491 254.22744,212.378357 C252.458439,213.561862 251.965159,215.844798 251.954954,217.90138 C251.778053,217.160881 251.927738,216.388046 251.924336,215.637846 C251.920934,214.887646 251.699809,214.021036 251.022826,213.626534 C250.607286,213.406298 250.137744,213.29472 249.662056,213.303172 C248.866005,213.277303 247.978103,213.351677 247.437197,213.904626 C246.756812,214.590153 246.937114,215.744556 247.522245,216.491522 C248.107376,217.238488 249.002082,217.720298 249.825348,218.244144 C250.484246,218.618153 251.046817,219.12748 251.47188,219.734843 C251.520319,219.819443 251.560188,219.908228 251.590948,220 L256.57817,220 C257.694661,219.465489 258.729297,218.788824 259.653511,217.988688 Z" id="Path" fill="#F54E5E"></path>
                <path d="M23,222.28743 C23,222.28743 27.8331555,222.157881 29.2972709,221.248279 C30.7613864,220.338677 36.7374966,219.255423 37.0995897,220.713543 C37.4616827,222.171663 44.3666403,227.96004 38.9069064,227.998629 C33.4471725,228.037219 26.2210541,227.254409 24.7663845,226.477113 C23.3117149,225.699817 23,222.28743 23,222.28743 Z" id="Path" fill="#A8A8A8"></path>
                <path d="M39.0050214,226.471664 C33.5429653,226.512195 26.3137734,225.689998 24.8584851,224.873591 C23.749694,224.254048 23.3086975,222.027746 23.1606487,221 L23,221 C23,221 23.3149975,224.58698 24.7608359,225.400492 C26.2066742,226.214004 33.4453161,227.039096 38.9073722,226.998565 C40.4823595,226.998565 41.0273051,226.471664 40.9989554,225.707368 C40.7784571,226.173473 40.176812,226.462979 39.0050214,226.471664 Z" id="Path" fill="#000000" opacity="0.2"></path>
            </g>
        </g>
    </g>
</svg>