<svg xmlns="http://www.w3.org/2000/svg" xmlns:xlink="http://www.w3.org/1999/xlink" width="321" height="185" version="1.1" viewBox="0 0 321 185"><title>Group 3</title><desc>Created with Sketch.</desc><defs><linearGradient id="linearGradient-1" x1="100%" x2="0%" y1="104.133%" y2="3.508%"><stop offset="0%" stop-color="#E83F94"/><stop offset="100%" stop-color="#F54E5E"/></linearGradient><linearGradient id="linearGradient-2" x1="65.432%" x2="34.568%" y1="108.217%" y2="0%"><stop offset="0%" stop-color="#E83F94"/><stop offset="100%" stop-color="#F54E5E"/></linearGradient></defs><g id="Page-1" fill="none" fill-rule="evenodd" stroke="none" stroke-width="1"><g id="4.-NO-PHOTOS" transform="translate(-27.000000, -90.000000)"><g id="Group-3" transform="translate(27.000000, 90.000000)"><path id="Path-Copy-2" fill="#F54E5E" d="M109.085644,40.7679302 C95.7936544,45.9619083 81.8191252,47.8153117 68.2723752,49.1041761 C54.7256252,50.3930405 41.1147972,51.227671 27.4494342,54.6725661 C18.6594541,56.8798525 9.15240864,60.6936746 4.03741355,67.1021788 C-0.884825462,73.2579012 -0.414930317,80.1038981 0.830666736,86.1147379 C1.76604688,90.6371962 3.13907709,95.2320187 7.07811974,98.1669409 C9.81962332,100.199346 13.611903,101.284604 16.6671317,103.051755 C27.2966282,109.202221 27.2302633,122.369176 23.6207415,134.304249 C21.9267281,139.902037 19.5997173,145.542171 18.8069706,151.075199 C18.0142238,156.608227 18.9288523,162.170691 23.1685473,165.674062 C27.3703142,169.141031 34.2983522,170.156978 41.2611055,169.980991 C55.4041288,169.625827 70.2654968,164.941823 84.5059628,159.820502 C116.044745,148.480687 146.700309,134.608546 177.276765,120.781331 C188.594171,115.662011 199.957486,110.518676 210.593013,104.317131 C216.499607,100.872182 222.408547,96.8718487 225.63989,91.893436 C229.745537,85.5726727 228.376377,78.3936157 222.452309,75.1590568 C212.510425,69.7347636 193.761019,75.2859335 185.512423,68.4392025 C180.974413,64.6698234 181.245946,58.2146381 182.960161,52.2090386 C186.637025,39.3237275 196.062814,25.3941915 192.085712,14.1344372 C189.355294,6.39372533 179.891361,1.50610474 168.703228,2.03970211 C156.981491,2.59862851 143.129314,9.02239466 138.283671,18.373905 C133.307711,27.9996516 120.820384,36.1813084 109.085644,40.7679302 Z" opacity=".1"/><g id="undraw_camera_mg5h" transform="translate(54.000000, 0.000000)"><polygon id="Path" fill="#F2F2F2" fill-rule="nonzero" points="203.397 34 170 59 219 59"/><polygon id="Path" fill="#F2F2F2" fill-rule="nonzero" points="223.93 60 167.273 60 150 71 232 71"/><polygon id="Path" fill="#F2F2F2" fill-rule="nonzero" points="146.949 73 92 111.025 131.142 169 245 90.209 233.382 73"/><ellipse id="Oval" cx="152.5" cy="179.5" fill="#F2F2F2" fill-rule="nonzero" rx="114.5" ry="5.5"/><ellipse id="Oval" cx="32.5" cy="169" fill="#F2F2F2" fill-rule="nonzero" rx="32.5" ry="4"/><ellipse id="Oval" cx="92" cy="98" fill="#3F3D56" fill-rule="nonzero" rx="4" ry="2"/><polygon id="Path" fill="#3F3D56" fill-rule="nonzero" points="193 114 105 114 107.164 106.2 109.035 99.453 112.213 88 185.993 88 189.08 99.453 191.193 107.294"/><polygon id="Path" fill="#000" fill-rule="nonzero" points="192 108 107 108 107 106.884 108.893 100 189.863 100" opacity=".1"/><rect id="Rectangle" width="11" height="9" x="86" y="97" fill="#F54E5E" fill-rule="nonzero"/><rect id="Rectangle" width="145" height="76" x="76" y="104" fill="#3F3D56" fill-rule="nonzero"/><rect id="Rectangle" width="145" height="20" x="76" y="130" fill="#F54E5E" fill-rule="nonzero"/><circle id="Oval" cx="149" cy="141" r="36" fill="#2F2E41" fill-rule="nonzero"/><circle id="Oval" cx="149" cy="142" r="34" fill="#3F3D56" fill-rule="nonzero"/><ellipse id="Oval" cx="149.5" cy="140.5" fill="#2F2E41" fill-rule="nonzero" rx="24.5" ry="25.5"/><circle id="Oval" cx="199" cy="107" r="2" fill="#F54E5E" fill-rule="nonzero" opacity=".2"/><circle id="Oval" cx="206" cy="107" r="2" fill="#F54E5E" fill-rule="nonzero" opacity=".5"/><circle id="Oval" cx="213" cy="107" r="2" fill="#F54E5E" fill-rule="nonzero"/><rect id="Rectangle" width="18" height="8" x="140" y="90" fill="#2F2E41" fill-rule="nonzero"/><path id="Path" fill="#9F616A" fill-rule="nonzero" d="M14.1070202,67 L15.4615361,65.4402297 C15.4615361,65.4402297 18.9230799,58.5079282 15.4615361,59.0278487 C12,59.5477692 12,63.0139185 12,63.0139185 L12,67 L14.1070202,67 Z"/><path id="Path" fill="#9F616A" fill-rule="nonzero" d="M74,82.8621917 L75.2363809,82.4346296 C75.2363809,82.4346296 78.5333843,77.303884 78.9455051,79.5842186 C79.3576259,81.8645532 77.2970034,85 77.2970034,85 L74,85 L74,82.8621917 Z"/><polygon id="Rectangle" fill="#3F3D56" fill-rule="nonzero" points="22.349 7.228 89.9 7.271 89.942 73.304 22.391 73.26" transform="translate(56.145663, 40.265616) rotate(14.076230) translate(-56.145663, -40.265616)"/><polygon id="Rectangle" fill="#FFF" fill-rule="nonzero" points="28.8 11.489 86.813 11.526 86.839 52.276 28.826 52.239" opacity=".604" transform="translate(57.819212, 31.882662) rotate(14.076230) translate(-57.819212, -31.882662)"/><ellipse id="Oval" cx="38.5" cy="61.5" fill="#2F2E41" fill-rule="nonzero" rx="6.5" ry="5.5"/><path id="Path" fill="#2F2E41" fill-rule="nonzero" d="M29.5057114,106.323028 C29.5057114,106.323028 26.9527744,113.246645 26.4421835,130.808995 C25.9315927,148.371345 25.4210076,159.347801 27.6335536,160.86763 C29.8460996,162.387459 33.0798187,162.04971 33.2500127,161.711974 C33.4202068,161.374237 34.2711887,139.4213 34.2711887,139.4213 L38.6962778,123.041034 L43.631955,134.186385 L43.631955,153.606289 C43.631955,153.606289 47.3762621,156.983662 48.908026,153.775156 C50.4397899,150.566651 51.460963,134.186385 51.460963,134.186385 C51.460963,134.186385 53.3331151,106.323042 50.099396,102.945667 C46.8656769,99.5682913 29.5057114,106.323028 29.5057114,106.323028 Z"/><path id="Path" fill="#2F2E41" fill-rule="nonzero" d="M29.2621088,158.63803 C29.2621088,158.63803 27.5489097,156.900993 26.1471986,159.159141 C24.7454874,161.41729 20.0731247,166.28099 21.1633427,167.149509 C22.2535608,168.018027 27.8604002,168.365434 28.4833812,167.496915 C28.4833812,167.496915 33,165.238767 33,164.717658 C33,164.19655 32.377019,158.464319 31.754038,158.63803 C31.131057,158.811741 29.4178659,160.201362 29.2621088,158.63803 Z"/><path id="Path" fill="#2F2E41" fill-rule="nonzero" d="M44.0681745,152 L47.15066,152 C47.15066,152 46.2949446,154.227163 47.0902199,154.227163 C47.8854953,154.227163 55.2020273,160.272322 52.3390354,160.908662 C49.4760434,161.545001 41.3642387,158.681499 41.0461264,157.726999 C40.7280141,156.772499 42.1595141,152.477258 42.1595141,152.477258 L44.0681772,153.431758 L44.0681745,152 Z"/><path id="Path" fill="#9F616A" fill-rule="nonzero" d="M35.1649114,65.9669072 C35.1649114,65.9669072 34.8451096,71.2503624 33.2461111,71.7165474 C31.6471127,72.1827324 38.3629056,77 38.3629056,77 L43,71.0949657 C43,71.0949657 41.2411033,68.1424485 41.8807016,65.9669072 C42.5202999,63.7913659 35.1649114,65.9669072 35.1649114,65.9669072 Z"/><path id="Path" fill="#000" fill-rule="nonzero" d="M35.1649114,65.9669072 C35.1649114,65.9669072 34.8451096,71.2503624 33.2461111,71.7165474 C31.6471127,72.1827324 38.3629056,77 38.3629056,77 L43,71.0949657 C43,71.0949657 41.2411033,68.1424485 41.8807016,65.9669072 C42.5202999,63.7913659 35.1649114,65.9669072 35.1649114,65.9669072 Z" opacity=".1"/><path id="Path" fill="#555AA8" fill-rule="nonzero" d="M39.5895514,71.4049115 C39.5895514,71.4049115 33.7286771,69.2012874 32.8914122,69.7098165 C32.0541473,70.2183456 24.1838281,73.778049 24.0163734,74.4560802 C23.8489187,75.1341113 25.0210959,84.9656685 25.0210959,84.9656685 C25.0210959,84.9656685 27.0305407,85.813216 27.1979898,89.3729137 C27.3654388,92.9326114 31.8866898,98.5264369 30.3796089,102.255634 C28.8725281,105.984831 27.3654416,107.340925 30.2121542,107.849448 C33.0588669,108.357971 45.9527869,107.510427 46.6226,106.323861 C47.2924131,105.137295 51.1438453,103.4422 52.3160196,103.781218 C53.4881939,104.120237 51.6462065,86.1522344 51.6462065,86.1522344 L52.650929,83.6095919 L56,74.2865724 C56,74.2865724 50.9763878,68.5232477 46.1202416,69.0317768 C46.1202388,69.0317796 40.7617257,69.7098165 39.5895514,71.4049115 Z"/><path id="Path" fill="#555AA8" fill-rule="nonzero" d="M26.3469426,75.9056318 L23.8979628,75.3835086 C23.8979628,75.3835086 21.448983,77.1239173 20.6326564,77.1239173 C19.8163297,77.1239173 19.8163297,77.8200797 19.8163297,77.8200797 C19.8163297,77.8200797 16.7142898,72.7728956 17.3673527,67.0295492 C17.3673527,67.0295492 13.6122498,65.1150984 13.4489806,66.507426 C13.2857114,67.8997535 11.9795938,83.7374681 14.7551037,84.7817145 C17.5306136,85.8259609 27,86 27,86 L26.3469426,75.9056318 Z"/><path id="Path" fill="#555AA8" fill-rule="nonzero" d="M50.8153227,75 L53.1863593,75 L59.4526728,80.7652665 C59.4526728,80.7652665 60.9769102,80.453631 61.4849932,81.3885402 C61.9930761,82.3234494 65.3802701,82.1676303 65.3802701,82.1676303 L74.3563393,82.9467178 C74.3563393,82.9467178 75.5418576,86.530533 74.6950584,87.1538041 C73.8482592,87.7770751 58.9445956,87.9328942 58.9445956,87.9328942 C58.9445956,87.9328942 57.5897163,87.3096232 56.7429171,87.9328942 C55.8961179,88.5561653 49.7991654,84.6607172 49.1217272,83.5699915 C48.444289,82.4792659 50.8153227,75 50.8153227,75 Z"/><circle id="Oval" cx="38" cy="62" r="6" fill="#9F616A" fill-rule="nonzero"/><path id="Path" fill="#2F2E41" fill-rule="nonzero" d="M34.3505749,58.683639 C34.3505749,58.683639 33.3073952,55.6945018 34.8200061,54.717305 L35.2372786,56.0394164 C35.2372786,56.0394164 39.0448893,53.5101591 40.0359131,54.0849922 L39.0970508,55.4645863 C39.0970508,55.4645863 43.5305688,55.4645863 43.8435239,57.3615277 L42.2787515,57.4190104 C42.2787515,57.4190104 43.9478413,58.6261533 44,60.5805743 L40.6618204,60.8105051 L42.2787515,61.8451999 C42.2787515,61.8451999 36.2283024,62.7649293 34.7678474,60.1207096 L34.3505749,58.683639 Z"/><path id="Path" fill="#2F2E41" fill-rule="nonzero" d="M33,59.1062705 C33,59.1062705 34.3940311,60.4955836 36.1981634,59.8098168 C38.0022957,59.12405 36.1981634,56.6095702 36.1981634,56.6095702 L34.9954078,56 L33,59.1062705 Z"/><circle id="Oval" cx="158.5" cy="81.5" r="2.5" stroke="#3F3D56" stroke-width="2"/><circle id="Oval" cx="147.5" cy="69.5" r="2.5" stroke="#3F3D56" stroke-width="2"/><circle id="Oval" cx="163.5" cy="61.5" r="2.5" stroke="#3F3D56" stroke-width="2"/></g><g id="no-photo-(1)" transform="translate(98.000000, 18.000000)"><path id="Path" fill="#57555C" fill-rule="nonzero" d="M19.5454545,6.6 L17.7455091,6.6 L16.96,5.36794667 C16.8127818,5.14394667 16.5508545,5 16.2727273,5 L9.72727273,5 C9.44914545,5 9.18721818,5.14394667 9.04005455,5.36794667 L8.25449091,6.6 L6.45454545,6.6 C5.09630909,6.6 4,7.67194667 4,9 L4,18.6 C4,19.9279467 5.09630909,21 6.45454545,21 L19.5454545,21 C20.9036909,21 22,19.9279467 22,18.6 L22,9 C22,7.67194667 20.9036909,6.6 19.5454545,6.6 Z"/><path id="Path" fill="#3C3A41" fill-rule="nonzero" d="M23,9 L23,18.6 C23,19.9279467 21.9036909,21 20.5454545,21 L14,21 L14,5 L17.2727273,5 C17.5508545,5 17.8127818,5.14394667 17.9599455,5.36794667 L18.7455091,6.6 L20.5454545,6.6 C21.9036909,6.6 23,7.67194667 23,9 Z"/><path id="Path" fill="#CAE8F9" fill-rule="nonzero" d="M12.5,10 C10.016,10 8,11.792 8,14 C8,16.208 10.016,18 12.5,18 C14.984,18 17,16.208 17,14 C17,11.792 14.984,10 12.5,10 Z"/><g id="Group" fill="#B7E0F6" fill-rule="nonzero" transform="translate(14.000000, 10.000000)"><ellipse id="Oval" cx="4.286" cy=".8" rx="1" ry="1"/><path id="Path" d="M3.57142857,4 C3.57142857,6.208 1.97142857,8 0,8 L0,0 C1.97142857,0 3.57142857,1.792 3.57142857,4 Z"/></g><path id="Path" fill="#17ACE8" fill-rule="nonzero" d="M13,16 C11.8971556,16 11,15.1028444 11,14 C11,12.8971556 11.8971556,12 13,12 C14.1028444,12 15,12.8971556 15,14 C15,15.1028444 14.1028444,16 13,16 Z"/><path id="Path" fill="#1689FC" fill-rule="nonzero" d="M17,14 C17,12.8971556 16.1028444,12 15,12 L15,16 C16.1028444,16 17,15.1028444 17,14 Z"/><path id="Shape" fill="url(#linearGradient-1)" d="M14,0 C6.2890625,0 0,6.04858008 0,13.5 C0,20.9197266 6.2890625,27 14,27 C21.7273984,27 28,20.9039063 28,13.5 C28,6.06445313 21.6945313,0 14,0 Z M14,25.4180035 C7.22421875,25.4337891 1.62421875,20.0496094 1.64058904,13.5 C1.64058904,10.4782676 2.87650781,7.7255332 4.746875,5.70058594 L14,14.6231895 L22.0882813,22.4226563 C19.9883359,24.2261191 17.1335391,25.4180035 14,25.4180035 Z M23.253125,21.2994141 L5.91171875,4.57734375 C8.01166406,2.77377539 10.8664609,1.58203125 14,1.58203125 C20.7921875,1.58203125 26.359375,6.95039063 26.359375,13.5 C26.359375,16.5374473 25.1234922,19.2743613 23.253125,21.2994141 Z"/><path id="Path" fill="url(#linearGradient-2)" d="M28,13.5 C28,20.9039062 21.2793555,27 13,27 L13,25.4179688 C16.3573633,25.4179688 19.4160742,24.2261191 21.6660156,22.4226562 L13,14.6231895 L13,12.3767578 L22.9140625,21.2994141 C24.9179688,19.2743613 26.2421875,16.5375 26.2421875,13.5 C26.2421875,6.95039063 20.2773438,1.58203125 13,1.58203125 L13,0 C21.2441406,0 28,6.06445312 28,13.5 Z"/></g><path id="Rectangle" fill="#F54E5E" d="M146.074922,85.3813738 L234.748771,179.181525 C235.975253,180.47891 235.917774,182.524908 234.620389,183.751389 C234.609712,183.761482 234.598967,183.771503 234.588153,183.781449 C233.250841,185.011584 231.173332,184.939042 229.925078,183.618626 L141.251229,89.8184754 C140.024747,88.5210902 140.082226,86.4750922 141.379611,85.2486108 C141.390288,85.2385177 141.401033,85.2284974 141.411847,85.2185508 C142.749159,83.9884163 144.826668,84.0609577 146.074922,85.3813738 Z"/></g></g></g></svg>