<svg xmlns="http://www.w3.org/2000/svg" xmlns:xlink="http://www.w3.org/1999/xlink" width="319" height="241" version="1.1" viewBox="0 0 319 241"><title>Group 11</title><desc>Created with Sketch.</desc><defs><linearGradient id="linearGradient-1" x1="49.999%" x2="49.999%" y1="100%" y2="0%"><stop offset="0%" stop-color="gray" stop-opacity=".25"/><stop offset="54%" stop-color="gray" stop-opacity=".12"/><stop offset="100%" stop-color="gray" stop-opacity=".1"/></linearGradient><linearGradient id="linearGradient-2" x1="50%" x2="50%" y1="100%" y2="0%"><stop offset="0%" stop-color="gray" stop-opacity=".25"/><stop offset="54%" stop-color="gray" stop-opacity=".12"/><stop offset="100%" stop-color="gray" stop-opacity=".1"/></linearGradient><linearGradient id="linearGradient-3" x1="59.735%" x2="40.319%" y1="98.88%" y2="1.029%"><stop offset="0%" stop-color="gray" stop-opacity=".25"/><stop offset="54%" stop-color="gray" stop-opacity=".12"/><stop offset="100%" stop-color="gray" stop-opacity=".1"/></linearGradient><linearGradient id="linearGradient-4" x1="49.999%" x2="49.999%" y1="100%" y2="0%"><stop offset="0%" stop-color="gray" stop-opacity=".25"/><stop offset="54%" stop-color="gray" stop-opacity=".12"/><stop offset="100%" stop-color="gray" stop-opacity=".1"/></linearGradient><linearGradient id="linearGradient-5" x1="50%" x2="50%" y1="100%" y2="0%"><stop offset="0%" stop-color="gray" stop-opacity=".25"/><stop offset="54%" stop-color="gray" stop-opacity=".12"/><stop offset="100%" stop-color="gray" stop-opacity=".1"/></linearGradient><linearGradient id="linearGradient-6" x1="50%" x2="50%" y1="99.914%" y2="-.086%"><stop offset="0%" stop-color="gray" stop-opacity=".25"/><stop offset="54%" stop-color="gray" stop-opacity=".12"/><stop offset="100%" stop-color="gray" stop-opacity=".1"/></linearGradient></defs><g id="Page-1" fill="none" fill-rule="evenodd" stroke="none" stroke-width="1"><g id="6.-NO-TASKS" transform="translate(-28.000000, -50.000000)"><g id="Group-11" transform="translate(28.000000, 50.000000)"><path id="Fill-4" fill="#F54E5E" d="M297.413209,196.924149 C295.105808,190.97904 293.382966,184.669108 291.500298,178.004451 C290.231763,173.512956 288.186753,168.48748 283.752542,167.071737 C279.439144,165.694497 274.79414,168.548704 272.14129,172.227237 C269.487811,175.905769 268.151318,180.366336 265.881672,184.295448 C261.768999,191.415819 254.48373,194.40005 248.46322,188.139981 C239.862852,179.198017 235.991806,167.00925 230.538236,156.102415 C226.578467,148.184229 223.265551,138.914682 218.276985,131.616948 C210.670177,120.488568 200.239997,111 186.369795,111 C177.577511,112.336214 169.831013,120.147729 164.587607,129.909599 C159.344831,139.671469 156.286754,151.281442 153.680468,162.863012 C148.940449,183.925575 145.467708,205.476673 142,227 L317,224.952444 C316.304697,224.960649 312.013322,219.208051 311.191542,218.410236 C304.471954,211.888857 300.439824,204.719886 297.413209,196.924149" opacity=".1"/><path id="Fill-15" fill="#F54E5E" d="M112,225 C107.851849,209.389819 103.681447,193.772042 98.8053834,178.653734 C96.0564784,170.129192 93.0227656,161.636934 88.8084985,154.817173 C84.5942314,147.997413 79.0112334,142.965362 73.4072562,143 C64.770202,144.664447 59.1992829,153.156071 55.5450956,162.559909 C53.1496577,168.727004 51.9881754,176.197531 50.293314,182.714698 C47.9582706,191.691233 46.7338508,201.455905 42.2487619,209.311322 C39.1088818,214.809924 34.2824048,213.407103 31.0293645,208.466844 C29.2340574,205.740965 27.9676794,202.497892 25.9581307,200.008771 C23.9479463,197.520283 20.7781868,195.899695 18.2263587,197.46774 C15.6033287,199.080098 14.8188355,203.160053 14.4660042,206.739272 C13.9421611,212.051127 13.4831626,217.072416 12.6249245,221.885434 C12.4373836,222.933751 12.2294992,223.970674 12,225 L112,225" opacity=".1"/><path id="Fill-60" fill="#1A1C3A" d="M13.2461131,225.156972 L318.753887,225.156972 C318.890196,225.156972 319,225.086849 319,224.999798 C319,224.913151 318.890196,224.843028 318.753887,224.843028 L13.2461131,224.843028 C13.1104354,224.843028 13,224.913151 13,224.999798 C13,225.086849 13.1104354,225.156972 13.2461131,225.156972"/><polyline id="Fill-74" fill="#ECAC51" points="163.154 105 163.154 105 163.846 102 163.154 105"/><polyline id="Fill-82" fill="#4E8EBF" points="193 94 185 93.003 185 93 193 93.996 193 94"/><path id="Fill-83" fill="#E4E6E3" d="M186,94 L172.269231,91.753193 C172.269231,91.753193 172.269231,91.7523694 172.269231,91.7515458 L186,93.995882 L186,94 M166.615385,91.3788645 L166.613532,91.3788645 L165,91 L166.615385,91.3788645"/><path id="Fill-84" fill="#4E8EBF" d="M172,92 L166,91 L166.002153,91 L172,91.9981447 C172,91.9990724 172,92 172,92"/><g id="Group-3" fill="#F54E5E" fill-rule="nonzero" transform="translate(3.000000, 50.000000)"><rect id="Rectangle" width="1.667" height="10" x="4.167" y="0"/><polygon id="Rectangle" points="4.167 0 5.833 0 5.833 10 4.167 10" transform="translate(5.000000, 5.000000) rotate(90.000000) translate(-5.000000, -5.000000)"/></g><g id="Group-3-Copy" fill="#F54E5E" transform="translate(116.000000, 28.000000)"><polygon id="Rectangle" points="3.374 .608 4.522 .624 4.626 8.392 3.478 8.376" transform="translate(4.000000, 4.500000) rotate(17.000000) translate(-4.000000, -4.500000)"/><polygon id="Rectangle" points="3.454 .778 4.649 .762 4.546 8.222 3.351 8.238" transform="translate(4.000000, 4.500000) rotate(107.000000) translate(-4.000000, -4.500000)"/></g><path id="Path" fill="#F54E5E" fill-rule="nonzero" d="M69.3180442,4.08397623 C68.305142,3.62758616 67.7916899,2.48413839 68.1221441,1.42073022 C68.1472445,1.34081539 68.163291,1.25831846 68.1699801,1.17479985 L68.1699801,1.17479985 C68.2013226,0.687299682 67.9094648,0.237127117 67.4525324,0.0681813811 C66.9955999,-0.100764355 66.4823129,0.0517147764 66.1907654,0.443007028 L66.1907654,0.443007028 C66.1428861,0.510215979 66.102766,0.582659257 66.0711753,0.658945893 C65.614196,1.67300646 64.4761776,2.1872392 63.4162771,1.85860625 C63.336451,1.83407008 63.2542831,1.81798691 63.1711175,1.81061984 L63.1711175,1.81061984 C62.6851454,1.77917872 62.2363839,2.07195424 62.0679677,2.53032341 C61.8995515,2.98869258 62.0515527,3.5035935 62.4416185,3.79605774 L62.4416185,3.79605774 C62.5078478,3.84529604 62.5802164,3.88562723 62.6568805,3.91602377 C63.6803252,4.36602763 64.2068252,5.51251154 63.8826781,6.58526808 C63.85471,6.66235319 63.8385806,6.74325389 63.8348421,6.82520015 L63.8348421,6.82520015 C63.8034995,7.31270032 64.0953574,7.76287288 64.5522898,7.93181862 C65.0092223,8.10076435 65.5225093,7.94828522 65.8140568,7.55699297 L65.8140568,7.55699297 C65.8609429,7.48915906 65.9010025,7.41682499 65.9336468,7.34105411 C66.3886064,6.32496712 67.5284701,5.80990056 68.5885451,6.14139375 C68.6682095,6.16657314 68.7504478,6.1826701 68.8337046,6.18938016 L68.8337046,6.18938016 C69.3188748,6.21582299 69.7644489,5.92158247 69.9320402,5.46408043 C70.0996315,5.00657839 69.9500014,4.49293053 69.5632037,4.19794396 L69.5632037,4.19794396 C69.4858523,4.15113619 69.4036474,4.11292149 69.3180442,4.08397623 L69.3180442,4.08397623 Z"/><path id="Path-Copy" fill="#F54E5E" fill-rule="nonzero" d="M7.31804419,117.083976 C6.30514205,116.627586 5.79168992,115.484138 6.12214407,114.42073 C6.14724454,114.340815 6.16329105,114.258318 6.16998007,114.1748 L6.16998007,114.1748 C6.20132264,113.6873 5.9094648,113.237127 5.45253235,113.068181 C4.9955999,112.899236 4.48231289,113.051715 4.19076536,113.443007 L4.19076536,113.443007 C4.1428861,113.510216 4.10276599,113.582659 4.07117535,113.658946 C3.614196,114.673006 2.47617756,115.187239 1.41627706,114.858606 C1.33645104,114.83407 1.25428313,114.817987 1.17111754,114.81062 L1.17111754,114.81062 C0.685145399,114.779179 0.236383862,115.071954 0.0679676723,115.530323 C-0.100448518,115.988693 0.0515526808,116.503593 0.44161846,116.796058 L0.44161846,116.796058 C0.507847761,116.845296 0.58021635,116.885627 0.656880482,116.916024 C1.68032517,117.366028 2.20682522,118.512512 1.88267811,119.585268 C1.85471002,119.662353 1.8385806,119.743254 1.83484211,119.8252 L1.83484211,119.8252 C1.80349953,120.3127 2.09535738,120.762873 2.55228983,120.931819 C3.00922228,121.100764 3.52250929,120.948285 3.81405682,120.556993 L3.81405682,120.556993 C3.86094289,120.489159 3.90100253,120.416825 3.93364683,120.341054 C4.38860638,119.324967 5.52847012,118.809901 6.58854512,119.141394 C6.66820946,119.166573 6.75044782,119.18267 6.83370464,119.18938 L6.83370464,119.18938 C7.31887476,119.215823 7.76444892,118.921582 7.93204019,118.46408 C8.09963146,118.006578 7.95000141,117.492931 7.56320372,117.197944 L7.56320372,117.197944 C7.48585228,117.151136 7.40364744,117.112921 7.31804419,117.083976 L7.31804419,117.083976 Z"/><g id="undraw_no_data_qbuo" fill-rule="nonzero" transform="translate(20.000000, 14.000000)"><polygon id="Rectangle" fill="#E0E0E0" points="37.078 24.11 164.054 24.1 164.04 199.6 37.064 199.609" transform="translate(100.558961, 111.854948) rotate(-12.110000) translate(-100.558961, -111.854948)"/><g id="Group" fill="url(#linearGradient-1)" opacity=".5" transform="translate(21.783051, 9.693950)"><polygon id="Rectangle" points="16.575 11.658 139.851 11.769 140.005 181.412 16.728 181.3" transform="translate(78.289628, 96.534567) rotate(-12.110000) translate(-78.289628, -96.534567)"/></g><polygon id="Rectangle" fill="#FAFAFA" points="40.654 28.339 160.215 28.33 160.202 194.151 40.641 194.16" transform="translate(100.428058, 111.244908) rotate(-12.110000) translate(-100.428058, -111.244908)"/><polygon id="Rectangle" fill="url(#linearGradient-2)" points="53.537 22.959 112.85 22.955 112.849 37.327 53.536 37.332" transform="translate(83.193325, 30.143146) rotate(-12.110000) translate(-83.193325, -30.143146)"/><path id="Shape" fill="url(#linearGradient-3)" d="M78.9505965,9.06837548 C74.5970704,10.0301413 71.8425682,14.5251617 72.8002874,19.1073511 C73.7580066,23.6895406 78.0606803,26.6300452 82.405731,25.6682793 C86.7507817,24.7065135 89.5137593,20.2114931 88.5560401,15.6293037 C87.5983209,11.0471142 83.3041225,8.10660965 78.9505965,9.06837548 Z M81.6824976,22.1727981 C79.8005424,22.6344082 77.834071,21.8793521 76.7066531,20.262248 C75.5792353,18.6451439 75.5148844,16.4873042 76.5438236,14.8021763 C77.5727627,13.1170483 79.4905456,12.2394605 81.3964695,12.5815793 C83.3023935,12.923698 84.8177588,14.4175457 85.2308615,16.3615242 C85.5126988,17.616329 85.2967615,18.9349165 84.6308277,20.0255385 C83.9648939,21.1161606 82.9038634,21.8889058 81.6824976,22.1727981 Z"/><polygon id="Rectangle" fill="#F54E5E" points="53.966 22.363 112.03 22.359 112.029 36.098 53.965 36.102" transform="translate(82.997547, 29.230621) rotate(-12.110000) translate(-82.997547, -29.230621)"/><path id="Shape" fill="#F54E5E" d="M78.1784704,9.06601582 C73.8229887,10.0021628 71.0499407,14.2967485 71.9846074,18.6583758 C72.9192742,23.0200031 77.2077368,25.7971075 81.5632911,24.8612989 C85.9188453,23.9254903 88.6922262,19.6311202 87.7578974,15.2694203 C87.3091704,13.1746413 86.0477801,11.3441922 84.2512571,10.1808074 C82.454734,9.01742264 80.270263,8.61641565 78.1784704,9.06601582 L78.1784704,9.06601582 Z M80.8469632,21.5306653 C79.0058421,21.9262733 77.1080416,21.1722542 76.0385709,19.6202329 C74.9691003,18.0682115 74.9385935,16.0238609 75.9612768,14.4405318 C76.9839602,12.8572026 78.8584146,12.0467339 80.7105179,12.3870751 C82.5626213,12.7274163 84.0275988,14.1515365 84.4222814,15.9953198 C84.961111,18.5124943 83.3605032,20.9905723 80.8469632,21.5306653 L80.8469632,21.5306653 Z"/><rect id="Rectangle" width="126.664" height="175.299" x="75.837" y="33.929" fill="#E0E0E0"/><g id="Group" fill="url(#linearGradient-4)" opacity=".5" transform="translate(77.450847, 36.352313)"><rect id="Rectangle" width="122.413" height="169.473" x=".081" y=".035"/></g><rect id="Rectangle" width="120.21" height="165.605" x="79.064" y="37.968" fill="#FFF"/><rect id="Rectangle" width="58.895" height="14.541" x="108.915" y="30.698" fill="url(#linearGradient-5)"/><path id="Shape" fill="url(#linearGradient-6)" d="M137.959322,16.9644128 C133.504225,16.9644128 129.891525,20.7613758 129.891525,25.4466192 C129.891525,30.1318626 133.504225,33.9288256 137.959322,33.9288256 C142.414419,33.9288256 146.027119,30.1318626 146.027119,25.4466192 C146.027119,20.7613758 142.414419,16.9644128 137.959322,16.9644128 Z M137.959322,30.3408697 C136.022007,30.3880817 134.249732,29.2260349 133.476279,27.4014251 C132.702826,25.5768152 133.082204,23.4529538 134.435931,22.0290311 C135.789658,20.6051085 137.848183,20.1646522 139.643054,20.9148791 C141.437925,21.665106 142.611752,23.4566328 142.612298,25.4466192 C142.631156,28.1086246 140.551481,30.2857595 137.959322,30.3176467 L137.959322,30.3408697 Z"/><rect id="Rectangle" width="58.088" height="14.541" x="108.915" y="29.89" fill="#F54E5E"/><path id="Shape" fill="#F54E5E" d="M138.76622,16.9644128 C135.503148,16.9644128 132.56138,18.9325967 131.312656,21.9512033 C130.063933,24.96981 130.754169,28.4443765 133.061509,30.754718 C135.368849,33.0650595 138.838902,33.7561938 141.853587,32.505846 C144.868271,31.2554981 146.833898,28.3099029 146.833898,25.0425866 C146.833898,20.5811344 143.221876,16.9644128 138.76622,16.9644128 L138.76622,16.9644128 Z M138.76622,29.7049625 C136.196866,29.7017627 134.115692,27.6152799 134.115692,25.0425818 C134.115692,22.4698837 136.196883,20.3834084 138.766236,20.3802141 C141.33559,20.3770272 143.421938,22.4583272 143.428315,25.0310174 C143.42755,26.2680581 142.935844,27.4540858 142.061448,28.3279917 C141.187052,29.2018977 140.001652,29.6920361 138.76622,29.6905011 L138.76622,29.7049625 Z"/><g id="Group" fill="#47E6B1" opacity=".5" transform="translate(1.613559, 214.074733)"><rect id="Rectangle" width="1.103" height="6.266" x="2.72" y=".015"/><polygon id="Rectangle" points="2.72 .02 3.825 .02 3.825 6.278 2.72 6.278" transform="translate(3.272610, 3.149065) rotate(90.000000) translate(-3.272610, -3.149065)"/></g><g id="Group" fill="#47E6B1" opacity=".5" transform="translate(128.277966, 0.000000)"><rect id="Rectangle" width="1.055" height="6.266" x="2.663" y="0"/><polygon id="Rectangle" points="2.64 .139 3.744 .139 3.744 6.124 2.64 6.124" transform="translate(3.192066, 3.131440) rotate(90.000000) translate(-3.192066, -3.131440)"/></g><path id="Path" fill="#4D8AF0" d="M224.630698,224.219783 C223.908061,223.904802 223.536024,223.097431 223.765647,222.342506 C223.78355,222.286727 223.794847,222.229036 223.799307,222.170619 L223.799307,222.170619 C223.81993,221.827882 223.613882,221.512085 223.29214,221.393312 C222.970397,221.27454 222.608936,221.380839 222.402435,221.654957 L222.402435,221.654957 C222.367434,221.701907 222.338061,221.752811 222.31492,221.806622 C222.000349,222.5302 221.194027,222.902721 220.440082,222.672799 C220.384376,222.654873 220.32676,222.643561 220.268418,222.639095 L220.268418,222.639095 C219.926127,222.618446 219.61074,222.824761 219.492122,223.146922 C219.373504,223.469083 219.479664,223.831015 219.753427,224.037784 L219.753427,224.037784 C219.800316,224.072831 219.851153,224.102242 219.904895,224.125413 C220.627532,224.440394 220.999569,225.247764 220.769946,226.00269 C220.752044,226.058469 220.740746,226.11616 220.736286,226.174577 L220.736286,226.174577 C220.715664,226.517313 220.921711,226.833111 221.243454,226.951883 C221.565196,227.070656 221.926658,226.964357 222.133158,226.690238 L222.133158,226.690238 C222.16816,226.643289 222.197532,226.592385 222.220673,226.538573 C222.535245,225.814996 223.341566,225.442475 224.095511,225.672397 C224.151217,225.690323 224.208833,225.701635 224.267175,225.706101 L224.267175,225.706101 C224.609466,225.72675 224.924853,225.520434 225.043471,225.198273 C225.16209,224.876113 225.055929,224.514181 224.782166,224.307411 L224.782166,224.307411 C224.735278,224.272364 224.68444,224.242953 224.630698,224.219783 Z" opacity=".5"/><path id="Path" fill="#FDD835" d="M40.6849356,164.440423 C39.9622983,164.125443 39.5902611,163.318072 39.8198847,162.563146 C39.8377868,162.507368 39.8490841,162.449677 39.8535442,162.391259 L39.8535442,162.391259 C39.8741669,162.048523 39.6681192,161.732726 39.3463769,161.613953 C39.0246345,161.49518 38.6631729,161.601479 38.4566722,161.875598 L38.4566722,161.875598 C38.4216709,161.922548 38.392298,161.973451 38.3691573,162.027263 C38.054586,162.75084 37.2482642,163.123361 36.4943193,162.893439 C36.4386133,162.875514 36.3809973,162.864202 36.3226556,162.859736 L36.3226556,162.859736 C35.9803645,162.839086 35.6649775,163.045402 35.5463592,163.367563 C35.4277409,163.689724 35.5339017,164.051656 35.8076642,164.258425 L35.8076642,164.258425 C35.854553,164.293472 35.9053906,164.322883 35.9591322,164.346054 C36.6817695,164.661034 37.0538067,165.468405 36.8241831,166.223331 C36.806281,166.279109 36.7949837,166.3368 36.7905235,166.395218 L36.7905235,166.395218 C36.7699009,166.737954 36.9759486,167.053751 37.2976909,167.172524 C37.6194333,167.291297 37.9808949,167.184998 38.1873956,166.910879 L38.1873956,166.910879 C38.2223969,166.863929 38.2517698,166.813025 38.2749105,166.759214 C38.5894818,166.035637 39.3958036,165.663115 40.1497484,165.893038 C40.2054545,165.910963 40.2630705,165.922275 40.3214122,165.926741 L40.3214122,165.926741 C40.6637033,165.947391 40.9790903,165.741075 41.0977086,165.418914 C41.2163268,165.096753 41.1101661,164.734821 40.8364036,164.528052 L40.8364036,164.528052 C40.7895148,164.493005 40.7386772,164.463594 40.6849356,164.440423 Z" opacity=".5"/><path id="Path" fill="#FDD835" d="M193.166292,19.8389996 C192.443654,19.5240191 192.071617,18.7166484 192.301241,17.9617228 C192.319143,17.9059442 192.33044,17.8482533 192.3349,17.7898357 L192.3349,17.7898357 C192.355523,17.4470994 192.149475,17.131302 191.827733,17.0125294 C191.50599,16.8937569 191.144529,17.0000557 190.938028,17.2741743 L190.938028,17.2741743 C190.903027,17.3211242 190.873654,17.3720279 190.850513,17.4258394 C190.535942,18.1494168 189.72962,18.5219379 188.975675,18.2920156 C188.919969,18.2740902 188.862353,18.2627783 188.804011,18.2583123 L188.804011,18.2583123 C188.46172,18.2376628 188.146333,18.4439785 188.027715,18.7661394 C187.909097,19.0883003 188.015258,19.4502322 188.28902,19.6570015 L188.28902,19.6570015 C188.335909,19.6920483 188.386747,19.7214594 188.440488,19.7446302 C189.163125,20.0596108 189.535163,20.8669815 189.305539,21.6219071 C189.287637,21.6776857 189.27634,21.7353766 189.271879,21.7937942 L189.271879,21.7937942 C189.251257,22.1365305 189.457305,22.4523279 189.779047,22.5711004 C190.100789,22.689873 190.462251,22.5835742 190.668752,22.3094556 L190.668752,22.3094556 C190.703753,22.2625057 190.733126,22.211602 190.756266,22.1577905 C191.070838,21.4342131 191.87716,21.061692 192.631104,21.2916142 C192.68681,21.3095397 192.744426,21.3208516 192.802768,21.3253176 L192.802768,21.3253176 C193.145059,21.345967 193.460446,21.1396514 193.579065,20.8174905 C193.697683,20.4953296 193.591522,20.1333977 193.31776,19.9266284 L193.31776,19.9266284 C193.270871,19.8915816 193.220033,19.8621705 193.166292,19.8389996 L193.166292,19.8389996 Z" opacity=".5"/><ellipse id="Oval" cx="235.58" cy="91.285" fill="#F55F44" opacity=".5" rx="2.42" ry="2.423"/><ellipse id="Oval" cx="66.963" cy="216.498" fill="#F55F44" opacity=".5" rx="2.42" ry="2.423"/><ellipse id="Oval" cx="213.797" cy="138.139" fill="#F55F44" opacity=".5" rx="2.42" ry="2.423"/><ellipse id="Oval" cx="25.01" cy="28.274" fill="#4D8AF0" opacity=".5" rx="2.42" ry="2.423"/><ellipse id="Oval" cx="2.42" cy="87.246" fill="#47E6B1" opacity=".5" rx="2.42" ry="2.423"/></g><path id="Fill-70" fill="#CCCEC9" d="M258,117 C259.837485,116.262027 261.342317,114.421719 262,112 C261.342317,114.421719 259.837485,116.262027 258,117"/><polyline id="Fill-91" fill="#D4D5D0" points="249.976 117.194 250.024 116.806 249.976 117.194"/><g id="Group-3-Copy-2" fill="#F54E5E" fill-rule="nonzero" transform="translate(219.000000, 41.000000)"><polygon id="Rectangle" points="3.501 .523 4.637 .502 4.499 7.477 3.363 7.498" transform="translate(4.000000, 4.000000) rotate(17.000000) translate(-4.000000, -4.000000)"/><polygon id="Rectangle" points="3.394 .296 4.467 .318 4.606 7.704 3.533 7.682" transform="translate(4.000000, 4.000000) rotate(107.000000) translate(-4.000000, -4.000000)"/></g></g></g></g></svg>