<svg xmlns="http://www.w3.org/2000/svg" xmlns:xlink="http://www.w3.org/1999/xlink" width="330" height="193" version="1.1" viewBox="0 0 330 193"><title>undraw_savings_hjfl 2</title><desc>Created with Sketch.</desc><defs><linearGradient id="linearGradient-1" x1="49.996%" x2="49.996%" y1="100.001%" y2=".016%"><stop offset="0%" stop-color="gray" stop-opacity=".25"/><stop offset="54%" stop-color="gray" stop-opacity=".12"/><stop offset="100%" stop-color="gray" stop-opacity=".1"/></linearGradient></defs><g id="Page-1" fill="none" fill-rule="evenodd" stroke="none" stroke-width="1"><g id="4.-NOT-ENOUGH-CREDIT" transform="translate(-28.000000, -90.000000)"><g id="undraw_savings_hjfl-2" transform="translate(28.000000, 90.000000)"><g id="undraw_savings_hjfl"><ellipse id="Oval" cx="165" cy="176.69" fill="tomato" fill-rule="nonzero" opacity=".1" rx="165" ry="16.31"/><path id="Path" stroke="#535461" stroke-width="2" d="M282.403846,184.84507 C282.403846,184.84507 291.086922,175.874708 290.383936,166.974465 C290.060462,163.243064 291.236296,159.527124 293.735037,156.384118 C294.937931,154.900738 296.303805,153.508801 297.815934,152.225352"/><path id="Path" fill="tomato" fill-rule="nonzero" d="M297.105527,146.496987 C296.499521,147.736008 297.4909,152.225352 297.4909,152.225352 C297.4909,152.225352 301.988876,149.528377 302.59194,148.286951 C302.982911,147.485437 302.82133,146.574224 302.168064,145.896559 C301.514798,145.218893 300.469094,144.877728 299.424858,145.001577 C298.380621,145.125426 297.496498,145.695473 297.105527,146.496987 L297.105527,146.496987 Z"/><path id="Path" fill="tomato" fill-rule="nonzero" d="M289.271882,152.009314 C289.586864,153.349286 293.393148,156.755869 293.393148,156.755869 C293.393148,156.755869 295.377243,152.391108 295.06226,151.048673 C294.74523,149.70802 293.18937,148.836253 291.58715,149.101526 C289.98493,149.3668 288.943077,150.668661 289.260107,152.009314 L289.271882,152.009314 Z"/><path id="Path" fill="tomato" fill-rule="nonzero" d="M283.60701,163.962476 C284.701731,164.967618 290.10989,166.269953 290.10989,166.269953 C290.10989,166.269953 289.178782,161.751646 288.084062,160.746504 C286.990693,159.742343 285.10212,159.648228 283.865817,160.536294 C282.629513,161.42436 282.513642,162.958314 283.60701,163.962476 L283.60701,163.962476 Z"/><path id="Path" fill="tomato" fill-rule="nonzero" d="M281.942878,173.557427 C282.807806,174.6853 287.843343,176.690141 287.843343,176.690141 C287.843343,176.690141 287.867039,172.149976 287.002112,171.031662 C286.137532,169.904623 284.304104,169.556389 282.907036,170.25386 C281.509967,170.951331 281.078299,172.430388 281.942878,173.557427 L281.942878,173.557427 Z"/><path id="Path" fill="tomato" fill-rule="nonzero" d="M299.113295,158.838461 C297.565422,159.363557 291.923077,158.589601 291.923077,158.589601 C291.923077,158.589601 295.242103,154.752172 296.802046,154.227077 C298.349305,153.700675 300.120997,154.308463 300.759231,155.584611 C301.397464,156.860758 300.660554,158.322013 299.113295,158.848416 L299.113295,158.838461 Z"/><path id="Path" fill="tomato" fill-rule="nonzero" d="M296.867186,170.342409 C295.20348,170.464087 290.10989,168.328518 290.10989,168.328518 C290.10989,168.328518 294.673024,165.495166 296.339743,165.373488 C298.004306,165.253487 299.471773,166.267981 299.617423,167.639425 C299.763072,169.010869 298.531749,170.219924 296.867186,170.339926 L296.867186,170.342409 Z"/><path id="Path" fill="tomato" fill-rule="nonzero" d="M292.902959,180.711017 C291.331127,181.062538 286.03022,179.661441 286.03022,179.661441 C286.03022,179.661441 289.835399,176.218533 291.407231,175.867012 C292.97773,175.51522 294.585701,176.314404 294.998735,177.652039 C295.411769,178.989674 294.473458,180.359225 292.902959,180.711017 L292.902959,180.711017 Z"/><path id="Path" fill="#000" fill-rule="nonzero" d="M297.105527,146.496987 C296.499521,147.736008 297.4909,152.225352 297.4909,152.225352 C297.4909,152.225352 301.988876,149.528377 302.59194,148.286951 C302.982911,147.485437 302.82133,146.574224 302.168064,145.896559 C301.514798,145.218893 300.469094,144.877728 299.424858,145.001577 C298.380621,145.125426 297.496498,145.695473 297.105527,146.496987 L297.105527,146.496987 Z" opacity=".25"/><path id="Path" fill="#000" fill-rule="nonzero" d="M289.271882,152.009314 C289.586864,153.349286 293.393148,156.755869 293.393148,156.755869 C293.393148,156.755869 295.377243,152.391108 295.06226,151.048673 C294.74523,149.70802 293.18937,148.836253 291.58715,149.101526 C289.98493,149.3668 288.943077,150.668661 289.260107,152.009314 L289.271882,152.009314 Z" opacity=".25"/><path id="Path" fill="#000" fill-rule="nonzero" d="M283.60701,163.962476 C284.701731,164.967618 290.10989,166.269953 290.10989,166.269953 C290.10989,166.269953 289.178782,161.751646 288.084062,160.746504 C286.990693,159.742343 285.10212,159.648228 283.865817,160.536294 C282.629513,161.42436 282.513642,162.958314 283.60701,163.962476 L283.60701,163.962476 Z" opacity=".25"/><path id="Path" fill="#000" fill-rule="nonzero" d="M281.942878,173.557427 C282.807806,174.6853 287.843343,176.690141 287.843343,176.690141 C287.843343,176.690141 287.867039,172.149976 287.002112,171.031662 C286.137532,169.904623 284.304104,169.556389 282.907036,170.25386 C281.509967,170.951331 281.078299,172.430388 281.942878,173.557427 L281.942878,173.557427 Z" opacity=".25"/><path id="Path" fill="#000" fill-rule="nonzero" d="M299.113295,158.838461 C297.565422,159.363557 291.923077,158.589601 291.923077,158.589601 C291.923077,158.589601 295.242103,154.752172 296.802046,154.227077 C298.349305,153.700675 300.120997,154.308463 300.759231,155.584611 C301.397464,156.860758 300.660554,158.322013 299.113295,158.848416 L299.113295,158.838461 Z" opacity=".25"/><path id="Path" fill="#000" fill-rule="nonzero" d="M296.867186,170.342409 C295.20348,170.464087 290.10989,168.328518 290.10989,168.328518 C290.10989,168.328518 294.673024,165.495166 296.339743,165.373488 C298.004306,165.253487 299.471773,166.267981 299.617423,167.639425 C299.763072,169.010869 298.531749,170.219924 296.867186,170.339926 L296.867186,170.342409 Z" opacity=".25"/><path id="Path" fill="#000" fill-rule="nonzero" d="M292.902959,180.711017 C291.331127,181.062538 286.03022,179.661441 286.03022,179.661441 C286.03022,179.661441 289.835399,176.218533 291.407231,175.867012 C292.97773,175.51522 294.585701,176.314404 294.998735,177.652039 C295.411769,178.989674 294.473458,180.359225 292.902959,180.711017 L292.902959,180.711017 Z" opacity=".25"/><path id="Path" stroke="#535461" stroke-width="2" d="M282.403846,184.392019 C282.403846,184.392019 294.637922,179.109957 298.382388,170.840304 C299.923644,167.363849 302.806525,164.387756 306.599086,162.357934 C308.411433,161.40713 310.326879,160.593498 312.321429,159.92723"/><path id="Path" fill="#F54E5E" fill-rule="nonzero" d="M314.872859,154.704226 C313.665081,155.612981 312.321429,159.92723 312.321429,159.92723 C312.321429,159.92723 317.91344,158.976315 319.112159,158.069902 C319.887236,157.484162 320.200585,156.622169 319.93417,155.808627 C319.667755,154.995085 318.862051,154.353591 317.820559,154.125789 C316.779067,153.897987 315.660014,154.118486 314.884937,154.704226 L314.872859,154.704226 Z"/><path id="Path" fill="#F54E5E" fill-rule="nonzero" d="M305.115479,156.879549 C304.75544,158.217199 306.591048,162.64554 306.591048,162.64554 C306.591048,162.64554 310.527866,159.31254 310.887905,157.974889 C311.248921,156.63733 310.247399,155.307824 308.650942,155.005354 C307.054486,154.702884 305.467641,155.54199 305.106626,156.879549 L305.115479,156.879549 Z"/><path id="Path" fill="#F54E5E" fill-rule="nonzero" d="M293.886487,165.73695 C294.378699,166.987247 298.634706,169.894366 298.634706,169.894366 C298.634706,169.894366 300.022919,165.552596 299.518918,164.302298 C299.199334,163.493784 298.366135,162.883408 297.333179,162.701092 C296.300223,162.518776 295.224441,162.792219 294.511069,163.418418 C293.797697,164.044616 293.555114,164.928436 293.874698,165.73695 L293.886487,165.73695 Z"/><path id="Path" fill="#F54E5E" fill-rule="nonzero" d="M287.868117,174.046591 C288.09154,175.392476 291.663383,178.955399 291.663383,178.955399 C291.663383,178.955399 293.941718,174.719534 293.721234,173.376096 C293.577345,172.506216 292.886867,171.766312 291.909897,171.435098 C290.932927,171.103884 289.817889,171.231679 288.984808,171.770345 C288.151727,172.309011 287.727167,173.176711 287.871056,174.046591 L287.868117,174.046591 Z"/><path id="Path" fill="#F54E5E" fill-rule="nonzero" d="M310.584693,166.269101 C308.916679,166.234364 304.162088,163.638981 304.162088,163.638981 C304.162088,163.638981 309.075967,161.252023 310.740976,161.28676 C312.407469,161.32239 313.723443,162.466608 313.680287,163.842443 C313.637131,165.218279 312.251186,166.30473 310.584693,166.269101 L310.584693,166.269101 Z"/><path id="Path" fill="tomato" fill-rule="nonzero" d="M302.932663,175.649176 C301.372685,175.202724 297.815934,171.533835 297.815934,171.533835 C297.815934,171.533835 303.304087,170.461352 304.864065,170.910299 C305.872561,171.199897 306.620388,171.91911 306.825847,172.797016 C307.031306,173.674922 306.663183,174.578147 305.860146,175.166455 C305.057109,175.754763 303.941159,175.938775 302.932663,175.649176 L302.932663,175.649176 Z"/><path id="Path" fill="#F54E5E" fill-rule="nonzero" d="M293.990883,184.359736 C292.413812,184.140819 288.296703,181.036184 288.296703,181.036184 C288.296703,181.036184 293.336413,179.207732 294.9279,179.426649 C296.506674,179.646475 297.579992,180.928988 297.325222,182.291222 C297.070453,183.653457 295.584073,184.579562 294.005299,184.359736 L293.990883,184.359736 Z"/><path id="Path" fill="#F54E5E" d="M188.106448,22.8471204 C171.802859,22.3854936 156.27549,18.0986158 141.450557,13.4078145 C126.625624,8.71701314 111.936455,3.51890322 96.022452,1.04727649 C85.789913,-0.551587102 74.0846204,-0.777591881 65.8383805,3.69201327 C57.9079415,7.98129545 55.3402147,15.4057929 53.9619061,22.2965343 C52.9230098,27.4802184 52.3120679,32.9355891 55.1424702,37.7874789 C57.1169636,41.1535075 60.6202874,43.9905888 63.0433951,47.2171676 C71.4726225,58.4452774 65.5137254,72.2916766 56.379111,83.257717 C52.0936635,88.4005278 47.1234889,93.3053124 43.8149581,98.7823218 C40.5064273,104.259331 38.9805483,110.529762 41.8729302,116.114965 C44.7417009,121.644869 51.5742153,125.809127 58.976352,128.732764 C74.0108352,134.673804 91.7370044,136.373649 109.005705,137.335371 C147.250078,139.467991 185.698097,138.537524 224.042818,137.619079 C238.236149,137.277668 252.488509,136.931448 266.448679,135.145048 C274.202033,134.15207 282.206257,132.574845 287.831645,128.771233 C294.977009,123.943386 296.747855,115.766341 291.963619,109.712298 C283.932832,99.5565084 261.729374,97.0343912 256.115792,86.1356714 C253.028617,80.1369276 256.201383,73.4553608 260.690478,67.8917963 C270.320929,55.9544162 286.465142,45.4836629 287.3181,31.8416298 C287.908382,22.4648357 280.14027,13.0880417 268.133934,8.65450118 C255.555024,4.00938168 238.11219,4.59362808 228.832957,12.2850035 C219.293999,20.2071923 202.500475,23.2534482 188.106448,22.8471204 Z" opacity=".1"/><path id="Path" fill="#F54E5E" fill-rule="nonzero" d="M174.972527,76.1126761 L167.71978,76.1126761 C167.724533,75.6526626 167.759579,75.1931983 167.824766,74.7363013 C168.052234,73.1105485 168.752137,70.4728965 170.921838,69.235598 C172.948641,68.0798268 175.587859,69.823075 174.552586,71.6670335 L174.526339,71.7173887 C174.138476,72.3839953 174.126811,73.2136567 174.255127,73.9737801 C174.391258,74.7074393 174.632052,75.4253541 174.972527,76.1126761 L174.972527,76.1126761 Z"/><path id="Path" fill="#000" fill-rule="nonzero" d="M174.972527,76.1126761 L167.71978,76.1126761 C167.724533,75.6326631 167.759579,75.1532232 167.824766,74.6764623 C169.871654,74.0180324 172.060127,73.7466223 174.240545,73.8807899 C174.381369,74.6468653 174.627062,75.3960072 174.972527,76.1126761 L174.972527,76.1126761 Z" opacity=".1"/><path id="Path" fill="#F54E5E" fill-rule="nonzero" d="M179.811236,82.2646956 C177.887245,83.5497707 175.196641,83.5693528 172.443395,83.0186063 C166.805654,81.8877402 160.92033,78.348276 160.92033,78.348276 C161.321026,77.9835778 161.751567,77.6417297 162.208956,77.3251114 C164.529677,75.6900063 169.848244,72.7991991 176.968503,74.2360355 C178.709832,74.564173 180.243691,75.4056085 181.278839,76.6005738 C182.457097,78.0153804 183.071581,80.088635 179.811236,82.2646956 Z"/><path id="Path" fill="#F54E5E" fill-rule="nonzero" d="M177.692308,79.7831096 C177.692308,79.7831096 173.497954,77.1491057 167.71978,80.6431925" opacity=".1"/><path id="Path" fill="tomato" fill-rule="nonzero" d="M58.021978,104.645981 C58.021978,104.645981 44.2957384,96.0528388 43.6055757,103.843537 C42.915413,111.634235 46.3691885,118.945394 49.33126,119.586386 C52.2933316,120.227377 58.021978,104.645981 58.021978,104.645981 Z"/><path id="Path" fill="#000" fill-rule="nonzero" d="M58.021978,104.645981 C58.021978,104.645981 44.2957384,96.0528388 43.6055757,103.843537 C42.915413,111.634235 46.3691885,118.945394 49.33126,119.586386 C52.2933316,120.227377 58.021978,104.645981 58.021978,104.645981 Z" opacity=".2"/><path id="Path" fill="#000" fill-rule="nonzero" d="M49.4093407,107.373239 C49.4093407,107.373239 49.7393722,114.769089 52.5400983,113.588239 C55.3408245,112.407389 51.2260279,107.703877 49.4093407,107.373239 Z" opacity=".1"/><path id="Path" fill="#F54E5E" fill-rule="nonzero" d="M91.7138039,165.411929 C91.3948,166.51866 90.9028702,167.586479 90.250375,168.588553 C90.0835441,168.849447 89.9020789,169.117588 89.7030526,169.39056 C86.5098507,173.77261 79.1283153,175.59162 79.1283153,174.625347 C79.1283153,173.659073 78.3995277,171.161256 76.5438999,171.885961 C74.688272,172.610666 71.8609274,172.451231 71.8609274,172.451231 C66.7535605,172.129945 67.6169835,167.974969 69.3087073,164.455318 C69.8713497,163.298376 70.514375,162.169182 71.2345798,161.073361 C71.8726348,160.107088 72.3497126,159.474178 72.3497126,159.474178 L91.8630737,162.051713 C91.8630737,162.051713 92.2991755,163.322363 91.7138039,165.411929 Z"/><path id="Path" fill="#000" fill-rule="nonzero" d="M172.252747,82.9084507 C166.708282,81.8286062 160.92033,78.4488332 160.92033,78.4488332 C161.314396,78.1005891 161.737814,77.7741643 162.187636,77.471831 C163.032507,77.8271045 163.881289,78.2049722 164.733983,78.605434 C167.407028,79.8450882 169.924794,81.2860154 172.252747,82.9084507 Z" opacity=".1"/><path id="Path" fill="#000" fill-rule="nonzero" d="M91.7159932,165.816901 C86.4056968,165.427938 78.7147202,164.35949 71.1675824,161.516697 C71.8075186,160.556294 72.2860031,159.92723 72.2860031,159.92723 L91.8568966,162.489105 C91.8568966,162.489105 92.3030907,163.74003 91.7159932,165.816901 Z" opacity=".1"/><path id="Path" fill="#F54E5E" fill-rule="nonzero" d="M174.705618,145.004571 C174.705618,145.004571 174.351581,150.136232 170.793508,155.935465 C168.053766,160.496387 163.827663,164.357272 158.576276,167.096887 C158.576276,167.096887 155.431246,169.178847 155.233575,163.415635 C155.233575,163.415635 153.85578,162.214965 144.41479,167.46189 C144.41479,167.46189 138.717742,170.29547 140.284356,158.47368 C140.284356,158.47368 140.284356,158.459272 140.284356,158.452068 C140.284356,158.444864 140.142741,158.526509 139.883114,158.65378 L139.865412,158.65378 C139.192742,158.989967 137.764792,159.679152 136.065413,160.373139 C132.952837,161.645848 128.919764,162.94017 126.919454,162.123714 C126.460077,165.115837 125.325845,168.013197 123.573803,170.670079 C121.591195,173.606916 118.463867,176.478917 113.566353,177.77564 C111.048419,178.432778 108.290414,177.885489 106.426603,176.35885 L105.866045,175.902596 C105.866045,175.902596 101.53794,178.303934 99.3753636,177.501887 C97.2127866,176.69984 95.4396506,174.461793 98.3899602,170.297871 C98.3899602,170.297871 98.5463266,169.952079 98.7380967,169.445396 C99.2189971,168.16068 99.9182205,165.843388 98.7853016,165.495194 C98.7853016,165.495194 52.9551927,167.416265 46.8598531,134.277791 C40.7645135,101.139317 81.0834442,88.9741354 92.489341,90.2540489 C92.489341,90.2540489 122.780169,59.1975357 164.674565,79.207891 C206.568961,99.2182462 174.705618,145.004571 174.705618,145.004571 Z"/><path id="Path" stroke="#000" d="M92.4725275,90.157277 C92.4725275,90.157277 142.420352,89.9986618 138.993486,142.711268" opacity=".1"/><path id="Path" fill="#000" fill-rule="nonzero" d="M90.206044,168.590018 C90.0361474,168.850851 89.8513477,169.11893 89.6486641,169.391838 C86.3967852,173.772868 78.8796094,175.591454 78.8796094,174.625406 C78.8796094,173.659357 78.1374299,171.162122 76.2477037,171.886658 C74.3579775,172.611195 71.4786786,172.451797 71.4786786,172.451797 C66.2774606,172.130586 67.1567496,167.976578 68.8795599,164.457746 C73.7558881,166.440561 82.5756038,169.394254 90.206044,168.590018 Z" opacity=".2"/><path id="Path" fill="#000" fill-rule="nonzero" d="M123.296703,170.666578 C121.313677,173.604809 118.185688,176.478172 113.28714,177.77551 C110.768675,178.43296 108.010088,177.885411 106.145884,176.358048 L105.585206,175.901577 C105.585206,175.901577 101.256188,178.304055 99.0931549,177.501628 C96.9301214,176.6992 95.156611,174.460091 98.1075435,170.294194 C98.1075435,170.294194 98.2639429,169.948237 98.4557535,169.441315 C102.312622,170.548857 112.528751,172.905688 123.296703,170.666578 Z" opacity=".2"/><path id="Path" fill="#000" fill-rule="nonzero" d="M140.068681,158.115023 C157.869445,150.555584 160.92033,144.523474 160.92033,144.523474" opacity=".1"/><path id="Path" fill="#000" fill-rule="nonzero" d="M170.892857,155.849765 C168.14934,160.393477 163.917412,164.239792 158.658787,166.969069 C158.658787,166.969069 155.509422,169.043173 155.311479,163.301708 C155.311479,163.301708 153.931786,162.10557 144.477783,167.332695 C144.477783,167.332695 138.772884,170.155582 140.341657,158.378402 L145.068658,156.256452 C155.255346,160.842448 165.489304,158.045876 170.892857,155.849765 Z" opacity=".2"/><path id="Path" fill="tomato" fill-rule="nonzero" d="M97.4587912,94.5735766 C97.4587912,94.5735766 107.591056,81.9900348 115.237936,85.9417509 C122.884816,89.893467 113.84922,104.65493 113.84922,104.65493 C113.84922,104.65493 98.8475075,104.412938 97.4587912,94.5735766 Z"/><path id="Path" fill="#000" fill-rule="nonzero" d="M97.4587912,94.5735766 C97.4587912,94.5735766 107.591056,81.9900348 115.237936,85.9417509 C122.884816,89.893467 113.84922,104.65493 113.84922,104.65493 C113.84922,104.65493 98.8475075,104.412938 97.4587912,94.5735766 Z" opacity=".2"/><path id="Path" fill="#000" fill-rule="nonzero" d="M114.230769,91.5164319 C114.230769,91.5164319 100.972949,96.6259143 105.030133,99.6133228 C109.087317,102.600731 114.230769,91.5164319 114.230769,91.5164319 Z" opacity=".1"/><path id="Path" d="M149.134615,76.8920983 C145.780745,77.1270474 142.460034,77.6213474 139.214954,78.3686764 L139.12384,78.390825 C134.526995,79.4613441 129.307048,81.2627693 125.718335,84.2676056 C125.718335,84.2676056 117.391698,81.3144496 115.137363,81.8066422 C115.137363,81.8066422 121.897428,74.9282495 140.076127,74.7535211 L140.120215,74.7535211 C140.120215,74.7535211 144.822869,75.0882121 149.134615,76.8920983 Z"/><ellipse id="Oval" cx="78.863" cy="129.837" fill="#000" fill-rule="nonzero" opacity=".1" rx="18.253" ry="12.585" transform="translate(78.862855, 129.836830) rotate(-13.000000) translate(-78.862855, -129.836830)"/><ellipse id="Oval" cx="78.863" cy="129.356" fill="tomato" fill-rule="nonzero" rx="18.253" ry="12.585" transform="translate(78.862883, 129.356436) rotate(-13.000000) translate(-78.862883, -129.356436)"/><ellipse id="Oval" cx="78.863" cy="129.356" fill="#000" fill-rule="nonzero" opacity=".2" rx="18.253" ry="12.585" transform="translate(78.862883, 129.356436) rotate(-13.000000) translate(-78.862883, -129.356436)"/><path id="Path" fill="#000" fill-rule="nonzero" d="M71.1675824,129.119718 C71.1675824,129.119718 71.376268,133.882447 73.1423089,132.488601 C74.9083499,131.094754 73.2450944,129.114802 71.1675824,129.119718 Z" opacity=".1"/><path id="Path" fill="#000" fill-rule="nonzero" d="M80.6868132,125.948439 C80.6868132,125.948439 80.8926137,130.711063 82.6606268,129.317244 C84.4286399,127.923426 82.763527,125.933663 80.6868132,125.948439 Z" opacity=".1"/><path id="Path" fill="#000" fill-rule="nonzero" d="M97.0054945,152.516061 C97.0054945,152.516061 101.090146,155.58556 106.071429,151.319249" opacity=".1"/><path id="Path" fill="#000" fill-rule="nonzero" d="M115.137363,81.8066422 C117.390493,81.3144496 125.712683,84.2676056 125.712683,84.2676056 C129.29948,81.2627693 134.525451,79.4613441 139.111027,78.390825 L140.068681,74.7535211 C121.882067,74.9282495 115.137363,81.8066422 115.137363,81.8066422 Z" opacity=".15"/><path id="Path" fill="#000" fill-rule="nonzero" d="M140.072173,75.2065728 L139.162088,78.8309859 C142.424463,78.0817431 145.762871,77.5861774 149.134615,77.3506266 C144.79989,75.5347191 140.072173,75.2065728 140.072173,75.2065728 Z" opacity=".3"/><polygon id="Path" fill="#000" fill-rule="nonzero" points="140.029 75.207 139.162 78.831 139.245 78.809 140.069 75.207" opacity=".15"/><g id="Group" fill="#FFF" fill-rule="nonzero" opacity=".1" transform="translate(45.782967, 89.704225)"><path id="Path" d="M54.395736,81.9009135 C54.395736,81.9009135 54.5523087,81.5541614 54.7443319,81.0460733 C55.2258669,79.757793 55.926013,77.4340725 54.7915991,77.0849125 C54.7915991,77.0849125 54.265751,77.1065845 53.3144977,77.1041765 C53.2109097,77.9528246 52.9959942,78.7899742 52.6734357,79.601273 C52.4814126,80.1093611 52.3248398,80.4561132 52.3248398,80.4561132 C49.370637,84.6315861 51.1431587,86.8782506 53.3115435,87.6801147 L53.4267574,87.7138267 C52.5552676,86.4977865 52.4843668,84.6026901 54.395736,81.9009135 Z"/><path id="Path" d="M2.79763004,45.7809058 C-3.30870712,12.5504987 38.3662316,-0.953568204 49.7871796,0.339528073 L46.4193884,0.199864043 C34.9984404,-1.08360023 -5.37664908,11.1153304 0.729688089,44.3457375 C2.6499199,54.7940517 8.50514983,61.7652132 15.6277328,66.4150622 C9.45344893,61.7917012 4.52879288,55.1985958 2.79763004,45.7809058 Z"/><path id="Path" d="M96.3424614,70.043919 C96.3424614,70.043919 96.3424614,70.029471 96.3424614,70.022247 C96.3424614,70.015023 96.2006596,70.096895 95.9406898,70.224519 L95.9229646,70.224519 C95.5241472,70.421975 94.8594516,70.7470551 94.0322748,71.1227032 C93.7368545,76.6009044 95.4768799,77.7880486 96.8446758,77.8915926 C96.1504382,76.6129444 95.7870712,74.2651439 96.3424614,70.043919 Z"/><path id="Path" d="M111.314361,74.999584 C111.314361,74.999584 110.959857,74.693768 109.394129,75.071824 C109.801809,77.4605606 110.930315,77.7206246 111.733858,77.5785526 C111.458398,76.7372018 111.3174,75.870376 111.314361,74.999584 Z"/></g><path id="Path" fill="#000" fill-rule="nonzero" d="M98.8186813,165.36385 C98.8186813,165.36385 124.370008,164.156467 126.923077,162.192488" opacity=".1"/><ellipse id="Oval" cx="160.24" cy="159.927" fill="#FBD56F" fill-rule="nonzero" rx="11.106" ry="9.514"/><ellipse id="Oval" cx="160.24" cy="159.927" fill="#000" fill-rule="nonzero" opacity=".1" rx="11.106" ry="9.514"/><ellipse id="Oval" cx="162.054" cy="160.154" fill="#FBD56F" fill-rule="nonzero" rx="11.106" ry="9.288"/><path id="Path" fill="#FBD56F" fill-rule="nonzero" d="M166.542557,168.333941 L165.39608,167.834379 C165.39608,167.834379 164.859493,169.588599 165.035423,170.840956 C165.06943,171.098719 165.30285,171.313139 165.621857,171.379653 C168.260806,171.893028 180.816343,174.082349 189.454506,170.997501 C189.709397,170.906806 189.883624,170.716527 189.911924,170.497939 C190.020414,169.729029 189.645097,168.142864 189.495556,167.834379 C189.181814,167.169065 166.542557,168.333941 166.542557,168.333941 Z"/><path id="Path" fill="#000" fill-rule="nonzero" d="M166.542557,168.333941 L165.39608,167.834379 C165.39608,167.834379 164.859493,169.588599 165.035423,170.840956 C165.06943,171.098719 165.30285,171.313139 165.621857,171.379653 C168.260806,171.893028 180.816343,174.082349 189.454506,170.997501 C189.709397,170.906806 189.883624,170.716527 189.911924,170.497939 C190.020414,169.729029 189.645097,168.142864 189.495556,167.834379 C189.181814,167.169065 166.542557,168.333941 166.542557,168.333941 Z" opacity=".1"/><ellipse id="Oval" cx="177.692" cy="168.082" fill="#FBD56F" fill-rule="nonzero" rx="12.239" ry="2.265"/><path id="Path" fill="#FBD56F" fill-rule="nonzero" d="M171.07265,165.162599 L169.929062,164.663024 C169.929062,164.663024 169.392455,166.417294 169.568392,167.669686 C169.601925,167.92713 169.835812,168.141059 170.154847,168.206097 C172.793897,168.721788 185.349911,170.911172 193.988401,167.826235 C194.242521,167.734791 194.416384,167.54491 194.445837,167.32666 C194.551399,166.557728 194.176067,164.971517 194.026521,164.663024 C193.701038,163.99769 171.07265,165.162599 171.07265,165.162599 Z"/><ellipse id="Oval" cx="182.225" cy="164.458" fill="#FBD56F" fill-rule="nonzero" rx="12.239" ry="2.265"/><path id="Path" fill="#FBD56F" fill-rule="nonzero" d="M201.446403,169.695077 L200.299926,169.193235 C200.299926,169.193235 199.763339,170.94968 199.939269,172.19968 C199.973276,172.457432 200.206697,172.671843 200.525703,172.738354 C203.164653,173.251705 215.72019,175.440931 224.358352,172.35852 C224.61291,172.266302 224.786734,172.075596 224.81577,171.856678 C224.92426,171.087802 224.548943,169.501707 224.399402,169.193235 C224.085661,168.52795 201.446403,169.695077 201.446403,169.695077 Z"/><ellipse id="Oval" cx="212.596" cy="168.988" fill="#FBD56F" fill-rule="nonzero" rx="12.239" ry="2.265"/><path id="Path" fill="#FBD56F" fill-rule="nonzero" d="M205.525277,165.617612 L204.378714,165.115771 C204.378714,165.115771 203.84502,166.872216 204.018031,168.122215 C204.052845,168.379696 204.285945,168.593796 204.604508,168.660889 C207.243654,169.174241 219.800127,171.363466 228.436001,168.281055 C228.691267,168.190243 228.86636,168.000259 228.896385,167.781516 C229.001951,167.012639 228.626606,165.424242 228.477054,165.115771 C228.166222,164.450485 205.525277,165.617612 205.525277,165.617612 Z"/><path id="Path" fill="#000" fill-rule="nonzero" d="M205.525277,165.617612 L204.378714,165.115771 C204.378714,165.115771 203.84502,166.872216 204.018031,168.122215 C204.052845,168.379696 204.285945,168.593796 204.604508,168.660889 C207.243654,169.174241 219.800127,171.363466 228.436001,168.281055 C228.691267,168.190243 228.86636,168.000259 228.896385,167.781516 C229.001951,167.012639 228.626606,165.424242 228.477054,165.115771 C228.166222,164.450485 205.525277,165.617612 205.525277,165.617612 Z" opacity=".1"/><ellipse id="Oval" cx="216.676" cy="164.911" fill="#FBD56F" fill-rule="nonzero" rx="12.239" ry="2.265"/><path id="Path" fill="#FBD56F" fill-rule="nonzero" d="M200.990233,161.080354 L199.846644,160.580221 C199.846644,160.580221 199.310037,162.336451 199.485974,163.590242 C199.519507,163.847974 199.753395,164.062142 200.07243,164.127252 C202.71148,164.643519 215.267493,166.83535 223.905984,163.746966 C224.160885,163.656168 224.335118,163.465671 224.363419,163.246832 C224.468981,162.477041 224.09365,160.889059 223.944103,160.580221 C223.633282,159.927972 200.990233,161.080354 200.990233,161.080354 Z"/><path id="Path" fill="#000" fill-rule="nonzero" d="M200.990233,161.080354 L199.846644,160.580221 C199.846644,160.580221 199.310037,162.336451 199.485974,163.590242 C199.519507,163.847974 199.753395,164.062142 200.07243,164.127252 C202.71148,164.643519 215.267493,166.83535 223.905984,163.746966 C224.160885,163.656168 224.335118,163.465671 224.363419,163.246832 C224.468981,162.477041 224.09365,160.889059 223.944103,160.580221 C223.633282,159.927972 200.990233,161.080354 200.990233,161.080354 Z" opacity=".1"/><ellipse id="Oval" cx="212.143" cy="160.38" fill="#FBD56F" fill-rule="nonzero" rx="12.239" ry="2.265"/><path id="Path" fill="#FBD56F" fill-rule="nonzero" d="M211.418982,157.462427 L210.272467,156.961586 C210.272467,156.961586 209.735862,158.720299 209.911798,159.962015 C209.944992,160.220712 210.178763,160.435997 210.498251,160.502092 C213.137288,161.019089 225.693243,163.211709 234.331692,160.121268 C234.586592,160.030341 234.760824,159.839576 234.789125,159.620427 C234.894687,158.849548 234.522289,157.259321 234.372744,156.950046 C234.058992,156.308416 211.418982,157.462427 211.418982,157.462427 Z"/><path id="Path" fill="#000" fill-rule="nonzero" d="M211.418982,157.462427 L210.272467,156.961586 C210.272467,156.961586 209.735862,158.720299 209.911798,159.962015 C209.944992,160.220712 210.178763,160.435997 210.498251,160.502092 C213.137288,161.019089 225.693243,163.211709 234.331692,160.121268 C234.586592,160.030341 234.760824,159.839576 234.789125,159.620427 C234.894687,158.849548 234.522289,157.259321 234.372744,156.950046 C234.058992,156.308416 211.418982,157.462427 211.418982,157.462427 Z" opacity=".1"/><ellipse id="Oval" cx="222.115" cy="156.756" fill="#FBD56F" fill-rule="nonzero" rx="12.239" ry="2.265"/><path id="Path" fill="#FBD56F" fill-rule="nonzero" d="M204.16331,154.742553 L203.019721,154.242877 C203.019721,154.242877 202.483114,155.997499 202.659051,157.250142 C202.6934,157.507362 202.926942,157.721018 203.245507,157.78666 C205.884557,158.302454 218.44057,160.489975 227.079061,157.406722 C227.333962,157.316007 227.508195,157.125685 227.536496,156.907047 C227.642058,156.137961 227.266726,154.551433 227.11718,154.242877 C226.806359,153.57741 204.16331,154.742553 204.16331,154.742553 Z"/><path id="Path" fill="#000" fill-rule="nonzero" d="M204.16331,154.742553 L203.019721,154.242877 C203.019721,154.242877 202.483114,155.997499 202.659051,157.250142 C202.6934,157.507362 202.926942,157.721018 203.245507,157.78666 C205.884557,158.302454 218.44057,160.489975 227.079061,157.406722 C227.333962,157.316007 227.508195,157.125685 227.536496,156.907047 C227.642058,156.137961 227.266726,154.551433 227.11718,154.242877 C226.806359,153.57741 204.16331,154.742553 204.16331,154.742553 Z" opacity=".1"/><ellipse id="Oval" cx="215.316" cy="154.491" fill="#FBD56F" fill-rule="nonzero" rx="12.239" ry="2.265"/><path id="Path" fill="#FBD56F" fill-rule="nonzero" d="M209.152506,150.211875 L208.005985,149.712314 C208.005985,149.712314 207.469378,151.466534 207.645315,152.71889 C207.679323,152.976653 207.912752,153.191074 208.23177,153.257588 C210.87082,153.770962 223.426834,155.960284 232.062392,152.875435 C232.317263,152.784248 232.492166,152.594454 232.52276,152.375873 C232.628322,151.606963 232.25299,150.020799 232.103444,149.712314 C231.792623,149.046999 209.152506,150.211875 209.152506,150.211875 Z"/><path id="Path" fill="#000" fill-rule="nonzero" d="M209.152506,150.211875 L208.005985,149.712314 C208.005985,149.712314 207.469378,151.466534 207.645315,152.71889 C207.679323,152.976653 207.912752,153.191074 208.23177,153.257588 C210.87082,153.770962 223.426834,155.960284 232.062392,152.875435 C232.317263,152.784248 232.492166,152.594454 232.52276,152.375873 C232.628322,151.606963 232.25299,150.020799 232.103444,149.712314 C231.792623,149.046999 209.152506,150.211875 209.152506,150.211875 Z" opacity=".1"/><ellipse id="Oval" cx="219.849" cy="149.507" fill="#FBD56F" fill-rule="nonzero" rx="12.239" ry="2.265"/><path id="Path" fill="#FBD56F" fill-rule="nonzero" d="M211.416057,144.775255 L210.272468,144.275694 C210.272468,144.275694 209.735862,146.029914 209.911798,147.282271 C209.945806,147.540034 210.179236,147.754454 210.498254,147.820968 C213.137304,148.334342 225.693317,150.523664 234.331808,147.438815 C234.586709,147.34812 234.760942,147.157842 234.789243,146.939254 C234.894805,146.170344 234.519474,144.584179 234.369928,144.275694 C234.059106,143.610379 211.416057,144.775255 211.416057,144.775255 Z"/><path id="Path" fill="#000" fill-rule="nonzero" d="M211.416057,144.775255 L210.272468,144.275694 C210.272468,144.275694 209.735862,146.029914 209.911798,147.282271 C209.945806,147.540034 210.179236,147.754454 210.498254,147.820968 C213.137304,148.334342 225.693317,150.523664 234.331808,147.438815 C234.586709,147.34812 234.760942,147.157842 234.789243,146.939254 C234.894805,146.170344 234.519474,144.584179 234.369928,144.275694 C234.059106,143.610379 211.416057,144.775255 211.416057,144.775255 Z" opacity=".1"/><ellipse id="Oval" cx="222.115" cy="144.07" fill="#FBD56F" fill-rule="nonzero" rx="12.239" ry="2.265"/><path id="Path" fill="#FBD56F" fill-rule="nonzero" d="M120.69814,75.5775634 C120.69814,70.361114 125.716246,66.1239609 131.910517,66.1239609 C132.517688,66.1244699 133.123764,66.1658193 133.722527,66.2475849 C132.524273,65.8801897 131.253958,65.6921203 129.973128,65.6924883 C123.781842,65.6924883 118.763736,70.0193299 118.763736,75.3569793 C118.763736,79.3662764 121.596682,82.8035093 125.629675,84.2676056 C125.823713,84.1294376 126.065513,83.9646056 126.352091,83.7828055 C122.818046,82.0481726 120.669896,78.9306904 120.69814,75.5775634 L120.69814,75.5775634 Z"/><path id="Path" fill="#000" fill-rule="nonzero" d="M120.69814,75.5775634 C120.69814,70.361114 125.716246,66.1239609 131.910517,66.1239609 C132.517688,66.1244699 133.123764,66.1658193 133.722527,66.2475849 C132.524273,65.8801897 131.253958,65.6921203 129.973128,65.6924883 C123.781842,65.6924883 118.763736,70.0193299 118.763736,75.3569793 C118.763736,79.3662764 121.596682,82.8035093 125.629675,84.2676056 C125.823713,84.1294376 126.065513,83.9646056 126.352091,83.7828055 C122.818046,82.0481726 120.669896,78.9306904 120.69814,75.5775634 L120.69814,75.5775634 Z" opacity=".1"/><path id="Path" fill="#FBD56F" fill-rule="nonzero" d="M140.922285,75.2701006 C140.921516,76.3248577 140.727228,77.3731776 140.346304,78.3779343 C141.002922,78.2444988 141.688339,78.1353243 142.393915,78.0091671 C142.655803,77.1829615 142.788462,76.3314736 142.788462,75.4763191 C142.788462,70.774538 138.863154,66.878222 133.722527,66.1455399 C137.918546,67.4847469 140.922285,71.0608178 140.922285,75.2701006 Z"/><path id="Path" fill="#FBD56F" fill-rule="nonzero" d="M120.577205,75.5999059 C120.548664,78.9572377 122.688481,82.0786027 126.208665,83.814554 C128.30969,82.4511068 132.942643,79.9449841 140.380925,78.4941987 C140.773998,77.4894573 140.974481,76.4411534 140.975275,75.3864124 C140.975275,71.1771938 137.875743,67.6011775 133.545908,66.2692691 C132.949841,66.1874339 132.346494,66.1460493 131.742058,66.1455399 C125.572711,66.1528181 120.577205,70.3862974 120.577205,75.5999059 Z"/><path id="Shape" fill="url(#linearGradient-1)" fill-rule="nonzero" d="M284.183383,182.880051 C282.497544,182.83206 282.435652,182.299362 280.269407,181.380337 C279.043342,180.862037 277.186562,179.355125 275.801344,178.143356 L275.477144,177.857811 L276.066598,177.857811 C276.066598,177.857811 275.524301,173.987351 276.007653,173.058729 C276.491006,172.130106 276.128491,166.67115 276.128491,166.67115 C276.128491,166.67115 276.423218,162.507946 275.886815,161.540931 C275.350412,160.573916 276.066598,154.380701 276.066598,154.380701 C276.066598,154.380701 276.549951,150.702204 276.656053,143.201238 C276.762154,135.700273 271.350964,135.460319 271.350964,135.460319 C271.350964,135.460319 270.628883,135.414728 269.532498,135.328344 L269.202404,135.301949 C269.912696,134.102179 270.328261,133.185554 270.328261,133.185554 C270.328261,133.185554 269.423449,126.169296 269.181773,124.959927 C268.940097,123.750558 267.498881,118.757113 267.498881,118.757113 C267.498881,118.757113 266.476178,116.62872 265.871987,115.129007 C265.267797,113.629294 263.464067,111.887227 263.464067,111.887227 C263.464067,111.887227 260.222068,106.661026 259.308414,105.888374 C258.889902,105.530842 258.300447,105.077329 257.79057,104.688603 L257.525315,104.491841 C257.663333,103.946952 257.736371,103.392482 257.743413,102.836158 C257.743413,102.836158 254.368788,100.124676 254.127111,99.4480055 C253.885435,98.7713349 250.696488,96.2542163 250.696488,96.2542163 C250.696488,96.2542163 248.886863,93.5451343 246.841457,93.4971435 C245.873124,93.4516418 244.901762,93.4749254 243.938395,93.5667302 C244.359854,92.2997725 244.857943,90.9728262 245.302981,89.8330442 C245.353085,89.7058685 245.403189,89.5930901 245.450345,89.4611153 C247.086986,88.5593415 248.371684,87.2943797 249.152118,85.8162124 C249.193379,85.7370275 249.231694,85.6578426 249.270008,85.5762582 L249.334848,85.5762582 C249.419787,85.5747354 249.504487,85.5683206 249.588314,85.5570619 C250.263239,85.4634798 250.835009,84.8371996 250.522599,84.3572914 C250.563978,84.4136796 250.639408,84.4475934 250.720066,84.4460744 C250.944058,84.4460744 251.218155,84.1749262 251.271206,83.9421707 C251.271206,83.9013785 251.285942,83.8605863 251.291836,83.8197941 C251.297731,83.7790019 251.312467,83.7190134 251.321309,83.668623 C251.330151,83.6182327 251.321309,83.5726414 251.321309,83.5246506 C251.321309,83.4766598 251.321309,83.4262694 251.321309,83.3782786 C251.321309,83.3302877 251.321309,83.2846965 251.321309,83.2391052 C251.321309,83.1935139 251.321309,83.1311258 251.321309,83.0783359 C251.321309,83.025546 251.321309,82.994352 251.321309,82.9511602 C251.321309,82.9079685 251.321309,82.821585 251.303626,82.7567974 C251.303626,82.7304025 251.303626,82.7040075 251.303626,82.6776126 L251.303626,82.6776126 C251.268399,82.4133427 251.203283,82.1522847 251.109106,81.8977617 C250.779011,80.9979338 250.080508,80.1053045 250.34871,79.1934788 L250.34871,79.1646843 L250.34871,79.1646843 C250.572702,78.444822 251.327204,77.9409184 251.786978,77.3074395 C251.831187,77.247451 251.869502,77.1850629 251.907816,77.1226748 C251.907816,77.1106771 251.922552,77.0986794 251.928447,77.0890813 C251.95792,77.0410904 251.981498,76.9930996 252.005076,76.9451088 L252.052232,76.8515267 C252.072863,76.8107345 252.0876,76.7675428 252.105283,76.724351 C252.122967,76.6811593 252.137703,76.6475657 252.149492,76.6067735 C252.161281,76.5659813 252.173071,76.5299882 252.18486,76.4915955 C252.196649,76.4532029 252.211385,76.400413 252.223174,76.3524221 C252.234963,76.3044313 252.223174,76.285235 252.243805,76.2516414 C252.264436,76.2180478 252.261489,76.1460616 252.267383,76.0932717 C252.273278,76.0404818 252.267383,76.0356827 252.267383,76.0068882 C252.267383,75.9780937 252.267383,75.8893107 252.267383,75.8293222 L252.267383,75.7573359 C252.267383,75.6925483 252.267383,75.6253612 252.267383,75.5605736 C252.267383,75.5413772 252.267383,75.5221809 252.267383,75.5029846 C252.267383,75.4333979 252.267383,75.3638112 252.243805,75.2942245 C252.243805,75.2942245 252.243805,75.2750282 252.243805,75.26543 L252.243805,75.26543 C252.14182,74.6572198 251.843876,74.0818331 251.380255,73.5977489 C250.311454,72.5607602 248.704995,71.9943847 247.044819,72.0692412 C246.592774,72.1111787 246.136887,72.1184092 245.683179,72.0908371 C244.925731,71.9996545 244.286173,71.6109289 243.684929,71.2318014 L238.639201,68.0668066 C238.075837,67.6698936 237.430119,67.3578766 236.732317,67.1453828 C236.019077,66.9678168 235.164368,67.0278053 234.636807,67.4525241 C233.690733,68.2107791 234.291976,69.5161295 233.914725,70.5455326 C233.584631,71.4381619 232.52656,72.0428463 231.433123,72.3427889 C230.339685,72.6427316 229.166671,72.7099187 228.040814,72.9282769 C227.706957,72.9717691 227.394067,73.0887678 227.136001,73.2666122 C226.845516,73.5551287 226.703927,73.924182 226.741067,74.2960154 C226.733438,75.2079121 227.002747,76.1072089 227.525041,76.9139148 C227.737245,77.2402524 227.993657,77.5737886 228.220597,77.9097243 L228.276595,77.9937083 L228.350277,78.1088862 C228.388592,78.1736739 228.426906,78.2360619 228.462273,78.29845 L228.506482,78.3800344 L228.57427,78.5168082 C228.57427,78.5456027 228.600795,78.5743972 228.612584,78.6007922 C228.624373,78.6271871 228.653846,78.7087715 228.674477,78.7615614 C228.793041,79.073046 228.804255,79.4050589 228.706897,79.7213779 C228.533008,80.2420783 228.034919,80.6428017 227.592828,81.0483241 C227.234927,81.3668444 226.979727,81.7527086 226.850116,82.1713094 L226.850116,82.1713094 C226.82849,82.269709 226.82849,82.3704529 226.850116,82.4688525 C226.850116,82.4808502 226.850116,82.4928479 226.850116,82.5048456 C226.856616,82.526754 226.864486,82.5483781 226.873694,82.5696332 C226.880294,82.585242 226.888171,82.6004732 226.897272,82.6152245 C226.905888,82.6324725 226.915729,82.6492978 226.926745,82.6656149 C226.949078,82.691756 226.974766,82.7158873 227.003374,82.7376011 L227.047583,82.763996 C227.071604,82.7787056 227.097259,82.7915588 227.124212,82.8023887 L227.174316,82.821585 L227.298101,82.84798 L227.333469,82.84798 C227.398227,82.851723 227.46323,82.851723 227.527988,82.84798 L227.586934,82.84798 C227.648276,82.8446906 227.709306,82.8382793 227.769665,82.8287837 L227.837452,82.8287837 C227.937064,82.8135475 228.035479,82.7935162 228.132179,82.7687951 C228.470755,82.6861509 228.800073,82.5801884 229.116568,82.4520557 C229.116568,82.4808502 229.116568,82.5120442 229.116568,82.5408387 C229.116568,82.5696332 229.116568,82.644019 229.116568,82.6944093 C229.133271,83.6436674 229.353706,84.5832376 229.767915,85.4706784 C230.413612,86.8533486 231.496409,88.0726424 232.906758,89.0052025 C232.889075,89.0867869 232.871391,89.1707709 232.85076,89.2571543 C232.556033,90.4161327 231.951843,91.5799102 231.577539,91.4911271 C231.210992,91.4236739 230.836316,91.3898694 230.460523,91.3903464 L230.133376,91.3903464 L230.133376,91.3903464 C229.792589,91.3588164 229.448513,91.3588164 229.107726,91.3903464 C228.955702,91.3995098 228.803018,91.3823357 228.659741,91.339956 C227.686565,91.0899919 226.651879,91.0429629 225.650577,91.2031822 C223.569803,91.5511157 220.401487,92.1869941 219.532042,92.9476486 C218.20577,94.1090265 216.290043,95.2224136 214.11201,100.059889 C214.11201,100.059889 213.027414,103.011324 212.184494,103.40005 C212.370151,103.321125 212.561034,103.25063 212.756265,103.18889 C212.644136,103.348593 212.490178,103.486228 212.305332,103.592013 C212.610106,103.465256 212.926395,103.35776 213.251407,103.270475 C212.594165,106.423472 213.569712,115.440947 213.569712,115.440947 C213.569712,115.440947 212.785738,116.99585 213.808441,117.917274 C214.418526,118.461969 214.74862,119.313807 214.919562,119.918491 L214.769251,120.105655 L214.769251,120.105655 C214.226953,120.789524 213.501925,121.682154 213.027414,122.17406 C212.184494,123.045093 212.423223,125.804565 212.423223,125.804565 C212.423223,125.804565 212.24344,127.109916 211.642196,127.594623 C211.040953,128.07933 211.158844,129.869388 211.158844,129.869388 L209.617421,134.594084 C209.617421,134.594084 208.170311,135.657081 208.170311,136.141788 C208.170311,136.626496 207.02677,137.979837 207.02677,137.979837 C207.02677,137.979837 205.279038,140.302593 207.02677,139.964258 C207.665108,139.813893 208.26438,139.569942 208.795132,139.244395 L208.795132,139.280388 C208.795132,139.364372 208.795132,139.450756 208.795132,139.539539 C208.745029,142.068655 209.08986,145.629574 211.376942,145.629574 C214.913668,145.629574 224.085576,149.063317 224.085576,149.063317 C225.951198,150.224695 228.479957,149.838369 228.479957,149.838369 C228.479957,149.838369 224.003052,153.459277 224.132732,154.96139 C224.262412,156.463502 221.603973,158.927831 221.603973,158.927831 L213.410559,171.945342 C213.456313,172.852527 213.654645,173.750319 214.000013,174.613631 L213.882123,174.695216 C210.734437,177.037168 210.460341,181.670682 210.460341,181.670682 L209.738259,184.041429 L220.699161,187.962279 C220.699161,187.962279 234.91385,188.202233 237.383663,187.671934 C239.853477,187.141636 239.311179,184.912462 236.057391,184.478145 C232.803604,184.043828 232.022577,182.880051 230.937981,182.349752 C230.207058,181.989821 227.610512,179.669465 225.998355,178.198546 C225.974777,178.17455 225.951198,178.155354 225.92762,178.133758 L226.301924,176.454079 C227.024005,176.163735 228.108601,173.26029 228.108601,173.26029 C228.108601,173.26029 228.108601,172.098912 228.830682,171.760577 C229.552764,171.422242 231.058819,167.938108 231.058819,167.938108 C231.058819,167.938108 234.300818,163.53495 234.132823,162.954261 C233.964829,162.373572 236.49064,159.422137 236.49064,159.422137 C236.49064,159.422137 240.767131,156.033984 240.5844,155.4293 C240.401669,154.824616 244.017971,151.726808 244.017971,151.726808 C245.32394,150.915935 246.412208,149.895991 247.21576,148.729781 L248.259094,148.590608 C252.989465,147.959529 260.84689,146.819747 261.725177,146.500608 C262.930611,146.066291 262.688934,148.00272 262.208529,149.646406 C261.728124,151.290092 261.36561,159.179783 261.913802,160.204387 C262.461994,161.228991 262.208529,162.867878 262.208529,162.867878 L261.486448,171.722184 L261.966853,173.610623 C261.966853,173.610623 260.339959,174.67362 261.003095,175.3023 C261.666231,175.93098 261.064988,178.642461 261.064988,178.642461 C261.120986,178.625664 261.188773,178.608867 261.262455,178.592071 C261.206457,178.69765 261.150459,178.808029 261.100355,178.920808 C260.16607,181.080395 260.702474,184.641314 260.702474,184.641314 L260.702474,187.448777 C260.702474,187.448777 277.386976,187.688731 281.059276,187.688731 C284.731576,187.688731 289.794988,186.237009 290.09561,185.075631 C290.396231,183.914253 285.869223,182.930441 284.183383,182.880051 Z M236.732317,132.506484 L235.641826,132.580869 C236.002038,132.537334 236.365285,132.512489 236.729369,132.506484 L236.732317,132.506484 Z M243.396097,95.3639865 C243.549355,94.8024939 243.735033,94.2026086 243.941342,93.583527 L243.396097,95.3639865 Z M245.459187,133.862224 C244.417511,134.196469 243.258864,134.196469 242.217188,133.862224 L242.217188,133.862224 C242.217188,133.862224 242.276134,130.476472 242.759486,129.063142 C243.242839,127.649812 243.903027,125.094301 243.903027,125.094301 C243.903027,125.094301 244.445325,121.562177 244.987623,119.964082 C245.529921,118.365988 247.640167,109.46369 248.721816,108.883001 C249.803464,108.302312 250.407655,109.319718 250.407655,109.319718 C250.407655,109.319718 250.569755,109.319718 250.840904,109.293323 C250.893955,109.384505 250.949953,109.485286 251.014793,109.588466 C252.299803,111.702462 256.069363,116.045632 256.069363,116.045632 C257.188151,116.607394 258.135488,117.368829 258.839798,118.272406 C259.865448,119.673738 260.16607,122.965908 260.16607,122.965908 C260.16607,122.965908 262.4561,130.272511 263.537748,131.287517 C264.080046,131.79622 263.832476,132.098562 263.464067,132.273728 C262.694441,132.618853 262.041438,133.113408 261.563077,133.713453 C261.409819,133.912615 261.244771,134.130973 261.079724,134.366128 C260.664159,134.286943 260.29575,134.205359 259.986287,134.126174 C257.01249,133.312729 247.080186,133.281535 245.456239,133.874222 L245.459187,133.862224 Z"/><path id="Path" fill="#434175" fill-rule="nonzero" d="M260.342643,184.487972 L260.342643,187.3193 C260.342643,187.3193 276.715334,187.56338 280.321524,187.56338 C283.927713,187.56338 288.893614,186.0989 289.189203,184.927316 C289.484792,183.755731 285.050953,182.779411 283.395653,182.730595 C281.740352,182.681779 281.681235,182.144803 279.552992,181.217299 C278.352899,180.694967 276.529113,179.174349 275.169402,177.951508 C274.12006,177.006918 273.345616,176.242947 273.345616,176.242947 C273.345616,176.242947 264.540011,176.096499 261.997943,177.268083 C261.406764,177.536571 261.007719,178.066225 260.732821,178.732564 C259.816494,180.904876 260.342643,184.487972 260.342643,184.487972 Z"/><path id="Path" fill="#000" fill-rule="nonzero" d="M260.645604,178.955399 C262.501856,178.47177 273.363157,178.286787 275.151099,178.255585 C274.096748,177.393075 273.318607,176.69549 273.318607,176.69549 C273.318607,176.69549 264.470968,176.561767 261.916766,177.631547 C261.328705,177.86779 260.921815,178.351419 260.645604,178.955399 Z" opacity=".1"/><path id="Path" fill="#565387" fill-rule="nonzero" d="M213.502747,134.204301 L214.45418,134.68622 L214.810599,134.862121 L216.195036,135.546447 C223.600304,139.194578 243.792472,149.088386 244.900022,149.00887 C245.194584,148.989593 246.060593,148.881161 247.256512,148.722128 L248.278639,148.58478 C252.903249,147.955875 260.58835,146.820955 261.448469,146.502888 C262.626714,146.06916 262.391065,147.996839 261.919767,149.635365 C261.448469,151.273892 261.094995,159.129181 261.625206,160.141212 C262.155416,161.153243 261.919767,162.791769 261.919767,162.791769 L261.21282,171.610898 L261.684118,173.490384 C261.684118,173.490384 260.093487,174.550607 260.741522,175.177102 C261.389557,175.803598 260.800434,178.502347 260.800434,178.502347 C262.685626,177.924044 275.466635,177.731276 275.466635,177.731276 C275.466635,177.731276 274.936425,173.87592 275.407723,172.960272 C275.879021,172.044625 275.525547,166.598934 275.525547,166.598934 C275.525547,166.598934 275.820108,162.454426 275.289898,161.490587 C274.759688,160.526747 275.466635,154.360587 275.466635,154.360587 C275.466635,154.360587 275.937933,150.697998 276.055757,143.230654 C276.173582,135.76331 270.871481,135.519941 270.871481,135.519941 C270.871481,135.519941 270.164534,135.474159 269.104114,135.389823 C267.003893,135.22597 263.507451,134.907903 261.168636,134.493452 C260.689603,134.413649 260.21655,134.311476 259.751797,134.187433 C256.865097,133.382628 247.144578,133.351303 245.556894,133.929606 C244.537653,134.262928 243.400765,134.262928 242.381524,133.929606 L242.381524,133.929606 L241.144367,132.29108 L229.329519,133.115162 L228.077634,133.201908 L216.445413,134.013942 L215.644207,134.069363 L213.502747,134.204301 Z"/><path id="Path" fill="#000" fill-rule="nonzero" d="M261.038808,141.570295 C264.458679,142.91895 267.722969,138.136923 269.258242,135.439612 C267.165222,135.278153 263.680769,134.964734 261.349972,134.556338 C259.802957,136.636306 257.75984,140.276251 261.038808,141.570295 Z" opacity=".1"/><path id="Path" fill="#EE8E9E" fill-rule="nonzero" d="M250.220209,109.350837 C250.293995,109.680531 250.435594,109.997964 250.639154,110.290019 C251.907873,112.381614 255.627865,116.682203 255.627865,116.682203 C256.734321,117.240508 257.669023,117.994208 258.361405,118.886404 C259.371626,120.27601 259.66875,123.534394 259.66875,123.534394 C259.66875,123.534394 261.926892,130.76753 262.996538,131.773795 C263.531361,132.276928 263.293662,132.576412 262.922257,132.751311 C262.163273,133.091691 261.519491,133.577077 261.047405,134.164875 C259.487504,136.18699 257.000577,140.192887 260.500697,141.568117 C265.25468,143.436896 269.711538,133.642575 269.711538,133.642575 C269.711538,133.642575 268.820167,126.694549 268.582468,125.496613 C268.344768,124.298677 266.921545,119.363183 266.921545,119.363183 C266.921545,119.363183 265.911323,117.254816 265.317076,115.769376 C264.722828,114.283936 262.940084,112.558909 262.940084,112.558909 C262.940084,112.558909 259.731146,107.386223 258.839774,106.619544 C258.426772,106.262559 257.84738,105.814531 257.354154,105.435984 C256.759907,104.997539 256.296393,104.65493 256.296393,104.65493 C256.296393,104.65493 250.160784,108.203215 250.220209,109.350837 Z"/><path id="Path" fill="#434175" fill-rule="nonzero" d="M210.32967,184.086202 L221.056767,187.962178 C221.056767,187.962178 234.963682,188.201436 237.380226,187.675069 C239.796769,187.148702 239.266309,184.94753 236.083544,184.516866 C232.900779,184.086202 232.134557,182.937765 231.073636,182.411398 C230.357514,182.057296 227.817196,179.762814 226.240548,178.308126 C225.480221,177.607101 224.943866,177.111837 224.943866,177.111837 C224.943866,177.111837 222.880963,172.661642 217.166721,173.666525 C216.122226,173.851527 215.160094,174.265258 214.384749,174.862814 C211.305129,177.176437 211.036951,181.758224 211.036951,181.758224 L210.32967,184.086202 Z"/><path id="Path" fill="#000" fill-rule="nonzero" d="M214.862637,135.040664 L216.242424,135.718513 C223.622817,139.332116 243.747157,149.132283 244.850986,149.053519 C245.144558,149.034424 246.007659,148.927019 247.19956,148.76949 L248.218254,148.633443 L248.256418,148.578547 C248.849803,147.739599 249.302025,146.839703 249.600977,145.902953 C250.836913,142.086473 244.745301,139.16504 244.745301,139.16504 L243.453585,138.348757 C241.985727,136.339079 231.417145,134.439192 231.417145,134.439192 L230.054973,133.694513 L229.329851,133.298306 L229.136093,133.193287 L227.483285,132.29108 L219.207499,132.768438 L216.747368,134.052532 L216.489025,134.188579 L215.576017,134.665938 L214.862637,135.040664 Z" opacity=".1"/><path id="Path" fill="#000" fill-rule="nonzero" d="M214.409341,174.840217 C216.650472,181.145464 226.01928,179.087386 226.01928,179.087386 L226.195055,178.287022 C225.439222,177.589086 224.906038,177.096004 224.906038,177.096004 C224.906038,177.096004 222.85533,172.665419 217.174867,173.665874 C216.138728,173.845304 215.182503,174.251352 214.409341,174.840217 Z" opacity=".1"/><path id="Path" fill="#565387" fill-rule="nonzero" d="M211.936502,146.004577 C215.401666,146.004577 224.32593,149.401624 224.32593,149.401624 C226.146609,150.549922 228.613335,150.167156 228.613335,150.167156 C228.613335,150.167156 224.267198,153.755586 224.384661,155.238803 C224.502125,156.722021 221.920872,159.162154 221.920872,159.162154 L213.933376,172.030264 C214.520692,181.166407 226.029146,178.632975 226.029146,178.632975 L226.498998,176.479917 C227.203777,176.192843 228.260946,173.322099 228.260946,173.322099 C228.260946,173.322099 228.260946,172.173801 228.965725,171.838881 C229.670504,171.503961 231.138793,168.059068 231.138793,168.059068 C231.138793,168.059068 234.310299,163.705106 234.134104,163.130957 C233.957909,162.556809 236.424636,159.640611 236.424636,159.640611 C236.424636,159.640611 240.594578,156.29141 240.418384,155.693338 C240.242189,155.095266 243.766084,152.033139 243.766084,152.033139 C245.040957,151.227742 246.101079,150.219225 246.881794,149.069096 C247.481179,148.226595 247.938504,147.32215 248.24143,146.380166 C249.236931,143.2989 245.4693,140.806138 243.962835,139.954484 C243.598699,139.746355 243.375519,139.636309 243.375519,139.636309 L242.083424,138.818147 C241.41682,137.901902 238.853187,137.007186 236.280744,136.306246 C234.418952,135.801474 232.539542,135.394785 231.338481,135.150772 C230.522112,134.997666 230.03464,134.89719 230.03464,134.89719 L228.672067,134.150796 L228.193405,133.890037 L227.755854,133.650808 L226.087877,132.744131 L222.405407,132.957045 L217.809661,133.222589 L215.351744,134.519208 L214.177112,135.136418 L209.587239,137.528705 C209.587239,137.528705 209.466839,138.449735 209.428664,139.681763 C209.428664,139.777454 209.428664,139.873146 209.428664,139.973622 C209.372869,142.485523 209.701766,146.004577 211.936502,146.004577 Z"/><path id="Path" fill="#EE8E9E" fill-rule="nonzero" d="M229.821429,92.0956805 L231.067093,95.6920302 C231.067093,95.6920302 233.261834,101.877752 233.499104,102.309314 C233.736373,102.740876 239.490155,107.104447 239.727424,107.200349 C239.964694,107.296252 243.096649,108.732394 243.096649,108.732394 C243.096649,108.732394 243.345782,100.820425 243.096649,98.5211587 C243.075815,98.0153405 243.127568,97.5092746 243.250874,97.0130894 C243.62754,95.2101194 244.585515,92.5656035 245.380367,90.527672 C246.044721,88.8230023 246.593407,87.5427018 246.593407,87.5427018 C246.593407,87.5427018 232.716115,87.0631885 233.190654,88.166069 C233.368606,88.5832456 233.312254,89.2785399 233.137268,89.9786293 C232.840681,91.1270637 232.247508,92.2826907 231.885672,92.1915832 C231.524468,92.1262668 231.155466,92.0933015 230.785335,92.093283 C230.28707,92.0812951 229.821429,92.0956805 229.821429,92.0956805 Z"/><path id="Path" fill="#000" fill-rule="nonzero" d="M232.994505,90.0146603 C236.514086,92.3978178 241.544582,92.6242095 245.367497,90.5714925 C246.0389,88.842638 246.593407,87.5441735 246.593407,87.5441735 C246.593407,87.5441735 232.568884,87.0578572 233.048457,88.1763847 C233.228297,88.5994799 233.171348,89.3046385 232.994505,90.0146603 Z" opacity=".1"/><path id="Path" fill="#EE8E9E" fill-rule="nonzero" d="M249.759108,83.2054243 C249.759691,84.0869717 249.587537,84.9629381 249.249149,85.8002291 C249.164024,86.016345 249.065642,86.2288418 248.954376,86.4369173 C247.329755,89.5731536 243.523249,91.5850639 239.347394,91.514641 C235.171538,91.4442182 231.470393,89.3056967 230.006323,86.1173719 C229.601354,85.2354299 229.385963,84.3031843 229.369612,83.3615931 C229.369612,83.3111385 229.369612,83.2582814 229.369612,83.2078269 C229.306965,80.2046307 231.236817,77.4074518 234.417751,75.89092 C237.598685,74.3743882 241.535931,74.3743882 244.716865,75.89092 C247.897798,77.4074518 249.82765,80.2046307 249.765003,83.2078269 L249.759108,83.2054243 Z"/><path id="Path" fill="#000" fill-rule="nonzero" d="M229.821429,91.9759231 L231.040765,95.5981607 C231.040765,95.5981607 233.189119,101.828409 233.421373,102.263078 C233.653628,102.697746 239.285799,107.092728 239.518054,107.189321 C239.750308,107.285914 242.816068,108.732394 242.816068,108.732394 C242.816068,108.732394 243.059935,100.763472 242.816068,98.4476543 C242.795673,97.9381951 242.846333,97.4284863 242.967033,96.9287294 L242.177368,99.6067704 L242.235431,104.967682 L242.69994,105.257461 L241.654795,106.561467 L241.654795,105.595537 C241.654795,105.595537 237.938723,102.601153 237.358087,101.345444 C236.777451,100.089735 234.68716,97.8149702 234.68716,97.8149702 C234.68716,97.8149702 232.306552,94.4873412 232.248488,93.9077832 C232.20494,93.4562109 231.203343,92.4105916 230.764962,91.9759231 C230.277228,91.9614342 229.821429,91.9759231 229.821429,91.9759231 Z" opacity=".1"/><path id="Path" fill="#000" fill-rule="nonzero" d="M250.220218,109.185061 C250.295385,109.503278 250.439633,109.809661 250.647003,110.091549 C251.972759,109.987488 256.479724,109.344621 257.472527,105.408795 C256.867159,104.985613 256.394972,104.65493 256.394972,104.65493 C256.394972,104.65493 250.159681,108.077387 250.220218,109.185061 Z" opacity=".1"/><path id="Path" fill="#000" fill-rule="nonzero" d="M209.423077,139.992958 C210.599092,139.308067 211.739827,138.37652 212.413096,138.11789 C213.412709,137.734734 214.941528,136.489478 214.941528,136.489478 C214.941528,136.489478 215.329613,136.273953 215.923501,135.991376 C217.014255,135.469326 218.804738,134.714988 220.174796,134.621594 C221.400792,134.537779 225.466865,134.324649 228.700907,134.161807 L232.887521,133.951072 C232.887521,133.951072 236.70957,132.849499 238.355992,133.567916 C239.535147,134.049058 240.778057,134.418655 242.06044,134.669489 C242.06044,134.669489 242.06044,134.564121 242.06044,134.384517 L242.06044,134.384517 L240.825624,132.756105 L227.783615,133.66131 L226.110733,132.744131 L217.822766,133.223076 L215.361954,134.521016 L213.239246,134.669489 L214.188879,135.148433 L209.593599,137.543156 C209.593599,137.543156 209.449537,138.613597 209.423077,139.992958 Z" opacity=".1"/><path id="Path" fill="#434175" fill-rule="nonzero" d="M207.92444,140.410632 C208.548341,140.258498 209.132791,140.014348 209.648824,139.690282 L209.648824,139.690282 C210.825878,139.005949 211.958793,138.071894 212.632656,137.814969 C213.633152,137.430783 215.163322,136.182175 215.163322,136.182175 C215.163322,136.182175 218.282515,134.453334 220.401212,134.309264 C220.989739,134.270845 222.184449,134.201211 223.638111,134.124374 C225.091772,134.047536 226.875009,133.953891 228.440491,133.884257 L230.935845,133.756995 L233.110453,133.646541 C233.110453,133.646541 236.935878,132.542004 238.583754,133.262354 C239.763951,133.744791 241.007958,134.115383 242.291474,134.366892 C242.291474,134.366892 242.350326,131.005256 242.821148,129.612578 C243.29197,128.219901 243.939349,125.677064 243.939349,125.677064 C243.939349,125.677064 244.469024,122.171358 244.998698,120.586587 C245.528372,119.001816 247.585274,110.165516 248.644623,109.589236 C249.703971,109.012955 250.292498,110.021446 250.292498,110.021446 C250.292498,110.021446 257.354822,109.925399 257.472527,103.588716 C257.472527,103.588716 254.176776,100.899408 253.941366,100.227081 C253.705955,99.5547535 250.586762,97.0575384 250.586762,97.0575384 C250.586762,97.0575384 248.821181,94.3682299 246.820189,94.3202066 C245.874851,94.2757815 244.926547,94.2998877 243.986431,94.3922416 L242.291474,100.034987 L242.350326,105.365581 L242.821148,105.653721 L241.761799,106.950352 L241.761799,105.989885 C241.761799,105.989885 237.995227,103.012436 237.4067,101.763828 C236.818173,100.515221 234.699476,98.2533203 234.699476,98.2533203 C234.699476,98.2533203 232.286515,94.9445103 232.227662,94.3682299 C232.168809,93.7919495 230.520934,92.2479983 230.520934,92.2479983 C230.188555,92.2164645 229.852817,92.2164645 229.520438,92.2479983 C229.371544,92.2570988 229.221996,92.2398999 229.081985,92.1975738 C228.131149,91.9489839 227.118255,91.9026991 226.13935,92.0631083 C224.10599,92.4064754 221.010338,93.0379827 220.162859,93.7919495 C218.868099,94.9445103 216.984813,96.0490477 214.866116,100.851384 L226.280597,104.21302 L225.285986,105.730558 L216.202072,119.820614 C216.202072,119.820614 215.907809,120.221609 215.492897,120.745064 L215.492897,120.745064 C214.963223,121.424595 214.254048,122.310626 213.789112,122.798063 C212.965174,123.662483 213.200585,126.399815 213.200585,126.399815 C213.200585,126.399815 213.024026,127.696446 212.435499,128.17668 C211.846972,128.656913 211.964678,130.433778 211.964678,130.433778 L210.434508,135.092045 C210.434508,135.092045 209.022043,136.148559 209.022043,136.628792 C209.022043,137.109026 207.903842,138.45368 207.903842,138.45368 C207.903842,138.45368 206.208884,140.756401 207.92444,140.410632 Z"/><path id="Path" fill="#000" fill-rule="nonzero" d="M268.351648,143.617371 C268.351648,143.617371 264.524225,144.605747 263.487567,146.021084 C262.45091,147.43642 268.351648,143.617371 268.351648,143.617371 Z" opacity=".1"/><path id="Path" fill="#000" fill-rule="nonzero" d="M266.538462,140.446009 C266.415707,140.594082 261.241616,144.767271 261.566915,145.774167 C261.892213,146.781063 266.538462,140.446009 266.538462,140.446009 Z" opacity=".1"/><path id="Path" fill="#000" fill-rule="nonzero" d="M238.887363,143.617371 C238.887363,143.617371 233.491307,145.721863 233.019583,146.648219 C232.54786,147.574575 238.887363,143.617371 238.887363,143.617371 Z" opacity=".1"/><path id="Path" fill="#000" fill-rule="nonzero" d="M238.887363,146.335681 C238.887363,146.335681 233.736496,148.108036 233.045674,148.551124 C232.354852,148.994213 238.887363,146.335681 238.887363,146.335681 Z" opacity=".1"/><path id="Path" fill="#000" fill-rule="nonzero" d="M236.167582,149.760946 C236.167582,149.760946 233.96316,151.026247 232.745004,150.032082 C231.526848,149.037916 236.167582,149.760946 236.167582,149.760946 Z" opacity=".1"/><path id="Path" fill="#000" fill-rule="nonzero" d="M244.78022,114.622066 C244.663987,114.765837 237.399449,125.548704 235.481611,126.36341 C233.563773,127.178115 244.78022,114.622066 244.78022,114.622066 Z" opacity=".1"/><path id="Path" fill="#000" fill-rule="nonzero" d="M244.326923,118.699531 C244.326923,118.943764 237.0154,131.690285 235.81679,131.836825 C234.61818,131.983364 244.326923,118.699531 244.326923,118.699531 Z" opacity=".1"/><path id="Path" fill="#000" fill-rule="nonzero" d="M217.129121,126.85446 C217.129121,126.85446 213.686796,132.844287 212.33675,133.184591 C210.986704,133.524895 217.129121,126.85446 217.129121,126.85446 Z" opacity=".1"/><path id="Path" fill="#000" fill-rule="nonzero" d="M216.675824,124.13615 C216.675824,124.13615 215.353534,126.401408 214.549087,126.401408 C213.744639,126.401408 216.675824,124.13615 216.675824,124.13615 Z" opacity=".1"/><path id="Path" fill="#000" fill-rule="nonzero" d="M249.759108,83.2755029 C249.759691,84.1641071 249.587537,85.0470856 249.249149,85.891079 C249.164024,86.1089249 249.065642,86.3231227 248.954376,86.5328638 C248.432799,86.466869 247.941669,86.2889246 247.530619,86.0170141 C247.092961,85.7734167 246.727323,85.4523234 246.46059,85.0773442 C246.259495,84.6778426 246.085315,84.2695505 245.938841,83.8543202 C245.459826,82.8999795 244.389308,82.2336155 243.141439,82.1130247 C243.480428,82.5973906 242.940993,83.2391755 242.277752,83.3239395 C241.614511,83.4087036 240.968957,83.0817566 240.50911,82.677311 C240.049263,82.2728655 239.722064,81.781234 239.268112,81.3767885 C238.814161,80.9723429 238.165659,80.6502396 237.49947,80.73016 C236.909923,80.8028148 236.458919,81.170933 235.966647,81.4445997 C235.474375,81.7182665 234.787552,81.9023255 234.315914,81.6092841 C234.050618,81.4470215 233.920918,81.170933 233.667412,80.9941394 C233.015963,80.5461009 232.001941,81.0086704 231.52146,81.5874877 C230.781578,82.4835646 230.342365,83.0260545 229.369612,83.4305 C229.369612,83.3796416 229.369612,83.3263614 229.369612,83.2755029 C229.306965,80.2482664 231.236817,77.4286963 234.417751,75.9000248 C237.598685,74.3713532 241.535931,74.3713532 244.716865,75.9000248 C247.897798,77.4286963 249.82765,80.2482664 249.765003,83.2755029 L249.759108,83.2755029 Z" opacity=".1"/><path id="Path" fill="#434175" fill-rule="nonzero" d="M231.565698,81.5736545 C232.0444,80.9913043 233.054667,80.5278505 233.703705,80.979172 C233.956272,81.1538771 234.085492,81.4304934 234.349807,81.5954926 C234.819698,81.8890942 235.506915,81.7046833 235.994428,81.4304934 C236.48194,81.1563035 236.937148,80.7874817 237.521576,80.7146879 C238.182361,80.6297618 238.825525,80.9573338 239.28367,81.3625526 C239.741814,81.7677713 240.064865,82.2603425 240.520072,82.6655612 C240.97528,83.0707799 241.618444,83.393499 242.282166,83.3109994 C242.945888,83.2284998 243.48039,82.5830616 243.142655,82.0977697 C244.385293,82.2184269 245.451053,82.8862716 245.926764,83.842394 C246.07402,84.2580673 246.24753,84.6670818 246.446582,85.0677559 C246.713521,85.4428295 247.078807,85.7637062 247.515585,86.0067957 C248.053024,86.3343677 248.707936,86.6085576 249.365784,86.5139257 C250.023632,86.4192938 250.581629,85.7859879 250.276199,85.300696 C250.484714,85.5651801 250.936984,85.1963583 251.004531,84.8857715 C251.153981,84.2037933 251.10771,83.5023585 250.869438,82.8378398 C250.546387,81.935197 249.865044,81.0422599 250.126421,80.1250583 C250.334936,79.3971205 251.083826,78.8802847 251.539033,78.2372729 C252.34666,77.0968371 252.126398,75.5681677 251.151373,74.5199373 C250.116746,73.482806 248.546549,72.9143245 246.922347,72.9888414 C246.481544,73.0292101 246.037159,73.0357085 245.594903,73.0082531 C244.85776,72.9184741 244.232217,72.5229612 243.644852,72.1468601 L238.7198,68.9779042 C238.17301,68.5786631 237.543159,68.2646174 236.86079,68.0509967 C236.1677,67.8738652 235.333642,67.9345267 234.805014,68.3591571 C233.882852,69.1210653 234.467279,70.4313533 234.09724,71.4625985 C233.777126,72.3555356 232.746301,72.9621504 231.680234,73.2630313 C230.614167,73.5639123 229.471743,73.6318532 228.373371,73.8502345 C228.047673,73.8949232 227.742986,74.0124009 227.492324,74.1899388 C227.208207,74.4809039 227.070453,74.8510212 227.1076,75.2236105 C227.099979,76.1362566 227.362089,77.0366469 227.871174,77.846613 C228.440918,78.7516823 229.339586,79.6810162 229.025346,80.6685852 C228.85501,81.1902739 228.367497,81.5906397 227.938721,81.9982849 C227.010685,82.8815161 226.696445,84.1820983 228.446792,83.7307768 C230.141339,83.2940142 230.614167,82.7286491 231.565698,81.5736545 Z"/><g id="Group" fill="#000" fill-rule="nonzero" opacity=".1" transform="translate(227.101648, 74.300469)"><path id="Path" d="M24.1655635,9.14942416 C24.0947227,9.45712944 23.6431127,9.82252946 23.4305903,9.56049919 C23.7257603,10.0412887 23.1767442,10.6639111 22.5155635,10.7624729 C21.8543828,10.8610348 21.1991055,10.5821769 20.6559928,10.2600479 C20.2177468,10.0182492 19.8516173,9.69952671 19.5845259,9.32731628 C19.3365832,8.94989652 19.2568873,8.51237808 19.0620751,8.11332279 C18.5813854,7.16667598 17.5099725,6.50556798 16.2609123,6.38488455 C16.6033095,6.86567404 16.0601968,7.50512408 15.3960644,7.58685829 C14.731932,7.66859251 14.0855098,7.34646354 13.6250447,6.94500431 C13.1645796,6.54354508 12.836941,6.05794769 12.3823792,5.65408451 C11.9278175,5.25022133 11.2784436,4.93290026 10.6113596,5.01223053 C10.0210197,5.0867529 9.56940966,5.44974897 9.07647585,5.72139504 C8.58354204,5.9930411 7.89579606,6.17814506 7.42352415,5.88726741 C7.1578712,5.72379898 7.03094812,5.44974897 6.77710197,5.27666475 C6.12182469,4.82953052 5.10644007,5.28868449 4.62531306,5.86322794 C3.67191413,7.00750695 3.19669052,7.57243461 1.50241503,8.0075491 C0.947495528,8.14938201 0.599194991,8.11813069 0.410286225,7.98110568 C0.0413237925,8.67584651 0.209570662,9.28644917 1.50241503,8.95470442 C3.19669052,8.51958992 3.67191413,7.95706621 4.62531306,6.8127872 C5.10644007,6.2358398 6.12182469,5.77668583 6.77710197,6.22382006 C7.03094812,6.39690428 7.1578712,6.6709543 7.42352415,6.83442273 C7.89874776,7.12530037 8.58649374,6.94260036 9.07647585,6.6709543 C9.56645796,6.39930823 10.0239714,6.03390821 10.6113596,5.96178979 C11.2754919,5.87765162 11.9219141,6.20218454 12.3823792,6.60364377 C12.8428444,7.005103 13.1675313,7.49310434 13.6250447,7.89456357 C14.0825581,8.2960228 14.7289803,8.61574782 15.3960644,8.53401361 C16.0631485,8.45227939 16.6033095,7.81282936 16.2609123,7.33203986 C17.5109466,7.45075258 18.5834512,8.1125342 19.0620751,9.06047811 C19.2087465,9.47264243 19.3831605,9.87791984 19.5845259,10.2744716 C19.8519707,10.6458099 20.2180749,10.963689 20.6559928,11.2047993 C21.1991055,11.5293322 21.8543828,11.8009783 22.5155635,11.7072243 C23.1767442,11.6134703 23.7375671,10.98604 23.4305903,10.5052506 C23.6431127,10.7672808 24.0947227,10.4018808 24.1655635,10.0941755 C24.2569746,9.6793103 24.2748669,9.255913 24.2186941,8.83691099 C24.2088551,8.94108205 24.1911449,9.04525311 24.1655635,9.14942416 Z"/><path id="Path" d="M2.06618962,5.00501868 C2.06618962,4.990595 2.06618962,4.98097921 2.08094812,4.96655552 C2.40268336,3.99055284 1.49060823,3.06984095 0.920930233,2.17316854 C0.519648194,1.54041835 0.271149542,0.850842714 0.188908766,0.141832902 C0.166839981,0.267666974 0.155007393,0.394551422 0.153488372,0.521656606 C0.147251061,1.42570191 0.410607639,2.31746472 0.920930233,3.12032385 C1.32236136,3.73333046 1.86842576,4.35835681 2.06618962,5.00501868 Z"/><path id="Path" d="M24.6998211,2.56260803 C24.2423077,3.19965412 23.4896243,3.71409888 23.2800537,4.43287918 C23.1958788,4.73595482 23.1958788,5.05051543 23.2800537,5.35359107 C23.4984794,4.64923445 24.2364043,4.13959759 24.6880143,3.50976334 C25.1170791,2.89483165 25.2773309,2.17954933 25.142576,1.48083166 C25.0840704,1.86168267 24.9335945,2.22933803 24.6998211,2.56260803 Z"/></g><path id="Path" fill="#000" fill-rule="nonzero" d="M215.315934,120.600259 L215.315934,120.600259 C215.394071,120.865975 215.454561,121.134889 215.497141,121.405846 C215.497141,121.405846 220.190707,130.303374 220.784829,130.830011 C220.966037,130.993533 221.655218,131.791906 222.522637,132.823538 L223.517792,134.011478 C225.300158,136.175742 227.317203,138.621359 227.317203,138.621359 L231.72559,141.737899 C231.72559,141.737899 241.287988,142.355916 244.326923,139.845371 C243.958567,139.636159 243.732801,139.525541 243.732801,139.525541 L242.425732,138.703121 C241.751403,137.782106 239.15806,136.882735 236.555804,136.178147 C234.149609,136.192575 232.180094,136.351288 232.180094,136.351288 L231.556266,135.016658 L230.902731,133.624316 L227.566735,126.549579 C227.566735,126.549579 225.421953,117.606361 224.709007,117.171104 C223.99606,116.735846 224.177267,115.391598 224.177267,115.391598 C224.177267,115.391598 225.481366,111.592114 225.006068,111.063072 C224.53077,110.534029 225.778427,106.64076 225.778427,106.64076 C225.656106,106.259779 225.463846,105.895816 225.208069,105.561033 L216.037793,119.672031 C216.037793,119.672031 215.725878,120.076026 215.315934,120.600259 Z" opacity=".1"/><path id="Path" fill="#EE8E9E" fill-rule="nonzero" d="M225.809041,106.034977 C225.809041,106.034977 224.560841,109.944055 225.036346,110.475245 C225.51185,111.006435 224.204213,114.821347 224.204213,114.821347 C224.204213,114.821347 224.02887,116.173468 224.739155,116.608078 C225.44944,117.042689 227.598127,126.024633 227.598127,126.024633 L232.201606,135.875799 C232.201606,135.875799 246.609395,134.716838 245.126415,138.38688 C243.643435,142.056922 231.752848,141.284281 231.752848,141.284281 L227.354431,138.14543 C227.354431,138.14543 221.410623,130.853636 220.816242,130.322446 C220.221862,129.791255 215.526254,120.860015 215.526254,120.860015 C215.526254,120.860015 215.288502,119.073284 214.278054,118.155774 C213.267607,117.238263 214.040302,115.685739 214.040302,115.685739 C214.040302,115.685739 212.792102,104.009211 214.09974,102.6088 C215.407378,101.208389 224.441965,101.833745 225.809041,106.034977 Z"/><path id="Path" fill="#000" fill-rule="nonzero" d="M218.710441,98.9606266 L214.95631,100.749519 C214.95631,100.749519 213.883702,103.621162 213.049451,103.99777 C213.049451,103.99777 220.557711,100.702443 226.215722,108.279343 C226.215722,108.279343 226.036954,107.293098 226.811616,106.822337 C227.586278,106.351576 227.40751,104.327303 227.40751,104.327303 C227.613633,104.007458 227.792791,103.677206 227.943814,103.338705 C228.480118,102.30303 225.691336,96.3714405 218.710441,98.9606266 Z" opacity=".1"/><path id="Path" fill="#434175" fill-rule="nonzero" d="M218.256305,98.9606266 L214.502731,100.749519 C214.502731,100.749519 213.430281,103.621162 212.596154,103.99777 C212.596154,103.99777 220.103302,100.702443 225.760475,108.279343 C225.760475,108.279343 225.581733,107.293098 226.35628,106.822337 C227.130827,106.351576 226.952086,104.327303 226.952086,104.327303 C227.158178,104.007458 227.33731,103.677206 227.488311,103.338705 C228.036452,102.30303 225.22425,96.3714405 218.256305,98.9606266 Z"/><ellipse id="Oval" cx="26.745" cy="176.69" fill="#F54E5E" fill-rule="nonzero" rx="13.599" ry="1.812"/><path id="Path" fill="#F54E5E" fill-rule="nonzero" d="M32.1871031,173.606642 C32.7798344,173.167848 33.3281108,172.657897 33.5000028,172.022238 C33.6718949,171.386579 33.3340381,170.641814 32.5842331,170.411744 C31.7425547,170.153211 30.8416032,170.620468 30.1599623,171.092468 C29.4783214,171.564469 28.6988798,172.10051 27.8068193,172.000891 C28.7402987,171.324049 29.1611363,170.304634 28.9152267,169.315944 C28.8800031,169.115974 28.7775673,168.927418 28.6188611,168.770415 C28.1535671,168.371942 27.3059614,168.533229 26.7458304,168.858174 C24.9676367,169.8591 24.4727061,171.792168 24.4638151,173.530743 C24.2830321,172.902199 24.4341786,172.249937 24.4312149,171.60479 C24.4282512,170.959644 24.205977,170.248085 23.542118,169.901793 C23.11895,169.720554 22.6437427,169.631405 22.1640179,169.64326 C21.3638307,169.619542 20.4747339,169.683582 19.9294211,170.150839 C19.2507439,170.734317 19.4255996,171.709152 20.0153672,172.349555 C20.6051348,172.989958 21.4971953,173.388431 22.3299827,173.831969 C22.9921236,174.148386 23.5572175,174.579567 23.9837028,175.0938 C24.0345285,175.169217 24.0752578,175.24872 24.1052127,175.330986 L29.1167553,175.330986 C30.2326647,174.869621 31.2654757,174.289582 32.1871031,173.606642 L32.1871031,173.606642 Z"/><path id="Path" fill="#FBD56F" fill-rule="nonzero" d="M125.10989,72.0123654 L136.227889,67.5046948 L140.332635,70.5485587 L141.308978,72.7241028 L142.335165,76.3800609 L141.432121,77.9814702 L134.322114,79.0300967 C134.322114,79.0300967 130.534019,78.8521623 129.947627,79.0894081 C129.361235,79.3266539 126.968754,79.7370892 126.968754,79.7370892 L125.10989,76.033682 L125.10989,72.0123654 Z"/></g></g></g></g></svg>