<svg xmlns="http://www.w3.org/2000/svg" xmlns:xlink="http://www.w3.org/1999/xlink" width="324" height="187" version="1.1" viewBox="0 0 324 187"><title>Group</title><desc>Created with Sketch.</desc><defs><linearGradient id="linearGradient-1" x1="96.611%" x2="3.389%" y1="108.217%" y2="0%"><stop offset="0%" stop-color="#E83F94"/><stop offset="100%" stop-color="#F54E5E"/></linearGradient><linearGradient id="linearGradient-2" x1="61.653%" x2="38.347%" y1="108.217%" y2="0%"><stop offset="0%" stop-color="#E83F94"/><stop offset="100%" stop-color="#F54E5E"/></linearGradient></defs><g id="Page-1" fill="none" fill-rule="evenodd" stroke="none" stroke-width="1"><g id="5.-NO-VIDEOS" transform="translate(-25.000000, -93.000000)"><g id="Group" transform="translate(25.000000, 93.000000)"><path id="Path-Copy-2" fill="#F54E5E" d="M110.042535,41.2294531 C96.6339496,46.4852644 82.5368369,48.3607321 68.8712557,49.6649401 C55.2056745,50.9691481 41.4754533,51.8137147 27.6902187,55.2996205 C18.8231335,57.5331841 9.23269292,61.3924088 4.07282946,67.8772048 C-0.892587089,74.1062095 -0.418570057,81.0337064 0.837953286,87.1161038 C1.78153852,91.6924009 3.16661285,96.3419237 7.14020851,99.3117854 C9.90576036,101.368386 13.7313057,102.466563 16.8133346,104.254752 C27.5360723,110.478438 27.4691252,123.802142 23.827941,135.8793 C22.1190678,141.543728 19.7716447,147.251007 18.971944,152.849904 C18.1722433,158.448801 19.0948949,164.077484 23.3717802,167.622563 C27.6104047,171.130805 34.5992149,172.158847 41.6230451,171.980765 C55.8901299,171.621373 70.8818608,166.881607 85.2472432,161.699317 C117.062681,150.224505 147.987154,136.187219 178.831824,122.195395 C190.248506,117.01513 201.7115,111.810565 212.44032,105.535192 C218.398727,102.049232 224.359499,98.0012755 227.619187,92.9635959 C231.760848,86.5675854 230.379679,79.3030635 224.403645,76.0299979 C214.374551,70.5411298 195.460677,76.1583851 187.139725,69.2301454 C182.561907,65.4158927 182.835823,58.88386 184.565075,52.8067652 C188.274192,39.7680575 197.782663,25.6726937 193.770674,14.2788948 C191.016305,6.44603158 181.469355,1.50022504 170.183081,2.04017476 C158.358522,2.60575504 144.384834,9.1059946 139.496686,18.5688324 C134.477077,28.3091712 121.880212,36.5882288 110.042535,41.2294531 Z" opacity=".1"/><g id="undraw_camera_mg5h" transform="translate(54.000000, 0.000000)"><polygon id="Path" fill="#F2F2F2" fill-rule="nonzero" points="206.441 34 171 58 223 58"/><polygon id="Path" fill="#F2F2F2" fill-rule="nonzero" points="224.832 61 167.483 61 150 73 233 73"/><polygon id="Path" fill="#F2F2F2" fill-rule="nonzero" points="149.309 75 94 113.422 133.397 172 248 92.388 236.306 75"/><ellipse id="Oval" cx="154.5" cy="181.5" fill="#F2F2F2" fill-rule="nonzero" rx="115.5" ry="5.5"/><ellipse id="Oval" cx="33" cy="171" fill="#F2F2F2" fill-rule="nonzero" rx="33" ry="4"/><path id="Path" fill="#9F616A" fill-rule="nonzero" d="M15.5284243,68 L17.1538433,66.4402297 C17.1538433,66.4402297 21.3076958,59.5079282 17.1538433,60.0278487 C13,60.5477692 13,64.0139185 13,64.0139185 L13,68 L15.5284243,68 Z"/><path id="Path" fill="#9F616A" fill-rule="nonzero" d="M75,84.5058904 L76.4836571,84.0070679 C76.4836571,84.0070679 80.4400612,78.021198 80.9346061,80.6815883 C81.4291511,83.3419787 78.9564041,87 78.9564041,87 L75,87 L75,84.5058904 Z"/><polygon id="Rectangle" fill="#3F3D56" fill-rule="nonzero" points="22.604 7.308 90.913 7.345 90.949 74.093 22.641 74.056" transform="translate(56.776514, 40.700920) rotate(14.076230) translate(-56.776514, -40.700920)"/><polygon id="Rectangle" fill="#FFF" fill-rule="nonzero" points="29.126 11.615 87.79 11.647 87.812 52.839 29.148 52.807" opacity=".604" transform="translate(58.468866, 32.227339) rotate(14.076230) translate(-58.468866, -32.227339)"/><ellipse id="Oval" cx="40" cy="60.5" fill="#2F2E41" fill-rule="nonzero" rx="7" ry="5.5"/><path id="Path" fill="#2F2E41" fill-rule="nonzero" d="M29.5057114,107.395078 C29.5057114,107.395078 26.9527744,114.434089 26.4421835,132.289145 C25.9315927,150.144201 25.4210076,161.303597 27.6335536,162.848757 C29.8460996,164.393916 33.0798187,164.050539 33.2500127,163.707173 C33.4202068,163.363807 34.2711887,141.044989 34.2711887,141.044989 L38.6962778,124.391718 L43.631955,135.722824 L43.631955,155.466394 C43.631955,155.466394 47.3762621,158.900056 48.908026,155.638076 C50.4397899,152.376095 51.460963,135.722824 51.460963,135.722824 C51.460963,135.722824 53.3331151,107.395092 50.099396,103.961428 C46.8656769,100.527763 29.5057114,107.395078 29.5057114,107.395078 Z"/><path id="Path" fill="#2F2E41" fill-rule="nonzero" d="M28.9506179,161.63803 C28.9506179,161.63803 27.0946522,159.900993 25.5761318,162.159141 C24.0576113,164.41729 18.9958851,169.28099 20.1769546,170.149509 C21.3580242,171.018027 27.4321003,171.365434 28.1069963,170.496915 C28.1069963,170.496915 33,168.238767 33,167.717658 C33,167.19655 32.3251039,161.464319 31.6502078,161.63803 C30.9753118,161.811741 29.1193547,163.201362 28.9506179,161.63803 Z"/><path id="Path" fill="#2F2E41" fill-rule="nonzero" d="M45.3238557,155 L48.6632151,155 C48.6632151,155 47.7361899,157.227163 48.5977383,157.227163 C49.4592866,157.227163 57.3855296,163.272322 54.283955,163.908662 C51.1823804,164.545001 42.394592,161.681499 42.0499703,160.726999 C41.7053486,159.772499 43.2561403,155.477258 43.2561403,155.477258 L45.3238586,156.431758 L45.3238557,155 Z"/><path id="Path" fill="#9F616A" fill-rule="nonzero" d="M36.1649114,66.0474828 C36.1649114,66.0474828 35.8451096,71.771226 34.2461111,72.2762597 C32.6471127,72.7812934 39.3629056,78 39.3629056,78 L44,71.6028795 C44,71.6028795 42.2411033,68.4043193 42.8807016,66.0474828 C43.5202999,63.6906464 36.1649114,66.0474828 36.1649114,66.0474828 Z"/><path id="Path" fill="#000" fill-rule="nonzero" d="M36.1649114,66.0474828 C36.1649114,66.0474828 35.8451096,71.771226 34.2461111,72.2762597 C32.6471127,72.7812934 39.3629056,78 39.3629056,78 L44,71.6028795 C44,71.6028795 42.2411033,68.4043193 42.8807016,66.0474828 C43.5202999,63.6906464 36.1649114,66.0474828 36.1649114,66.0474828 Z" opacity=".1"/><path id="Path" fill="#555AA8" fill-rule="nonzero" d="M38.5895514,72.4665759 C38.5895514,72.4665759 32.7286771,70.2064486 31.8914122,70.7280169 C31.0541473,71.2495852 23.1838281,74.9005631 23.0163734,75.5959796 C22.8489187,76.2913962 24.0210959,86.3750446 24.0210959,86.3750446 C24.0210959,86.3750446 26.0305407,87.2443241 26.1979898,90.8952961 C26.3654388,94.5462682 30.8866898,100.283525 29.3796089,104.108342 C27.8725281,107.93316 26.3654416,109.324025 29.2121542,109.845588 C32.0588669,110.36715 44.9527869,109.497873 45.6226,108.280883 C46.2924131,107.063892 50.1438453,105.325333 51.3160196,105.673044 C52.4881939,106.020755 50.6462065,87.5920353 50.6462065,87.5920353 L51.650929,84.9841968 L55,75.4221255 C55,75.4221255 49.9763878,69.5110233 45.1202416,70.0325916 C45.1202388,70.0325945 39.7617257,70.7280169 38.5895514,72.4665759 Z"/><path id="Path" fill="#555AA8" fill-rule="nonzero" d="M25.3002956,76.4103502 L22.6763887,75.9143332 C22.6763887,75.9143332 20.0524817,77.5677215 19.1778461,77.5677215 C18.3032104,77.5677215 18.3032104,78.2290757 18.3032104,78.2290757 C18.3032104,78.2290757 14.9795962,73.4342508 15.6793065,67.9780717 C15.6793065,67.9780717 11.6559819,66.1593435 11.4810506,67.4820547 C11.3061194,68.8047659 9.90670765,83.8505947 12.8804683,84.8426288 C15.8542289,85.8346628 26,86 26,86 L25.3002956,76.4103502 Z"/><path id="Path" fill="#555AA8" fill-rule="nonzero" d="M52.8153227,75 L55.1863593,75 L61.4526728,81.2087485 C61.4526728,81.2087485 62.9769102,80.8731411 63.4849932,81.8799664 C63.9930761,82.8867917 67.3802701,82.7189865 67.3802701,82.7189865 L76.3563393,83.5580038 C76.3563393,83.5580038 77.5418576,87.4174971 76.6950584,88.0887121 C75.8482592,88.7599271 60.9445956,88.9277322 60.9445956,88.9277322 C60.9445956,88.9277322 59.5897163,88.2565172 58.7429171,88.9277322 C57.8961179,89.5989472 51.7991654,85.4038493 51.1217272,84.2292217 C50.444289,83.054594 52.8153227,75 52.8153227,75 Z"/><circle id="Oval" cx="39.5" cy="61.5" r="6.5" fill="#9F616A" fill-rule="nonzero"/><path id="Path" fill="#2F2E41" fill-rule="nonzero" d="M36.3505749,59.0981842 C36.3505749,59.0981842 35.3073952,56.4826891 36.8200061,55.6276419 L37.2372786,56.7844893 C37.2372786,56.7844893 41.0448893,54.5713892 42.0359131,55.0743682 L41.0970508,56.281513 C41.0970508,56.281513 45.5305688,56.281513 45.8435239,57.9413367 L44.2787515,57.9916341 C44.2787515,57.9916341 45.9478413,59.0478841 46,60.7580025 L42.6618204,60.959192 L44.2787515,61.8645499 C44.2787515,61.8645499 38.2283024,62.6693131 36.7678474,60.3556209 L36.3505749,59.0981842 Z"/><path id="Path" fill="#2F2E41" fill-rule="nonzero" d="M34,59.6594058 C34,59.6594058 36.0910467,61.7433755 38.7972451,60.7147252 C41.5034436,59.686075 38.7972451,55.9143554 38.7972451,55.9143554 L36.9931117,55 L34,59.6594058 Z"/><circle id="Oval" cx="159" cy="82" r="3" stroke="#3F3D56" stroke-width="2"/><circle id="Oval" cx="150" cy="70" r="3" stroke="#3F3D56" stroke-width="2"/><circle id="Oval" cx="165" cy="61" r="3" stroke="#3F3D56" stroke-width="2"/></g><g id="no-video-copy" fill-rule="nonzero" transform="translate(134.000000, 93.000000)"><path id="Path" fill="#3A3D51" d="M107,16.1396855 L107,70.8603145 C107,79.7737109 100.122643,87 91.6396452,87 L15.3603553,87 C6.87735656,87 0,79.7737109 0,70.8603145 L0,16.1396855 C0,7.22628911 6.87735656,0 15.3603553,0 L91.6396452,0 C100.122643,0 107,7.22628911 107,16.1396855 L107,16.1396855 Z"/><path id="Path" fill="#65687F" d="M142,14.2087909 L142,72.7902016 C142,76.0098956 138.861352,78.0330688 136.326677,76.4500373 L114.118571,62.5800186 L111,60.6308189 L111,26.3644751 L114.118571,24.4152754 L136.326677,10.5489551 C138.861352,8.96777337 142,10.9909465 142,14.2087909 Z"/><path id="Path" fill="#3A3D51" d="M110.564422,41.7528572 L110.564422,25 L107.048104,27.038738 L102,44.919285 L107.046218,62.8772024 L107.046218,62.8791371 L108.804376,63.8985058 L110.564422,64.9178751 L135.603094,79.4250255 C138.461045,81.080775 142,78.9627314 142,75.597072 L142,54.6990387 L118.574231,51.234731 C113.976985,50.5557962 110.564422,46.5150714 110.564422,41.7528572 L110.564422,41.7528572 Z"/><path id="Path" fill="#65687F" d="M110,16.1396855 L110,70.8603145 C110,79.7737109 103.026328,87 94.4245272,87 L30.5754732,87 C21.9736722,87 15,79.7737109 15,70.8603145 L15,16.1396855 C15,7.22628911 21.9736722,0 30.5754732,0 L94.4245272,0 C103.026328,0 110,7.22628911 110,16.1396855 L110,16.1396855 Z"/><path id="Path" fill="#F54E5E" d="M50,42 C50,49.1800349 44.4038793,55 37.5,55 C30.5961202,55 25,49.1800349 25,42 C25,34.8199651 30.5961202,29 37.5,29 C44.4038793,29 50,34.8199651 50,42 Z"/><path id="Shape" fill="#3A3D51" d="M34.4991844,60 C26.5040784,60 20,53.2699555 20,44.9991563 C20,36.728357 26.5040784,30 34.4991844,30 C42.4942908,30 49,36.728357 49,44.9991563 C49,53.2699555 42.4942908,60 34.4991844,60 Z M34.4991844,36.7705462 C30.1141925,36.7705462 26.5448614,40.4629578 26.5448614,44.9991563 C26.5448614,49.5370422 30.1141925,53.2277663 34.4991844,53.2277663 C38.8858075,53.2277663 42.4535074,49.5370422 42.4535074,44.9991563 C42.4535074,40.4629578 38.8858075,36.7705462 34.4991844,36.7705462 L34.4991844,36.7705462 Z"/><path id="Path" fill="#F54E5E" d="M86,42 C86,49.1800349 80.4024699,55 73.499092,55 C66.5975301,55 61,49.1800349 61,42 C61,34.8199651 66.5975301,29 73.499092,29 C80.4024699,29 86,34.8199651 86,42 L86,42 Z"/><path id="Shape" fill="#3A3D51" d="M75.4991844,60 C67.5040784,60 61,53.2699555 61,44.9991563 C61,36.728357 67.5040784,30 75.4991844,30 C83.4942904,30 90,36.728357 90,44.9991563 C90,53.2699555 83.4942904,60 75.4991844,60 Z M75.4991844,36.7705462 C71.1141925,36.7705462 67.5448614,40.4629578 67.5448614,44.9991563 C67.5448614,49.5370422 71.1141925,53.2277663 75.4991844,53.2277663 C79.8858075,53.2277663 83.4535074,49.5370422 83.4535074,44.9991563 C83.4535074,40.4629578 79.8858075,36.7705462 75.4991844,36.7705462 L75.4991844,36.7705462 Z"/></g><g id="no-video-copy-2" fill-rule="nonzero" transform="translate(101.000000, 23.000000)"><path id="Path" fill="#3A3D51" d="M16.4103414,4.61061067 L16.4230232,12.1683207 C16.4250851,13.3993896 15.4528701,14.3957957 14.251609,14.3937649 L3.44984514,14.3754726 C2.24858398,14.3734387 1.27302042,13.3737347 1.27095524,12.1426658 L1.25827347,4.58495575 C1.25621157,3.35388683 2.22842654,2.35748077 3.4296877,2.3595116 L14.2314515,2.37780386 C15.4327127,2.3798378 16.4082762,3.37954176 16.4103414,4.61061067 L16.4103414,4.61061067 Z" transform="translate(8.840648, 8.376638) rotate(10.000000) translate(-8.840648, -8.376638)"/><path id="Path" fill="#65687F" d="M21.0964263,6.22227285 L21.1097791,14.1814742 C21.1105121,14.61892 20.6361338,14.8929957 20.2523073,14.6772669 L16.8893284,12.7871191 L16.4170821,12.521491 L16.409272,7.86587195 L16.8806298,7.60184151 L20.237287,5.72357365 C20.6203923,5.50939463 21.0956928,5.78507834 21.0964263,6.22227285 Z" transform="translate(18.759526, 10.200966) rotate(10.000000) translate(-18.759526, -10.200966)"/><path id="Path" fill="#3A3D51" d="M16.8483294,9.42976953 L16.8444222,7.10065979 L16.3691881,7.38329521 L15.690419,9.86802863 L16.3772914,12.3658309 L16.3772918,12.3660999 L16.6153843,12.508223 L16.8537321,12.6503466 L20.2445046,14.6729765 C20.6315324,14.9038261 21.1098105,14.6101702 21.1090265,14.1422506 L21.1041516,11.2368469 L17.9341582,10.7498465 C17.3120555,10.6544028 16.8494401,10.0918488 16.8483294,9.42976953 L16.8483294,9.42976953 Z" transform="translate(18.399723, 10.927028) rotate(10.000000) translate(-18.399723, -10.927028)"/><path id="Path" fill="#65687F" d="M16.7707817,4.97361665 L16.7834634,12.5313267 C16.7855254,13.7623956 15.7808613,14.7587467 14.5395752,14.7566483 L5.32581336,14.7410446 C4.08452722,14.7389429 3.07651452,13.739184 3.07444934,12.5081151 L3.06176768,4.95040505 C3.05970567,3.71933613 4.06436978,2.72298502 5.30565591,2.7250834 L14.5194178,2.74068713 C15.7607038,2.74278883 16.7687165,3.74254774 16.7707817,4.97361665 L16.7707817,4.97361665 Z" transform="translate(9.922616, 8.740866) rotate(10.000000) translate(-9.922616, -8.740866)"/><path id="Path" fill="#F54E5E" d="M8.11987801,7.83335093 C8.12156221,8.83888702 7.31537922,9.65258329 6.31911228,9.65089907 C5.32284533,9.64920961 4.51392778,8.8327787 4.51223829,7.82724261 C4.51055409,6.82170652 5.31673701,6.00801024 6.31300396,6.00969447 C7.30927091,6.01138393 8.11818853,6.82781483 8.11987801,7.83335093 Z" transform="translate(6.316058, 7.830297) rotate(10.000000) translate(-6.316058, -7.830297)"/><path id="Shape" fill="#3A3D51" d="M5.77496297,9.65143498 C4.68122886,9.65143498 3.79146799,8.83434557 3.79146799,7.83019433 C3.79146799,6.82604309 4.68122886,6.00915856 5.77496297,6.00915856 C6.86869714,6.00915856 7.7586811,6.82604309 7.7586811,7.83019433 C7.7586811,8.83434557 6.86869714,9.65143498 5.77496297,9.65143498 Z M5.77496297,6.83116526 C5.1750941,6.83116526 4.68680798,7.27945804 4.68680798,7.83019433 C4.68680798,8.3811355 5.1750941,8.82922341 5.77496297,8.82922341 C6.37505499,8.82922341 6.86311796,8.3811355 6.86311796,7.83019433 C6.86311796,7.27945804 6.37505499,6.83116526 5.77496297,6.83116526 L5.77496297,6.83116526 Z" transform="translate(5.775075, 7.830297) rotate(10.000000) translate(-5.775075, -7.830297)"/><path id="Path" fill="#F54E5E" d="M13.1690584,8.56180622 C13.1707426,9.56734231 12.3643562,10.3810382 11.3681616,10.3793541 C10.3722292,10.3776652 9.56310814,9.56123399 9.56141866,8.5556979 C9.55973445,7.5501618 10.3661208,6.73646588 11.3620533,6.73814954 C12.3582479,6.73983887 13.1673689,7.55627012 13.1690584,8.56180622 L13.1690584,8.56180622 Z" transform="translate(11.365239, 8.558752) rotate(10.000000) translate(-11.365239, -8.558752)"/><path id="Shape" fill="#3A3D51" d="M11.9061105,10.7441179 C10.8123764,10.7441179 9.92261553,9.9270285 9.92261553,8.92287726 C9.92261553,7.91872602 10.8123764,7.10184148 11.9061105,7.10184148 C12.9998446,7.10184148 13.8898286,7.91872602 13.8898286,8.92287726 C13.8898286,9.9270285 12.9998446,10.7441179 11.9061105,10.7441179 Z M11.9061105,7.92384818 C11.3062416,7.92384818 10.8179555,8.37214097 10.8179555,8.92287726 C10.8179555,9.47381842 11.3062416,9.92190634 11.9061105,9.92190634 C12.5062025,9.92190634 12.9942655,9.47381842 12.9942655,8.92287726 C12.9942655,8.37214097 12.5062025,7.92384818 11.9061105,7.92384818 L11.9061105,7.92384818 Z" transform="translate(11.906222, 8.922980) rotate(10.000000) translate(-11.906222, -8.922980)"/></g><g id="no-photo-(1)" transform="translate(98.000000, 17.000000)"><path id="Shape" fill="url(#linearGradient-1)" d="M14,0 C6.2890625,0 0,6.49662305 0,14.5 C0,22.4693359 6.2890625,29 14,29 C21.7273984,29 28,22.4523438 28,14.5 C28,6.51367188 21.6945313,0 14,0 Z M14,27.3008186 C7.22421875,27.3177734 1.62421875,21.5347656 1.64058904,14.5 C1.64058904,11.2544355 2.87650781,8.29779492 4.746875,6.12285156 L14,15.7063887 L22.0882813,24.0835938 C19.9883359,26.0206465 17.1335391,27.3008186 14,27.3008186 Z M23.253125,22.8771484 L5.91171875,4.91640625 C8.01166406,2.97924023 10.8664609,1.69921875 14,1.69921875 C20.7921875,1.69921875 26.359375,7.46523438 26.359375,14.5 C26.359375,17.7624434 25.1234922,20.7020918 23.253125,22.8771484 Z"/><path id="Path" fill="url(#linearGradient-2)" d="M28,14.5 C28,22.4523437 21.7273984,29 14,29 L14,27.3007812 C17.1335391,27.3007812 19.9883359,26.0206465 22.0882812,24.0835937 L14,15.7063887 L14,13.2935547 L23.253125,22.8771484 C25.1234375,20.7020918 26.359375,17.7625 26.359375,14.5 C26.359375,7.46523438 20.7921875,1.69921875 14,1.69921875 L14,0 C21.6945312,0 28,6.51367188 28,14.5 Z"/></g><path id="Rectangle" fill="#F54E5E" d="M147.145675,85.4260772 L236.727239,181.050664 C237.976717,182.384429 237.908388,184.478561 236.574623,185.728038 C236.570938,185.731491 236.567244,185.734935 236.563543,185.738371 C235.216124,186.989105 233.111216,186.915601 231.854325,185.573923 L142.272761,89.9493361 C141.023283,88.6155711 141.091612,86.5214394 142.425377,85.271962 C142.429062,85.2685094 142.432756,85.2650652 142.436457,85.2616294 C143.783876,84.0108945 145.888784,84.0843988 147.145675,85.4260772 Z"/></g></g></g></svg>