<?xml version="1.0" encoding="UTF-8"?>
<svg width="329px" height="264px" viewBox="0 0 329 264" version="1.1" xmlns="http://www.w3.org/2000/svg" xmlns:xlink="http://www.w3.org/1999/xlink">
    <!-- Generator: Sketch 55.2 (78181) - https://sketchapp.com -->
    <title>Group 3</title>
    <desc>Created with Sketch.</desc>
    <defs>
        <linearGradient x1="49.9897195%" y1="100.003707%" x2="49.9897195%" y2="0.00740009191%" id="linearGradient-1">
            <stop stop-color="#808080" stop-opacity="0.25" offset="0%"></stop>
            <stop stop-color="#808080" stop-opacity="0.12" offset="54%"></stop>
            <stop stop-color="#808080" stop-opacity="0.1" offset="100%"></stop>
        </linearGradient>
    </defs>
    <g id="Page-1" stroke="none" stroke-width="1" fill="none" fill-rule="evenodd">
        <g id="1.PAYMENT-FAILED" transform="translate(0.000000, -70.000000)">
            <g id="Group-3" transform="translate(-2.000000, 70.000000)">
                <path d="M214.090174,34.8197857 C196.207302,34.2003143 179.172757,28.4142566 162.905593,22.1027833 C146.638428,15.79131 130.526683,8.76630939 113.071212,5.41273108 C101.842206,3.25593265 89.0039681,2.9510619 79.9540627,8.98036758 C71.2506116,14.7826418 68.4368843,24.8012138 66.9247892,34.0932852 C65.7850516,41.0858527 65.118046,48.4481571 68.2361351,54.9931485 C70.3990463,59.5337767 74.2424229,63.3576344 76.9007315,67.7101509 C86.1481482,82.8596328 79.6108462,101.537832 69.5895735,116.327306 C64.8881558,123.248521 59.4323094,129.868109 55.8091094,137.240143 C52.1859093,144.612177 50.502206,153.090179 53.6753392,160.621135 C56.8225692,168.080739 64.318287,173.698145 72.4551071,177.645248 C88.9521618,185.656213 108.395697,187.949231 127.340598,189.249796 C169.29719,192.123365 211.477196,190.871449 253.547114,189.632507 C269.114894,189.171957 284.75067,188.704921 300.065894,186.291901 C308.571834,184.952416 317.352994,182.828051 323.527652,177.697141 C331.366587,171.184583 333.309321,160.154099 328.0607,151.987455 C319.250398,138.287731 294.888506,134.885503 288.733276,120.183597 C285.343204,112.091549 288.823937,103.075159 293.748769,95.5701486 C304.317245,79.4703781 322.028509,65.3457809 322.961022,46.9432632 C323.6086,34.2943702 315.086471,21.6454771 301.91473,15.664821 C288.114838,9.39551073 268.98214,10.1836341 258.798973,20.562213 C248.304968,31.2586358 229.881368,35.3711477 214.090174,34.8197857 Z" id="Path" fill="#F54E5E" fill-rule="nonzero" opacity="0.1"></path>
                <ellipse id="Oval" fill="#FF6347" fill-rule="nonzero" opacity="0.1" cx="194.5" cy="257.5" rx="87.5" ry="6.5"></ellipse>
                <path d="M317.541269,82.2918194 C317.792957,81.6014887 315.905297,77.7706397 315.905297,77.5826624 C315.905297,77.394685 313.953102,75.2588733 313.953102,74.0661893 C313.953102,72.8735054 311.371686,70.3001602 311.371686,70.3001602 C311.371686,70.3001602 307.909363,68.8546791 307.531831,65.7141608 C307.154299,62.5736424 303.385432,62.5120637 303.375752,62.5120637 L303.375752,62.5120637 C303.375752,62.5120637 303.391886,62.2236156 303.398339,61.7925641 C303.398339,60.8202674 303.369298,59.0701334 302.933685,58.1172826 C302.288331,56.7366213 300.79111,56.2958468 300.79111,56.2958468 C300.79111,56.2958468 300.413578,53.8456591 299.658514,53.0905087 C298.799846,52.1901513 298.466533,50.9074328 298.777606,49.7004342 C299.155138,48.5109913 298.27423,45.4871486 296.447878,45.056097 C294.621527,44.6250455 292.543487,43.9249919 292.543487,43.9249919 C292.543487,43.9249919 292.340201,43.9638837 292.040111,44.0060166 L291.788423,43.9249919 C291.351139,44.0067397 290.909346,44.0619366 290.465448,44.0902823 C290.079334,44.1010377 289.70159,43.9760965 289.397387,43.7370145 C288.752034,43.0466839 283.669872,41.7276014 282.724428,41.7276014 C281.778985,41.7276014 279.071726,40.4700976 279.071726,40.4700976 C279.071726,40.4700976 277.184066,39.0278575 276.367693,38.3991057 C275.606175,37.8189687 274.202531,35.4627697 273.999244,35.1159838 L273.97343,35.07061 L273.97343,35.07061 L273.957296,35.07061 C273.764385,34.6244359 273.599496,34.1665594 273.463601,33.6996717 C273.43456,33.602442 273.411972,33.5052123 273.386158,33.4079827 C274.306702,32.4367996 275.094493,31.3469058 275.728793,30.1669937 C275.793328,30.0438361 275.85141,29.9174375 275.912718,29.79428 C276.051817,29.7938737 276.190028,29.7720123 276.322518,29.7294602 C276.378434,29.7106745 276.43336,29.6890399 276.487083,29.6646404 C277.125024,29.3270434 277.604943,28.7506991 277.822966,28.0603508 L277.822966,28.0603508 C277.868141,27.9242293 277.906862,27.7848668 277.942356,27.6455043 L277.971397,27.5061417 C277.993985,27.4121531 278.013345,27.3149234 278.032706,27.2176937 C278.052067,27.120464 278.04884,27.1107411 278.05852,27.0556443 C278.0682,27.0005475 278.087561,26.8676669 278.100468,26.7736782 C278.113375,26.6796895 278.100468,26.6667256 278.123055,26.6148698 C278.139189,26.4949532 278.152096,26.3782776 278.16823,26.258361 L278.16823,26.258361 C278.219859,25.8143455 278.271487,25.37033 278.365063,24.9360375 C278.363664,24.9296317 278.363664,24.9229974 278.365063,24.9165915 L278.365063,24.9165915 C278.739368,23.2118313 279.762254,21.7728322 280.485051,20.1977116 L280.485051,20.1977116 C280.588307,19.9708424 280.68511,19.7407322 280.77546,19.5106219 C280.865809,19.2805117 280.949705,19.0050277 281.023921,18.7457485 C281.046508,18.6679648 281.062642,18.5901811 281.08523,18.5123973 C281.132556,18.3222593 281.174504,18.131041 281.211074,17.9387423 C281.227208,17.8577176 281.243341,17.7766928 281.256248,17.6924271 C281.301423,17.433148 281.336918,17.1706279 281.356278,16.9081078 C281.485884,15.4073699 281.264902,13.896964 280.710924,12.4971218 C280.239816,11.3174018 279.53638,10.2543574 279.058819,9.07787842 C278.336022,7.28885251 278.145643,5.26647539 277.261508,3.56819717 C275.780421,0.71288588 272.289057,-0.716390257 269.420459,0.356377093 C268.052308,0.868453351 266.864857,1.86343697 265.47412,2.30097048 C263.615501,2.89731245 261.624584,2.45005597 259.698203,2.18105389 C257.771821,1.9120518 255.645381,1.88936488 254.096531,3.15335058 C252.312128,4.60855463 251.837793,7.34394932 250.153419,8.9385159 C249.449983,9.60940062 248.575529,10.0372112 247.833372,10.6562401 C247.312033,11.0767695 246.910251,11.6278813 246.668508,12.2540476 C246.668508,12.2994215 246.639467,12.3447953 246.62656,12.3901692 C246.613653,12.435543 246.597519,12.4971218 246.584612,12.5522186 C246.571705,12.6073154 246.562025,12.6786172 246.552345,12.740196 C246.542664,12.8017748 246.552345,12.8277027 246.552345,12.8698355 C246.543366,12.9776803 246.543366,13.0860897 246.552345,13.1939344 L246.552345,13.1939344 C246.562994,13.3029191 246.580235,13.411152 246.603973,13.5180333 C246.609609,13.5465996 246.617155,13.574752 246.62656,13.602299 C246.647464,13.6922557 246.673318,13.7809789 246.704003,13.8680601 C246.704003,13.8680601 246.704003,13.90047 246.704003,13.916675 C246.739497,14.0139046 246.778218,14.1078933 246.81694,14.205123 L246.878248,14.3444855 C246.878248,14.3833774 246.913743,14.4222692 246.929877,14.4644021 C247.175193,14.9285157 247.370963,15.4173817 247.513922,15.9228471 C247.594291,16.2452597 247.574014,16.5846964 247.45584,16.8951438 C247.286999,17.2456028 247.050016,17.5585658 246.758858,17.8155847 C245.505475,19.1239445 244.5373,20.6802923 243.916074,22.3853792 C243.845085,22.5798385 243.777323,22.7742978 243.712788,22.9719982 C243.712788,22.9719982 243.712788,22.9719982 243.712788,22.9882031 L243.796684,23.01089 C243.977734,23.0632052 244.162073,23.1032673 244.348461,23.1308066 C244.454945,23.1308066 244.561428,23.1567345 244.671138,23.1632165 C245.103761,23.1882184 245.537775,23.1555239 245.961846,23.0659868 C246.071556,23.0432999 246.178039,23.017372 246.284523,22.9882031 C246.72232,22.8695293 247.148833,22.7122712 247.559097,22.5182597 C247.559097,22.6478993 247.559097,22.7742978 247.559097,22.9039374 C247.559097,22.9752391 247.559097,23.0465409 247.559097,23.1178427 C247.566,28.7836549 250.765743,33.9571886 255.819626,36.4739582 C255.838987,36.6133208 255.855121,36.7462013 255.874481,36.8823228 C255.893842,37.0184444 255.903522,37.1124331 255.916429,37.2258677 L255.74541,37.0605772 C255.74541,37.0605772 254.612814,36.4966452 253.541527,38.1301036 C252.47024,39.763562 250.456735,40.5154715 250.456735,40.5154715 C250.456735,40.5154715 238.998478,42.3369073 238.559637,43.8439672 L233.206427,44.1680661 C233.206427,44.1680661 231.318767,44.4176222 231.131614,48.3813517 C230.944462,52.3450812 229.934483,52.714554 229.934483,52.714554 C229.934483,52.714554 227.730599,56.6037408 227.920979,58.6163949 C228.111358,60.6290491 226.220471,61.6305147 226.220471,61.6305147 L225.968783,65.1956025 C225.968783,65.1956025 223.890744,64.8715036 223.322832,67.3314143 C222.754921,69.7913249 221.751396,70.8965021 221.751396,70.8965021 C221.751396,70.8965021 218.285846,73.7874643 218.098693,76.234411 L215.959345,77.5534935 C215.959345,77.5534935 210.983667,76.4223883 209.851071,74.4129752 L209.502579,74.0888763 C209.491044,74.0738646 209.481298,74.0575487 209.473539,74.0402614 C209.472713,74.047801 209.472713,74.0554088 209.473539,74.0629484 C208.731382,73.3596538 207.150265,71.8817628 207.392272,72.2220666 C207.537964,72.5381419 207.574308,72.8940558 207.495529,73.2332552 L207.124451,72.8216496 L206.133832,71.7164723 C206.133832,71.7164723 198.73485,63.1797074 194.014087,62.5801244 L193.655915,61.8703478 C193.453232,61.4707816 192.966842,61.3113194 192.568494,61.513839 L185.447014,65.0789269 C185.255268,65.1742642 185.109299,65.342478 185.04146,65.5462857 C184.97362,65.7500934 184.989513,65.9726607 185.085616,66.1646582 L185.882628,67.7365379 L185.866494,67.7365379 C185.848058,67.7455125 185.834136,67.7617424 185.828025,67.7813832 C185.821914,67.8010239 185.824159,67.8223282 185.834227,67.8402495 L186.114956,68.3944586 C186.13376,68.432837 186.179889,68.4487635 186.218212,68.4301095 L186.218212,68.4301095 L186.218212,68.4301095 L186.511848,69.0102465 L186.511848,69.0102465 C186.469319,69.0319354 186.45206,69.0839412 186.473127,69.1269221 L187.005544,70.1770026 C187.015238,70.1981721 187.033226,70.2143649 187.055234,70.2217334 C187.077243,70.2291019 187.101307,70.2269882 187.121708,70.2158944 L187.121708,70.2158944 L187.337901,70.640464 L187.337901,70.640464 C187.298831,70.6619149 187.28325,70.7102857 187.302407,70.7506576 L187.844504,71.820184 C187.853438,71.8403789 187.870503,71.8558037 187.891436,71.8626062 C187.91237,71.8694086 187.935196,71.8669466 187.954214,71.8558349 L187.954214,71.8558349 L193.117045,82.100601 C193.319808,82.499929 193.805121,82.6604843 194.204466,82.4603508 L199.670613,79.7152331 L199.86422,79.8578366 L201.477604,81.9417926 C201.203329,82.5899904 200.974228,83.2381881 200.780622,83.8183252 C200.776301,83.8369866 200.770915,83.8553826 200.764488,83.873422 C200.72254,83.9965796 200.683819,84.1197371 200.648325,84.2364127 L200.609603,84.3595703 C200.570882,84.4794869 200.535388,84.5961625 200.50312,84.7063562 L200.445038,84.9137794 C200.445038,84.9526713 200.419224,84.9948042 200.409544,85.033696 C200.232071,85.6624479 200.119134,86.1485962 200.057826,86.4175983 L199.641573,86.2879588 L200.048145,86.4629722 C200.048145,86.4856591 200.048145,86.511587 200.048145,86.527792 C200.028785,86.6120577 200.022331,86.6606725 200.022331,86.6606725 C200.144949,86.7190103 200.274019,86.7741071 200.409544,86.8292039 C202.613427,87.8015006 213.619937,92.6435382 214.184622,93.3792426 C214.813842,94.1959719 218.969921,96.5813398 222.748467,94.5719266 C226.527014,92.5625134 227.343387,89.4868149 227.343387,89.4868149 C227.343387,89.4868149 230.99609,84.3984622 231.121934,83.6530347 C231.247778,82.9076073 234.080881,82.0325402 234.080881,82.0325402 C234.080881,82.0325402 234.332569,90.4591116 232.88375,93.5250872 C231.43493,96.5910627 228.727671,110.225903 228.727671,110.225903 C228.90394,110.190831 229.084129,110.179928 229.263315,110.193493 L229.105203,110.981054 C229.324826,110.939314 229.550295,110.939314 229.769917,110.981054 C229.569858,112.527006 228.414674,119.731724 228.414674,119.731724 C228.414674,119.731724 228.037142,122.998641 227.404696,124.126505 C226.772249,125.254369 226.714167,131.159451 226.714167,131.159451 L225.707415,135.431075 C225.707415,135.431075 225.839712,135.726005 226.088174,136.166779 L226.088174,136.182984 C226.088174,136.182984 227.169141,138.59428 228.992266,139.945772 C228.908494,140.613375 228.738184,141.267113 228.485663,141.890366 C227.840309,143.144628 227.982287,144.904485 227.982287,144.904485 C227.982287,144.904485 226.914227,149.7368 227.036844,151.120702 C227.159461,152.504605 226.320501,155.891438 226.320501,155.891438 L225.187905,166.816812 C225.187905,166.816812 224.432841,176.296705 224.810373,178.873291 C225.187905,181.449877 224.558685,184.963109 224.558685,184.963109 C224.558685,184.963109 225.313749,192.43683 225.12337,193.250318 C224.93299,194.063806 223.990774,197.58352 224.558685,199.531355 C225.126596,201.479189 224.810373,206.813857 224.810373,206.813857 C224.810373,206.813857 225.187905,213.850044 225.626746,216.109013 C226.065586,218.367982 225.500902,221.258945 225.500902,221.258945 C225.500902,221.258945 225.058834,226.0945 224.855548,226.0945 C224.652261,226.0945 223.029196,229.419755 226.365676,232.686672 C229.702155,235.953589 227.643477,235.441512 227.643477,235.441512 C227.643477,235.441512 224.997526,234.12243 225.313749,236.822174 C225.610612,239.392278 226.026865,238.721393 226.065586,238.650091 L225.420232,240.714601 C225.420232,240.714601 225.584798,240.734047 225.8623,240.77618 L225.497675,241.216955 C225.115301,241.696079 224.689713,242.138731 224.226328,242.539278 C223.471264,243.10321 223.406728,244.357473 223.406728,244.357473 C223.406728,244.357473 218.7505,249.445826 214.407269,252.019171 C212.122716,253.373904 210.147933,254.521214 209.289613,255.467583 C208.515188,256.319963 208.644259,257.010294 210.257644,257.545057 C213.658658,258.676162 219.637862,259.240094 223.916558,257.797854 C226.469578,256.942771 228.765312,255.451996 230.589517,253.464652 C230.589517,253.464652 233.300003,252.08075 235.942727,252.583103 C238.585451,253.085456 243.874126,249.633803 243.874126,249.633803 L243.777323,248.742531 L243.496594,246.178909 C243.496594,246.178909 242.85124,245.423758 243.054527,244.61027 C243.141649,244.240797 243.009352,243.287947 242.838333,242.341578 C242.793158,242.092022 242.744757,241.845707 242.696355,241.612355 L243.180371,241.521608 C243.180371,241.521608 242.554377,238.319511 243.686973,237.690759 C244.81957,237.062007 244.503346,228.836377 244.503346,228.836377 C244.503346,228.836377 243.054527,226.953362 242.299463,226.638986 C241.544399,226.32461 242.234927,222.425701 242.363998,221.929829 C242.493069,221.433958 243.496594,211.694786 243.496594,211.694786 C243.496594,211.694786 243.119062,208.619088 243.622438,207.300005 C244.125814,205.980923 242.993218,200.895811 242.993218,200.895811 C242.993218,200.895811 242.615686,200.267059 243.315895,199.511909 C244.016104,198.756758 243.745055,192.060875 243.745055,192.060875 C243.745055,192.060875 243.683747,188.6708 243.683747,187.789251 C243.683747,186.907702 244.438811,183.708846 245.129339,182.642561 C245.819868,181.576276 245.384254,178.244539 245.384254,178.244539 L245.384254,178.244539 L245.422975,177.994983 C245.422975,177.900994 245.455243,177.777837 245.47783,177.638474 L245.535912,177.314375 C245.83795,175.474701 246.24738,173.654448 246.762085,171.863032 C247.581684,169.224867 248.527127,164.580529 248.527127,164.580529 L254.393394,149.231206 L254.461156,149.04971 C254.461156,149.04971 257.165189,154.073243 257.165189,158.724062 C257.165189,158.724062 257.862171,164.311527 257.671792,165.818587 C257.481412,167.325647 258.239703,174.420172 258.239703,174.420172 C258.239703,174.420172 259.056076,184.590395 259.056076,185.03117 C259.056076,185.471944 260.062828,193.32162 260.695274,194.517545 C261.327721,195.71347 260.049921,199.349859 259.685296,199.725814 C259.320671,200.101769 259.81114,209.335346 259.81114,209.335346 C259.81114,209.335346 258.865696,216.617848 258.678544,218.124908 C258.491391,219.631968 257.7331,225.410652 258.355867,227.672862 C258.978633,229.935072 258.733399,230.246207 258.733399,230.246207 C258.733399,230.246207 260.992137,232.569996 259.678842,232.757974 C258.365547,232.945951 256.345589,234.640988 257.158735,237.340732 C257.971881,240.040476 259.933757,244.062543 259.933757,244.062543 C259.933757,244.062543 260.324196,243.975036 260.976003,243.842156 L260.976003,244.587583 L261.053446,248.330926 C261.053446,248.330926 261.492286,251.896013 261.240598,252.728948 C261.056673,253.322049 260.804985,256.138468 260.682367,257.590431 C260.637193,258.128435 260.611378,258.488185 260.611378,258.488185 C260.611378,258.488185 260.611378,261.81344 267.597334,260.811974 C274.58329,259.810508 275.844956,257.042704 275.844956,257.042704 L275.896585,256.695918 C275.999841,256.04772 276.219262,254.715674 276.409641,253.967005 C276.664556,252.959058 274.399364,248.437878 274.399364,248.437878 C274.399364,248.437878 274.018605,245.365421 273.389385,244.671849 C273.12851,244.27362 272.955753,243.823799 272.882782,243.352766 C272.8247,243.099969 272.776299,242.837449 272.734351,242.57817 C272.898916,242.600857 273.057028,242.630026 273.199006,242.662436 C273.199006,242.662436 272.821474,240.465045 274.27352,239.771474 C275.725566,239.077902 275.34158,237.638903 275.154428,237.010151 C274.967275,236.381399 275.719112,232.868167 275.719112,232.868167 C275.513072,232.156211 275.705518,231.387989 276.222488,230.858754 C277.106623,229.977205 277.797152,223.822567 277.797152,223.822567 L277.94881,200.114733 C277.94881,200.114733 278.390877,195.901447 277.887501,194.209651 C277.384125,192.517854 276.877523,189.250938 277.564824,188.37587 C278.252126,187.500803 277.62936,183.417157 277.62936,183.417157 C277.62936,183.417157 277.62936,174.812332 278.571576,172.679761 C279.513793,170.54719 279.21693,157.041989 279.21693,157.041989 L279.465392,148.190848 C279.465392,148.190848 281.520844,146.246255 281.033601,136.043622 C283.227805,135.9075 285.702737,135.826475 286.077042,136.131128 C286.76757,136.69506 291.239873,139.586022 293.882597,137.751623 C294.450508,137.498826 297.028697,135.301435 297.028697,135.301435 L295.918688,116.47453 C296.612444,117.524611 297.031924,118.221423 297.031924,118.221423 C297.031924,115.583258 304.453493,107.043252 304.453493,107.043252 C304.453493,107.043252 311.37814,98.0657127 312.888268,96.9961863 C314.398396,95.92666 317.357343,90.2776162 317.357343,90.2776162 C317.795778,89.1999599 318.301226,88.1510521 318.870698,87.1370979 C319.554773,85.9995108 317.289581,82.985391 317.541269,82.2918194 Z M301.297713,88.8872319 C299.410053,89.0752093 295.444353,93.4084115 295.379818,94.3482984 C295.34755,94.8441697 294.931297,95.5118134 294.544084,96.0368536 C294.515044,95.6576579 294.482776,95.2719802 294.450508,94.8798205 C294.005214,89.3312474 293.527652,82.5640624 293.747072,81.9158646 C294.124604,80.7847595 293.995534,75.6996478 293.995534,75.6996478 L293.995534,75.6996478 L294.066523,75.6024181 C295.33787,79.5434607 299.277755,84.1910389 299.277755,84.1910389 C299.277755,84.1910389 299.97151,86.2004521 300.787883,86.2620309 C301.604256,86.3236096 301.297713,88.8872319 301.297713,88.8872319 Z" id="Shape" fill="url(#linearGradient-1)" fill-rule="nonzero"></path>
                <path d="M200,87.4527781 C200,87.4527781 202.282748,75.0631109 209.631849,75 L215,86.4330388 L211.420163,88.9873696 C211.420163,88.9873696 203.640839,89.2431349 200,87.4527781 Z" id="Path" fill="#65617D" fill-rule="nonzero"></path>
                <path d="M215,86.4279372 L211.420163,88.9874228 C211.420163,88.9874228 205.962115,89.1669192 202.03232,88.169717 C201.333572,88.00071 200.652784,87.7601986 200,87.4517314 C200,87.4517314 200,87.3852513 200.041738,87.252291 C200.040871,87.236792 200.040871,87.2212539 200.041738,87.2057549 C200.379284,85.6496442 200.844367,84.1261632 201.431935,82.6518649 C201.656678,82.0967556 201.913527,81.5217024 202.18964,80.9499731 C203.265197,78.8059884 204.777397,76.7052158 206.845034,75.6648015 C207.610271,75.2753464 208.443366,75.0492605 209.294735,75 L209.513057,75 L209.622217,75 L209.7378,75.2526246 L211.555009,79.1184451 L215,86.4279372 Z" id="Path" fill="#000000" fill-rule="nonzero" opacity="0.1"></path>
                <path d="M208,74.3531132 C208,74.3531132 207.372533,81.8781117 202.569617,82 C202.569617,82 201.209557,81.1981033 199.379718,79.8637472 C195.161562,76.7812564 188.466389,70.8568437 190.315939,65.3462097 C192.970355,57.4523388 205.854785,72.0083674 205.854785,72.0083674 L206.840336,73.0925317 L208,74.3531132 Z" id="Path" fill="#FBBEBE" fill-rule="nonzero"></path>
                <path d="M208,75.2736766 C208,75.2736766 207.374682,82.8768455 202.588214,83 C202.588214,83 201.232812,82.1897731 199.40924,80.8415556 L199,80.3230104 C199.811,80.7422496 200.705092,80.9801142 201.619134,81.0198055 C202.820662,81.0457328 204.17279,80.6049694 205.040378,78.8872884 C205.538013,77.9086105 205.975335,76.9010056 206.349945,75.8700036 C206.57948,75.2659061 206.741949,74.6388833 206.834485,74 L208,75.2736766 Z" id="Path" fill="#000000" fill-rule="nonzero" opacity="0.1"></path>
                <path d="M205.422716,89 L204.367762,87.6010735 L200.808493,82.8883779 L199,80.4807692 C199.793707,80.9106398 200.669615,81.1545552 201.565239,81.1951147 C202.742042,81.2215719 204.066346,80.7717989 204.919288,79.0156997 C205.406933,78.0171367 205.835263,76.9889195 206.201907,75.9367386 C206.788706,74.2203252 206.77588,73.3373149 206.57066,73.039671 C206.365441,72.742027 207.878932,74.193868 208.606819,74.9049063 L208.632471,74.9313635 C208.840897,75.1297928 208.975572,75.262079 208.975572,75.262079 L209.100627,75.5200371 L210.886674,79.2042075 L210.905914,79.3596438 C211.069448,80.5303766 211.672279,87.9483248 205.422716,89 Z" id="Path" fill="#E7EFFD" fill-rule="nonzero"></path>
                <path d="M244,249.012416 C244,249.012416 238.718349,252.456218 236.079159,251.941926 C233.439969,251.427635 230.732101,252.82078 230.732101,252.82078 C228.912642,254.799308 226.618171,256.285557 224.063812,257.14018 C219.789436,258.578895 213.817737,258.015778 210.423091,256.886289 C208.814068,256.355722 208.686523,255.66566 209.458331,254.819357 C210.318439,253.872148 212.290473,252.729639 214.573193,251.378809 C218.909706,248.81386 223.563445,243.742552 223.563445,243.742552 C223.563445,243.742552 223.625583,242.492628 224.381038,241.929511 C224.843886,241.535855 225.268706,241.099953 225.649943,240.627506 C226.323639,239.833283 226.958092,239 226.958092,239 L242.492359,239.501272 C242.492359,239.501272 242.757259,240.617741 242.963292,241.756995 C243.136622,242.691183 243.270707,243.641647 243.182407,244.009463 C242.992725,244.819961 243.623907,245.571869 243.623907,245.571869 L243.901889,248.127053 L244,249.012416 Z" id="Path" fill="#65617D" fill-rule="nonzero"></path>
                <path d="M241.53959,239.53726 C241.53959,239.53726 241.798571,240.726166 242,241.939334 C240.359789,242.265157 233.188264,243.613507 231.394583,242.670702 C229.3675,241.603113 225,241.003461 225,241.003461 L225.073538,240.733098 C225.73218,239.887346 226.352454,239 226.352454,239 L241.53959,239.53726 Z" id="Path" fill="#000000" fill-rule="nonzero" opacity="0.1"></path>
                <path d="M278.369806,148.775762 L278.121216,157.567837 C278.121216,157.567837 278.44406,170.97486 277.501355,173.095855 C276.55865,175.21685 276.568336,183.759205 276.568336,183.759205 C276.568336,183.759205 277.191425,187.813094 276.506995,188.682248 C275.822566,189.551402 276.319746,192.801 276.829839,194.484175 C277.339933,196.167349 276.887951,200.34772 276.887951,200.34772 L276.765271,223.918654 C276.765271,223.918654 276.08407,230.028676 275.212391,230.904316 C274.702612,231.431516 274.513993,232.193137 274.718439,232.89883 C274.718439,232.89883 273.972669,236.388417 274.159919,237.014338 C274.347169,237.640258 274.718439,239.070471 273.291469,239.754767 C271.864498,240.439064 272.23254,242.624921 272.23254,242.624921 C268.820078,241.814143 259.137985,244 259.137985,244 C259.137985,244 257.20092,240.00773 256.403496,237.325677 C255.606071,234.643624 257.585105,232.960449 258.886166,232.785321 C260.187228,232.610193 257.956376,230.288125 257.956376,230.288125 C257.956376,230.288125 258.204966,229.963814 257.585105,227.732553 C256.965244,225.501292 257.707786,219.748013 257.907949,218.252938 C258.108112,216.757864 259.024989,209.522482 259.024989,209.522482 C259.024989,209.522482 258.531038,200.357449 258.902309,199.981248 C259.273579,199.605048 260.516529,195.988978 259.896668,194.79227 C259.276808,193.595562 258.282448,185.812095 258.282448,185.387247 C258.282448,184.962399 257.475338,174.847135 257.475338,174.847135 C257.475338,174.847135 256.732797,167.799854 256.916818,166.304779 C257.100839,164.809705 256.419638,159.260741 256.419638,159.260741 C256.419638,154.642551 253.752946,149.654645 253.752946,149.654645 L253.685149,149.833016 L247.915925,165.07564 C247.915925,165.07564 246.986134,169.687345 246.175796,172.307779 C245.667371,174.086734 245.263123,175.894081 244.965131,177.720532 L244.910247,178.044843 C244.887648,178.184297 244.868277,178.304292 244.855364,178.395099 L244.816622,178.648061 L244.816622,178.648061 C244.816622,178.648061 245.249233,181.952792 244.568032,183.013289 C243.886831,184.073787 243.112006,187.252036 243.112006,188.137406 C243.112006,189.022775 243.170118,192.382638 243.170118,192.382638 C243.170118,192.382638 243.421936,199.053719 242.737507,199.802877 C242.053077,200.552036 242.414662,201.174713 242.414662,201.174713 C242.414662,201.174713 243.534931,206.224238 243.037751,207.534455 C242.540572,208.844672 242.915071,211.89644 242.915071,211.89644 C242.915071,211.89644 241.930396,221.541453 241.820629,222.047379 C241.710862,222.553304 241.013519,226.412607 241.756061,226.723945 C242.498602,227.035284 243.928801,228.906559 243.928801,228.906559 C243.928801,228.906559 244.251645,237.075957 243.124919,237.698634 C241.998194,238.321312 242.624511,241.502804 242.624511,241.502804 C242.624511,241.502804 233.626847,243.250841 231.576787,242.251963 C229.526728,241.253085 225.119906,240.692026 225.119906,240.692026 L225.736538,238.64238 C225.701025,238.713728 225.291013,239.378566 224.997225,236.826238 C224.674381,234.144184 227.295875,235.454401 227.295875,235.454401 C227.295875,235.454401 229.342706,235.953841 226.049697,232.710729 C222.756688,229.467618 224.374136,226.162887 224.561386,226.162887 C224.748635,226.162887 225.181246,221.363082 225.181246,221.363082 C225.181246,221.363082 225.739767,218.492929 225.303927,216.248695 C224.868088,214.004462 224.500045,207.0188 224.500045,207.0188 C224.500045,207.0188 224.82289,201.719556 224.251456,199.786662 C223.680022,197.853767 224.622726,194.360936 224.809976,193.546915 C224.997225,192.732894 224.251456,185.315899 224.251456,185.315899 C224.251456,185.315899 224.874545,181.826311 224.500045,179.270739 C224.125546,176.715167 224.874545,167.297171 224.874545,167.297171 L225.991585,156.445721 C225.991585,156.445721 226.795467,153.079371 226.672786,151.707535 C226.550105,150.335699 227.602577,145.545623 227.602577,145.545623 C227.602577,145.545623 227.479896,143.797586 228.099757,142.552231 C228.719617,141.306876 228.971436,137.191368 228.971436,137.191368 L234.931137,123.469763 L237.836734,111.372958 L277.255994,111 C277.255994,111 277.401273,112.047525 277.63695,113.954475 C277.872626,115.861424 278.21484,118.686174 278.605482,122.169276 C278.947696,125.334553 279.322196,129.057644 279.690238,133.195855 C280.852476,146.405048 278.369806,148.775762 278.369806,148.775762 Z" id="Path" fill="#3F3D56" fill-rule="nonzero"></path>
                <path d="M279,122.749407 C277.022761,122.766684 270.435228,122.825428 263.074418,122.949827 L262.986323,122.949827 L260.552297,122.991294 L260.477253,122.991294 C251.749342,123.139882 243.14868,121.332639 239.696669,121.678192 C232.355436,122.407309 242.329725,114.501052 242.329725,114.501052 C242.329725,114.501052 250.27457,116.747148 259.051422,116.291018 L261.162435,116.176985 C267.8348,115.776143 274.539793,115.112681 278.037483,114 C278.282191,116.052586 278.621519,119.051988 279,122.749407 Z" id="Path" fill="#000000" fill-rule="nonzero" opacity="0.1"></path>
                <path d="M279,121.749503 C277.022761,121.749503 270.435228,121.825495 263.074418,121.946393 L262.986323,121.946393 L260.552297,121.991297 L260.477253,121.991297 C251.749342,122.139828 243.14868,120.333279 239.696669,120.675245 C232.355436,121.404082 242.329725,113.504314 242.329725,113.504314 C242.329725,113.504314 250.27457,115.746094 259.051422,115.293593 L261.162435,115.17615 C267.8348,114.778916 274.539793,114.112254 278.037483,113 C278.282191,115.051798 278.621519,118.039686 279,121.749503 Z" id="Path" fill="#E3A79F" fill-rule="nonzero"></path>
                <path d="M257.320345,43.2419644 L245.850438,48.600648 L237,117 C237,117 242.235698,114.634922 245.227989,116.128485 C248.22028,117.622048 257.443538,116.254838 257.443538,116.254838 C257.443538,116.254838 264.177003,115.879018 265.175514,116.627419 C266.174025,117.375821 277.890318,113.51394 277.890318,113.51394 C277.890318,113.51394 280.010533,108.777304 278.389574,108.032143 C276.768614,107.286981 278.888829,99.9325603 278.888829,99.9325603 L277.890318,50.5931452 L275.896538,44.2398329 L270.534405,41 L265.042595,45.3608151 L262.44906,45.7333959 L257.320345,43.2419644 Z" id="Path" fill="#000000" fill-rule="nonzero" opacity="0.1"></path>
                <path d="M257.320345,42.2449171 L245.850438,47.6029155 L237,116 C237,116 242.235698,113.631985 245.227989,115.128596 C248.22028,116.625208 257.443538,115.251694 257.443538,115.251694 C257.443538,115.251694 264.177003,114.879161 265.175514,115.624227 C266.174025,116.369294 277.890318,112.511146 277.890318,112.511146 C277.890318,112.511146 280.010533,107.778356 278.389574,107.03005 C276.768614,106.281744 278.888829,98.9315033 278.888829,98.9315033 L277.890318,49.5919185 L275.896538,43.2394186 L270.534405,40 L265.042595,44.3634969 L262.44906,44.7327906 L257.320345,42.2449171 Z" id="Path" fill="#E7EFFD" fill-rule="nonzero"></path>
                <path d="M255.808775,38.0944313 C255.808775,38.0944313 254.685263,37.5298786 253.623448,39.1615337 C252.561632,40.7931888 250.564639,41.5437501 250.564639,41.5437501 C250.564639,41.5437501 239.199637,43.3646772 238.76452,44.8690632 L233.458688,45.1953942 C233.458688,45.1953942 231.585086,45.4434058 231.396752,49.3985377 C231.208418,53.3536697 230.198556,53.7191604 230.198556,53.7191604 C230.198556,53.7191604 228.013229,57.6090262 228.198316,59.6159619 C228.383403,61.6228977 226.513049,62.6279972 226.513049,62.6279972 L234.306192,83.0204225 C234.306192,83.0204225 234.556222,91.4299728 233.117738,94.504011 C231.679254,97.5780492 228.997113,111.195843 228.997113,111.195843 C228.997113,111.195843 230.123872,110.944568 230.058929,111.695129 C229.993986,112.44569 228.685387,120.669232 228.685387,120.669232 C228.685387,120.669232 228.311966,123.932542 227.688514,125.061648 C227.065063,126.190753 227.00012,132.090818 227.00012,132.090818 L226,136.355964 C226,136.355964 228.373662,141.691476 231.994226,140.924598 C235.614791,140.15772 242.212986,125.946005 242.212986,125.946005 L246.395307,110.57255 L249.64245,95.3883681 L250.577627,85.0991511 L252.077807,62.321246 L254.263135,47.2610696 C254.263135,47.2610696 256.685504,39.1615337 255.808775,38.0944313 Z" id="Path" fill="#000000" fill-rule="nonzero" opacity="0.1"></path>
                <path d="M254.810483,38.0944313 C254.810483,38.0944313 253.685928,37.5298786 252.623125,39.1615337 C251.560322,40.7931888 249.561472,41.5470135 249.561472,41.5470135 C249.561472,41.5470135 238.185906,43.3646772 237.750385,44.8723265 L232.43637,45.1986575 C232.43637,45.1986575 230.561027,45.4499324 230.375768,49.4018011 C230.190508,53.3536697 229.186208,53.7322137 229.186208,53.7322137 C229.186208,53.7322137 226.998849,57.6220794 227.187359,59.6290152 C227.375868,61.6359509 225.500525,62.6410504 225.500525,62.6410504 L233.300913,83.0334757 C233.300913,83.0334757 233.551176,91.4430261 232.114604,94.5170643 C230.678033,97.5911024 227.990149,111.208896 227.990149,111.208896 C227.990149,111.208896 229.114705,110.957621 229.052952,111.711446 C228.991199,112.46527 227.678133,120.682285 227.678133,120.682285 C227.678133,120.682285 227.304365,123.945595 226.677083,125.074701 C226.049802,126.203806 225.991299,132.103871 225.991299,132.103871 L225,136.355964 C225,136.355964 227.375868,141.691476 230.999799,140.924598 C234.623729,140.15772 241.185805,125.929688 241.185805,125.929688 L245.375264,110.556234 L248.625426,95.3687882 L249.564722,85.0795712 L251.063047,62.3016662 L253.250406,47.2414897 C253.250406,47.2414897 255.684777,39.1615337 254.810483,38.0944313 Z" id="Path" fill="#65617D" fill-rule="nonzero"></path>
                <path d="M214,86.4986116 L210.503972,88.9877684 C210.503972,88.9877684 205.173704,89.1623327 201.335911,88.1925313 L199.391931,87.300314 L199,87.1257498 L199.401338,87.2550566 C201.417433,87.8724968 202.994565,87.8595662 204.226798,87.4328536 C209.17454,85.7163051 208.61643,77.2919639 208.437709,75.3846879 C208.418896,75.1939603 208.406355,75.0614208 208.396948,75.0226287 C208.396146,75.0151085 208.396146,75.0075202 208.396948,75 L208.425167,75.0484901 C208.492134,75.1629486 208.568724,75.2711201 208.654055,75.3717572 C208.723035,75.452574 208.795151,75.5366234 208.873537,75.6142075 L208.873537,75.6142075 L210.619983,79.2154033 L210.638796,79.3673388 L214,86.4986116 Z" id="Path" fill="#000000" fill-rule="nonzero" opacity="0.1"></path>
                <path d="M227.623247,62 L225.882436,62.4991735 L225.633286,66.0646981 C225.633286,66.0646981 223.578611,65.7405595 223.018833,68.1845646 C222.459056,70.6285697 221.465693,71.7500893 221.465693,71.7500893 C221.465693,71.7500893 218.042313,74.6187159 217.854642,77.0465141 L215.741724,78.3430685 C215.741724,78.3430685 210.823446,77.1956178 209.707127,75.215131 C209.707127,75.215131 211.946237,91.2956472 200,87.3670873 C200,87.3670873 213.376421,93.2275133 213.997677,94.0378598 C214.618933,94.8482063 218.728283,97.2144181 222.459056,95.2209657 C226.189828,93.2275133 227.001991,90.1611621 227.001991,90.1611621 C227.001991,90.1611621 230.609807,85.1110826 230.735999,84.3623224 C230.862192,83.6135622 233.648137,82.7416294 233.648137,82.7416294 L239,69.7760852 L227.623247,62 Z" id="Path" fill="#65617D" fill-rule="nonzero"></path>
                <path d="M226,229 C226.320348,229 239.243181,229.473174 238.996513,231.482625 C238.749846,233.492077 226,229 226,229 Z" id="Path" fill="#000000" fill-rule="nonzero" opacity="0.1"></path>
                <path d="M229,232 C229,232 237.956224,233.431353 235.607321,234.739648 C233.258419,236.047944 229,232 229,232 Z" id="Path" fill="#000000" fill-rule="nonzero" opacity="0.1"></path>
                <path d="M235.582283,202 C235.582283,202 232.097407,203.152 235.471188,205.456 C238.844968,207.76 235.582283,202 235.582283,202 Z" id="Path" fill="#000000" fill-rule="nonzero" opacity="0.1"></path>
                <path d="M233,53 C233,53 235.398078,54.1052368 235.942323,55.6565979 C236.486568,57.207959 233,53 233,53 Z" id="Path" fill="#000000" fill-rule="nonzero" opacity="0.1"></path>
                <path d="M224,72 C224,72 219.657746,76.8631704 221.421456,78.7338699 C223.185166,80.6045695 224,72 224,72 Z" id="Path" fill="#000000" fill-rule="nonzero" opacity="0.1"></path>
                <path d="M244,248.908746 C244,248.908746 238.718349,252.392272 236.079159,251.872048 C233.439969,251.351824 230.732101,252.761038 230.732101,252.761038 C228.912642,254.762389 226.618171,256.265781 224.063812,257.130262 C219.789436,258.585573 213.817737,258.01596 210.423091,256.873443 C208.814068,256.336756 208.686523,255.638734 209.458331,254.782669 C213.150581,255.523494 221.40173,256.995267 223.625583,255.925186 C226.516591,254.532434 230.666693,251.493404 230.666693,251.493404 C230.666693,251.493404 236.079159,250.732823 236.831345,250.732823 C237.367686,250.732823 241.543951,248.997645 243.901889,248 L244,248.908746 Z" id="Path" fill="#000000" fill-rule="nonzero" opacity="0.1"></path>
                <path d="M235,66 C235,66 235,80.4854277 233.4375,81.916128 C231.875,83.3468283 235,66 235,66 Z" id="Path" fill="#000000" fill-rule="nonzero" opacity="0.1"></path>
                <path d="M195.468217,65.8260315 C195.496574,65.8260315 195.519562,65.8490195 195.519562,65.8773766 C195.519562,65.8773785 195.519562,65.8773805 195.519562,65.8773824 L195.519306,68.1180842 C195.519303,68.1464455 195.496311,68.1694351 195.46795,68.1694351 C195.439593,68.1694351 195.416605,68.1464472 195.416605,68.11809 C195.416605,68.1180881 195.416605,68.1180861 195.416605,68.1180842 L195.41686,65.8773824 C195.416863,65.8490211 195.439855,65.8260315 195.468217,65.8260315 Z" id="Rectangle" fill="#3A3768" fill-rule="nonzero" transform="translate(195.468083, 66.997733) rotate(-26.730000) translate(-195.468083, -66.997733) "></path>
                <path d="M186.154282,68.4293093 Z" id="Rectangle" fill="#3A3768" fill-rule="nonzero" transform="translate(186.155096, 69.619309) rotate(-26.740000) translate(-186.155096, -69.619309) "></path>
                <path d="M186.534375,69.785669 Z" id="Rectangle" fill="#3A3768" fill-rule="nonzero" transform="translate(186.535264, 70.394047) rotate(-26.730000) translate(-186.535264, -70.394047) "></path>
                <path d="M187.349475,71.4059498 Z" id="Rectangle" fill="#3A3768" fill-rule="nonzero" transform="translate(187.350174, 72.018736) rotate(-26.730000) translate(-187.350174, -72.018736) "></path>
                <path d="M190.563433,63.1373384 L195.591715,63.1367656 C196.828833,63.1361145 197.831829,64.1388824 197.83197,65.3760002 C197.83197,65.3761703 197.83197,65.3763404 197.83146,65.3765104 L197.829768,80.2278714 C197.829117,81.4647899 196.826432,82.4674753 195.589513,82.4681265 L190.561232,82.4686993 C189.324114,82.4693505 188.321117,81.4665826 188.320976,80.2294647 C188.320976,80.2292946 188.320976,80.2291245 188.321487,80.2289545 L188.323178,65.3775936 C188.323829,64.1406751 189.326515,63.1379897 190.563433,63.1373384 Z" id="Rectangle" fill="#3A3768" fill-rule="nonzero" transform="translate(193.076473, 72.802732) rotate(-26.730000) translate(-193.076473, -72.802732) "></path>
                <path d="M191.783889,63.4610128 C191.701477,63.4990479 191.638484,63.5713401 191.610491,63.6600113 C191.582497,63.7486825 191.592115,63.8454538 191.636966,63.9263935 L191.668906,63.9891043 C191.713568,64.0704653 191.722725,64.1675882 191.6941,64.2563275 C191.665476,64.3450668 191.601759,64.4170877 191.51879,64.454485 L187.976679,66.2995049 C187.898353,66.3458536 187.804708,66.3557927 187.7189,66.3268645 C187.633093,66.2979363 187.563136,66.2328417 187.526329,66.1476786 L187.494389,66.0816672 C187.457583,65.9965041 187.387626,65.9314095 187.301818,65.9024812 C187.216011,65.873553 187.122365,65.8834922 187.04404,65.9298408 L186.354143,66.2863027 C186.201457,66.3648399 186.085505,66.5032122 186.032111,66.6706001 C185.978717,66.8379881 185.992316,67.0204899 186.06988,67.1774572 L193.604451,82.6340371 C193.680452,82.7918187 193.814355,82.9116415 193.976336,82.9668175 C194.138318,83.0219935 194.314925,83.0079404 194.466822,82.9277881 L200.647151,79.7097301 C200.798997,79.6311809 200.914329,79.4933876 200.967668,79.3267926 C201.021007,79.1601976 201.007961,78.9785123 200.931414,78.8218762 L193.406425,63.3619956 C193.329847,63.2056593 193.196261,63.0872002 193.035102,63.0327192 C192.873942,62.9782382 192.698434,62.9922061 192.547247,63.0715453 L191.783889,63.4610128 Z" id="Path" fill="#F54E5E" fill-rule="nonzero"></path>
                <path d="M188.193049,64.8897294 L189.459646,64.8895852 C189.476399,64.8895833 189.489981,64.9031627 189.489983,64.9199158 C189.489983,64.919917 189.489983,64.9199181 189.489983,64.9199193 C189.489983,64.9366748 189.476401,64.9502584 189.459646,64.9502603 L188.193049,64.9504046 C188.176296,64.9504065 188.162713,64.936827 188.162711,64.9200739 C188.162711,64.9200728 188.162711,64.9200716 188.162711,64.9200705 C188.162711,64.9033149 188.176293,64.8897314 188.193049,64.8897294 Z" id="Rectangle" fill="#E6E8EC" fill-rule="nonzero" transform="translate(188.826347, 64.919995) rotate(-26.730000) translate(-188.826347, -64.919995) "></path>
                <ellipse id="Oval" fill="#E6E8EC" fill-rule="nonzero" cx="190" cy="65" rx="1" ry="1"></ellipse>
                <g id="Group-2" transform="translate(98.000000, 38.000000)">
                    <path d="M8.59327588,39.8137809 L8.59327588,125.713554 C8.59327588,129.939164 12.0127857,133.363256 16.2313693,133.363256 L65.4043273,133.363256 C69.6229109,133.363256 73.042845,129.939164 73.042845,125.713554 L73.042845,39.8137809 C73.042845,35.5890207 69.6229109,32.1640793 65.4043273,32.1640793 L16.2313693,32.1640793 C12.0127857,32.1640793 8.59327588,35.5890207 8.59327588,39.8137809" id="Fill-45" fill="#494C49"></path>
                    <path d="M30.1381822,83.5481573 L21.4206398,83.5481573 C20.591965,83.5481573 19.9207759,84.2563319 19.9207759,85.130128 L19.9207759,90.2037683 C19.9207759,91.077125 20.591965,91.7852996 21.4206398,91.7852996 L30.1381822,91.7852996 C30.966857,91.7852996 31.6388794,91.077125 31.6388794,90.2037683 L31.6388794,85.130128 C31.6388794,84.2563319 30.966857,83.5481573 30.1381822,83.5481573" id="Fill-46" fill="#A0A39F"></path>
                    <path d="M30.1381822,94.5310137 L21.4206398,94.5310137 C20.591965,94.5310137 19.9207759,95.2391883 19.9207759,96.1129843 L19.9207759,101.186625 C19.9207759,102.059981 20.591965,102.768156 21.4206398,102.768156 L30.1381822,102.768156 C30.966857,102.768156 31.6388794,102.059981 31.6388794,101.186625 L31.6388794,96.1129843 C31.6388794,95.2391883 30.966857,94.5310137 30.1381822,94.5310137" id="Fill-47" fill="#A0A39F"></path>
                    <path d="M30.1381822,105.906115 L21.4206398,105.906115 C20.591965,105.906115 19.9207759,106.614327 19.9207759,107.48817 L19.9207759,112.562081 C19.9207759,113.435484 20.591965,114.143257 21.4206398,114.143257 L30.1381822,114.143257 C30.966857,114.143257 31.6388794,113.435484 31.6388794,112.562081 L31.6388794,107.48817 C31.6388794,106.614327 30.966857,105.906115 30.1381822,105.906115" id="Fill-48" fill="#A0A39F"></path>
                    <path d="M30.1381822,116.888971 L21.4206398,116.888971 C20.591965,116.888971 19.9207759,117.597184 19.9207759,118.471026 L19.9207759,123.544937 C19.9207759,124.41878 20.591965,125.126114 21.4206398,125.126114 L30.1381822,125.126114 C30.966857,125.126114 31.6388794,124.41878 31.6388794,123.544937 L31.6388794,118.471026 C31.6388794,117.597184 30.966857,116.888971 30.1381822,116.888971" id="Fill-49" fill="#E16054"></path>
                    <path d="M44.9814232,83.5481573 L36.2632609,83.5481573 C35.4345272,83.5481573 34.763707,84.2563319 34.763707,85.130128 L34.763707,90.2037683 C34.763707,91.077125 35.4345272,91.7852996 36.2632609,91.7852996 L44.9814232,91.7852996 C45.810157,91.7852996 46.4818105,91.077125 46.4818105,90.2037683 L46.4818105,85.130128 C46.4818105,84.2563319 45.810157,83.5481573 44.9814232,83.5481573" id="Fill-50" fill="#A0A39F"></path>
                    <path d="M44.9814232,94.5310137 L36.2632609,94.5310137 C35.4345272,94.5310137 34.763707,95.2391883 34.763707,96.1129843 L34.763707,101.186625 C34.763707,102.059981 35.4345272,102.768156 36.2632609,102.768156 L44.9814232,102.768156 C45.810157,102.768156 46.4818105,102.059981 46.4818105,101.186625 L46.4818105,96.1129843 C46.4818105,95.2391883 45.810157,94.5310137 44.9814232,94.5310137" id="Fill-51" fill="#A0A39F"></path>
                    <path d="M44.9814232,105.906115 L36.2632609,105.906115 C35.4345272,105.906115 34.763707,106.614327 34.763707,107.48817 L34.763707,112.562081 C34.763707,113.435484 35.4345272,114.143257 36.2632609,114.143257 L44.9814232,114.143257 C45.810157,114.143257 46.4818105,113.435484 46.4818105,112.562081 L46.4818105,107.48817 C46.4818105,106.614327 45.810157,105.906115 44.9814232,105.906115" id="Fill-52" fill="#A0A39F"></path>
                    <path d="M44.9814232,116.888971 L36.2632609,116.888971 C35.4345272,116.888971 34.763707,117.597184 34.763707,118.471026 L34.763707,123.544937 C34.763707,124.41878 35.4345272,125.126114 36.2632609,125.126114 L44.9814232,125.126114 C45.810157,125.126114 46.4818105,124.41878 46.4818105,123.544937 L46.4818105,118.471026 C46.4818105,117.597184 45.810157,116.888971 44.9814232,116.888971" id="Fill-53" fill="#F9CF6D"></path>
                    <path d="M60.2146478,83.5481573 L51.4971054,83.5481573 C50.6688472,83.5481573 49.9972415,84.2563319 49.9972415,85.130128 L49.9972415,90.2037683 C49.9972415,91.077125 50.6688472,91.7852996 51.4971054,91.7852996 L60.2146478,91.7852996 C61.0433226,91.7852996 61.715345,91.077125 61.715345,90.2037683 L61.715345,85.130128 C61.715345,84.2563319 61.0433226,83.5481573 60.2146478,83.5481573" id="Fill-54" fill="#A0A39F"></path>
                    <path d="M60.2146478,94.5310137 L51.4971054,94.5310137 C50.6688472,94.5310137 49.9972415,95.2391883 49.9972415,96.1129843 L49.9972415,101.186625 C49.9972415,102.059981 50.6688472,102.768156 51.4971054,102.768156 L60.2146478,102.768156 C61.0433226,102.768156 61.715345,102.059981 61.715345,101.186625 L61.715345,96.1129843 C61.715345,95.2391883 61.0433226,94.5310137 60.2146478,94.5310137" id="Fill-55" fill="#A0A39F"></path>
                    <path d="M60.2146478,105.906115 L51.4971054,105.906115 C50.6688472,105.906115 49.9972415,106.614327 49.9972415,107.48817 L49.9972415,112.562081 C49.9972415,113.435484 50.6688472,114.143257 51.4971054,114.143257 L60.2146478,114.143257 C61.0433226,114.143257 61.715345,113.435484 61.715345,112.562081 L61.715345,107.48817 C61.715345,106.614327 61.0433226,105.906115 60.2146478,105.906115" id="Fill-56" fill="#A0A39F"></path>
                    <path d="M60.2146478,116.888971 L51.4971054,116.888971 C50.6688472,116.888971 49.9972415,117.597184 49.9972415,118.471026 L49.9972415,123.544937 C49.9972415,124.41878 50.6688472,125.126114 51.4971054,125.126114 L60.2146478,125.126114 C61.0433226,125.126114 61.715345,124.41878 61.715345,123.544937 L61.715345,118.471026 C61.715345,117.597184 61.0433226,116.888971 60.2146478,116.888971" id="Fill-57" fill="#6AB86A"></path>
                    <polygon id="Fill-58" fill="#2F3231" points="20.3113794 37.2632627 61.3247415 37.2632627 61.3247415 34.5175486 20.3113794 34.5175486"></polygon>
                    <path d="M16.0147414,43.816367 L16.0147414,71.8962928 C16.0147414,73.9988182 17.7350891,75.7032599 19.856709,75.7032599 L60.9977781,75.7032599 C63.1198249,75.7032599 64.8401726,73.9988182 64.8401726,71.8962928 L64.8401726,43.816367 C64.8401726,41.7134184 63.1198249,40.0089767 60.9977781,40.0089767 L19.856709,40.0089767 C17.7350891,40.0089767 16.0147414,41.7134184 16.0147414,43.816367" id="Fill-59" fill="#F54E5E"></path>
                    <polyline id="Fill-60" fill="#FFFFFE" points="35.3977866 57.4889007 36.9167059 59.0145482 48.6314314 47.2509395 47.1121683 45.725292 35.3977866 57.4889007"></polyline>
                    <polygon id="Fill-60" fill="#FFFFFE" transform="translate(42.014609, 52.369920) rotate(90.000000) translate(-42.014609, -52.369920) " points="36.8952832 58.9867425 48.6592371 47.2723608 47.1335896 45.7530977 35.3699809 57.4674794"></polygon>
                    <path d="M41.0133622,28.2416306 L41.0133622,0 L15.4800009,0 C11.2451725,0 7.81206898,3.46823268 7.81206898,7.74596352 L7.81206898,28.2416306 L41.0133622,28.2416306" id="Fill-63" fill="#CBCCC7"></path>
                    <path d="M8.98387933,28.2416306 L0,28.2416306 C4.2272076,28.2416306 7.6549031,24.7295365 7.6549031,20.3967332 L8.98387933,20.3967332 L8.98387933,28.2416306" id="Fill-64" fill="#CBCCC7"></path>
                    <path d="M22.6550001,0 L22.6550001,35.6942832 L58.1999139,35.6942832 L58.1999139,7.61435737 C58.1999139,3.40930641 54.7846764,0 50.57231,0 L22.6550001,0" id="Fill-65" fill="#FFFFFE"></path>
                    <path d="M24.2174139,0 L15.2335345,0 C19.4609422,0 22.8883747,3.51253004 22.8883747,7.8448974 L24.2174139,7.8448974 L24.2174139,0" id="Fill-66" fill="#FFFFFE"></path>
                    <polygon id="Fill-67" fill="#CBCCC7" points="26.5610345 10.5906115 54.2938794 10.5906115 54.2938794 9.41387688 26.5610345 9.41387688"></polygon>
                    <polygon id="Fill-68" fill="#CBCCC7" points="26.5610345 15.6897948 54.2938794 15.6897948 54.2938794 14.5130602 26.5610345 14.5130602"></polygon>
                    <polygon id="Fill-69" fill="#CBCCC7" points="26.5610345 21.181223 54.2938794 21.181223 54.2938794 20.0044884 26.5610345 20.0044884"></polygon>
                    <polygon id="Fill-70" fill="#CBCCC7" points="26.5610345 26.2804063 54.2938794 26.2804063 54.2938794 25.1036717 26.5610345 25.1036717"></polygon>
                    <path d="M62.1059484,85.0030754 L62.1059484,112.296941 C62.1059484,114.399594 63.8085996,116.104482 65.9084938,116.104482 L113.768248,116.104482 C115.868142,116.104482 117.571638,114.399594 117.571638,112.296941 L117.571638,85.0030754 C117.571638,82.8995761 115.868142,81.1946881 113.768248,81.1946881 L65.9084938,81.1946881 C63.8085996,81.1946881 62.1059484,82.8995761 62.1059484,85.0030754" id="Fill-76" fill="#2F3231"></path>
                    <polygon id="Fill-77" fill="#A0A39F" points="90.6200002 110.220808 99.6038796 110.220808 99.6038796 107.08285 90.6200002 107.08285"></polygon>
                    <polygon id="Fill-78" fill="#A0A39F" points="101.9475 110.220808 110.93138 110.220808 110.93138 107.08285 101.9475 107.08285"></polygon>
                    <polygon id="Fill-79" fill="#A0A39F" points="67.9650002 110.220808 76.9488795 110.220808 76.9488795 107.08285 67.9650002 107.08285"></polygon>
                    <polygon id="Fill-80" fill="#A0A39F" points="79.2925002 110.220808 88.2763795 110.220808 88.2763795 107.08285 79.2925002 107.08285"></polygon>
                    <path d="M107.936614,94.0613843 L107.936614,94.0613843 C107.936614,93.7559798 108.18335,93.5086274 108.487476,93.5086274 L110.93138,93.5086274 L110.93138,91.2387064 L108.487476,91.2387064 C108.18335,91.2387064 107.936614,90.991354 107.936614,90.6855288 L107.936614,90.6851082 C107.936614,90.3797037 108.18335,90.1319306 108.487476,90.1319306 L110.93138,90.1319306 L110.93138,89.1908977 C110.93138,88.4576745 110.339464,87.8628509 109.60889,87.8628509 L103.26999,87.8628509 C102.539835,87.8628509 101.9475,88.4576745 101.9475,89.1908977 L101.9475,90.1319306 L104.390985,90.1319306 C104.695111,90.1319306 104.942266,90.3797037 104.942266,90.6851082 L104.942266,90.6855288 C104.942266,90.991354 104.695111,91.2387064 104.390985,91.2387064 L101.9475,91.2387064 L101.9475,93.5086274 L104.390985,93.5086274 C104.695111,93.5086274 104.942266,93.7559798 104.942266,94.0613843 C104.942266,94.3672095 104.695111,94.6154032 104.390985,94.6154032 L101.9475,94.6154032 L101.9475,95.5564361 C101.9475,96.2900799 102.539835,96.8844829 103.26999,96.8844829 L109.60889,96.8844829 C110.339464,96.8844829 110.93138,96.2900799 110.93138,95.5564361 L110.93138,94.6154032 L108.487476,94.6154032 C108.18335,94.6154032 107.936614,94.3672095 107.936614,94.0613843" id="Fill-81" fill="#F9CF6D"></path>
                    <polygon id="Fill-82" fill="#FFFFFE" points="67.9650002 91.0008099 88.2763795 91.0008099 88.2763795 87.8628509 67.9650002 87.8628509"></polygon>
                </g>
                <path d="M276.595194,136.954471 C276.595194,136.954471 284.268603,136.197582 284.956013,136.764429 C285.643423,137.331276 289.998082,140.231043 292.578266,138.402715 C295.15845,136.574388 293.438327,130.211285 293.438327,129.958989 C293.438327,129.706693 293.195336,120.699397 293.195336,120.699397 L288.581699,114.336294 L282.804261,103.195949 L271,102 L271.319725,119.693489 L271.258978,128.766317 L276.595194,136.954471 Z" id="Path" fill="#65617D" fill-rule="nonzero"></path>
                <path d="M276.595194,136.954471 C276.595194,136.954471 284.268603,136.197582 284.956013,136.764429 C285.643423,137.331276 289.998082,140.231043 292.578266,138.402715 C295.15845,136.574388 293.438327,130.211285 293.438327,129.958989 C293.438327,129.706693 293.195336,120.699397 293.195336,120.699397 L288.581699,114.336294 L282.804261,103.195949 L271,102 L271.319725,119.693489 L271.258978,128.766317 L276.595194,136.954471 Z" id="Path" fill="#000000" fill-rule="nonzero" opacity="0.1"></path>
                <path d="M270.282879,44.2352268 L272.119804,36 C272.119804,36 272.944276,38.683425 273.768749,39.3064208 L276.496104,41.3636051 C276.496104,41.3636051 279.223459,42.6128417 280.173251,42.6128417 C281.123044,42.6128417 286.261156,43.9107498 286.894351,44.6083753 C287.527546,45.3060009 290.066921,44.796572 290.066921,44.796572 C290.066921,44.796572 292.157784,45.4812185 293.998006,45.9192625 C295.838229,46.3573065 296.725361,49.3522294 296.342806,50.5365705 C296.031415,51.7352166 296.367695,53.0072033 297.233236,53.904642 C297.991751,54.6541839 298.374306,57.0877615 298.374306,57.0877615 C299.30669,57.3865311 300.080944,58.0363208 300.527828,58.8950985 C301.164321,60.2676363 300.973044,63.2625592 300.973044,63.2625592 L291.524589,76.3649413 C291.524589,76.3649413 291.649908,81.4202933 291.270651,82.5300047 C290.891394,83.6397161 292.589807,102.744923 292.589807,102.744923 L294.568541,135.562529 C294.568541,135.562529 291.969804,137.746259 291.399269,137.996107 C290.828734,138.245954 290.254901,126.389563 290.254901,125.954764 C290.254901,125.519965 275.608972,104.367308 275.608972,104.367308 C275.608972,104.367308 273.630238,101.245839 273.630238,100.561193 C273.630238,99.8765462 271.790015,93.5719577 271.790015,93.5719577 L269,81.4073142 L270.282879,44.2352268 Z" id="Path" fill="#000000" fill-rule="nonzero" opacity="0.1"></path>
                <path d="M301.997165,62.5680425 C301.997165,62.9962977 301.974072,63.2818011 301.974072,63.2818011 L292.528986,76.3727831 L292.528986,76.3727831 C292.528986,76.3727831 292.660947,81.4242475 292.278261,82.5370621 C292.057227,83.1859336 292.542182,89.9017534 292.990849,95.4139165 C293.32075,99.394743 293.611064,102.749409 293.611064,102.749409 L294.445715,116.667702 L295.573979,135.562839 C295.573979,135.562839 292.974354,137.746291 292.403624,137.996107 C291.832894,138.245923 291.262164,126.391041 291.262164,125.953052 C291.262164,125.515064 276.607931,104.371587 276.607931,104.371587 C276.607931,104.371587 274.628521,101.250515 274.628521,100.565956 C274.628521,99.8813966 272.790968,93.5776103 272.790968,93.5776103 L270,81.4112701 L271.266822,44.234179 L272.345601,36 C272.345601,36 273.932428,38.6830835 274.757182,39.3027558 C275.581937,39.9224281 277.48217,41.3629227 277.48217,41.3629227 C277.48217,41.3629227 280.210457,42.6120003 281.163873,42.6120003 C282.117289,42.6120003 287.253858,43.9097433 287.88727,44.6072801 C288.520681,45.3048169 291.060924,44.7954528 291.060924,44.7954528 C291.060924,44.7954528 293.152501,45.4800122 294.990053,45.9180005 C296.827605,46.3559887 297.71834,49.3505306 297.338953,50.5314767 C297.025382,51.7304225 297.360591,53.0037009 298.226389,53.902364 C298.988461,54.6518105 299.367848,57.0818342 299.367848,57.0818342 C300.302246,57.3826236 301.077809,58.0345451 301.525405,58.89543 C301.970773,59.8654928 302.01366,61.5947353 301.997165,62.5680425 Z" id="Path" fill="#65617D" fill-rule="nonzero"></path>
                <path d="M292,113.99736 L290.453753,115.277403 L285.288835,119.552877 C285.288835,119.552877 271.32096,127.051202 267.473096,119.929743 C264.08039,113.656232 279.91732,109.17608 283.729675,108.198179 C284.249395,108.064977 284.54315,108 284.54315,108 L292,113.99736 Z" id="Path" fill="#FBBEBE" fill-rule="nonzero"></path>
                <path d="M295,55 C295,55 291.127517,55.4125561 291,59 L295,55 Z" id="Path" fill="#000000" fill-rule="nonzero" opacity="0.1"></path>
                <path d="M293,114.76875 L291.363326,116 C289.921412,113.8125 284,109.415625 284,109.415625 L284.256264,109.190625 C284.806378,109.0625 285.117312,109 285.117312,109 L293,114.76875 Z" id="Path" fill="#000000" fill-rule="nonzero" opacity="0.1"></path>
                <path d="M293,112.673723 C293,112.673723 292.480537,114.062941 291.942953,115.270392 C291.405369,116.477844 290.822483,117.561953 290.792282,116.67584 C290.734899,114.926334 284,109.057861 284,109.057861 L284.90604,108.103585 L285.966107,107 L293,112.673723 Z" id="Path" fill="#E7EFFD" fill-rule="nonzero"></path>
                <path d="M294.154617,103.247901 L295,117 C292.99514,114.021981 287.525213,106.389406 284,106.636239 L292.547388,97.2085178 C292.902509,96.8279122 293.229643,96.424101 293.526428,96 C293.853888,99.9332926 294.154617,103.247901 294.154617,103.247901 Z" id="Path" fill="#000000" fill-rule="nonzero" opacity="0.1"></path>
                <path d="M294,112.174254 C294,112.174254 293.421957,113.686028 292.823749,115 C290.572069,111.753925 287.473488,107.917975 285,107.200942 L286.179612,106 L294,112.174254 Z" id="Path" fill="#000000" fill-rule="nonzero" opacity="0.1"></path>
                <path d="M300.379949,61 L302.611638,62.7433769 C302.611638,62.7433769 306.330044,62.8081865 306.704142,65.9222854 C307.078241,69.0363843 310.487049,70.458954 310.487049,70.458954 C310.487049,70.458954 313.028336,73.0124503 313.028336,74.1952246 C313.028336,75.3779989 314.963327,77.5005117 314.963327,77.6852189 C314.963327,77.8699261 316.824142,81.6742467 316.575819,82.3579875 C316.327495,83.0417283 318.559184,86.0359295 317.865812,87.1571347 C317.304612,88.1627185 316.80698,89.202809 316.37587,90.2712337 C316.37587,90.2712337 313.473384,95.8805003 311.973766,96.9401364 C310.474149,97.9997726 303.666208,106.907845 303.666208,106.907845 C303.666208,106.907845 296.348719,115.381694 296.348719,118 C296.348719,118 289.215054,106.036157 285,106.334281 L293.246284,96.8007959 C293.246284,96.8007959 294.674952,95.2453667 294.736227,94.3088687 C294.797501,93.3723707 298.702957,89.0754974 300.563773,88.8875497 C300.563773,88.8875497 300.886271,86.3340534 300.067125,86.2724844 C299.247979,86.2109153 298.580408,84.2147811 298.580408,84.2147811 C298.580408,84.2147811 293.123735,77.733826 293.06246,73.62166 C293.001185,69.509494 300.379949,61 300.379949,61 Z" id="Path" fill="#65617D" fill-rule="nonzero"></path>
                <path d="M303,68 C303,68 298.094981,71.6657478 299.148225,72.8466598 C300.201468,74.0275718 303,68 303,68 Z" id="Path" fill="#000000" fill-rule="nonzero" opacity="0.1"></path>
                <path d="M303,84 C303,84 312.978833,79.5 314,84 L303,84 Z" id="Path" fill="#000000" fill-rule="nonzero" opacity="0.1"></path>
                <path d="M291,72 L292.900183,77 C292.900183,77 293.657527,72.0925335 291,72 Z" id="Path" fill="#000000" fill-rule="nonzero" opacity="0.1"></path>
                <g id="Group" opacity="0.1" transform="translate(243.000000, 13.000000)" fill="#000000" fill-rule="nonzero">
                    <path d="M4.09482759,3.59684211 C4.55672414,2.45684211 3.34793103,1.34210526 3.19068966,0.123157895 C3.02983951,0.46767085 2.96005867,0.845239355 2.98758621,1.22210526 C3.06948276,2.14105263 3.7737931,3.00315789 3.97034483,3.85263158 C4.02045562,3.7715178 4.0621514,3.68584053 4.09482759,3.59684211 Z" id="Path"></path>
                    <path d="M25.0013793,16.6736842 C24.5493103,14.7568421 24.6737931,12.7294737 24.2217241,10.8157895 C23.7696552,8.90210526 22.3446552,6.89368421 20.4151724,6.86210526 C19.5831034,6.86210526 18.6101724,7.15578947 18.0074138,6.54631579 C17.647069,6.18631579 17.5717241,5.59894737 17.2998276,5.17263158 C15.9206897,3.01894737 11.7308621,4.11157895 10.0044828,5.21368421 C7.42637931,6.86526316 3.88844828,10.3168421 0.58637931,9.53368421 C0.425862069,9.90315789 0.278448276,10.2757895 0.157241379,10.6578947 C3.52810345,11.6715789 7.17741379,8.09052632 9.81448276,6.39789474 C11.5343103,5.29578947 15.7306897,4.18736842 17.1098276,6.35684211 C17.385,6.79578947 17.457069,7.37052632 17.8206897,7.73052632 C18.4201724,8.33052632 19.3931034,8.02421053 20.2251724,8.04631579 C22.1546552,8.07789474 23.5665517,10.0515789 24.035,12 C24.5034483,13.9484211 24.3625862,16.0136842 24.8310345,17.9589474 C24.7985376,17.5238678 24.8564505,17.0869115 25.0013793,16.6736842 L25.0013793,16.6736842 Z" id="Path"></path>
                    <path d="M34.4718966,14.3936842 C34.1443103,15.36 33.2303448,16.2442105 32.2606897,16.0452632 C31.2910345,15.8463158 30.8160345,14.7821053 30.092069,14.1189474 C29.1772314,13.2802358 27.8099642,13.0961178 26.6917241,13.6610526 C25.62202,14.2771287 24.9825878,15.4035797 25.0210345,16.6042105 C25.2727723,15.8610317 25.8015347,15.2342885 26.505,14.8452632 C27.6224138,14.2818557 28.9878213,14.4659005 29.902069,15.3031579 C30.6293103,15.9694737 31.1239655,17.0368421 32.0739655,17.2294737 C33.0239655,17.4221053 33.9412069,16.5442105 34.2818966,15.5778947 C34.4622514,15.0105504 34.5786704,14.4261251 34.6291379,13.8347368 C34.5882816,14.0238966 34.5357749,14.2105429 34.4718966,14.3936842 L34.4718966,14.3936842 Z" id="Path"></path>
                    <path d="M37.4332759,6.12315789 C36.7256897,7.92315789 35.4415517,9.47684211 35.0156897,11.3715789 C34.9305172,11.7536842 34.8813793,12.1452632 34.8322414,12.5368421 C35.2646552,10.6421053 36.5389655,9.10105263 37.2465517,7.30736842 C37.5610934,6.49528561 37.7573291,5.64508768 37.8296552,4.78105263 C37.7328595,5.23742442 37.6003543,5.68607543 37.4332759,6.12315789 L37.4332759,6.12315789 Z" id="Path"></path>
                </g>
                <path d="M31.6028165,8.04117964 C31.6028165,8.04117964 63.4458424,6.13253864 59.6924695,28.3033906 C59.6924695,28.3033906 60.436588,32.2118705 56.8635081,34 C56.8635081,34 56.8077811,32.3714667 53.5854531,32.9153968 C52.4419517,33.1039424 51.2801423,33.1586001 50.123827,33.0782502 C48.5617089,32.9747086 47.0765897,32.3661623 45.8951361,31.3454908 L45.8951361,31.3454908 C45.8951361,31.3454908 36.9591583,27.6812909 33.4745859,13.1352317 C33.4745859,13.1352317 30.9013127,9.9628489 31.0029324,9.14858226 L36.3756645,11.4285288 C36.3756645,11.4285288 34.5399537,15.2816386 35.985576,18.483335 C35.985576,18.483335 36.1593129,11.5685827 37.1919002,11.731436 C37.4016957,11.7672638 39.984803,13.0668333 39.984803,13.0668333 C39.984803,13.0668333 36.824758,19.7763904 39.207904,24.652219 C39.207904,24.652219 38.3031608,16.3857841 40.9714976,13.5521362 L44.754373,15.7473991 C44.754373,15.7473991 41.0600051,22.6751796 43.5644391,28.3327042 C43.5644391,28.3327042 42.9088281,19.659136 45.531272,16.281558 L48.9601175,18.9360672 C48.9601175,18.9360672 45.4919354,25.775907 47.6062808,30.4563116 C47.6062808,30.4563116 47.8816374,20.3594053 49.700958,19.5972517 C49.700958,19.5972517 52.7003782,22.2257044 53.1593059,23.3037935 C53.1593059,23.3037935 50.7827161,28.2610487 52.2578408,30.8797303 C52.2578408,30.8797303 53.1593059,24.1538878 53.8968683,24.1213172 C53.8968683,24.1213172 56.8864544,28.5802413 57.1978697,31.6321126 C57.1978697,31.6321126 57.0667475,27.0885048 54.6213185,23.6946415 C54.6213185,23.6946415 57.5092849,24.1864585 59.2105954,26.0495006 C59.2105954,26.0495006 58.7451116,22.8966601 53.8968683,22.6230666 C53.8968683,22.6230666 51.4284929,19.2422315 50.7663258,19.0402934 C50.7663258,19.0402934 55.5883447,18.6396742 58.5123697,19.9262155 C58.5123697,19.9262155 55.9390966,16.9525137 49.884529,18.2976822 L46.5015763,15.5552322 C46.5015763,15.5552322 52.8478907,14.6888525 55.5391738,15.643173 C55.5391738,15.643173 52.4414119,13.0147203 45.586999,14.9298754 L41.8959091,12.7443837 C41.8959091,12.7443837 47.3079778,11.584868 50.5335839,12.0050296 C50.5335839,12.0050296 47.1309629,10.1810724 40.817429,12.1581118 L38.194985,10.9823107 C38.194985,10.9823107 42.1614315,10.2071289 43.321863,10.0866174 C44.4822944,9.96610597 44.5445775,9.64365638 44.5445775,9.64365638 C42.0330681,9.22883602 39.4549814,9.51408238 37.0968366,10.4676942 C37.0968366,10.4676942 31.5077529,8.38968576 31.6028165,8.04117964 Z" id="Path" fill="#FF6347" fill-rule="nonzero" opacity="0.1"></path>
                <path d="M49.2712146,67.0190465 C49.2712146,67.0190465 63.5435354,66.1373601 61.8623347,76.3715764 C61.8623347,76.3715764 62.1875186,78.1782017 60.5941176,79 C60.5941176,79 60.5681029,78.241417 59.1307901,78.4976051 C58.6186485,78.5869519 58.0978304,78.6126461 57.5796629,78.5741288 C56.8796135,78.5262119 56.2139736,78.2458485 55.6838409,77.7756204 L55.6838409,77.7756204 C55.6838409,77.7756204 51.6710717,76.07879 50.110189,69.3679921 C50.110189,69.3679921 48.9557862,67.9073871 49.001312,67.5314227 L51.4109246,68.5827921 C51.4109246,68.5827921 50.5882094,70.3594734 51.2353253,71.836714 C51.2353253,71.836714 51.3133694,68.6460074 51.7751305,68.7225311 C51.8694339,68.7391667 53.0270885,69.338048 53.0270885,69.338048 C53.0270885,69.338048 51.6125386,72.4355953 52.6791418,74.6847274 C52.6791418,74.6847274 52.2759137,70.8718496 53.4693386,69.560965 L55.1667985,70.5757361 C55.1667985,70.5757361 53.4986051,73.7730969 54.6237414,76.4015205 C54.6237414,76.4015205 54.3343277,72.4089784 55.5114934,70.8385784 L57.0496132,72.062958 C57.0496132,72.062958 55.4952342,75.2170663 56.4415193,77.3863476 C56.4415193,77.3863476 56.5650892,72.7283817 57.3813008,72.3723801 C57.3813008,72.3723801 58.7243102,73.5834512 58.9324279,74.0825189 C58.9324279,74.0825189 57.8658248,76.3715764 58.525948,77.5793204 C58.525948,77.5793204 58.9324279,74.4751189 59.2641155,74.4618104 C59.2641155,74.4618104 60.6038731,76.5179696 60.7437022,77.9286679 C60.7437022,77.9286679 60.6851691,75.8292561 59.5892994,74.2688376 C60.3610871,74.4198669 61.0730535,74.7979663 61.6379579,75.3568053 C61.6379579,75.3568053 61.4298402,73.9028545 59.2576118,73.776424 C59.2576118,73.776424 58.1519866,72.2160055 57.8560692,72.1128648 C57.8560692,72.1128648 60.0152903,71.9265462 61.3257813,72.5221004 C61.3257813,72.5221004 60.1746304,71.1513276 57.4593449,71.7734987 L55.9407361,70.5058666 C55.9407361,70.5058666 58.7860952,70.1099395 59.9925274,70.5491191 C59.9925274,70.5491191 58.6039922,69.3347209 55.5342563,70.2164073 L53.8823221,69.2182718 C53.8823221,69.2182718 56.3081939,68.6859328 57.7520104,68.8855599 C57.7520104,68.8855599 56.226898,68.0437989 53.3977981,68.9554294 L52.2173806,68.4131091 C52.2173806,68.4131091 53.9928847,68.0537803 54.5164307,67.9972193 C55.0399768,67.9406583 55.0627396,67.7942651 55.0627396,67.7942651 C53.9377437,67.6020026 52.782661,67.7333162 51.726353,68.1735566 C51.726353,68.1735566 49.2191852,67.1787482 49.2712146,67.0190465 Z" id="Path" fill="#FF6347" fill-rule="nonzero" opacity="0.1"></path>
                <path d="M0.271214613,14.0188581 C0.271214613,14.0188581 14.5435354,13.1407289 12.8623347,23.3689386 C12.8623347,23.3689386 13.1875186,25.178417 11.5941176,26 C11.5941176,26 11.5681029,25.2416157 10.1307901,25.4977367 C9.61847505,25.5854201 9.09784875,25.611098 8.57966294,25.5742404 C7.87928154,25.5251608 7.2136703,25.2437151 6.68384087,24.7726148 L6.68384087,24.7726148 C6.68384087,24.7726148 2.6710717,23.0795551 1.11018904,16.3705148 C1.11018904,16.3705148 -0.0442137576,14.9069661 0.00131198661,14.5311001 L2.41092459,15.5821942 C2.41092459,15.5821942 1.58820936,17.3617364 2.23532529,18.8385901 C2.23532529,18.8385901 2.31336943,15.6487192 2.77513055,15.7252228 C2.86943387,15.7252228 4.02708851,16.3405785 4.02708851,16.3405785 C4.02708851,16.3405785 2.6125386,19.4373146 3.67914175,21.6858576 C3.67914175,21.6858576 3.27591373,17.8706522 4.4693386,16.5634371 L6.16679849,17.5613112 C6.16679849,17.5613112 4.5116125,20.7611609 5.63349692,23.3689386 C5.63349692,23.3689386 5.34408326,19.3774421 6.52124893,17.8107797 L8.05936872,19.0348387 C8.05936872,19.0348387 6.50498973,22.1881209 7.45127485,24.356834 C7.45127485,24.356834 7.57484472,19.7000881 8.39105628,19.3475059 C8.39105628,19.3475059 9.73406574,20.5582598 9.94218342,21.0571969 C9.94218342,21.0571969 8.87558027,23.3456548 9.53570356,24.5530825 C9.53570356,24.5530825 9.94218342,21.449694 10.273871,21.4330628 C10.273871,21.4330628 11.6136286,23.4920097 11.7534577,24.8990122 C11.7534577,24.8990122 11.6949246,22.8034766 10.5990549,21.2401405 C11.3714084,21.3894587 12.0838197,21.7676952 12.6477134,22.3278232 C12.6477134,22.3278232 12.4395957,20.870927 10.2673673,20.7445296 C10.2673673,20.7445296 9.16174209,19.1845198 8.86582476,19.0814061 C8.86582476,19.0814061 11.0250458,18.8951363 12.3355368,19.4905345 C12.3355368,19.4905345 11.1843859,18.1167945 8.46910041,18.7421289 L6.96349902,17.4881338 C6.96349902,17.4881338 9.80885803,17.0889841 11.0152903,17.531375 C11.0152903,17.531375 9.62675505,16.3172948 6.55701916,17.1987503 L4.90508501,16.2008762 C4.90508501,16.2008762 7.33095681,15.6653504 8.77477327,15.8682515 C8.77477327,15.8682515 7.24966084,15.026711 4.42056102,15.9381026 L3.2401435,15.3959244 C3.2401435,15.3959244 5.01889937,15.0400159 5.53919359,14.9834697 C6.05948781,14.9269235 6.08550252,14.7805687 6.08550252,14.7805687 C4.95809782,14.5795191 3.79822197,14.70392 2.73610848,15.1398034 C2.73610848,15.1398034 0.228940708,14.1818442 0.271214613,14.0188581 Z" id="Path" fill="#FF6347" fill-rule="nonzero" opacity="0.1"></path>
                <path d="M275.981127,254.04512 C275.792373,254.787421 275.563882,256.120334 275.461227,256.746448 C275.424801,256.959456 275.408244,257.088551 275.408244,257.088551 C275.408244,257.088551 274.13333,259.818925 267.066665,260.812962 C260,261.806999 260,258.515059 260,258.515059 C260,258.515059 260.026492,258.160046 260.072852,257.627526 C260.195376,256.175199 260.450359,253.396414 260.635801,252.805802 C260.890784,251.998954 260.447048,248.461731 260.447048,248.461731 L260.370884,244.76314 L260.317901,242.181226 L272.033861,241 C272.10838,241.854214 272.234434,242.703412 272.411368,243.543185 C272.484627,244.004625 272.659749,244.445077 272.924645,244.834142 C273.560446,245.521577 273.944576,248.558553 273.944576,248.558553 C273.944576,248.558553 276.229487,253.051083 275.981127,254.04512 Z" id="Path" fill="#65617D" fill-rule="nonzero"></path>
                <path d="M272,242.716981 C269.042716,242.19554 262.595838,243.457976 260.052574,244 L260,241.255575 L271.625411,240 C271.69884,240.912581 271.823922,241.819826 272,242.716981 L272,242.716981 Z" id="Path" fill="#000000" fill-rule="nonzero" opacity="0.1"></path>
                <path d="M275,39.1670801 L265.800585,49 C265.800585,49 254,44.2695858 255.240806,42.6517971 C255.722265,42.024095 255.644715,40.0633351 255.366826,37.8696136 C254.930605,34.4269592 254,30.4569057 254,30.4569057 C254,30.4569057 274.625173,27.0983763 272.883521,30.5798576 C272.237267,31.8546751 272.360055,33.3398052 272.75427,34.71169 C273.258093,36.3083327 274.016459,37.8128839 275,39.1670801 L275,39.1670801 Z" id="Path" fill="#FBBEBE" fill-rule="nonzero"></path>
                <path d="M272.895528,30.5167257 C272.248864,31.7406009 271.957865,31.8586396 272.355564,33.1757033 C269.655741,35.9713573 266.212254,39 261.957203,39 C259.670475,39.0034468 257.414349,38.4950775 255.367695,37.5151795 C254.931196,34.2100953 254,30.398687 254,30.398687 C254,30.398687 274.638288,27.1743661 272.895528,30.5167257 Z" id="Path" fill="#000000" fill-rule="nonzero" opacity="0.1"></path>
                <path d="M275.998354,23.9424067 C276.078345,29.2952997 273.237299,34.2757882 268.56391,36.9753378 C263.890522,39.6748874 258.109478,39.6748874 253.43609,36.9753378 C248.762701,34.2757882 245.921655,29.2952997 246.001646,23.9424067 C246.001646,23.8710845 246.001646,23.7997622 246.001646,23.72844 C246.061375,15.5352794 252.824054,8.9413087 261.106511,9.00039399 C269.388968,9.05947929 276.054806,15.7492462 275.995077,23.9424067 L275.998354,23.9424067 Z" id="Path" fill="#FBBEBE" fill-rule="nonzero"></path>
                <path d="M257.96435,46.0092897 C257.96435,46.0092897 261.287258,49.9393534 261.2253,50.7506795 C261.163342,51.5620056 261.039425,53.4962071 261.039425,53.4962071 L258.528494,58.5523914 C258.528494,58.5523914 257.149113,64.8547726 257.149113,66.1658756 C257.149113,67.4769786 254.954494,78.822563 254.954494,78.822563 L252.322908,96.2952821 L249,119.197396 L252.384866,125 L256.399094,121.631374 L261.727486,80.8184252 L262.855774,72.7700702 C262.855774,72.7700702 264.046021,58.292767 264.046021,56.7966817 C264.046021,55.3005963 263.357961,51.3672873 263.357961,51.3672873 C263.357961,51.3672873 264.173198,47.622206 267.558063,46.7492191 C270.942929,45.8762322 267.30697,46.5609914 267.30697,46.5609914 L265.350401,45 L263.657968,45.6880045 C263.657968,45.6880045 258.968723,44.2633159 257.96435,46.0092897 Z" id="Path" fill="#000000" fill-rule="nonzero" opacity="0.1"></path>
                <path d="M256.955687,45.0060444 C256.955687,45.0060444 260.280221,48.9361081 260.218232,49.7474342 C260.156244,50.5587603 260.029005,52.4929617 260.029005,52.4929617 L257.520107,57.5491461 C257.520107,57.5491461 256.156363,63.8450367 256.156363,65.1528944 C256.156363,66.4607521 253.96067,77.8095818 253.96067,77.8095818 L251.308221,95.3082634 L248,118.19415 L251.389785,124 L255.386403,120.621638 L260.723927,79.8184252 L261.852767,71.7700702 C261.852767,71.7700702 263.043596,57.292767 263.043596,55.7934364 C263.043596,54.2941057 262.355199,50.364042 262.355199,50.364042 C262.355199,50.364042 263.170836,46.622206 266.557358,45.7459738 C269.94388,44.8697416 266.306142,45.5609914 266.306142,45.5609914 L264.348615,44 L262.681454,44.6815139 C262.681454,44.6815139 257.960551,43.2503347 256.955687,45.0060444 Z" id="Path" fill="#3F3D56" fill-rule="nonzero"></path>
                <path d="M254.563333,39 C254.563333,39 254.05,39.373818 253.923333,41.8735225 C253.796667,44.373227 252,50 252,50 C252,50 258.666667,45.4979314 262,45.9985225 L254.563333,39 Z" id="Path" fill="#000000" fill-rule="nonzero" opacity="0.1"></path>
                <path d="M254.563333,38 C254.563333,38 254.05,38.3737075 253.923333,40.8759232 C253.796667,43.3781388 252,49 252,49 C252,49 258.666667,44.5025111 262,45.0029542 L254.563333,38 Z" id="Path" fill="#E7EFFD" fill-rule="nonzero"></path>
                <path d="M273.251354,37 L263,45.7328137 C263,45.7328137 271.626219,50.706323 272.750813,51.9205278 C273.875406,53.1347327 275,40.0339353 275,40.0339353 L273.251354,37 Z" id="Path" fill="#000000" fill-rule="nonzero" opacity="0.1"></path>
                <path d="M273.229082,37 L263,45.7320139 C263,45.7320139 271.620634,50.7055065 272.748172,51.9204777 C273.875711,53.1354489 275,40.0263828 275,40.0263828 L273.229082,37 Z" id="Path" fill="#E7EFFD" fill-rule="nonzero"></path>
                <path d="M262,228 C262,228 277.016915,229.296942 274.771052,230.977914 C272.525189,232.658885 267.19919,232.921642 266.942233,232.999122 C266.685277,233.076602 262,228 262,228 Z" id="Path" fill="#000000" fill-rule="nonzero" opacity="0.1"></path>
                <path d="M260,234 C260,234 268.729041,235.268451 268.994404,236.698832 C269.259766,238.129213 260,234 260,234 Z" id="Path" fill="#000000" fill-rule="nonzero" opacity="0.1"></path>
                <path d="M264,196 C264,196 271.554272,197.793333 272,199 L264,196 Z" id="Path" fill="#000000" fill-rule="nonzero" opacity="0.1"></path>
                <path d="M252,142 C252.440601,142 259.281332,139.010776 261.663838,140.34124 C264.046345,141.671704 267,141.667384 267,141.667384 L252,142 Z" id="Path" fill="#000000" fill-rule="nonzero" opacity="0.1"></path>
                <path d="M254,149.420791 L253.930566,150.038614 L248.022043,165.321614 C248.022043,165.321614 247.069802,169.945534 246.239897,172.572909 C245.719196,174.356577 245.305188,176.168711 245,178 L250.247245,146 L254,149.420791 Z" id="Path" fill="#000000" fill-rule="nonzero" opacity="0.1"></path>
                <path d="M263,121.960466 L260.525705,122 L260.44942,122 L259,116.106437 C259.713101,116.072985 260.426202,116.039534 261.145937,116 L263,121.960466 Z" id="Path" fill="#3F3D56" fill-rule="nonzero"></path>
                <path d="M260,107 C260.373818,106.628393 269.000887,93.9517568 271,95.0698084 L260,107 Z" id="Path" fill="#000000" fill-rule="nonzero" opacity="0.1"></path>
                <path d="M275.999602,24.1614679 C276.002657,26.6383905 275.393373,29.0774565 274.226242,31.2605158 L274.114793,31.2407963 C273.164193,31.0403139 272.669226,29.9261578 271.941526,29.2359726 C271.026868,28.3619827 269.658662,28.1690287 268.539036,28.7561295 C267.413685,29.432387 266.766376,30.6884332 266.867293,32 C266.388715,29.9754567 266.5395,27.8227362 266.070756,25.7949063 C265.602012,23.7670764 264.189225,21.7162403 262.258525,21.6800878 C261.425932,21.6800878 260.452387,21.9890278 259.852526,21.3514281 C259.488676,20.9734696 259.413283,20.3654493 259.141215,19.9217588 C257.761207,17.6803001 253.568737,18.8141758 251.844547,19.9611979 C250.185915,21.0654943 248.133931,22.9454273 246,23.9314062 C246.059742,15.6253393 252.823811,8.9404999 261.107972,9.00039942 C269.392134,9.06029894 276.059343,15.8422547 275.999602,24.1483216 L275.999602,24.1614679 Z" id="Path" fill="#000000" fill-rule="nonzero" opacity="0.1"></path>
                <path d="M275,256 C274.964661,256.200311 274.948597,256.321711 274.948597,256.321711 C274.948597,256.321711 273.711716,258.889329 266.855858,259.824112 C260,260.758894 260,257.663185 260,257.663185 C260,257.663185 260.025701,257.329334 260.070679,256.828558 C262.239238,257.602485 266.974727,258.473532 275,256 Z" id="Path" fill="#000000" fill-rule="nonzero" opacity="0.1"></path>
                <path d="M259.077684,19.8166834 C259.355101,20.27762 259.427758,20.8811485 259.794346,21.2591828 C260.398719,21.88924 261.379588,21.5675792 262.218445,21.5907918 C264.16367,21.6239527 265.587085,23.6965093 266.059356,25.7425372 C266.531626,27.788565 266.389614,29.9572882 266.861884,32 C266.760588,30.6767932 267.414369,29.4101323 268.549507,28.7303347 C269.676037,28.1387032 271.052585,28.3319678 271.974291,29.2111679 C272.707466,29.910863 273.206157,31.0317016 274.163907,31.2339831 C275.121658,31.4362646 276.046382,30.5143914 276.389852,29.4996677 C276.733321,28.484944 276.72011,27.3740537 276.938081,26.322853 C277.37072,24.3331987 278.662032,22.7049982 279.378694,20.8148266 C280.229292,18.5130495 280.205779,15.9773391 279.312642,13.6918642 C278.83707,12.4947555 278.127013,11.4170261 277.661348,10.2199174 C276.928174,8.4026998 276.736623,6.35335585 275.848227,4.62235659 C274.352155,1.72409347 270.831596,0.271645821 267.938528,1.3626396 C266.558046,1.88326582 265.359207,2.89135734 263.958909,3.35229392 C262.079737,3.9558224 260.075066,3.501518 258.129841,3.22959857 C256.184617,2.95767915 254.041237,2.93115042 252.479113,4.22442573 C250.682505,5.70008602 250.190419,8.47565379 248.516007,10.0972221 C247.80595,10.7770206 246.924159,11.2114285 246.174472,11.8414857 C245.424784,12.4715429 244.780779,13.4066804 244.853436,14.4313524 C244.965724,15.7577886 246.253734,16.9515812 245.778161,18.1752186 C245.606135,18.5287267 245.367206,18.8452223 245.07471,19.10704 C243.658361,20.5951079 242.605775,22.3932948 242,24.3597274 C245.398363,25.4241925 249.077447,21.6637458 251.73603,19.8863213 C253.456679,18.702477 257.687294,17.5716901 259.077684,19.8166834 Z" id="Path" fill="#7C5C5C" fill-rule="nonzero"></path>
            </g>
        </g>
    </g>
</svg>