<?xml version="1.0" encoding="UTF-8"?>
<svg width="80px" height="80px" viewBox="0 0 80 80" version="1.1" xmlns="http://www.w3.org/2000/svg" xmlns:xlink="http://www.w3.org/1999/xlink">
    <!-- Generator: Sketch 57.1 (83088) - https://sketch.com -->
    <title>Group</title>
    <desc>Created with Sketch.</desc>
    <g id="Designs" stroke="none" stroke-width="1" fill="none" fill-rule="evenodd">
        <g id="Payment-Success" transform="translate(-147.000000, -199.000000)" fill-rule="nonzero">
            <g id="Group" transform="translate(147.000000, 199.000000)">
                <circle id="Oval" fill="#FFFFFF" cx="40.6465016" cy="41.9093333" r="29.904"></circle>
                <path d="M80,39.9994154 C80,56.1776688 70.2544553,70.7629071 55.3076982,76.9540566 C40.360941,83.1452061 23.1564794,79.7230259 11.7167267,68.2832733 C0.276974062,56.8435206 -3.14520614,39.639059 3.04594338,24.6923018 C9.2370929,9.74554469 23.8223312,-9.9475983e-14 40.0005846,-9.9475983e-14 C62.0916517,-9.9475983e-14 80,17.9083483 80,39.9994154 Z M58.5132227,20.7087522 C57.5682193,19.7637493 56.0360666,19.7637493 55.0910632,20.7087522 L40,35.799816 L24.9089366,20.7087522 C23.9639332,19.7637493 22.4317805,19.7637493 21.4867771,20.7087522 L20.7087533,21.4867761 C20.2549462,21.9405827 20,22.5560767 20,23.1978565 C20,23.8396362 20.2549462,24.4551303 20.7087533,24.9089368 L35.7998154,40 L20.7087533,55.0910632 C20.2549462,55.5448697 20,56.1603638 20,56.8021435 C20,57.4439233 20.2549462,58.0594173 20.7087533,58.5132239 L21.4867771,59.2912478 C22.4317805,60.2362507 23.9639332,60.2362507 24.9089366,59.2912478 L40,44.200184 L55.0910632,59.2912478 C56.0360666,60.2362507 57.5682193,60.2362507 58.5132227,59.2912478 L59.2912477,58.5132239 C60.2362508,57.5682201 60.2362508,56.036067 59.2912477,55.0910632 L44.2001844,40 L59.2912477,24.9089368 C60.2362508,23.963933 60.2362508,22.4317799 59.2912477,21.4867761 L58.5132227,20.7087522 Z" id="Shape" fill="#FF6585"></path>
            </g>
        </g>
    </g>
</svg>