<svg xmlns="http://www.w3.org/2000/svg" xmlns:xlink="http://www.w3.org/1999/xlink" width="80" height="80" version="1.1" viewBox="0 0 80 80"><title>Group1</title><desc>Created with Sketch.</desc><g id="Designs" fill="none" fill-rule="evenodd" stroke="none" stroke-width="1"><g id="Payment-Success" fill-rule="nonzero" transform="translate(-147.000000, -199.000000)"><g id="Group1" transform="translate(147.000000, 199.000000)"><circle id="Oval" cx="40.647" cy="43.909" r="29.904" fill="#FFF"/><path id="Shape" fill="#3ACC6C" d="M79.9371683,39.968 C79.9371683,56.133547 70.1992777,70.7073301 55.2642597,76.8936172 C40.3292417,83.0799042 23.1382923,79.6604117 11.7075244,68.2296438 C0.276756528,56.7988759 -3.1427359,39.6079266 3.04355111,24.6729086 C9.22983812,9.73789057 23.8036213,-9.9475983e-14 39.9691683,-9.9475983e-14 C62.0428851,-9.9475983e-14 79.9371683,17.8942831 79.9371683,39.968 Z M35.3505016,61.1253333 L64.9985016,31.4773333 C65.4831222,30.9940384 65.7554909,30.3377536 65.7554909,29.6533333 C65.7554909,28.9689131 65.4831222,28.3126283 64.9985016,27.8293333 L61.3505016,24.208 C60.8681186,23.7237019 60.2127164,23.4514645 59.5291683,23.4514645 C58.8456202,23.4514645 58.1902179,23.7237019 57.7078349,24.208 L33.5265016,48.3893333 L22.2358349,37.072 C21.2268448,36.068558 19.5968251,36.068558 18.5878349,37.072 L14.9398349,40.7413333 C13.9363929,41.7503235 13.9363929,43.3803432 14.9398349,44.3893333 L31.7025016,61.1466667 C32.1857966,61.6312872 32.8420813,61.9036559 33.5265016,61.9036559 C34.2109219,61.9036559 34.8672066,61.6312872 35.3505016,61.1466667 L35.3505016,61.1253333 Z"/></g></g></g></svg>