<?xml version="1.0" encoding="UTF-8"?>
<svg width="331px" height="254px" viewBox="0 0 331 254" version="1.1" xmlns="http://www.w3.org/2000/svg" xmlns:xlink="http://www.w3.org/1999/xlink">
    <!-- Generator: Sketch 55.2 (78181) - https://sketchapp.com -->
    <title>Group 5</title>
    <desc>Created with Sketch.</desc>
    <g id="Page-1" stroke="none" stroke-width="1" fill="none" fill-rule="evenodd">
        <g id="3.-SOMETHING-WENT-WRONG" transform="translate(-27.000000, -59.000000)">
            <g id="Group-5" transform="translate(27.000000, 59.000000)">
                <path d="M24,239.573359 C24,239.573359 29.1016641,239.427616 30.6471193,238.404314 C32.1925746,237.381011 38.5006908,236.162351 38.8829002,237.802736 C39.2651096,239.443121 46.5536759,245.955045 40.7906234,245.998458 C35.027571,246.041871 27.4000015,245.161211 25.864517,244.286752 C24.3290324,243.412294 24,239.573359 24,239.573359 Z" id="Path" fill="#000000" fill-rule="nonzero" opacity="0.103376116"></path>
                <ellipse id="Oval" fill="#F54E5E" fill-rule="nonzero" opacity="0.1" cx="115.5" cy="243" rx="57.5" ry="11"></ellipse>
                <path d="M192.314015,36.5981135 C171.094212,35.8621866 150.88425,28.9957261 131.58577,21.4853296 C112.28729,13.974933 93.1724171,5.65633109 72.4608133,1.67772645 C59.1394192,-0.881590654 43.9032592,-1.2462687 33.1720451,5.90273518 C22.8408335,12.8020496 19.5031079,24.6787265 17.7096541,35.7077734 C16.3588261,44.006663 15.5653785,52.7425092 19.2637621,60.5124514 C21.8342699,65.9070582 26.3916752,70.4408934 29.5457931,75.6088084 C40.5196316,93.5864505 32.7622065,115.756247 20.8736082,133.310075 C15.2998031,141.543256 8.82435313,149.408475 4.51940841,158.164033 C0.214463683,166.919592 -1.77571259,176.98602 1.99152388,185.941987 C5.72269456,194.812534 14.6178317,201.462159 24.253957,206.143837 C43.8245702,215.655035 66.8771721,218.375336 89.3723936,219.919468 C139.15303,223.329701 189.195963,221.854562 239.107748,220.372852 C257.579994,219.827477 276.130929,219.272247 294.301533,216.410674 C304.393399,214.820546 314.809857,212.297368 322.137771,206.206259 C331.43619,198.475742 333.741122,185.386757 327.508296,175.694863 C317.055773,159.432193 288.16379,155.394451 280.848991,137.945757 C276.829294,128.339283 280.957188,117.64206 286.803126,108.735374 C299.340909,89.6242728 320.354154,72.8589388 321.459079,51.0176806 C322.219739,36.0165999 312.118037,20.9925214 296.498268,13.8927983 C280.127675,6.45139495 257.422616,7.38773047 245.35041,19.7046494 C232.90771,32.3731048 211.051837,37.2519057 192.314015,36.5981135 Z" id="Path" fill="#F54E5E" fill-rule="nonzero" opacity="0.1"></path>
                <path d="M214.998315,77.7458761 C214.998315,77.7458761 215.339771,65.4320558 206.301417,67.1676258 C206.301417,67.1676258 204.682913,66.9316917 204,68.3343683 C204,68.3343683 204.682913,68.3343683 204.491697,69.5786782 C204.429145,70.0223653 204.422268,70.4714989 204.47121,70.9167154 C204.532937,71.5206015 204.802917,72.0884756 205.239487,72.5327023 L205.239487,72.5327023 C205.239487,72.5327023 206.868235,75.9392027 212.881284,77.0962493 C212.881284,77.0962493 214.216379,78.0496816 214.551007,77.99797 L213.526637,75.9553626 C213.526637,75.9553626 211.97301,76.7116445 210.637915,76.1977606 C210.637915,76.1977606 213.472004,76.0393939 213.393469,75.6450931 C213.393469,75.5642938 212.806164,74.5817737 212.806164,74.5817737 C212.806164,74.5817737 210.094999,75.8907231 208.063333,75.0310181 C208.063333,75.0310181 211.477898,75.2734161 212.594461,74.2100967 L211.641797,72.7783323 C211.641797,72.7783323 208.848683,74.2908961 206.492633,73.3988713 C206.492633,73.3988713 210.060853,73.5346142 211.413021,72.4777588 L210.275971,71.1849692 C210.275971,71.1849692 207.520417,72.6135017 205.567285,71.8572198 C205.567285,71.8572198 209.705739,71.6212857 210.00622,70.9070195 C210.00622,70.9070195 208.886243,69.7855246 208.43552,69.6142299 C208.43552,69.6142299 206.434585,70.5838221 205.341924,70.0602423 C205.341924,70.0602423 208.073576,69.6271578 208.090649,69.3395122 C208.090649,69.3395122 206.222882,68.243873 204.962907,68.1630737 C206.124746,68.1827348 207.260849,68.4902961 208.257963,69.0550985 C208.102395,68.3944836 207.746361,67.7912615 207.233593,67.3195285 C207.233593,67.3195285 208.534543,67.4585034 208.7121,69.3233523 C208.7121,69.3233523 210.135974,70.2347689 210.228167,70.4868629 C210.228167,70.4868629 210.32719,68.622014 209.756957,67.510215 C209.756957,67.510215 211.013517,68.4636473 210.542307,70.8165242 L211.713503,72.0899219 C211.713503,72.0899219 211.979839,69.6271578 211.553019,68.6026221 C211.553019,68.6026221 212.672996,69.7629007 211.983254,72.4325111 L212.929088,73.8254918 C212.929088,73.8254918 213.332007,71.7214769 213.116889,70.4836309 C213.116889,70.4836309 213.909069,71.7764204 213.185181,74.2359525 L213.704195,75.2378644 C213.704195,75.2378644 213.967116,73.6962129 214.001262,73.2469685 C214.035407,72.7977242 214.165161,72.7686364 214.165161,72.7686364 C214.370708,73.7327644 214.289138,74.7319921 213.929556,75.654789 C213.929556,75.654789 214.848074,77.7878917 214.998315,77.7458761 Z" id="Path" fill="#6C63FF" fill-rule="nonzero"></path>
                <path d="M81.6576347,132.506308 C83.0020425,132.059727 84.3464503,131.613147 85.688881,131.168325 C86.0783639,131.039977 86.5904251,130.681306 87.0135182,130.707679 C87.1894774,130.718228 87.4702214,130.742842 87.5829144,130.93976 C89.5283516,134.239884 90.805539,134.971291 91.8138449,137.416935 C91.9917812,137.84945 91.6833583,140.731124 91.3077149,140.652006 C91.6022984,142.044493 91.7011519,142.568434 91.958171,143.964437 C92.0906348,144.683537 92.0174832,150.522489 90.0680918,149.66625 C89.4136815,149.377907 89.9811007,145.546809 89.7240816,144.920893 C89.2476076,143.758729 88.8245146,142.139435 88.3124534,141.170672 C88.4646878,143.14512 88.8897579,147.231156 89.0439694,149.205604 C89.0953732,149.880749 89.032107,150.736988 88.3658343,150.962037 C87.909131,151.114999 87.5670979,150.780943 87.2843768,150.402932 C86.9996787,150.023163 86.7604532,149.186264 86.6695079,148.732651 C86.248392,146.62458 85.8351843,144.439149 85.2064759,142.155259 C85.1471638,144.425083 85.7778492,147.123906 86.0348684,149.506255 C86.0763868,149.877233 85.7758721,150.640288 85.3982517,150.73523 C85.068081,150.819623 84.6370796,150.717648 84.449258,150.439854 C83.7236731,149.363841 83.5200349,147.80081 83.2452221,146.571834 C82.8142208,144.646615 82.4603252,142.978092 81.9700118,142.550852 C82.4978895,144.296735 82.5710411,144.757381 83.5912094,148.614852 C83.6762235,148.934843 83.5338744,149.952835 83.1898642,149.980966 C82.9110972,150.005581 82.0095532,149.402522 81.8948831,149.158133 C79.8229134,144.708152 79.8446612,143.56357 78.8936903,140.912218 C78.0020316,138.429653 78.7276164,132.557295 78,130.000886 C77.984238,129.944624 81.4124779,132.587185 81.6576347,132.506308" id="Fill-225" fill="#F3BDB1"></path>
                <path d="M143,243.624647 L142.01613,240.452841 L132.289448,233.398961 L128.843104,229.681351 L118.003734,229 L118,237.526827 L123.843477,237.958771 L128.02539,241.640235 L136.536704,243.810799 L142.268165,245 C142.507132,244.539139 142.744231,244.078279 143,243.624647" id="Fill-226" fill="#5C3820"></path>
                <path d="M141.90907,244.620995 C141.934531,244.379811 141.965447,244.125932 142,243.87024 L136.61514,242.666129 L128.336895,240.419303 L124.12321,236.475116 L118.09093,236 L118,237.146081 L123.628552,237.590369 L127.754944,241.454765 L136.460559,243.817651 L141.874517,245 L141.90907,244.620995" id="Fill-227" fill="#0A0B09"></path>
                <polyline id="Fill-228" fill="#6E4224" points="100 231.898643 100 241.175802 105.417656 241.734532 107.306364 241.734532 113.739492 245.634388 132 246 132 242.229514 119.418219 237.928422 114.666742 233.734201 111.263827 229 100 231.898643"></polyline>
                <polyline id="Fill-229" fill="#0A0B09" points="132 246 113.563045 245.637044 107.129916 241.743686 100 241.188026 100 240 107.482811 240.55753 113.91774 244.449018 132 244.811974 132 246"></polyline>
                <path d="M106.633176,116.358 C105.821176,116.358 106.363176,116.467 107.747176,116.642 C107.397176,116.46 107.025176,116.358 106.633176,116.358" id="Fill-230" fill="#2C3139"></path>
                <path d="M134.236605,139.612525 L130.63942,117 C130.63942,117 111.946356,118.276455 107,117.041408 C109.938877,120.069614 105.421145,139.319066 107.862673,139.659335 C110.624313,140.046412 113.427549,150.137431 114.245009,152.198844 C115.057043,154.244053 115.17279,156.643933 115.512795,158.795364 C115.972164,161.684942 116.704623,164.459297 117.362931,167.305667 C117.402719,167.476701 117.449741,167.658538 117.583573,167.76836 C117.711979,167.87098 117.885599,167.887183 118.048368,167.899786 C118.811571,167.955597 120.491705,168.274261 119.260089,169.341875 C118.976149,169.588524 118.614441,169.732553 118.323266,169.972001 C118.032091,170.211449 117.813258,170.614729 117.966984,170.956798 C118.09539,171.239454 118.424544,171.374481 118.731996,171.412289 C119.041256,171.451897 119.359559,171.423091 119.657968,171.509508 L119.900312,171.662539 L119.9401,171.939794 C119.860524,173.048816 119.668819,173.761759 119.066576,174.654738 C118.72657,175.155238 117.733682,176.336274 118.618058,176.81697 C119.053916,177.051017 119.489774,177.288665 119.923823,177.524512 L120.108294,177.66674 C120.269254,177.911589 119.931057,178.16364 119.683287,178.31307 C119.077427,178.676743 118.708485,179.346477 118.554759,180.034214 C118.193051,181.636535 118.835082,183.454899 118.73923,185.127434 C118.41731,190.751759 117.605276,196.332876 117.041011,201.937397 C116.538237,206.922595 116.601536,211.149841 118.815189,215.648941 C118.992425,216.009013 119.157002,216.39249 119.137109,216.79037 C119.099129,217.512314 118.489651,218.050622 118.032091,218.610534 C117.570913,219.170446 117.25261,220.050822 117.76081,220.567526 C118.176774,220.98881 119.028596,221.032019 119.113598,221.615335 C119.202216,222.220256 118.372096,222.457904 117.892833,222.841381 C116.606962,223.867586 118.051985,227.416096 117.950707,228.903194 L130.210796,230 C130.983042,230.066227 132.211041,221.507314 132.438917,220.513515 C132.051889,220.824977 131.408049,220.961805 131.015596,221.276868 C131.333899,217.834579 132.838604,215.353682 131.887312,211.69355 C131.223578,209.14424 132.956159,205.455301 133.417336,202.857382 C134.008729,199.55012 134.706825,196.280665 135.453752,193.002209 C136.236849,189.574323 136.130146,185.876383 136.638345,182.394487 C137.866344,173.952597 135.602052,167.37228 135.249387,159.007807 C134.976297,152.508506 135.269281,146.106425 134.236605,139.612525" id="Fill-231" fill="#1F2327"></path>
                <path d="M128.814217,58.3913296 L121.23088,57.106672 L116.319732,58.5441784 C116.319732,58.5441784 109.26428,54.5337176 109.187828,54.0351394 C109.111376,53.5347416 103.017038,58.5441784 103.017038,58.5441784 C102.740353,58.7734516 105.922224,65.2695247 106.126097,65.7408084 C108.082911,70.23711 110.640421,74.5423506 111.217454,79.4080367 C112.178568,87.5017435 112.369699,95.6846121 111.789025,103.814711 C111.530544,107.453968 110.594914,110.798445 110.239957,114.377654 C109.82311,118.586454 109.406263,122.795254 108.989416,127.004055 C108.973034,127.178739 108.956651,127.362522 109.022181,127.524468 C109.169625,127.882935 109.626518,127.973917 110.014241,128.001211 C113.50192,128.254139 117.118841,127.455323 120.448155,128.527084 C122.239322,129.102086 123.974061,130.217518 125.836219,129.96277 C126.972082,126.934909 128.178935,123.928883 129.602404,121.022936 C130.630869,118.919446 132.56948,116.6995 131.839543,114.246641 C131.155113,111.95027 130.315958,109.870434 129.760769,107.488541 C129.090902,104.60443 128.093382,101.800383 127.625567,98.8689616 C126.990285,94.8857952 127.001206,90.8043689 127.640129,86.8248418 C128.218982,83.2419936 129.376688,80.2323284 130.629048,76.8987693 C131.233385,75.2865786 128.814217,58.3913296 128.814217,58.3913296" id="Fill-232" fill="#1C8A85"></path>
                <path d="M102.950423,116 C101.434319,116 92,129.752119 92,129.752119 L92,145.837154 C92.3851819,148.382974 92.7703639,150.928794 93.1573046,153.476418 C93.449269,155.412396 93.7429922,157.350178 94.0367154,159.28796 C94.1598329,160.107097 94.4183797,160.947886 94.5203913,161.752588 C94.6980323,163.11481 94.3673739,164.657457 94.2548093,166.0287 L94.2847092,166.252429 C94.3708915,166.394966 94.5784325,166.340838 94.7420029,166.353468 C95.19402,166.387749 95.3751786,167.022851 95.1887435,167.446853 C95.0058261,167.870856 94.6100912,168.148713 94.3040563,168.489719 C93.9980213,168.83253 93.7728922,169.350354 94.001539,169.749097 C94.7859734,169.725642 95.5739255,169.8772 96.2932835,170.192947 C95.4050786,171.493823 94.6171265,172.865065 93.9382214,174.29224 C95.4912609,173.474907 93.2593163,180.823685 93.4756513,181.336096 C93.7095746,181.899027 94.603056,182.144408 94.8915027,181.608541 C93.7500275,183.723141 94.4781796,189.125115 94.0455095,191.66913 C93.5090689,194.826597 93.6093218,201.296696 93.6093218,201.296696 C93.6093218,201.296696 96.288007,210.527323 97.0953061,214.292827 C97.6616467,216.934273 97.2729471,221.365552 99.2129273,223.339419 C99.4222271,223.552323 99.6614268,223.763422 99.7317797,224.055713 C99.9604265,224.99754 98.3159283,225.706617 98.683522,226.599729 C98.9051336,227.133791 99.6280092,227.122966 100.192591,227.178898 C102.171265,227.373759 98.9561394,229.661569 100.757173,231.117612 C101.810707,231.97103 104.396175,231.604764 105.664285,231.660696 C107.743212,231.752713 114.428493,233.010287 114.535781,230.011596 C114.558646,229.372886 114.359899,228.74861 114.129493,228.155006 C113.726723,227.122966 113.225459,226.132424 112.630977,225.203226 C112.472683,224.954238 112.303836,224.699836 112.266901,224.407545 C112.214137,223.963695 112.470924,223.550518 112.553589,223.113886 C112.696054,222.370528 112.331978,221.632583 112.254589,220.880204 C112.131472,219.662324 112.905353,218.909945 113.095306,217.812951 C113.228977,217.037116 113.010883,216.030336 112.975706,215.238263 C112.882489,213.046079 112.824448,210.848483 112.752336,208.654495 C112.666154,205.930052 112.650324,203.191176 112.474442,200.470342 C112.068154,194.177061 110.052545,187.786349 112.168407,181.877376 C114.486534,175.407277 113.705617,169.550628 114.565681,162.779216 C115.510168,155.34203 117.450148,147.973406 119.291635,140.700408 C120.862262,134.502752 122.429372,128.305097 124,122.107442 C124,122.107442 104.468286,116 102.950423,116" id="Fill-233" fill="#262A2E"></path>
                <polyline id="Fill-234" fill="#E8ADA4" points="123 49.0269248 122.436977 54.3518411 117.657663 59 106 53.2421045 107.082315 45.7613884 108.060772 34 123 49.0269248"></polyline>
                <path d="M113.736997,33.4343066 C113.736997,31.5036496 117.266572,30.3448905 119.615917,31.1186131 C123.404883,33.1532847 127.79786,33.399635 132,33.4306569 L132,31.9744526 L131.321877,27.8394161 L122.309881,25 C122.309881,25 113.724028,26.0857664 113.283062,25.9580292 C112.673493,25.7828467 110.900368,29.6843066 110.648388,30.1952555 C110.253742,30.9927007 110.44458,31.8631387 110.122194,32.6551095 C109.851686,33.3211679 109.123537,33.7518248 108.73445,34.3576642 C108.295338,35.0419708 108.032241,35.8375912 108.002596,36.6478102 C107.928484,38.649635 109.458893,39.4580292 110.33156,41.0693431 C110.867017,42.0583942 109.97397,43.189781 110.442727,44.1113139 C110.728058,44.6751825 111.622958,45.2481752 112.076893,45.6843066 C112.516005,46.1076642 112.979204,46.7354015 113.503545,47.0583942 L120.820233,51.5656934 C120.820233,51.5656934 126.825143,52 127.156793,52 C127.484738,52 128.698319,50.2645985 128.698319,50.2645985 L128.698319,47.0583942 L129.087406,46.1824818 C121.387189,45.6405109 114.044561,41.330292 113.736997,33.4343066" id="Fill-235" fill="#F3BDB1"></path>
                <path d="M130.655981,42.968865 L131.457644,37.9420093 L132,36.5060203 L132,33.5034978 C127.858375,33.473097 123.52866,33.2316792 119.794258,31.2377467 C117.478746,30.4795159 114,31.6150739 114,33.5070743 C114.303135,41.2449629 121.540022,45.4688808 129.12935,46 L129.395962,45.4045027 L130.655981,42.968865" id="Fill-236" fill="#EBB1A7"></path>
                <polyline id="Fill-237" fill="#1F2327" points="103 116 131 116.525277 131 122.913687 103 125 103 116"></polyline>
                <path d="M131.213313,28.2402944 C131.903258,29.7103486 132.180337,31.3816063 131.879404,33.2631307 C131.950967,32.8172203 129.321469,30.848689 128.879244,30.527851 C127.378246,29.4348267 126.113959,29.010668 124.225785,28.9726025 C122.021997,28.9290991 120.163183,28.4342473 118.067658,27.9937748 C118.19427,29.6378428 118.363087,31.1169603 117.98692,32.7664662 C117.636443,34.299963 116.85475,35.603254 116.357475,37.0696829 C115.979474,38.1844589 116.003328,39.5965085 115.366597,40.6079638 C115.304208,40.7076592 113.327956,40.2889385 113.120606,40.2363718 C113.643569,38.7355026 113.583016,36.0219747 112.582962,34.6987446 C111.687502,33.5150882 110.067232,33.7616077 109.2415,34.8310676 C108.215757,36.1524851 108.006571,38.5415497 108.725876,40.0242925 C109.120392,40.8399822 110.052552,41.0629374 109.652531,42.1360226 C109.247005,43.223609 108.171718,44.124493 107.441404,45 C107.725823,44.6592229 105.265141,40.0406063 105.041276,39.4351832 C104.461428,37.8636209 103.892591,36.3555012 104.017368,34.6769929 C104.248573,31.5846224 103.565968,27.0638885 105.689017,24.5225617 C108.085475,21.6567717 111.876503,19.7843105 115.6712,20.0199542 C121.054973,20.3534807 128.754466,23.0035661 131.213313,28.2402944" id="Fill-238" fill="#635754"></path>
                <path d="M122.336743,54.4555742 L117.670729,57.6376471 C117.670729,57.6376471 107.378103,52.9640336 106.894246,48 C103.983991,52.3061064 104,53.8944538 104,53.8944538 L111.787958,64 L117.670729,59.0359664 L124,64 L122.336743,54.4555742" id="Fill-239" fill="#23A3A8"></path>
                <polyline id="Fill-240" fill="#2C3139" points="122.690859 54.0341292 133.039081 56.5985846 133.444354 78.6571863 131.799421 95.5315166 134 127.86937 121.332002 132 118.005461 103.307031 117.807409 132 89 129.964151 95.7025959 89.529334 91.7818982 57.1718368 105.238437 51 117.807409 84.8379522 122.690859 54.0341292"></polyline>
                <path d="M95.8259216,59.1074596 L91.8166287,57 L86.127285,59.2103065 C85.5048458,59.5585425 84.8503037,61.8698916 84.5524604,62.4923861 C83.4894983,64.7081055 84.6238001,66.6694142 83.5608381,68.8851337 C81.1584726,73.8921545 80.9926077,78.799937 81.0603804,84.2472148 C81.0782154,85.62392 81.0764319,87.0782114 80.3951374,88.2708747 C80.2292725,88.5613722 80.0188203,88.8500653 80.0081194,89.1874753 C79.9902844,89.7648615 80.5627858,90.2033141 80.639476,90.7770916 C80.6947643,91.1902836 80.4825286,91.583628 80.3255812,91.9679506 C79.8083681,93.2291786 80.1293969,94.5084498 79.9278622,95.7805038 C79.4231336,98.9615408 78.5456549,102.350076 78.7026023,105.578026 L79.0860533,105.460744 C78.8113954,108.095068 77.6093209,110.258462 77.158097,112.822418 C76.5160395,116.463559 78.0694621,130.333458 77.5790015,134 C80.6590944,133.801384 90.3006593,133.998056 90.3149273,134 C91.1371177,134.061208 91.6792997,113.892387 91.3671883,112.779114 C90.794687,110.731197 90.787553,111.090259 91.8826179,108.917844 C92.6049327,107.487009 92.8082509,106.236607 92.9188275,104.64699 C93.1578156,101.242216 93.2737427,97.8212031 93.4574425,94.4110159 L98,78.3416367 L95.8259216,59.1074596" id="Fill-241" fill="#353A42"></path>
                <path d="M121.205012,65.5332586 C123.252199,60.5435621 120.695548,59 120.695548,59 L117.017329,59 L115,61.7135347 L118.398294,66.6376253 L115.126899,78.3227728 L118.36097,85 L122,69.2071914 L121.205012,65.5332586" id="Fill-242" fill="#4F214E"></path>
                <path d="M120,89.5 C120,90.3297143 119.102227,91 117.998858,91 C116.893204,91 116,90.3297143 116,89.5 C116,88.672 116.893204,88 117.998858,88 C119.102227,88 120,88.672 120,89.5" id="Fill-243" fill="#1F2327"></path>
                <path d="M120,98.4991433 C120,99.3283838 119.102227,100 117.998858,100 C116.893204,100 116,99.3283838 116,98.4991433 C116,97.6716162 116.893204,97 117.998858,97 C119.102227,97 120,97.6716162 120,98.4991433" id="Fill-244" fill="#1F2327"></path>
                <path d="M121,105.998858 C121,107.104512 120.328384,108 119.500857,108 C118.671616,108 118,107.104512 118,105.998858 C118,104.895488 118.671616,104 119.500857,104 C120.328384,104 121,104.895488 121,105.998858" id="Fill-245" fill="#1F2327"></path>
                <polyline id="Fill-246" fill="#1F2327" points="98 54 102.358228 59.0415034 99.9307419 63.0138698 117 88 98 64.0254103 101.121054 59.0415034 98 54"></polyline>
                <polyline id="Fill-247" fill="#1F2327" points="120 86 127.151055 62.7513463 125.767089 58.9151659 125.542616 55 126.481013 58.8128438 128 62.5484973 120 86"></polyline>
                <path d="M141.7219,47.1834247 C140.861449,45.4744926 138.269451,42.4031067 137.712376,41.6704494 C136.387104,39.9344487 130.259274,32.6223125 130.204276,32.5068198 L123.239058,31 L116.95688,31.6983704 L117.215902,33.4181299 C117.215902,33.4181299 117.602661,33.5065541 118.133125,33.6292651 L124.823353,33.6292651 L128.344992,34.3583133 L119.540006,34.1977061 C118.227153,34.2049244 117.283319,34.8148706 116.066268,34.7535151 C116.351903,35.8380644 115.358392,36.3902642 116.832691,36.650123 C117.439442,36.7583975 118.108287,36.8269713 118.723909,36.7854661 C120.114823,36.688019 121.521705,36.2495074 122.884233,35.9625801 L128.857714,37.4892502 L122.240226,36.7259151 L116.985266,37.837533 C117.029619,38.4294335 117.214128,39.106149 117.214128,39.106149 C117.214128,39.106149 117.568953,39.301043 118.028451,39.5193965 C119.10712,39.2126189 120.687866,38.9311052 122.573761,39.144045 C124.952864,39.4147312 126.686185,40.3458917 127.576796,40.9107235 C126.428936,40.6003367 124.894318,40.3079956 123.074065,40.2899499 C121.826854,40.2773179 120.705607,40.3946152 119.745805,40.5642452 C119.745805,40.9774928 119.745805,41.5170606 119.745805,41.5314972 C119.744031,42.8957556 122.376833,42.5492772 123.251477,42.6196557 C124.445464,42.7152981 126.287006,42.7080798 127.282291,43.5111155 C128.332573,44.357461 128.824006,45.9111997 129.929286,46.8116824 C132.159362,48.628889 135.395367,48.7822778 137.561575,50.6788857 C137.760277,50.8521248 137.996236,51.0524326 138.249936,50.9874679 C138.4238,50.9423536 138.542666,50.7853556 138.652662,50.6427942 C139.213286,49.9245735 139.946,49.3453051 140.76742,48.968149 C141.191436,48.7732549 141.661579,48.6126478 141.941891,48.2372963 C142.074951,48.0586434 141.970277,47.6778782 141.7219,47.1834247" id="Fill-248" fill="#F6D3C5"></path>
                <path d="M121,34.392 C120.595486,34.286 119.020833,33.874 118,33.608 L119.376736,34.238 C119.9375,34.236 120.486111,34.27 121,34.392" id="Fill-249" fill="#F0AEA0"></path>
                <path d="M133.252045,56.0806178 L144.729469,67.8621209 C144.729469,67.8621209 136.983568,50.7964777 136.785931,50.4708043 C136.519394,50.0216613 141.005199,43.5439819 141.46756,43 C144.767546,45.2457148 146.181825,47.786683 149.082912,50.5137502 C149.809997,51.1973065 150.531642,51.9059145 151.028453,52.7666227 C151.351199,53.3284988 151.771857,55.8318892 152.707457,54.4200414 L153.682947,55.731682 C154.012946,56.5029196 154.422724,57.2491053 154.91047,57.9344509 C155.303929,58.4873799 155.869641,58.8112639 156.237717,59.37314 C157.267602,60.9406668 158.417158,63.6176304 159.305616,65.2621021 C160.788796,68.3864193 160.39715,71.9509324 162,75.0305142 C160.765225,76.3886796 159.528637,77.7504238 158.295675,79.1085892 L151.159002,81 L133.485945,79.9191938 C132.747981,76.8771897 132.087984,72.9798455 132.008204,68.4329441 C131.921171,63.5048973 132.539465,59.2979846 133.252045,56.0806178" id="Fill-250" fill="#353A42"></path>
                <polyline id="Fill-251" fill="#566767" points="191 66 185.939429 206 181 204.860308 186.23642 67.6301926 191 66"></polyline>
                <polyline id="Fill-252" fill="#566767" points="206.24408 116 219 242 212.853614 240.62129 201 117.387757 206.24408 116"></polyline>
                <polyline id="Fill-253" fill="#566767" points="175 121.133733 158.52567 221 155 219.037373 171.101772 121 175 121.133733"></polyline>
                <polyline id="Fill-254" fill="#819899" points="223 60 221.200565 154 161 153.202958 164.173158 80.6812374 223 60"></polyline>
                <polyline id="Fill-255" fill="#FFFFFE" points="217 66 215.241398 146.119055 165 147 167.755562 82.4725875 217 66"></polyline>
                <polyline id="Fill-256" fill="#566767" points="224 149 223.892336 155 159 153.869921 159.195255 149.349606 224 149"></polyline>
                <polyline id="Fill-257" fill="#566767" points="184 78 191.855584 75.0562771 192 70 184.154492 73.1226551 184 78"></polyline>
                <g id="file" transform="translate(179.000000, 92.000000)">
                    <g id="Group-2">
                        <g id="Group" fill-rule="nonzero">
                            <polygon id="Path" fill="#EFEFEF" points="24.5684444 9.05172414 16.3982301 0 1.54289851 3.28147213 0 34.3269231 25 35"></polygon>
                            <g transform="translate(2.868852, 8.045977)" fill="#CBE8E8" id="Path">
                                <path d="M0.714845364,6.03107152 L16.0329603,6.03107152 C16.3711843,6.03107152 16.6456849,5.76148262 16.6456849,5.42796437 C16.6456849,5.09444611 16.3711843,4.82485722 16.0329603,4.82485722 L0.714845364,4.82485722 C0.376621386,4.82485722 0.102120766,5.09444611 0.102120766,5.42796437 C0.102120766,5.76148262 0.376621386,6.03107152 0.714845364,6.03107152 Z"></path>
                                <path d="M0.714845364,1.2062143 L6.84209134,1.2062143 C7.18031532,1.2062143 7.45481594,0.936625407 7.45481594,0.603107152 C7.45481594,0.269588897 7.18031532,0 6.84209134,0 L0.714845364,0 C0.376621386,0 0.102120766,0.269588897 0.102120766,0.603107152 C0.102120766,0.936625407 0.376621386,1.2062143 0.714845364,1.2062143 Z"></path>
                                <path d="M16.0329603,9.64971443 L0.714845364,9.64971443 C0.376621386,9.64971443 0.102120766,9.91930333 0.102120766,10.2528216 C0.102120766,10.5863398 0.376621386,10.8559287 0.714845364,10.8559287 L16.0329603,10.8559287 C16.3711843,10.8559287 16.6456849,10.5863398 16.6456849,10.2528216 C16.6456849,9.91930333 16.3711843,9.64971443 16.0329603,9.64971443 Z"></path>
                                <path d="M16.0329603,14.4745716 L0.714845364,14.4745716 C0.376621386,14.4745716 0.102120766,14.7441605 0.102120766,15.0776788 C0.102120766,15.4111971 0.376621386,15.6807859 0.714845364,15.6807859 L16.0329603,15.6807859 C16.3711843,15.6807859 16.6456849,15.4111971 16.6456849,15.0776788 C16.6456849,14.7441605 16.3711843,14.4745716 16.0329603,14.4745716 Z"></path>
                                <path d="M16.0329603,19.2994289 L0.714845364,19.2994289 C0.376621386,19.2994289 0.102120766,19.5690178 0.102120766,19.902536 C0.102120766,20.2360543 0.376621386,20.5056432 0.714845364,20.5056432 L16.0329603,20.5056432 C16.3711843,20.5056432 16.6456849,20.2360543 16.6456849,19.902536 C16.6456849,19.5690178 16.3711843,19.2994289 16.0329603,19.2994289 Z"></path>
                            </g>
                            <polygon id="Path" fill="#CBE8E8" points="16.3934426 0 16.3934426 8.63601533 24.5901639 9.25287356"></polygon>
                        </g>
                        <g id="Group" transform="translate(15.073529, 23.453608)" fill="#E02020" fill-rule="nonzero">
                            <path d="M4.96323529,10.8247423 C7.70435446,10.8247423 9.92647059,8.40154117 9.92647059,5.41237113 C9.92647059,2.4232011 7.70435446,0 4.96323529,0 C2.22211613,0 0,2.4232011 0,5.41237113 C0,8.40154117 2.22211613,10.8247423 4.96323529,10.8247423 Z" id="Oval"></path>
                        </g>
                        <polyline id="Fill-60" fill="#FFFFFE" points="17.6470588 30.4924186 18.2378233 31.0309278 22.7941176 26.8787155 22.2032195 26.3402062 17.6470588 30.4924186"></polyline>
                        <polygon id="Fill-60" fill="#FFFFFE" transform="translate(20.036765, 28.685567) rotate(90.000000) translate(-20.036765, -28.685567) " points="18.2297913 31.0752729 22.3821255 26.8445523 21.8436163 26.2958611 17.6914039 30.5265817"></polygon>
                    </g>
                </g>
            </g>
        </g>
    </g>
</svg>